  0
SECTION
  2
HEADER
  9
$ACADVER
  1
AC1014
  9
$HANDSEED
  5
FFFF
  9
$INSUNITS
 70
     4
  9
$MEASUREMENT
 70
     1
  0
ENDSEC
  0
SECTION
  2
TABLES
  0
TABLE
  2
VPORT
  5
8
330
0
100
AcDbSymbolTable
 70
     4
  0
VPORT
  5
2E
330
8
100
AcDbSymbolTableRecord
100
AcDbViewportTableRecord
  2
*ACTIVE
 70
     0
 10
0.0
 20
0.0
 11
1.0
 21
1.0
 12
210.0
 22
148.5
 13
0.0
 23
0.0
 14
10.0
 24
10.0
 15
10.0
 25
10.0
 16
0.0
 26
0.0
 36
1.0
 17
0.0
 27
0.0
 37
0.0
 40
341.0
 41
1.24
 42
50.0
 43
0.0
 44
0.0
 50
0.0
 51
0.0
 71
     0
 72
   100
 73
     1
 74
     3
 75
     0
 76
     0
 77
     0
 78
     0
  0
ENDTAB
  0
TABLE
  2
LTYPE
  5
5
330
0
100
AcDbSymbolTable
 70
     1
  0
LTYPE
  5
14
330
5
100
AcDbSymbolTableRecord
100
AcDbLinetypeTableRecord
  2
BYBLOCK
 70
     0
  3

 72
    65
 73
     0
 40
0.0
  0
LTYPE
  5
15
330
5
100
AcDbSymbolTableRecord
100
AcDbLinetypeTableRecord
  2
BYLAYER
 70
     0
  3

 72
    65
 73
     0
 40
0.0
  0
LTYPE
  5
16
330
5
100
AcDbSymbolTableRecord
100
AcDbLinetypeTableRecord
  2
CONTINUOUS
 70
     0
  3
Solid line
 72
    65
 73
     0
 40
0.0
  0
ENDTAB
  0
TABLE
  2
LAYER
  5
2
100
AcDbSymbolTable
 70
1
  0
LAYER
  5
50
100
AcDbSymbolTableRecord
100
AcDbLayerTableRecord
  2
0
 70
0
  6
CONTINUOUS
  0
ENDTAB
  0
TABLE
  2
STYLE
  5
3
330
0
100
AcDbSymbolTable
 70
     1
  0
STYLE
  5
11
330
3
100
AcDbSymbolTableRecord
100
AcDbTextStyleTableRecord
  2
STANDARD
 70
     0
 40
0.0
 41
1.0
 50
0.0
 71
     0
 42
2.5
  3
txt
  4

  0
ENDTAB
  0
TABLE
  2
VIEW
  5
6
330
0
100
AcDbSymbolTable
 70
     0
  0
ENDTAB
  0
TABLE
  2
UCS
  5
7
330
0
100
AcDbSymbolTable
 70
     0
  0
ENDTAB
  0
TABLE
  2
APPID
  5
9
330
0
100
AcDbSymbolTable
 70
     2
  0
APPID
  5
12
330
9
100
AcDbSymbolTableRecord
100
AcDbRegAppTableRecord
  2
ACAD
 70
     0
  0
ENDTAB
  0
TABLE
  2
DIMSTYLE
  5
A
330
0
100
AcDbSymbolTable
 70
     1
  0
DIMSTYLE
105
27
330
A
100
AcDbSymbolTableRecord
100
AcDbDimStyleTableRecord
  2
ISO-25
 70
     0
  3

  4

  5

  6

  7

 40
1.0
 41
2.5
 42
0.625
 43
3.75
 44
1.25
 45
0.0
 46
0.0
 47
0.0
 48
0.0
140
2.5
141
2.5
142
0.0
143
0.03937007874016
144
1.0
145
0.0
146
1.0
147
0.625
 71
     0
 72
     0
 73
     0
 74
     0
 75
     0
 76
     0
 77
     1
 78
     8
170
     0
171
     3
172
     1
173
     0
174
     0
175
     0
176
     0
177
     0
178
     0
270
     2
271
     2
272
     2
273
     2
274
     3
340
11
275
     0
280
     0
281
     0
282
     0
283
     0
284
     8
285
     0
286
     0
287
     3
288
     0
  0
ENDTAB
  0
TABLE
  2
BLOCK_RECORD
  5
1
330
0
100
AcDbSymbolTable
 70
     1
  0
BLOCK_RECORD
  5
1F
330
1
100
AcDbSymbolTableRecord
100
AcDbBlockTableRecord
  2
*MODEL_SPACE
  0
BLOCK_RECORD
  5
1B
330
1
100
AcDbSymbolTableRecord
100
AcDbBlockTableRecord
  2
*PAPER_SPACE
  0
ENDTAB
  0
ENDSEC
  0
SECTION
  2
BLOCKS
  0
BLOCK
  5
20
330
1F
100
AcDbEntity
  8
0
100
AcDbBlockBegin
  2
*MODEL_SPACE
 70
     0
 10
0.0
 20
0.0
 30
0.0
  3
*MODEL_SPACE
  1

  0
ENDBLK
  5
21
330
1F
100
AcDbEntity
  8
0
100
AcDbBlockEnd
  0
BLOCK
  5
1C
330
1B
100
AcDbEntity
 67
     1
  8
0
100
AcDbBlockBegin
  2
*PAPER_SPACE
  1

  0
ENDBLK
  5
1D
330
1B
100
AcDbEntity
 67
     1
  8
0
100
AcDbBlockEnd
  0
ENDSEC
  0
SECTION
  2
ENTITIES
  0
LWPOLYLINE
  5
100
100
AcDbEntity
  8
0
 62
7
100
AcDbPolyline
 90
2
 70
0
 10
23.380000
 20
214.380000
 30
0.0
 10
23.380000
 20
194.380000
 30
0.0
  0
LWPOLYLINE
  5
101
100
AcDbEntity
  8
0
 62
7
100
AcDbPolyline
 90
3
 70
0
 10
23.380000
 20
214.380000
 30
0.0
 10
27.380000
 20
214.380000
 30
0.0
 10
27.380000
 20
234.380000
 30
0.0
  0
LWPOLYLINE
  5
102
100
AcDbEntity
  8
0
 62
7
100
AcDbPolyline
 90
2
 70
0
 10
354.710000
 20
234.380000
 30
0.0
 10
27.380000
 20
234.380000
 30
0.0
  0
LWPOLYLINE
  5
103
100
AcDbEntity
  8
0
 62
7
100
AcDbPolyline
 90
2
 70
0
 10
354.710000
 20
214.380000
 30
0.0
 10
354.710000
 20
234.380000
 30
0.0
  0
LWPOLYLINE
  5
104
100
AcDbEntity
  8
0
 62
7
100
AcDbPolyline
 90
2
 70
0
 10
358.710000
 20
214.380000
 30
0.0
 10
354.710000
 20
214.380000
 30
0.0
  0
LWPOLYLINE
  5
105
100
AcDbEntity
  8
0
 62
7
100
AcDbPolyline
 90
2
 70
0
 10
358.710000
 20
234.380000
 30
0.0
 10
358.710000
 20
214.380000
 30
0.0
  0
LWPOLYLINE
  5
106
100
AcDbEntity
  8
0
 62
7
100
AcDbPolyline
 90
2
 70
0
 10
688.040000
 20
234.380000
 30
0.0
 10
358.710000
 20
234.380000
 30
0.0
  0
LWPOLYLINE
  5
107
100
AcDbEntity
  8
0
 62
7
100
AcDbPolyline
 90
4
 70
0
 10
688.040000
 20
234.380000
 30
0.0
 10
688.040000
 20
214.380000
 30
0.0
 10
692.040000
 20
214.380000
 30
0.0
 10
692.040000
 20
234.380000
 30
0.0
  0
LWPOLYLINE
  5
108
100
AcDbEntity
  8
0
 62
7
100
AcDbPolyline
 90
2
 70
0
 10
1021.370000
 20
234.380000
 30
0.0
 10
692.040000
 20
234.380000
 30
0.0
  0
LWPOLYLINE
  5
109
100
AcDbEntity
  8
0
 62
7
100
AcDbPolyline
 90
4
 70
0
 10
1021.370000
 20
234.380000
 30
0.0
 10
1021.370000
 20
214.380000
 30
0.0
 10
1025.370000
 20
214.380000
 30
0.0
 10
1025.370000
 20
234.380000
 30
0.0
  0
LWPOLYLINE
  5
10a
100
AcDbEntity
  8
0
 62
7
100
AcDbPolyline
 90
2
 70
0
 10
1354.700000
 20
234.380000
 30
0.0
 10
1025.370000
 20
234.380000
 30
0.0
  0
LWPOLYLINE
  5
10b
100
AcDbEntity
  8
0
 62
7
100
AcDbPolyline
 90
4
 70
0
 10
1354.700000
 20
234.380000
 30
0.0
 10
1354.700000
 20
214.380000
 30
0.0
 10
1358.700000
 20
214.380000
 30
0.0
 10
1358.700000
 20
234.380000
 30
0.0
  0
LWPOLYLINE
  5
10c
100
AcDbEntity
  8
0
 62
7
100
AcDbPolyline
 90
2
 70
0
 10
1688.030000
 20
234.380000
 30
0.0
 10
1358.700000
 20
234.380000
 30
0.0
  0
LWPOLYLINE
  5
10d
100
AcDbEntity
  8
0
 62
7
100
AcDbPolyline
 90
4
 70
0
 10
1688.030000
 20
234.380000
 30
0.0
 10
1688.030000
 20
214.380000
 30
0.0
 10
1692.030000
 20
214.380000
 30
0.0
 10
1692.030000
 20
234.380000
 30
0.0
  0
LWPOLYLINE
  5
10e
100
AcDbEntity
  8
0
 62
7
100
AcDbPolyline
 90
2
 70
0
 10
2019.380000
 20
234.380000
 30
0.0
 10
1692.030000
 20
234.380000
 30
0.0
  0
LWPOLYLINE
  5
10f
100
AcDbEntity
  8
0
 62
7
100
AcDbPolyline
 90
3
 70
0
 10
2019.380000
 20
234.380000
 30
0.0
 10
2019.380000
 20
214.380000
 30
0.0
 10
2023.380000
 20
214.380000
 30
0.0
  0
LWPOLYLINE
  5
110
100
AcDbEntity
  8
0
 62
7
100
AcDbPolyline
 90
2
 70
0
 10
2023.380000
 20
194.380000
 30
0.0
 10
2023.380000
 20
214.380000
 30
0.0
  0
LWPOLYLINE
  5
111
100
AcDbEntity
  8
0
 62
7
100
AcDbPolyline
 90
4
 70
0
 10
2023.380000
 20
194.380000
 30
0.0
 10
2019.380000
 20
194.380000
 30
0.0
 10
2019.380000
 20
174.380000
 30
0.0
 10
2023.380000
 20
174.380000
 30
0.0
  0
LWPOLYLINE
  5
112
100
AcDbEntity
  8
0
 62
7
100
AcDbPolyline
 90
2
 70
0
 10
2023.380000
 20
154.380000
 30
0.0
 10
2023.380000
 20
174.380000
 30
0.0
  0
LWPOLYLINE
  5
113
100
AcDbEntity
  8
0
 62
7
100
AcDbPolyline
 90
2
 70
0
 10
2019.380000
 20
154.380000
 30
0.0
 10
2023.380000
 20
154.380000
 30
0.0
  0
LWPOLYLINE
  5
114
100
AcDbEntity
  8
0
 62
7
100
AcDbPolyline
 90
2
 70
0
 10
2019.380000
 20
134.380000
 30
0.0
 10
2019.380000
 20
154.380000
 30
0.0
  0
LWPOLYLINE
  5
115
100
AcDbEntity
  8
0
 62
7
100
AcDbPolyline
 90
2
 70
0
 10
1692.030000
 20
134.380000
 30
0.0
 10
2019.380000
 20
134.380000
 30
0.0
  0
LWPOLYLINE
  5
116
100
AcDbEntity
  8
0
 62
7
100
AcDbPolyline
 90
4
 70
0
 10
1692.030000
 20
134.380000
 30
0.0
 10
1692.030000
 20
154.380000
 30
0.0
 10
1688.030000
 20
154.380000
 30
0.0
 10
1688.030000
 20
134.380000
 30
0.0
  0
LWPOLYLINE
  5
117
100
AcDbEntity
  8
0
 62
7
100
AcDbPolyline
 90
2
 70
0
 10
1358.700000
 20
134.380000
 30
0.0
 10
1688.030000
 20
134.380000
 30
0.0
  0
LWPOLYLINE
  5
118
100
AcDbEntity
  8
0
 62
7
100
AcDbPolyline
 90
4
 70
0
 10
1358.700000
 20
134.380000
 30
0.0
 10
1358.700000
 20
154.380000
 30
0.0
 10
1354.700000
 20
154.380000
 30
0.0
 10
1354.700000
 20
134.380000
 30
0.0
  0
LWPOLYLINE
  5
119
100
AcDbEntity
  8
0
 62
7
100
AcDbPolyline
 90
2
 70
0
 10
1025.370000
 20
134.380000
 30
0.0
 10
1354.700000
 20
134.380000
 30
0.0
  0
LWPOLYLINE
  5
11a
100
AcDbEntity
  8
0
 62
7
100
AcDbPolyline
 90
4
 70
0
 10
1025.370000
 20
134.380000
 30
0.0
 10
1025.370000
 20
154.380000
 30
0.0
 10
1021.370000
 20
154.380000
 30
0.0
 10
1021.370000
 20
134.380000
 30
0.0
  0
LWPOLYLINE
  5
11b
100
AcDbEntity
  8
0
 62
7
100
AcDbPolyline
 90
2
 70
0
 10
692.040000
 20
134.380000
 30
0.0
 10
1021.370000
 20
134.380000
 30
0.0
  0
LWPOLYLINE
  5
11c
100
AcDbEntity
  8
0
 62
7
100
AcDbPolyline
 90
4
 70
0
 10
692.040000
 20
134.380000
 30
0.0
 10
692.040000
 20
154.380000
 30
0.0
 10
688.040000
 20
154.380000
 30
0.0
 10
688.040000
 20
134.380000
 30
0.0
  0
LWPOLYLINE
  5
11d
100
AcDbEntity
  8
0
 62
7
100
AcDbPolyline
 90
2
 70
0
 10
358.710000
 20
134.380000
 30
0.0
 10
688.040000
 20
134.380000
 30
0.0
  0
LWPOLYLINE
  5
11e
100
AcDbEntity
  8
0
 62
7
100
AcDbPolyline
 90
4
 70
0
 10
358.710000
 20
134.380000
 30
0.0
 10
358.710000
 20
154.380000
 30
0.0
 10
354.710000
 20
154.380000
 30
0.0
 10
354.710000
 20
134.380000
 30
0.0
  0
LWPOLYLINE
  5
11f
100
AcDbEntity
  8
0
 62
7
100
AcDbPolyline
 90
2
 70
0
 10
27.380000
 20
134.380000
 30
0.0
 10
354.710000
 20
134.380000
 30
0.0
  0
LWPOLYLINE
  5
120
100
AcDbEntity
  8
0
 62
7
100
AcDbPolyline
 90
3
 70
0
 10
27.380000
 20
134.380000
 30
0.0
 10
27.380000
 20
154.380000
 30
0.0
 10
23.380000
 20
154.380000
 30
0.0
  0
LWPOLYLINE
  5
121
100
AcDbEntity
  8
0
 62
7
100
AcDbPolyline
 90
2
 70
0
 10
23.380000
 20
174.380000
 30
0.0
 10
23.380000
 20
154.380000
 30
0.0
  0
LWPOLYLINE
  5
122
100
AcDbEntity
  8
0
 62
7
100
AcDbPolyline
 90
4
 70
0
 10
23.380000
 20
174.380000
 30
0.0
 10
27.380000
 20
174.380000
 30
0.0
 10
27.380000
 20
194.380000
 30
0.0
 10
23.380000
 20
194.380000
 30
0.0
  0
LWPOLYLINE
  5
123
100
AcDbEntity
  8
0
 62
7
100
AcDbPolyline
 90
4
 70
1
 10
358.710000
 20
194.380000
 30
0.0
 10
354.710000
 20
194.380000
 30
0.0
 10
354.710000
 20
174.380000
 30
0.0
 10
358.710000
 20
174.380000
 30
0.0
  0
LWPOLYLINE
  5
124
100
AcDbEntity
  8
0
 62
7
100
AcDbPolyline
 90
4
 70
1
 10
688.040000
 20
174.380000
 30
0.0
 10
692.040000
 20
174.380000
 30
0.0
 10
692.040000
 20
194.380000
 30
0.0
 10
688.040000
 20
194.380000
 30
0.0
  0
LWPOLYLINE
  5
125
100
AcDbEntity
  8
0
 62
7
100
AcDbPolyline
 90
4
 70
1
 10
1021.370000
 20
174.380000
 30
0.0
 10
1025.370000
 20
174.380000
 30
0.0
 10
1025.370000
 20
194.380000
 30
0.0
 10
1021.370000
 20
194.380000
 30
0.0
  0
LWPOLYLINE
  5
126
100
AcDbEntity
  8
0
 62
7
100
AcDbPolyline
 90
4
 70
1
 10
1354.700000
 20
174.380000
 30
0.0
 10
1358.700000
 20
174.380000
 30
0.0
 10
1358.700000
 20
194.380000
 30
0.0
 10
1354.700000
 20
194.380000
 30
0.0
  0
LWPOLYLINE
  5
127
100
AcDbEntity
  8
0
 62
7
100
AcDbPolyline
 90
4
 70
1
 10
1688.030000
 20
174.380000
 30
0.0
 10
1692.030000
 20
174.380000
 30
0.0
 10
1692.030000
 20
194.380000
 30
0.0
 10
1688.030000
 20
194.380000
 30
0.0
  0
LWPOLYLINE
  5
128
100
AcDbEntity
  8
0
 62
7
100
AcDbPolyline
 90
2
 70
0
 10
23.380000
 20
104.380000
 30
0.0
 10
23.380000
 20
84.380000
 30
0.0
  0
LWPOLYLINE
  5
129
100
AcDbEntity
  8
0
 62
7
100
AcDbPolyline
 90
3
 70
0
 10
23.380000
 20
104.380000
 30
0.0
 10
27.380000
 20
104.380000
 30
0.0
 10
27.380000
 20
124.380000
 30
0.0
  0
LWPOLYLINE
  5
12a
100
AcDbEntity
  8
0
 62
7
100
AcDbPolyline
 90
2
 70
0
 10
354.710000
 20
124.380000
 30
0.0
 10
27.380000
 20
124.380000
 30
0.0
  0
LWPOLYLINE
  5
12b
100
AcDbEntity
  8
0
 62
7
100
AcDbPolyline
 90
2
 70
0
 10
354.710000
 20
104.380000
 30
0.0
 10
354.710000
 20
124.380000
 30
0.0
  0
LWPOLYLINE
  5
12c
100
AcDbEntity
  8
0
 62
7
100
AcDbPolyline
 90
2
 70
0
 10
358.710000
 20
104.380000
 30
0.0
 10
354.710000
 20
104.380000
 30
0.0
  0
LWPOLYLINE
  5
12d
100
AcDbEntity
  8
0
 62
7
100
AcDbPolyline
 90
2
 70
0
 10
358.710000
 20
124.380000
 30
0.0
 10
358.710000
 20
104.380000
 30
0.0
  0
LWPOLYLINE
  5
12e
100
AcDbEntity
  8
0
 62
7
100
AcDbPolyline
 90
2
 70
0
 10
688.040000
 20
124.380000
 30
0.0
 10
358.710000
 20
124.380000
 30
0.0
  0
LWPOLYLINE
  5
12f
100
AcDbEntity
  8
0
 62
7
100
AcDbPolyline
 90
4
 70
0
 10
688.040000
 20
124.380000
 30
0.0
 10
688.040000
 20
104.380000
 30
0.0
 10
692.040000
 20
104.380000
 30
0.0
 10
692.040000
 20
124.380000
 30
0.0
  0
LWPOLYLINE
  5
130
100
AcDbEntity
  8
0
 62
7
100
AcDbPolyline
 90
2
 70
0
 10
1021.370000
 20
124.380000
 30
0.0
 10
692.040000
 20
124.380000
 30
0.0
  0
LWPOLYLINE
  5
131
100
AcDbEntity
  8
0
 62
7
100
AcDbPolyline
 90
4
 70
0
 10
1021.370000
 20
124.380000
 30
0.0
 10
1021.370000
 20
104.380000
 30
0.0
 10
1025.370000
 20
104.380000
 30
0.0
 10
1025.370000
 20
124.380000
 30
0.0
  0
LWPOLYLINE
  5
132
100
AcDbEntity
  8
0
 62
7
100
AcDbPolyline
 90
2
 70
0
 10
1354.700000
 20
124.380000
 30
0.0
 10
1025.370000
 20
124.380000
 30
0.0
  0
LWPOLYLINE
  5
133
100
AcDbEntity
  8
0
 62
7
100
AcDbPolyline
 90
4
 70
0
 10
1354.700000
 20
124.380000
 30
0.0
 10
1354.700000
 20
104.380000
 30
0.0
 10
1358.700000
 20
104.380000
 30
0.0
 10
1358.700000
 20
124.380000
 30
0.0
  0
LWPOLYLINE
  5
134
100
AcDbEntity
  8
0
 62
7
100
AcDbPolyline
 90
2
 70
0
 10
1688.030000
 20
124.380000
 30
0.0
 10
1358.700000
 20
124.380000
 30
0.0
  0
LWPOLYLINE
  5
135
100
AcDbEntity
  8
0
 62
7
100
AcDbPolyline
 90
4
 70
0
 10
1688.030000
 20
124.380000
 30
0.0
 10
1688.030000
 20
104.380000
 30
0.0
 10
1692.030000
 20
104.380000
 30
0.0
 10
1692.030000
 20
124.380000
 30
0.0
  0
LWPOLYLINE
  5
136
100
AcDbEntity
  8
0
 62
7
100
AcDbPolyline
 90
2
 70
0
 10
2019.380000
 20
124.380000
 30
0.0
 10
1692.030000
 20
124.380000
 30
0.0
  0
LWPOLYLINE
  5
137
100
AcDbEntity
  8
0
 62
7
100
AcDbPolyline
 90
3
 70
0
 10
2019.380000
 20
124.380000
 30
0.0
 10
2019.380000
 20
104.380000
 30
0.0
 10
2023.380000
 20
104.380000
 30
0.0
  0
LWPOLYLINE
  5
138
100
AcDbEntity
  8
0
 62
7
100
AcDbPolyline
 90
2
 70
0
 10
2023.380000
 20
84.380000
 30
0.0
 10
2023.380000
 20
104.380000
 30
0.0
  0
LWPOLYLINE
  5
139
100
AcDbEntity
  8
0
 62
7
100
AcDbPolyline
 90
4
 70
0
 10
2023.380000
 20
84.380000
 30
0.0
 10
2019.380000
 20
84.380000
 30
0.0
 10
2019.380000
 20
64.380000
 30
0.0
 10
2023.380000
 20
64.380000
 30
0.0
  0
LWPOLYLINE
  5
13a
100
AcDbEntity
  8
0
 62
7
100
AcDbPolyline
 90
2
 70
0
 10
2023.380000
 20
44.380000
 30
0.0
 10
2023.380000
 20
64.380000
 30
0.0
  0
LWPOLYLINE
  5
13b
100
AcDbEntity
  8
0
 62
7
100
AcDbPolyline
 90
2
 70
0
 10
2019.380000
 20
44.380000
 30
0.0
 10
2023.380000
 20
44.380000
 30
0.0
  0
LWPOLYLINE
  5
13c
100
AcDbEntity
  8
0
 62
7
100
AcDbPolyline
 90
2
 70
0
 10
2019.380000
 20
24.380000
 30
0.0
 10
2019.380000
 20
44.380000
 30
0.0
  0
LWPOLYLINE
  5
13d
100
AcDbEntity
  8
0
 62
7
100
AcDbPolyline
 90
2
 70
0
 10
1692.030000
 20
24.380000
 30
0.0
 10
2019.380000
 20
24.380000
 30
0.0
  0
LWPOLYLINE
  5
13e
100
AcDbEntity
  8
0
 62
7
100
AcDbPolyline
 90
4
 70
0
 10
1692.030000
 20
24.380000
 30
0.0
 10
1692.030000
 20
44.380000
 30
0.0
 10
1688.030000
 20
44.380000
 30
0.0
 10
1688.030000
 20
24.380000
 30
0.0
  0
LWPOLYLINE
  5
13f
100
AcDbEntity
  8
0
 62
7
100
AcDbPolyline
 90
2
 70
0
 10
1358.700000
 20
24.380000
 30
0.0
 10
1688.030000
 20
24.380000
 30
0.0
  0
LWPOLYLINE
  5
140
100
AcDbEntity
  8
0
 62
7
100
AcDbPolyline
 90
4
 70
0
 10
1358.700000
 20
24.380000
 30
0.0
 10
1358.700000
 20
44.380000
 30
0.0
 10
1354.700000
 20
44.380000
 30
0.0
 10
1354.700000
 20
24.380000
 30
0.0
  0
LWPOLYLINE
  5
141
100
AcDbEntity
  8
0
 62
7
100
AcDbPolyline
 90
2
 70
0
 10
1025.370000
 20
24.380000
 30
0.0
 10
1354.700000
 20
24.380000
 30
0.0
  0
LWPOLYLINE
  5
142
100
AcDbEntity
  8
0
 62
7
100
AcDbPolyline
 90
4
 70
0
 10
1025.370000
 20
24.380000
 30
0.0
 10
1025.370000
 20
44.380000
 30
0.0
 10
1021.370000
 20
44.380000
 30
0.0
 10
1021.370000
 20
24.380000
 30
0.0
  0
LWPOLYLINE
  5
143
100
AcDbEntity
  8
0
 62
7
100
AcDbPolyline
 90
2
 70
0
 10
692.040000
 20
24.380000
 30
0.0
 10
1021.370000
 20
24.380000
 30
0.0
  0
LWPOLYLINE
  5
144
100
AcDbEntity
  8
0
 62
7
100
AcDbPolyline
 90
4
 70
0
 10
692.040000
 20
24.380000
 30
0.0
 10
692.040000
 20
44.380000
 30
0.0
 10
688.040000
 20
44.380000
 30
0.0
 10
688.040000
 20
24.380000
 30
0.0
  0
LWPOLYLINE
  5
145
100
AcDbEntity
  8
0
 62
7
100
AcDbPolyline
 90
2
 70
0
 10
358.710000
 20
24.380000
 30
0.0
 10
688.040000
 20
24.380000
 30
0.0
  0
LWPOLYLINE
  5
146
100
AcDbEntity
  8
0
 62
7
100
AcDbPolyline
 90
4
 70
0
 10
358.710000
 20
24.380000
 30
0.0
 10
358.710000
 20
44.380000
 30
0.0
 10
354.710000
 20
44.380000
 30
0.0
 10
354.710000
 20
24.380000
 30
0.0
  0
LWPOLYLINE
  5
147
100
AcDbEntity
  8
0
 62
7
100
AcDbPolyline
 90
2
 70
0
 10
27.380000
 20
24.380000
 30
0.0
 10
354.710000
 20
24.380000
 30
0.0
  0
LWPOLYLINE
  5
148
100
AcDbEntity
  8
0
 62
7
100
AcDbPolyline
 90
3
 70
0
 10
27.380000
 20
24.380000
 30
0.0
 10
27.380000
 20
44.380000
 30
0.0
 10
23.380000
 20
44.380000
 30
0.0
  0
LWPOLYLINE
  5
149
100
AcDbEntity
  8
0
 62
7
100
AcDbPolyline
 90
2
 70
0
 10
23.380000
 20
64.380000
 30
0.0
 10
23.380000
 20
44.380000
 30
0.0
  0
LWPOLYLINE
  5
14a
100
AcDbEntity
  8
0
 62
7
100
AcDbPolyline
 90
4
 70
0
 10
23.380000
 20
64.380000
 30
0.0
 10
27.380000
 20
64.380000
 30
0.0
 10
27.380000
 20
84.380000
 30
0.0
 10
23.380000
 20
84.380000
 30
0.0
  0
LWPOLYLINE
  5
14b
100
AcDbEntity
  8
0
 62
7
100
AcDbPolyline
 90
4
 70
1
 10
358.710000
 20
84.380000
 30
0.0
 10
354.710000
 20
84.380000
 30
0.0
 10
354.710000
 20
64.380000
 30
0.0
 10
358.710000
 20
64.380000
 30
0.0
  0
LWPOLYLINE
  5
14c
100
AcDbEntity
  8
0
 62
7
100
AcDbPolyline
 90
4
 70
1
 10
688.040000
 20
64.380000
 30
0.0
 10
692.040000
 20
64.380000
 30
0.0
 10
692.040000
 20
84.380000
 30
0.0
 10
688.040000
 20
84.380000
 30
0.0
  0
LWPOLYLINE
  5
14d
100
AcDbEntity
  8
0
 62
7
100
AcDbPolyline
 90
4
 70
1
 10
1021.370000
 20
64.380000
 30
0.0
 10
1025.370000
 20
64.380000
 30
0.0
 10
1025.370000
 20
84.380000
 30
0.0
 10
1021.370000
 20
84.380000
 30
0.0
  0
LWPOLYLINE
  5
14e
100
AcDbEntity
  8
0
 62
7
100
AcDbPolyline
 90
4
 70
1
 10
1354.700000
 20
64.380000
 30
0.0
 10
1358.700000
 20
64.380000
 30
0.0
 10
1358.700000
 20
84.380000
 30
0.0
 10
1354.700000
 20
84.380000
 30
0.0
  0
LWPOLYLINE
  5
14f
100
AcDbEntity
  8
0
 62
7
100
AcDbPolyline
 90
4
 70
1
 10
1688.030000
 20
64.380000
 30
0.0
 10
1692.030000
 20
64.380000
 30
0.0
 10
1692.030000
 20
84.380000
 30
0.0
 10
1688.030000
 20
84.380000
 30
0.0
  0
LWPOLYLINE
  5
150
100
AcDbEntity
  8
0
 62
7
100
AcDbPolyline
 90
2
 70
0
 10
23.380000
 20
544.380000
 30
0.0
 10
23.380000
 20
524.380000
 30
0.0
  0
LWPOLYLINE
  5
151
100
AcDbEntity
  8
0
 62
7
100
AcDbPolyline
 90
3
 70
0
 10
23.380000
 20
544.380000
 30
0.0
 10
27.380000
 20
544.380000
 30
0.0
 10
27.380000
 20
564.380000
 30
0.0
  0
LWPOLYLINE
  5
152
100
AcDbEntity
  8
0
 62
7
100
AcDbPolyline
 90
2
 70
0
 10
354.720000
 20
564.380000
 30
0.0
 10
27.380000
 20
564.380000
 30
0.0
  0
LWPOLYLINE
  5
153
100
AcDbEntity
  8
0
 62
7
100
AcDbPolyline
 90
2
 70
0
 10
354.720000
 20
544.380000
 30
0.0
 10
354.720000
 20
564.380000
 30
0.0
  0
LWPOLYLINE
  5
154
100
AcDbEntity
  8
0
 62
7
100
AcDbPolyline
 90
2
 70
0
 10
358.720000
 20
544.380000
 30
0.0
 10
354.720000
 20
544.380000
 30
0.0
  0
LWPOLYLINE
  5
155
100
AcDbEntity
  8
0
 62
7
100
AcDbPolyline
 90
2
 70
0
 10
358.720000
 20
564.380000
 30
0.0
 10
358.720000
 20
544.380000
 30
0.0
  0
LWPOLYLINE
  5
156
100
AcDbEntity
  8
0
 62
7
100
AcDbPolyline
 90
2
 70
0
 10
688.050000
 20
564.380000
 30
0.0
 10
358.720000
 20
564.380000
 30
0.0
  0
LWPOLYLINE
  5
157
100
AcDbEntity
  8
0
 62
7
100
AcDbPolyline
 90
2
 70
0
 10
688.050000
 20
544.380000
 30
0.0
 10
688.050000
 20
564.380000
 30
0.0
  0
LWPOLYLINE
  5
158
100
AcDbEntity
  8
0
 62
7
100
AcDbPolyline
 90
2
 70
0
 10
692.050000
 20
544.380000
 30
0.0
 10
688.050000
 20
544.380000
 30
0.0
  0
LWPOLYLINE
  5
159
100
AcDbEntity
  8
0
 62
7
100
AcDbPolyline
 90
2
 70
0
 10
692.050000
 20
564.380000
 30
0.0
 10
692.050000
 20
544.380000
 30
0.0
  0
LWPOLYLINE
  5
15a
100
AcDbEntity
  8
0
 62
7
100
AcDbPolyline
 90
2
 70
0
 10
1021.380000
 20
564.380000
 30
0.0
 10
692.050000
 20
564.380000
 30
0.0
  0
LWPOLYLINE
  5
15b
100
AcDbEntity
  8
0
 62
7
100
AcDbPolyline
 90
4
 70
0
 10
1021.380000
 20
564.380000
 30
0.0
 10
1021.380000
 20
544.380000
 30
0.0
 10
1025.380000
 20
544.380000
 30
0.0
 10
1025.380000
 20
564.380000
 30
0.0
  0
LWPOLYLINE
  5
15c
100
AcDbEntity
  8
0
 62
7
100
AcDbPolyline
 90
2
 70
0
 10
1354.710000
 20
564.380000
 30
0.0
 10
1025.380000
 20
564.380000
 30
0.0
  0
LWPOLYLINE
  5
15d
100
AcDbEntity
  8
0
 62
7
100
AcDbPolyline
 90
4
 70
0
 10
1354.710000
 20
564.380000
 30
0.0
 10
1354.710000
 20
544.380000
 30
0.0
 10
1358.710000
 20
544.380000
 30
0.0
 10
1358.710000
 20
564.380000
 30
0.0
  0
LWPOLYLINE
  5
15e
100
AcDbEntity
  8
0
 62
7
100
AcDbPolyline
 90
2
 70
0
 10
1688.040000
 20
564.380000
 30
0.0
 10
1358.710000
 20
564.380000
 30
0.0
  0
LWPOLYLINE
  5
15f
100
AcDbEntity
  8
0
 62
7
100
AcDbPolyline
 90
4
 70
0
 10
1688.040000
 20
564.380000
 30
0.0
 10
1688.040000
 20
544.380000
 30
0.0
 10
1692.040000
 20
544.380000
 30
0.0
 10
1692.040000
 20
564.380000
 30
0.0
  0
LWPOLYLINE
  5
160
100
AcDbEntity
  8
0
 62
7
100
AcDbPolyline
 90
2
 70
0
 10
2019.380000
 20
564.380000
 30
0.0
 10
1692.040000
 20
564.380000
 30
0.0
  0
LWPOLYLINE
  5
161
100
AcDbEntity
  8
0
 62
7
100
AcDbPolyline
 90
3
 70
0
 10
2019.380000
 20
564.380000
 30
0.0
 10
2019.380000
 20
544.380000
 30
0.0
 10
2023.380000
 20
544.380000
 30
0.0
  0
LWPOLYLINE
  5
162
100
AcDbEntity
  8
0
 62
7
100
AcDbPolyline
 90
2
 70
0
 10
2023.380000
 20
524.380000
 30
0.0
 10
2023.380000
 20
544.380000
 30
0.0
  0
LWPOLYLINE
  5
163
100
AcDbEntity
  8
0
 62
7
100
AcDbPolyline
 90
2
 70
0
 10
2019.380000
 20
524.380000
 30
0.0
 10
2023.380000
 20
524.380000
 30
0.0
  0
LWPOLYLINE
  5
164
100
AcDbEntity
  8
0
 62
7
100
AcDbPolyline
 90
2
 70
0
 10
2019.380000
 20
504.380000
 30
0.0
 10
2019.380000
 20
524.380000
 30
0.0
  0
LWPOLYLINE
  5
165
100
AcDbEntity
  8
0
 62
7
100
AcDbPolyline
 90
2
 70
0
 10
2023.380000
 20
504.380000
 30
0.0
 10
2019.380000
 20
504.380000
 30
0.0
  0
LWPOLYLINE
  5
166
100
AcDbEntity
  8
0
 62
7
100
AcDbPolyline
 90
2
 70
0
 10
2023.380000
 20
484.380000
 30
0.0
 10
2023.380000
 20
504.380000
 30
0.0
  0
LWPOLYLINE
  5
167
100
AcDbEntity
  8
0
 62
7
100
AcDbPolyline
 90
2
 70
0
 10
2019.380000
 20
484.380000
 30
0.0
 10
2023.380000
 20
484.380000
 30
0.0
  0
LWPOLYLINE
  5
168
100
AcDbEntity
  8
0
 62
7
100
AcDbPolyline
 90
2
 70
0
 10
2019.380000
 20
464.380000
 30
0.0
 10
2019.380000
 20
484.380000
 30
0.0
  0
LWPOLYLINE
  5
169
100
AcDbEntity
  8
0
 62
7
100
AcDbPolyline
 90
2
 70
0
 10
1692.040000
 20
464.380000
 30
0.0
 10
2019.380000
 20
464.380000
 30
0.0
  0
LWPOLYLINE
  5
16a
100
AcDbEntity
  8
0
 62
7
100
AcDbPolyline
 90
4
 70
0
 10
1692.040000
 20
464.380000
 30
0.0
 10
1692.040000
 20
484.380000
 30
0.0
 10
1688.040000
 20
484.380000
 30
0.0
 10
1688.040000
 20
464.380000
 30
0.0
  0
LWPOLYLINE
  5
16b
100
AcDbEntity
  8
0
 62
7
100
AcDbPolyline
 90
2
 70
0
 10
1358.710000
 20
464.380000
 30
0.0
 10
1688.040000
 20
464.380000
 30
0.0
  0
LWPOLYLINE
  5
16c
100
AcDbEntity
  8
0
 62
7
100
AcDbPolyline
 90
4
 70
0
 10
1358.710000
 20
464.380000
 30
0.0
 10
1358.710000
 20
484.380000
 30
0.0
 10
1354.710000
 20
484.380000
 30
0.0
 10
1354.710000
 20
464.380000
 30
0.0
  0
LWPOLYLINE
  5
16d
100
AcDbEntity
  8
0
 62
7
100
AcDbPolyline
 90
2
 70
0
 10
1025.380000
 20
464.380000
 30
0.0
 10
1354.710000
 20
464.380000
 30
0.0
  0
LWPOLYLINE
  5
16e
100
AcDbEntity
  8
0
 62
7
100
AcDbPolyline
 90
4
 70
0
 10
1025.380000
 20
464.380000
 30
0.0
 10
1025.380000
 20
484.380000
 30
0.0
 10
1021.380000
 20
484.380000
 30
0.0
 10
1021.380000
 20
464.380000
 30
0.0
  0
LWPOLYLINE
  5
16f
100
AcDbEntity
  8
0
 62
7
100
AcDbPolyline
 90
2
 70
0
 10
692.050000
 20
464.380000
 30
0.0
 10
1021.380000
 20
464.380000
 30
0.0
  0
LWPOLYLINE
  5
170
100
AcDbEntity
  8
0
 62
7
100
AcDbPolyline
 90
4
 70
0
 10
692.050000
 20
464.380000
 30
0.0
 10
692.050000
 20
484.380000
 30
0.0
 10
688.050000
 20
484.380000
 30
0.0
 10
688.050000
 20
464.380000
 30
0.0
  0
LWPOLYLINE
  5
171
100
AcDbEntity
  8
0
 62
7
100
AcDbPolyline
 90
2
 70
0
 10
358.720000
 20
464.380000
 30
0.0
 10
688.050000
 20
464.380000
 30
0.0
  0
LWPOLYLINE
  5
172
100
AcDbEntity
  8
0
 62
7
100
AcDbPolyline
 90
4
 70
0
 10
358.720000
 20
464.380000
 30
0.0
 10
358.720000
 20
484.380000
 30
0.0
 10
354.720000
 20
484.380000
 30
0.0
 10
354.720000
 20
464.380000
 30
0.0
  0
LWPOLYLINE
  5
173
100
AcDbEntity
  8
0
 62
7
100
AcDbPolyline
 90
2
 70
0
 10
27.380000
 20
464.380000
 30
0.0
 10
354.720000
 20
464.380000
 30
0.0
  0
LWPOLYLINE
  5
174
100
AcDbEntity
  8
0
 62
7
100
AcDbPolyline
 90
3
 70
0
 10
27.380000
 20
464.380000
 30
0.0
 10
27.380000
 20
484.380000
 30
0.0
 10
23.380000
 20
484.380000
 30
0.0
  0
LWPOLYLINE
  5
175
100
AcDbEntity
  8
0
 62
7
100
AcDbPolyline
 90
2
 70
0
 10
23.380000
 20
504.380000
 30
0.0
 10
23.380000
 20
484.380000
 30
0.0
  0
SPLINE
  5
176
100
AcDbEntity
  8
0
 62
7
100
AcDbSpline
 70
8
 71
3
 72
8
 73
4
 74
0
 40
0
 40
0
 40
0
 40
0
 40
1
 40
1
 40
1
 40
1
 10
106.750000
 20
489.380000
 30
0.0
 10
96.638444
 20
489.380000
 30
0.0
 10
87.522537
 20
495.471054
 30
0.0
 10
83.653012
 20
504.812914
 30
0.0
  0
SPLINE
  5
177
100
AcDbEntity
  8
0
 62
7
100
AcDbSpline
 70
8
 71
3
 72
8
 73
4
 74
0
 40
0
 40
0
 40
0
 40
0
 40
1
 40
1
 40
1
 40
1
 10
83.653012
 20
504.812914
 30
0.0
 10
79.783487
 20
514.154774
 30
0.0
 10
81.922381
 20
524.907720
 30
0.0
 10
89.072330
 20
532.057670
 30
0.0
  0
SPLINE
  5
178
100
AcDbEntity
  8
0
 62
7
100
AcDbSpline
 70
8
 71
3
 72
8
 73
4
 74
0
 40
0
 40
0
 40
0
 40
0
 40
1
 40
1
 40
1
 40
1
 10
89.072330
 20
532.057670
 30
0.0
 10
96.222280
 20
539.207619
 30
0.0
 10
106.975226
 20
541.346513
 30
0.0
 10
116.317086
 20
537.476988
 30
0.0
  0
SPLINE
  5
179
100
AcDbEntity
  8
0
 62
7
100
AcDbSpline
 70
8
 71
3
 72
8
 73
4
 74
0
 40
0
 40
0
 40
0
 40
0
 40
1
 40
1
 40
1
 40
1
 10
116.317086
 20
537.476988
 30
0.0
 10
125.658946
 20
533.607463
 30
0.0
 10
131.750000
 20
524.491556
 30
0.0
 10
131.750000
 20
514.380000
 30
0.0
  0
SPLINE
  5
17a
100
AcDbEntity
  8
0
 62
7
100
AcDbSpline
 70
8
 71
3
 72
8
 73
4
 74
0
 40
0
 40
0
 40
0
 40
0
 40
1
 40
1
 40
1
 40
1
 10
131.750000
 20
514.380000
 30
0.0
 10
131.750000
 20
500.572881
 30
0.0
 10
120.557119
 20
489.380000
 30
0.0
 10
106.750000
 20
489.380000
 30
0.0
  0
LWPOLYLINE
  5
17b
100
AcDbEntity
  8
0
 62
7
100
AcDbPolyline
 90
4
 70
0
 10
23.380000
 20
504.380000
 30
0.0
 10
27.380000
 20
504.380000
 30
0.0
 10
27.380000
 20
524.380000
 30
0.0
 10
23.380000
 20
524.380000
 30
0.0
  0
SPLINE
  5
17c
100
AcDbEntity
  8
0
 62
7
100
AcDbSpline
 70
8
 71
3
 72
8
 73
4
 74
0
 40
0
 40
0
 40
0
 40
0
 40
1
 40
1
 40
1
 40
1
 10
190.080000
 20
489.380000
 30
0.0
 10
179.968444
 20
489.380000
 30
0.0
 10
170.852537
 20
495.471054
 30
0.0
 10
166.983012
 20
504.812914
 30
0.0
  0
SPLINE
  5
17d
100
AcDbEntity
  8
0
 62
7
100
AcDbSpline
 70
8
 71
3
 72
8
 73
4
 74
0
 40
0
 40
0
 40
0
 40
0
 40
1
 40
1
 40
1
 40
1
 10
166.983012
 20
504.812914
 30
0.0
 10
163.113487
 20
514.154774
 30
0.0
 10
165.252381
 20
524.907720
 30
0.0
 10
172.402330
 20
532.057670
 30
0.0
  0
SPLINE
  5
17e
100
AcDbEntity
  8
0
 62
7
100
AcDbSpline
 70
8
 71
3
 72
8
 73
4
 74
0
 40
0
 40
0
 40
0
 40
0
 40
1
 40
1
 40
1
 40
1
 10
172.402330
 20
532.057670
 30
0.0
 10
179.552280
 20
539.207619
 30
0.0
 10
190.305226
 20
541.346513
 30
0.0
 10
199.647086
 20
537.476988
 30
0.0
  0
SPLINE
  5
17f
100
AcDbEntity
  8
0
 62
7
100
AcDbSpline
 70
8
 71
3
 72
8
 73
4
 74
0
 40
0
 40
0
 40
0
 40
0
 40
1
 40
1
 40
1
 40
1
 10
199.647086
 20
537.476988
 30
0.0
 10
208.988946
 20
533.607463
 30
0.0
 10
215.080000
 20
524.491556
 30
0.0
 10
215.080000
 20
514.380000
 30
0.0
  0
SPLINE
  5
180
100
AcDbEntity
  8
0
 62
7
100
AcDbSpline
 70
8
 71
3
 72
8
 73
4
 74
0
 40
0
 40
0
 40
0
 40
0
 40
1
 40
1
 40
1
 40
1
 10
215.080000
 20
514.380000
 30
0.0
 10
215.080000
 20
507.749588
 30
0.0
 10
212.446079
 20
501.390740
 30
0.0
 10
207.757670
 20
496.702330
 30
0.0
  0
SPLINE
  5
181
100
AcDbEntity
  8
0
 62
7
100
AcDbSpline
 70
8
 71
3
 72
8
 73
4
 74
0
 40
0
 40
0
 40
0
 40
0
 40
1
 40
1
 40
1
 40
1
 10
207.757670
 20
496.702330
 30
0.0
 10
203.069260
 20
492.013921
 30
0.0
 10
196.710412
 20
489.380000
 30
0.0
 10
190.080000
 20
489.380000
 30
0.0
  0
LWPOLYLINE
  5
182
100
AcDbEntity
  8
0
 62
7
100
AcDbPolyline
 90
1
 70
1
 10
106.750000
 20
489.380000
 30
0.0
  0
SPLINE
  5
183
100
AcDbEntity
  8
0
 62
7
100
AcDbSpline
 70
8
 71
3
 72
8
 73
4
 74
0
 40
0
 40
0
 40
0
 40
0
 40
1
 40
1
 40
1
 40
1
 10
273.410000
 20
489.380000
 30
0.0
 10
263.298444
 20
489.380000
 30
0.0
 10
254.182537
 20
495.471054
 30
0.0
 10
250.313012
 20
504.812914
 30
0.0
  0
SPLINE
  5
184
100
AcDbEntity
  8
0
 62
7
100
AcDbSpline
 70
8
 71
3
 72
8
 73
4
 74
0
 40
0
 40
0
 40
0
 40
0
 40
1
 40
1
 40
1
 40
1
 10
250.313012
 20
504.812914
 30
0.0
 10
246.443487
 20
514.154774
 30
0.0
 10
248.582381
 20
524.907720
 30
0.0
 10
255.732330
 20
532.057670
 30
0.0
  0
SPLINE
  5
185
100
AcDbEntity
  8
0
 62
7
100
AcDbSpline
 70
8
 71
3
 72
8
 73
4
 74
0
 40
0
 40
0
 40
0
 40
0
 40
1
 40
1
 40
1
 40
1
 10
255.732330
 20
532.057670
 30
0.0
 10
262.882280
 20
539.207619
 30
0.0
 10
273.635226
 20
541.346513
 30
0.0
 10
282.977086
 20
537.476988
 30
0.0
  0
SPLINE
  5
186
100
AcDbEntity
  8
0
 62
7
100
AcDbSpline
 70
8
 71
3
 72
8
 73
4
 74
0
 40
0
 40
0
 40
0
 40
0
 40
1
 40
1
 40
1
 40
1
 10
282.977086
 20
537.476988
 30
0.0
 10
292.318946
 20
533.607463
 30
0.0
 10
298.410000
 20
524.491556
 30
0.0
 10
298.410000
 20
514.380000
 30
0.0
  0
SPLINE
  5
187
100
AcDbEntity
  8
0
 62
7
100
AcDbSpline
 70
8
 71
3
 72
8
 73
4
 74
0
 40
0
 40
0
 40
0
 40
0
 40
1
 40
1
 40
1
 40
1
 10
298.410000
 20
514.380000
 30
0.0
 10
298.410000
 20
500.572881
 30
0.0
 10
287.217119
 20
489.380000
 30
0.0
 10
273.410000
 20
489.380000
 30
0.0
  0
LWPOLYLINE
  5
188
100
AcDbEntity
  8
0
 62
7
100
AcDbPolyline
 90
1
 70
1
 10
190.080000
 20
489.380000
 30
0.0
  0
SPLINE
  5
189
100
AcDbEntity
  8
0
 62
7
100
AcDbSpline
 70
8
 71
3
 72
8
 73
4
 74
0
 40
0
 40
0
 40
0
 40
0
 40
1
 40
1
 40
1
 40
1
 10
440.070000
 20
489.380000
 30
0.0
 10
429.958444
 20
489.380000
 30
0.0
 10
420.842537
 20
495.471054
 30
0.0
 10
416.973012
 20
504.812914
 30
0.0
  0
SPLINE
  5
18a
100
AcDbEntity
  8
0
 62
7
100
AcDbSpline
 70
8
 71
3
 72
8
 73
4
 74
0
 40
0
 40
0
 40
0
 40
0
 40
1
 40
1
 40
1
 40
1
 10
416.973012
 20
504.812914
 30
0.0
 10
413.103487
 20
514.154774
 30
0.0
 10
415.242381
 20
524.907720
 30
0.0
 10
422.392330
 20
532.057670
 30
0.0
  0
SPLINE
  5
18b
100
AcDbEntity
  8
0
 62
7
100
AcDbSpline
 70
8
 71
3
 72
8
 73
4
 74
0
 40
0
 40
0
 40
0
 40
0
 40
1
 40
1
 40
1
 40
1
 10
422.392330
 20
532.057670
 30
0.0
 10
429.542280
 20
539.207619
 30
0.0
 10
440.295226
 20
541.346513
 30
0.0
 10
449.637086
 20
537.476988
 30
0.0
  0
SPLINE
  5
18c
100
AcDbEntity
  8
0
 62
7
100
AcDbSpline
 70
8
 71
3
 72
8
 73
4
 74
0
 40
0
 40
0
 40
0
 40
0
 40
1
 40
1
 40
1
 40
1
 10
449.637086
 20
537.476988
 30
0.0
 10
458.978946
 20
533.607463
 30
0.0
 10
465.070000
 20
524.491556
 30
0.0
 10
465.070000
 20
514.380000
 30
0.0
  0
SPLINE
  5
18d
100
AcDbEntity
  8
0
 62
7
100
AcDbSpline
 70
8
 71
3
 72
8
 73
4
 74
0
 40
0
 40
0
 40
0
 40
0
 40
1
 40
1
 40
1
 40
1
 10
465.070000
 20
514.380000
 30
0.0
 10
465.070000
 20
507.749588
 30
0.0
 10
462.436079
 20
501.390740
 30
0.0
 10
457.747670
 20
496.702330
 30
0.0
  0
SPLINE
  5
18e
100
AcDbEntity
  8
0
 62
7
100
AcDbSpline
 70
8
 71
3
 72
8
 73
4
 74
0
 40
0
 40
0
 40
0
 40
0
 40
1
 40
1
 40
1
 40
1
 10
457.747670
 20
496.702330
 30
0.0
 10
453.059260
 20
492.013921
 30
0.0
 10
446.700412
 20
489.380000
 30
0.0
 10
440.070000
 20
489.380000
 30
0.0
  0
LWPOLYLINE
  5
18f
100
AcDbEntity
  8
0
 62
7
100
AcDbPolyline
 90
1
 70
1
 10
273.410000
 20
489.380000
 30
0.0
  0
SPLINE
  5
190
100
AcDbEntity
  8
0
 62
7
100
AcDbSpline
 70
8
 71
3
 72
8
 73
4
 74
0
 40
0
 40
0
 40
0
 40
0
 40
1
 40
1
 40
1
 40
1
 10
523.400000
 20
489.380000
 30
0.0
 10
513.288444
 20
489.380000
 30
0.0
 10
504.172537
 20
495.471054
 30
0.0
 10
500.303012
 20
504.812914
 30
0.0
  0
SPLINE
  5
191
100
AcDbEntity
  8
0
 62
7
100
AcDbSpline
 70
8
 71
3
 72
8
 73
4
 74
0
 40
0
 40
0
 40
0
 40
0
 40
1
 40
1
 40
1
 40
1
 10
500.303012
 20
504.812914
 30
0.0
 10
496.433487
 20
514.154774
 30
0.0
 10
498.572381
 20
524.907720
 30
0.0
 10
505.722330
 20
532.057670
 30
0.0
  0
SPLINE
  5
192
100
AcDbEntity
  8
0
 62
7
100
AcDbSpline
 70
8
 71
3
 72
8
 73
4
 74
0
 40
0
 40
0
 40
0
 40
0
 40
1
 40
1
 40
1
 40
1
 10
505.722330
 20
532.057670
 30
0.0
 10
512.872280
 20
539.207619
 30
0.0
 10
523.625226
 20
541.346513
 30
0.0
 10
532.967086
 20
537.476988
 30
0.0
  0
SPLINE
  5
193
100
AcDbEntity
  8
0
 62
7
100
AcDbSpline
 70
8
 71
3
 72
8
 73
4
 74
0
 40
0
 40
0
 40
0
 40
0
 40
1
 40
1
 40
1
 40
1
 10
532.967086
 20
537.476988
 30
0.0
 10
542.308946
 20
533.607463
 30
0.0
 10
548.400000
 20
524.491556
 30
0.0
 10
548.400000
 20
514.380000
 30
0.0
  0
SPLINE
  5
194
100
AcDbEntity
  8
0
 62
7
100
AcDbSpline
 70
8
 71
3
 72
8
 73
4
 74
0
 40
0
 40
0
 40
0
 40
0
 40
1
 40
1
 40
1
 40
1
 10
548.400000
 20
514.380000
 30
0.0
 10
548.400000
 20
507.749588
 30
0.0
 10
545.766079
 20
501.390740
 30
0.0
 10
541.077670
 20
496.702330
 30
0.0
  0
SPLINE
  5
195
100
AcDbEntity
  8
0
 62
7
100
AcDbSpline
 70
8
 71
3
 72
8
 73
4
 74
0
 40
0
 40
0
 40
0
 40
0
 40
1
 40
1
 40
1
 40
1
 10
541.077670
 20
496.702330
 30
0.0
 10
536.389260
 20
492.013921
 30
0.0
 10
530.030412
 20
489.380000
 30
0.0
 10
523.400000
 20
489.380000
 30
0.0
  0
LWPOLYLINE
  5
196
100
AcDbEntity
  8
0
 62
7
100
AcDbPolyline
 90
1
 70
1
 10
440.070000
 20
489.380000
 30
0.0
  0
SPLINE
  5
197
100
AcDbEntity
  8
0
 62
7
100
AcDbSpline
 70
8
 71
3
 72
8
 73
4
 74
0
 40
0
 40
0
 40
0
 40
0
 40
1
 40
1
 40
1
 40
1
 10
606.730000
 20
489.380000
 30
0.0
 10
596.618444
 20
489.380000
 30
0.0
 10
587.502537
 20
495.471054
 30
0.0
 10
583.633012
 20
504.812914
 30
0.0
  0
SPLINE
  5
198
100
AcDbEntity
  8
0
 62
7
100
AcDbSpline
 70
8
 71
3
 72
8
 73
4
 74
0
 40
0
 40
0
 40
0
 40
0
 40
1
 40
1
 40
1
 40
1
 10
583.633012
 20
504.812914
 30
0.0
 10
579.763487
 20
514.154774
 30
0.0
 10
581.902381
 20
524.907720
 30
0.0
 10
589.052330
 20
532.057670
 30
0.0
  0
SPLINE
  5
199
100
AcDbEntity
  8
0
 62
7
100
AcDbSpline
 70
8
 71
3
 72
8
 73
4
 74
0
 40
0
 40
0
 40
0
 40
0
 40
1
 40
1
 40
1
 40
1
 10
589.052330
 20
532.057670
 30
0.0
 10
596.202280
 20
539.207619
 30
0.0
 10
606.955226
 20
541.346513
 30
0.0
 10
616.297086
 20
537.476988
 30
0.0
  0
SPLINE
  5
19a
100
AcDbEntity
  8
0
 62
7
100
AcDbSpline
 70
8
 71
3
 72
8
 73
4
 74
0
 40
0
 40
0
 40
0
 40
0
 40
1
 40
1
 40
1
 40
1
 10
616.297086
 20
537.476988
 30
0.0
 10
625.638946
 20
533.607463
 30
0.0
 10
631.730000
 20
524.491556
 30
0.0
 10
631.730000
 20
514.380000
 30
0.0
  0
SPLINE
  5
19b
100
AcDbEntity
  8
0
 62
7
100
AcDbSpline
 70
8
 71
3
 72
8
 73
4
 74
0
 40
0
 40
0
 40
0
 40
0
 40
1
 40
1
 40
1
 40
1
 10
631.730000
 20
514.380000
 30
0.0
 10
631.730000
 20
507.749588
 30
0.0
 10
629.096079
 20
501.390740
 30
0.0
 10
624.407670
 20
496.702330
 30
0.0
  0
SPLINE
  5
19c
100
AcDbEntity
  8
0
 62
7
100
AcDbSpline
 70
8
 71
3
 72
8
 73
4
 74
0
 40
0
 40
0
 40
0
 40
0
 40
1
 40
1
 40
1
 40
1
 10
624.407670
 20
496.702330
 30
0.0
 10
619.719260
 20
492.013921
 30
0.0
 10
613.360412
 20
489.380000
 30
0.0
 10
606.730000
 20
489.380000
 30
0.0
  0
LWPOLYLINE
  5
19d
100
AcDbEntity
  8
0
 62
7
100
AcDbPolyline
 90
1
 70
1
 10
523.400000
 20
489.380000
 30
0.0
  0
SPLINE
  5
19e
100
AcDbEntity
  8
0
 62
7
100
AcDbSpline
 70
8
 71
3
 72
8
 73
4
 74
0
 40
0
 40
0
 40
0
 40
0
 40
1
 40
1
 40
1
 40
1
 10
773.390000
 20
489.380000
 30
0.0
 10
763.278444
 20
489.380000
 30
0.0
 10
754.162537
 20
495.471054
 30
0.0
 10
750.293012
 20
504.812914
 30
0.0
  0
SPLINE
  5
19f
100
AcDbEntity
  8
0
 62
7
100
AcDbSpline
 70
8
 71
3
 72
8
 73
4
 74
0
 40
0
 40
0
 40
0
 40
0
 40
1
 40
1
 40
1
 40
1
 10
750.293012
 20
504.812914
 30
0.0
 10
746.423487
 20
514.154774
 30
0.0
 10
748.562381
 20
524.907720
 30
0.0
 10
755.712330
 20
532.057670
 30
0.0
  0
SPLINE
  5
1a0
100
AcDbEntity
  8
0
 62
7
100
AcDbSpline
 70
8
 71
3
 72
8
 73
4
 74
0
 40
0
 40
0
 40
0
 40
0
 40
1
 40
1
 40
1
 40
1
 10
755.712330
 20
532.057670
 30
0.0
 10
762.862280
 20
539.207619
 30
0.0
 10
773.615226
 20
541.346513
 30
0.0
 10
782.957086
 20
537.476988
 30
0.0
  0
SPLINE
  5
1a1
100
AcDbEntity
  8
0
 62
7
100
AcDbSpline
 70
8
 71
3
 72
8
 73
4
 74
0
 40
0
 40
0
 40
0
 40
0
 40
1
 40
1
 40
1
 40
1
 10
782.957086
 20
537.476988
 30
0.0
 10
792.298946
 20
533.607463
 30
0.0
 10
798.390000
 20
524.491556
 30
0.0
 10
798.390000
 20
514.380000
 30
0.0
  0
SPLINE
  5
1a2
100
AcDbEntity
  8
0
 62
7
100
AcDbSpline
 70
8
 71
3
 72
8
 73
4
 74
0
 40
0
 40
0
 40
0
 40
0
 40
1
 40
1
 40
1
 40
1
 10
798.390000
 20
514.380000
 30
0.0
 10
798.390000
 20
500.572881
 30
0.0
 10
787.197119
 20
489.380000
 30
0.0
 10
773.390000
 20
489.380000
 30
0.0
  0
LWPOLYLINE
  5
1a3
100
AcDbEntity
  8
0
 62
7
100
AcDbPolyline
 90
1
 70
1
 10
606.730000
 20
489.380000
 30
0.0
  0
SPLINE
  5
1a4
100
AcDbEntity
  8
0
 62
7
100
AcDbSpline
 70
8
 71
3
 72
8
 73
4
 74
0
 40
0
 40
0
 40
0
 40
0
 40
1
 40
1
 40
1
 40
1
 10
856.720000
 20
489.380000
 30
0.0
 10
846.608444
 20
489.380000
 30
0.0
 10
837.492537
 20
495.471054
 30
0.0
 10
833.623012
 20
504.812914
 30
0.0
  0
SPLINE
  5
1a5
100
AcDbEntity
  8
0
 62
7
100
AcDbSpline
 70
8
 71
3
 72
8
 73
4
 74
0
 40
0
 40
0
 40
0
 40
0
 40
1
 40
1
 40
1
 40
1
 10
833.623012
 20
504.812914
 30
0.0
 10
829.753487
 20
514.154774
 30
0.0
 10
831.892381
 20
524.907720
 30
0.0
 10
839.042330
 20
532.057670
 30
0.0
  0
SPLINE
  5
1a6
100
AcDbEntity
  8
0
 62
7
100
AcDbSpline
 70
8
 71
3
 72
8
 73
4
 74
0
 40
0
 40
0
 40
0
 40
0
 40
1
 40
1
 40
1
 40
1
 10
839.042330
 20
532.057670
 30
0.0
 10
846.192280
 20
539.207619
 30
0.0
 10
856.945226
 20
541.346513
 30
0.0
 10
866.287086
 20
537.476988
 30
0.0
  0
SPLINE
  5
1a7
100
AcDbEntity
  8
0
 62
7
100
AcDbSpline
 70
8
 71
3
 72
8
 73
4
 74
0
 40
0
 40
0
 40
0
 40
0
 40
1
 40
1
 40
1
 40
1
 10
866.287086
 20
537.476988
 30
0.0
 10
875.628946
 20
533.607463
 30
0.0
 10
881.720000
 20
524.491556
 30
0.0
 10
881.720000
 20
514.380000
 30
0.0
  0
SPLINE
  5
1a8
100
AcDbEntity
  8
0
 62
7
100
AcDbSpline
 70
8
 71
3
 72
8
 73
4
 74
0
 40
0
 40
0
 40
0
 40
0
 40
1
 40
1
 40
1
 40
1
 10
881.720000
 20
514.380000
 30
0.0
 10
881.720000
 20
507.749588
 30
0.0
 10
879.086079
 20
501.390740
 30
0.0
 10
874.397670
 20
496.702330
 30
0.0
  0
SPLINE
  5
1a9
100
AcDbEntity
  8
0
 62
7
100
AcDbSpline
 70
8
 71
3
 72
8
 73
4
 74
0
 40
0
 40
0
 40
0
 40
0
 40
1
 40
1
 40
1
 40
1
 10
874.397670
 20
496.702330
 30
0.0
 10
869.709260
 20
492.013921
 30
0.0
 10
863.350412
 20
489.380000
 30
0.0
 10
856.720000
 20
489.380000
 30
0.0
  0
LWPOLYLINE
  5
1aa
100
AcDbEntity
  8
0
 62
7
100
AcDbPolyline
 90
1
 70
1
 10
773.390000
 20
489.380000
 30
0.0
  0
SPLINE
  5
1ab
100
AcDbEntity
  8
0
 62
7
100
AcDbSpline
 70
8
 71
3
 72
8
 73
4
 74
0
 40
0
 40
0
 40
0
 40
0
 40
1
 40
1
 40
1
 40
1
 10
940.050000
 20
489.380000
 30
0.0
 10
929.938444
 20
489.380000
 30
0.0
 10
920.822537
 20
495.471054
 30
0.0
 10
916.953012
 20
504.812914
 30
0.0
  0
SPLINE
  5
1ac
100
AcDbEntity
  8
0
 62
7
100
AcDbSpline
 70
8
 71
3
 72
8
 73
4
 74
0
 40
0
 40
0
 40
0
 40
0
 40
1
 40
1
 40
1
 40
1
 10
916.953012
 20
504.812914
 30
0.0
 10
913.083487
 20
514.154774
 30
0.0
 10
915.222381
 20
524.907720
 30
0.0
 10
922.372330
 20
532.057670
 30
0.0
  0
SPLINE
  5
1ad
100
AcDbEntity
  8
0
 62
7
100
AcDbSpline
 70
8
 71
3
 72
8
 73
4
 74
0
 40
0
 40
0
 40
0
 40
0
 40
1
 40
1
 40
1
 40
1
 10
922.372330
 20
532.057670
 30
0.0
 10
929.522280
 20
539.207619
 30
0.0
 10
940.275226
 20
541.346513
 30
0.0
 10
949.617086
 20
537.476988
 30
0.0
  0
SPLINE
  5
1ae
100
AcDbEntity
  8
0
 62
7
100
AcDbSpline
 70
8
 71
3
 72
8
 73
4
 74
0
 40
0
 40
0
 40
0
 40
0
 40
1
 40
1
 40
1
 40
1
 10
949.617086
 20
537.476988
 30
0.0
 10
958.958946
 20
533.607463
 30
0.0
 10
965.050000
 20
524.491556
 30
0.0
 10
965.050000
 20
514.380000
 30
0.0
  0
SPLINE
  5
1af
100
AcDbEntity
  8
0
 62
7
100
AcDbSpline
 70
8
 71
3
 72
8
 73
4
 74
0
 40
0
 40
0
 40
0
 40
0
 40
1
 40
1
 40
1
 40
1
 10
965.050000
 20
514.380000
 30
0.0
 10
965.050000
 20
507.749588
 30
0.0
 10
962.416079
 20
501.390740
 30
0.0
 10
957.727670
 20
496.702330
 30
0.0
  0
SPLINE
  5
1b0
100
AcDbEntity
  8
0
 62
7
100
AcDbSpline
 70
8
 71
3
 72
8
 73
4
 74
0
 40
0
 40
0
 40
0
 40
0
 40
1
 40
1
 40
1
 40
1
 10
957.727670
 20
496.702330
 30
0.0
 10
953.039260
 20
492.013921
 30
0.0
 10
946.680412
 20
489.380000
 30
0.0
 10
940.050000
 20
489.380000
 30
0.0
  0
LWPOLYLINE
  5
1b1
100
AcDbEntity
  8
0
 62
7
100
AcDbPolyline
 90
1
 70
1
 10
856.720000
 20
489.380000
 30
0.0
  0
SPLINE
  5
1b2
100
AcDbEntity
  8
0
 62
7
100
AcDbSpline
 70
8
 71
3
 72
8
 73
4
 74
0
 40
0
 40
0
 40
0
 40
0
 40
1
 40
1
 40
1
 40
1
 10
1106.710000
 20
489.380000
 30
0.0
 10
1096.598444
 20
489.380000
 30
0.0
 10
1087.482537
 20
495.471054
 30
0.0
 10
1083.613012
 20
504.812914
 30
0.0
  0
SPLINE
  5
1b3
100
AcDbEntity
  8
0
 62
7
100
AcDbSpline
 70
8
 71
3
 72
8
 73
4
 74
0
 40
0
 40
0
 40
0
 40
0
 40
1
 40
1
 40
1
 40
1
 10
1083.613012
 20
504.812914
 30
0.0
 10
1079.743487
 20
514.154774
 30
0.0
 10
1081.882381
 20
524.907720
 30
0.0
 10
1089.032330
 20
532.057670
 30
0.0
  0
SPLINE
  5
1b4
100
AcDbEntity
  8
0
 62
7
100
AcDbSpline
 70
8
 71
3
 72
8
 73
4
 74
0
 40
0
 40
0
 40
0
 40
0
 40
1
 40
1
 40
1
 40
1
 10
1089.032330
 20
532.057670
 30
0.0
 10
1096.182280
 20
539.207619
 30
0.0
 10
1106.935226
 20
541.346513
 30
0.0
 10
1116.277086
 20
537.476988
 30
0.0
  0
SPLINE
  5
1b5
100
AcDbEntity
  8
0
 62
7
100
AcDbSpline
 70
8
 71
3
 72
8
 73
4
 74
0
 40
0
 40
0
 40
0
 40
0
 40
1
 40
1
 40
1
 40
1
 10
1116.277086
 20
537.476988
 30
0.0
 10
1125.618946
 20
533.607463
 30
0.0
 10
1131.710000
 20
524.491556
 30
0.0
 10
1131.710000
 20
514.380000
 30
0.0
  0
SPLINE
  5
1b6
100
AcDbEntity
  8
0
 62
7
100
AcDbSpline
 70
8
 71
3
 72
8
 73
4
 74
0
 40
0
 40
0
 40
0
 40
0
 40
1
 40
1
 40
1
 40
1
 10
1131.710000
 20
514.380000
 30
0.0
 10
1131.710000
 20
507.749588
 30
0.0
 10
1129.076079
 20
501.390740
 30
0.0
 10
1124.387670
 20
496.702330
 30
0.0
  0
SPLINE
  5
1b7
100
AcDbEntity
  8
0
 62
7
100
AcDbSpline
 70
8
 71
3
 72
8
 73
4
 74
0
 40
0
 40
0
 40
0
 40
0
 40
1
 40
1
 40
1
 40
1
 10
1124.387670
 20
496.702330
 30
0.0
 10
1119.699260
 20
492.013921
 30
0.0
 10
1113.340412
 20
489.380000
 30
0.0
 10
1106.710000
 20
489.380000
 30
0.0
  0
LWPOLYLINE
  5
1b8
100
AcDbEntity
  8
0
 62
7
100
AcDbPolyline
 90
1
 70
1
 10
940.050000
 20
489.380000
 30
0.0
  0
SPLINE
  5
1b9
100
AcDbEntity
  8
0
 62
7
100
AcDbSpline
 70
8
 71
3
 72
8
 73
4
 74
0
 40
0
 40
0
 40
0
 40
0
 40
1
 40
1
 40
1
 40
1
 10
1190.040000
 20
489.380000
 30
0.0
 10
1179.928444
 20
489.380000
 30
0.0
 10
1170.812537
 20
495.471054
 30
0.0
 10
1166.943012
 20
504.812914
 30
0.0
  0
SPLINE
  5
1ba
100
AcDbEntity
  8
0
 62
7
100
AcDbSpline
 70
8
 71
3
 72
8
 73
4
 74
0
 40
0
 40
0
 40
0
 40
0
 40
1
 40
1
 40
1
 40
1
 10
1166.943012
 20
504.812914
 30
0.0
 10
1163.073487
 20
514.154774
 30
0.0
 10
1165.212381
 20
524.907720
 30
0.0
 10
1172.362330
 20
532.057670
 30
0.0
  0
SPLINE
  5
1bb
100
AcDbEntity
  8
0
 62
7
100
AcDbSpline
 70
8
 71
3
 72
8
 73
4
 74
0
 40
0
 40
0
 40
0
 40
0
 40
1
 40
1
 40
1
 40
1
 10
1172.362330
 20
532.057670
 30
0.0
 10
1179.512280
 20
539.207619
 30
0.0
 10
1190.265226
 20
541.346513
 30
0.0
 10
1199.607086
 20
537.476988
 30
0.0
  0
SPLINE
  5
1bc
100
AcDbEntity
  8
0
 62
7
100
AcDbSpline
 70
8
 71
3
 72
8
 73
4
 74
0
 40
0
 40
0
 40
0
 40
0
 40
1
 40
1
 40
1
 40
1
 10
1199.607086
 20
537.476988
 30
0.0
 10
1208.948946
 20
533.607463
 30
0.0
 10
1215.040000
 20
524.491556
 30
0.0
 10
1215.040000
 20
514.380000
 30
0.0
  0
SPLINE
  5
1bd
100
AcDbEntity
  8
0
 62
7
100
AcDbSpline
 70
8
 71
3
 72
8
 73
4
 74
0
 40
0
 40
0
 40
0
 40
0
 40
1
 40
1
 40
1
 40
1
 10
1215.040000
 20
514.380000
 30
0.0
 10
1215.040000
 20
507.749588
 30
0.0
 10
1212.406079
 20
501.390740
 30
0.0
 10
1207.717670
 20
496.702330
 30
0.0
  0
SPLINE
  5
1be
100
AcDbEntity
  8
0
 62
7
100
AcDbSpline
 70
8
 71
3
 72
8
 73
4
 74
0
 40
0
 40
0
 40
0
 40
0
 40
1
 40
1
 40
1
 40
1
 10
1207.717670
 20
496.702330
 30
0.0
 10
1203.029260
 20
492.013921
 30
0.0
 10
1196.670412
 20
489.380000
 30
0.0
 10
1190.040000
 20
489.380000
 30
0.0
  0
LWPOLYLINE
  5
1bf
100
AcDbEntity
  8
0
 62
7
100
AcDbPolyline
 90
1
 70
1
 10
1106.710000
 20
489.380000
 30
0.0
  0
SPLINE
  5
1c0
100
AcDbEntity
  8
0
 62
7
100
AcDbSpline
 70
8
 71
3
 72
8
 73
4
 74
0
 40
0
 40
0
 40
0
 40
0
 40
1
 40
1
 40
1
 40
1
 10
1273.370000
 20
489.380000
 30
0.0
 10
1263.258444
 20
489.380000
 30
0.0
 10
1254.142537
 20
495.471054
 30
0.0
 10
1250.273012
 20
504.812914
 30
0.0
  0
SPLINE
  5
1c1
100
AcDbEntity
  8
0
 62
7
100
AcDbSpline
 70
8
 71
3
 72
8
 73
4
 74
0
 40
0
 40
0
 40
0
 40
0
 40
1
 40
1
 40
1
 40
1
 10
1250.273012
 20
504.812914
 30
0.0
 10
1246.403487
 20
514.154774
 30
0.0
 10
1248.542381
 20
524.907720
 30
0.0
 10
1255.692330
 20
532.057670
 30
0.0
  0
SPLINE
  5
1c2
100
AcDbEntity
  8
0
 62
7
100
AcDbSpline
 70
8
 71
3
 72
8
 73
4
 74
0
 40
0
 40
0
 40
0
 40
0
 40
1
 40
1
 40
1
 40
1
 10
1255.692330
 20
532.057670
 30
0.0
 10
1262.842280
 20
539.207619
 30
0.0
 10
1273.595226
 20
541.346513
 30
0.0
 10
1282.937086
 20
537.476988
 30
0.0
  0
SPLINE
  5
1c3
100
AcDbEntity
  8
0
 62
7
100
AcDbSpline
 70
8
 71
3
 72
8
 73
4
 74
0
 40
0
 40
0
 40
0
 40
0
 40
1
 40
1
 40
1
 40
1
 10
1282.937086
 20
537.476988
 30
0.0
 10
1292.278946
 20
533.607463
 30
0.0
 10
1298.370000
 20
524.491556
 30
0.0
 10
1298.370000
 20
514.380000
 30
0.0
  0
SPLINE
  5
1c4
100
AcDbEntity
  8
0
 62
7
100
AcDbSpline
 70
8
 71
3
 72
8
 73
4
 74
0
 40
0
 40
0
 40
0
 40
0
 40
1
 40
1
 40
1
 40
1
 10
1298.370000
 20
514.380000
 30
0.0
 10
1298.370000
 20
507.749588
 30
0.0
 10
1295.736079
 20
501.390740
 30
0.0
 10
1291.047670
 20
496.702330
 30
0.0
  0
SPLINE
  5
1c5
100
AcDbEntity
  8
0
 62
7
100
AcDbSpline
 70
8
 71
3
 72
8
 73
4
 74
0
 40
0
 40
0
 40
0
 40
0
 40
1
 40
1
 40
1
 40
1
 10
1291.047670
 20
496.702330
 30
0.0
 10
1286.359260
 20
492.013921
 30
0.0
 10
1280.000412
 20
489.380000
 30
0.0
 10
1273.370000
 20
489.380000
 30
0.0
  0
LWPOLYLINE
  5
1c6
100
AcDbEntity
  8
0
 62
7
100
AcDbPolyline
 90
1
 70
1
 10
1190.040000
 20
489.380000
 30
0.0
  0
SPLINE
  5
1c7
100
AcDbEntity
  8
0
 62
7
100
AcDbSpline
 70
8
 71
3
 72
8
 73
4
 74
0
 40
0
 40
0
 40
0
 40
0
 40
1
 40
1
 40
1
 40
1
 10
1440.030000
 20
489.380000
 30
0.0
 10
1429.918444
 20
489.380000
 30
0.0
 10
1420.802537
 20
495.471054
 30
0.0
 10
1416.933012
 20
504.812914
 30
0.0
  0
SPLINE
  5
1c8
100
AcDbEntity
  8
0
 62
7
100
AcDbSpline
 70
8
 71
3
 72
8
 73
4
 74
0
 40
0
 40
0
 40
0
 40
0
 40
1
 40
1
 40
1
 40
1
 10
1416.933012
 20
504.812914
 30
0.0
 10
1413.063487
 20
514.154774
 30
0.0
 10
1415.202381
 20
524.907720
 30
0.0
 10
1422.352330
 20
532.057670
 30
0.0
  0
SPLINE
  5
1c9
100
AcDbEntity
  8
0
 62
7
100
AcDbSpline
 70
8
 71
3
 72
8
 73
4
 74
0
 40
0
 40
0
 40
0
 40
0
 40
1
 40
1
 40
1
 40
1
 10
1422.352330
 20
532.057670
 30
0.0
 10
1429.502280
 20
539.207619
 30
0.0
 10
1440.255226
 20
541.346513
 30
0.0
 10
1449.597086
 20
537.476988
 30
0.0
  0
SPLINE
  5
1ca
100
AcDbEntity
  8
0
 62
7
100
AcDbSpline
 70
8
 71
3
 72
8
 73
4
 74
0
 40
0
 40
0
 40
0
 40
0
 40
1
 40
1
 40
1
 40
1
 10
1449.597086
 20
537.476988
 30
0.0
 10
1458.938946
 20
533.607463
 30
0.0
 10
1465.030000
 20
524.491556
 30
0.0
 10
1465.030000
 20
514.380000
 30
0.0
  0
SPLINE
  5
1cb
100
AcDbEntity
  8
0
 62
7
100
AcDbSpline
 70
8
 71
3
 72
8
 73
4
 74
0
 40
0
 40
0
 40
0
 40
0
 40
1
 40
1
 40
1
 40
1
 10
1465.030000
 20
514.380000
 30
0.0
 10
1465.030000
 20
507.749588
 30
0.0
 10
1462.396079
 20
501.390740
 30
0.0
 10
1457.707670
 20
496.702330
 30
0.0
  0
SPLINE
  5
1cc
100
AcDbEntity
  8
0
 62
7
100
AcDbSpline
 70
8
 71
3
 72
8
 73
4
 74
0
 40
0
 40
0
 40
0
 40
0
 40
1
 40
1
 40
1
 40
1
 10
1457.707670
 20
496.702330
 30
0.0
 10
1453.019260
 20
492.013921
 30
0.0
 10
1446.660412
 20
489.380000
 30
0.0
 10
1440.030000
 20
489.380000
 30
0.0
  0
LWPOLYLINE
  5
1cd
100
AcDbEntity
  8
0
 62
7
100
AcDbPolyline
 90
1
 70
1
 10
1273.370000
 20
489.380000
 30
0.0
  0
SPLINE
  5
1ce
100
AcDbEntity
  8
0
 62
7
100
AcDbSpline
 70
8
 71
3
 72
8
 73
4
 74
0
 40
0
 40
0
 40
0
 40
0
 40
1
 40
1
 40
1
 40
1
 10
1523.360000
 20
489.380000
 30
0.0
 10
1513.248444
 20
489.380000
 30
0.0
 10
1504.132537
 20
495.471054
 30
0.0
 10
1500.263012
 20
504.812914
 30
0.0
  0
SPLINE
  5
1cf
100
AcDbEntity
  8
0
 62
7
100
AcDbSpline
 70
8
 71
3
 72
8
 73
4
 74
0
 40
0
 40
0
 40
0
 40
0
 40
1
 40
1
 40
1
 40
1
 10
1500.263012
 20
504.812914
 30
0.0
 10
1496.393487
 20
514.154774
 30
0.0
 10
1498.532381
 20
524.907720
 30
0.0
 10
1505.682330
 20
532.057670
 30
0.0
  0
SPLINE
  5
1d0
100
AcDbEntity
  8
0
 62
7
100
AcDbSpline
 70
8
 71
3
 72
8
 73
4
 74
0
 40
0
 40
0
 40
0
 40
0
 40
1
 40
1
 40
1
 40
1
 10
1505.682330
 20
532.057670
 30
0.0
 10
1512.832280
 20
539.207619
 30
0.0
 10
1523.585226
 20
541.346513
 30
0.0
 10
1532.927086
 20
537.476988
 30
0.0
  0
SPLINE
  5
1d1
100
AcDbEntity
  8
0
 62
7
100
AcDbSpline
 70
8
 71
3
 72
8
 73
4
 74
0
 40
0
 40
0
 40
0
 40
0
 40
1
 40
1
 40
1
 40
1
 10
1532.927086
 20
537.476988
 30
0.0
 10
1542.268946
 20
533.607463
 30
0.0
 10
1548.360000
 20
524.491556
 30
0.0
 10
1548.360000
 20
514.380000
 30
0.0
  0
SPLINE
  5
1d2
100
AcDbEntity
  8
0
 62
7
100
AcDbSpline
 70
8
 71
3
 72
8
 73
4
 74
0
 40
0
 40
0
 40
0
 40
0
 40
1
 40
1
 40
1
 40
1
 10
1548.360000
 20
514.380000
 30
0.0
 10
1548.360000
 20
507.749588
 30
0.0
 10
1545.726079
 20
501.390740
 30
0.0
 10
1541.037670
 20
496.702330
 30
0.0
  0
SPLINE
  5
1d3
100
AcDbEntity
  8
0
 62
7
100
AcDbSpline
 70
8
 71
3
 72
8
 73
4
 74
0
 40
0
 40
0
 40
0
 40
0
 40
1
 40
1
 40
1
 40
1
 10
1541.037670
 20
496.702330
 30
0.0
 10
1536.349260
 20
492.013921
 30
0.0
 10
1529.990412
 20
489.380000
 30
0.0
 10
1523.360000
 20
489.380000
 30
0.0
  0
LWPOLYLINE
  5
1d4
100
AcDbEntity
  8
0
 62
7
100
AcDbPolyline
 90
1
 70
1
 10
1440.030000
 20
489.380000
 30
0.0
  0
SPLINE
  5
1d5
100
AcDbEntity
  8
0
 62
7
100
AcDbSpline
 70
8
 71
3
 72
8
 73
4
 74
0
 40
0
 40
0
 40
0
 40
0
 40
1
 40
1
 40
1
 40
1
 10
1606.690000
 20
489.380000
 30
0.0
 10
1596.578444
 20
489.380000
 30
0.0
 10
1587.462537
 20
495.471054
 30
0.0
 10
1583.593012
 20
504.812914
 30
0.0
  0
SPLINE
  5
1d6
100
AcDbEntity
  8
0
 62
7
100
AcDbSpline
 70
8
 71
3
 72
8
 73
4
 74
0
 40
0
 40
0
 40
0
 40
0
 40
1
 40
1
 40
1
 40
1
 10
1583.593012
 20
504.812914
 30
0.0
 10
1579.723487
 20
514.154774
 30
0.0
 10
1581.862381
 20
524.907720
 30
0.0
 10
1589.012330
 20
532.057670
 30
0.0
  0
SPLINE
  5
1d7
100
AcDbEntity
  8
0
 62
7
100
AcDbSpline
 70
8
 71
3
 72
8
 73
4
 74
0
 40
0
 40
0
 40
0
 40
0
 40
1
 40
1
 40
1
 40
1
 10
1589.012330
 20
532.057670
 30
0.0
 10
1596.162280
 20
539.207619
 30
0.0
 10
1606.915226
 20
541.346513
 30
0.0
 10
1616.257086
 20
537.476988
 30
0.0
  0
SPLINE
  5
1d8
100
AcDbEntity
  8
0
 62
7
100
AcDbSpline
 70
8
 71
3
 72
8
 73
4
 74
0
 40
0
 40
0
 40
0
 40
0
 40
1
 40
1
 40
1
 40
1
 10
1616.257086
 20
537.476988
 30
0.0
 10
1625.598946
 20
533.607463
 30
0.0
 10
1631.690000
 20
524.491556
 30
0.0
 10
1631.690000
 20
514.380000
 30
0.0
  0
SPLINE
  5
1d9
100
AcDbEntity
  8
0
 62
7
100
AcDbSpline
 70
8
 71
3
 72
8
 73
4
 74
0
 40
0
 40
0
 40
0
 40
0
 40
1
 40
1
 40
1
 40
1
 10
1631.690000
 20
514.380000
 30
0.0
 10
1631.690000
 20
507.749588
 30
0.0
 10
1629.056079
 20
501.390740
 30
0.0
 10
1624.367670
 20
496.702330
 30
0.0
  0
SPLINE
  5
1da
100
AcDbEntity
  8
0
 62
7
100
AcDbSpline
 70
8
 71
3
 72
8
 73
4
 74
0
 40
0
 40
0
 40
0
 40
0
 40
1
 40
1
 40
1
 40
1
 10
1624.367670
 20
496.702330
 30
0.0
 10
1619.679260
 20
492.013921
 30
0.0
 10
1613.320412
 20
489.380000
 30
0.0
 10
1606.690000
 20
489.380000
 30
0.0
  0
LWPOLYLINE
  5
1db
100
AcDbEntity
  8
0
 62
7
100
AcDbPolyline
 90
1
 70
1
 10
1523.360000
 20
489.380000
 30
0.0
  0
SPLINE
  5
1dc
100
AcDbEntity
  8
0
 62
7
100
AcDbSpline
 70
8
 71
3
 72
8
 73
4
 74
0
 40
0
 40
0
 40
0
 40
0
 40
1
 40
1
 40
1
 40
1
 10
1773.350000
 20
489.380000
 30
0.0
 10
1763.238444
 20
489.380000
 30
0.0
 10
1754.122537
 20
495.471054
 30
0.0
 10
1750.253012
 20
504.812914
 30
0.0
  0
SPLINE
  5
1dd
100
AcDbEntity
  8
0
 62
7
100
AcDbSpline
 70
8
 71
3
 72
8
 73
4
 74
0
 40
0
 40
0
 40
0
 40
0
 40
1
 40
1
 40
1
 40
1
 10
1750.253012
 20
504.812914
 30
0.0
 10
1746.383487
 20
514.154774
 30
0.0
 10
1748.522381
 20
524.907720
 30
0.0
 10
1755.672330
 20
532.057670
 30
0.0
  0
SPLINE
  5
1de
100
AcDbEntity
  8
0
 62
7
100
AcDbSpline
 70
8
 71
3
 72
8
 73
4
 74
0
 40
0
 40
0
 40
0
 40
0
 40
1
 40
1
 40
1
 40
1
 10
1755.672330
 20
532.057670
 30
0.0
 10
1762.822280
 20
539.207619
 30
0.0
 10
1773.575226
 20
541.346513
 30
0.0
 10
1782.917086
 20
537.476988
 30
0.0
  0
SPLINE
  5
1df
100
AcDbEntity
  8
0
 62
7
100
AcDbSpline
 70
8
 71
3
 72
8
 73
4
 74
0
 40
0
 40
0
 40
0
 40
0
 40
1
 40
1
 40
1
 40
1
 10
1782.917086
 20
537.476988
 30
0.0
 10
1792.258946
 20
533.607463
 30
0.0
 10
1798.350000
 20
524.491556
 30
0.0
 10
1798.350000
 20
514.380000
 30
0.0
  0
SPLINE
  5
1e0
100
AcDbEntity
  8
0
 62
7
100
AcDbSpline
 70
8
 71
3
 72
8
 73
4
 74
0
 40
0
 40
0
 40
0
 40
0
 40
1
 40
1
 40
1
 40
1
 10
1798.350000
 20
514.380000
 30
0.0
 10
1798.350000
 20
507.749588
 30
0.0
 10
1795.716079
 20
501.390740
 30
0.0
 10
1791.027670
 20
496.702330
 30
0.0
  0
SPLINE
  5
1e1
100
AcDbEntity
  8
0
 62
7
100
AcDbSpline
 70
8
 71
3
 72
8
 73
4
 74
0
 40
0
 40
0
 40
0
 40
0
 40
1
 40
1
 40
1
 40
1
 10
1791.027670
 20
496.702330
 30
0.0
 10
1786.339260
 20
492.013921
 30
0.0
 10
1779.980412
 20
489.380000
 30
0.0
 10
1773.350000
 20
489.380000
 30
0.0
  0
LWPOLYLINE
  5
1e2
100
AcDbEntity
  8
0
 62
7
100
AcDbPolyline
 90
1
 70
1
 10
1606.690000
 20
489.380000
 30
0.0
  0
SPLINE
  5
1e3
100
AcDbEntity
  8
0
 62
7
100
AcDbSpline
 70
8
 71
3
 72
8
 73
4
 74
0
 40
0
 40
0
 40
0
 40
0
 40
1
 40
1
 40
1
 40
1
 10
1856.680000
 20
489.380000
 30
0.0
 10
1846.568444
 20
489.380000
 30
0.0
 10
1837.452537
 20
495.471054
 30
0.0
 10
1833.583012
 20
504.812914
 30
0.0
  0
SPLINE
  5
1e4
100
AcDbEntity
  8
0
 62
7
100
AcDbSpline
 70
8
 71
3
 72
8
 73
4
 74
0
 40
0
 40
0
 40
0
 40
0
 40
1
 40
1
 40
1
 40
1
 10
1833.583012
 20
504.812914
 30
0.0
 10
1829.713487
 20
514.154774
 30
0.0
 10
1831.852381
 20
524.907720
 30
0.0
 10
1839.002330
 20
532.057670
 30
0.0
  0
SPLINE
  5
1e5
100
AcDbEntity
  8
0
 62
7
100
AcDbSpline
 70
8
 71
3
 72
8
 73
4
 74
0
 40
0
 40
0
 40
0
 40
0
 40
1
 40
1
 40
1
 40
1
 10
1839.002330
 20
532.057670
 30
0.0
 10
1846.152280
 20
539.207619
 30
0.0
 10
1856.905226
 20
541.346513
 30
0.0
 10
1866.247086
 20
537.476988
 30
0.0
  0
SPLINE
  5
1e6
100
AcDbEntity
  8
0
 62
7
100
AcDbSpline
 70
8
 71
3
 72
8
 73
4
 74
0
 40
0
 40
0
 40
0
 40
0
 40
1
 40
1
 40
1
 40
1
 10
1866.247086
 20
537.476988
 30
0.0
 10
1875.588946
 20
533.607463
 30
0.0
 10
1881.680000
 20
524.491556
 30
0.0
 10
1881.680000
 20
514.380000
 30
0.0
  0
SPLINE
  5
1e7
100
AcDbEntity
  8
0
 62
7
100
AcDbSpline
 70
8
 71
3
 72
8
 73
4
 74
0
 40
0
 40
0
 40
0
 40
0
 40
1
 40
1
 40
1
 40
1
 10
1881.680000
 20
514.380000
 30
0.0
 10
1881.680000
 20
507.749588
 30
0.0
 10
1879.046079
 20
501.390740
 30
0.0
 10
1874.357670
 20
496.702330
 30
0.0
  0
SPLINE
  5
1e8
100
AcDbEntity
  8
0
 62
7
100
AcDbSpline
 70
8
 71
3
 72
8
 73
4
 74
0
 40
0
 40
0
 40
0
 40
0
 40
1
 40
1
 40
1
 40
1
 10
1874.357670
 20
496.702330
 30
0.0
 10
1869.669260
 20
492.013921
 30
0.0
 10
1863.310412
 20
489.380000
 30
0.0
 10
1856.680000
 20
489.380000
 30
0.0
  0
LWPOLYLINE
  5
1e9
100
AcDbEntity
  8
0
 62
7
100
AcDbPolyline
 90
1
 70
1
 10
1773.350000
 20
489.380000
 30
0.0
  0
SPLINE
  5
1ea
100
AcDbEntity
  8
0
 62
7
100
AcDbSpline
 70
8
 71
3
 72
8
 73
4
 74
0
 40
0
 40
0
 40
0
 40
0
 40
1
 40
1
 40
1
 40
1
 10
1940.020000
 20
489.380000
 30
0.0
 10
1929.908444
 20
489.380000
 30
0.0
 10
1920.792537
 20
495.471054
 30
0.0
 10
1916.923012
 20
504.812914
 30
0.0
  0
SPLINE
  5
1eb
100
AcDbEntity
  8
0
 62
7
100
AcDbSpline
 70
8
 71
3
 72
8
 73
4
 74
0
 40
0
 40
0
 40
0
 40
0
 40
1
 40
1
 40
1
 40
1
 10
1916.923012
 20
504.812914
 30
0.0
 10
1913.053487
 20
514.154774
 30
0.0
 10
1915.192381
 20
524.907720
 30
0.0
 10
1922.342330
 20
532.057670
 30
0.0
  0
SPLINE
  5
1ec
100
AcDbEntity
  8
0
 62
7
100
AcDbSpline
 70
8
 71
3
 72
8
 73
4
 74
0
 40
0
 40
0
 40
0
 40
0
 40
1
 40
1
 40
1
 40
1
 10
1922.342330
 20
532.057670
 30
0.0
 10
1929.492280
 20
539.207619
 30
0.0
 10
1940.245226
 20
541.346513
 30
0.0
 10
1949.587086
 20
537.476988
 30
0.0
  0
SPLINE
  5
1ed
100
AcDbEntity
  8
0
 62
7
100
AcDbSpline
 70
8
 71
3
 72
8
 73
4
 74
0
 40
0
 40
0
 40
0
 40
0
 40
1
 40
1
 40
1
 40
1
 10
1949.587086
 20
537.476988
 30
0.0
 10
1958.928946
 20
533.607463
 30
0.0
 10
1965.020000
 20
524.491556
 30
0.0
 10
1965.020000
 20
514.380000
 30
0.0
  0
SPLINE
  5
1ee
100
AcDbEntity
  8
0
 62
7
100
AcDbSpline
 70
8
 71
3
 72
8
 73
4
 74
0
 40
0
 40
0
 40
0
 40
0
 40
1
 40
1
 40
1
 40
1
 10
1965.020000
 20
514.380000
 30
0.0
 10
1965.020000
 20
507.749588
 30
0.0
 10
1962.386079
 20
501.390740
 30
0.0
 10
1957.697670
 20
496.702330
 30
0.0
  0
SPLINE
  5
1ef
100
AcDbEntity
  8
0
 62
7
100
AcDbSpline
 70
8
 71
3
 72
8
 73
4
 74
0
 40
0
 40
0
 40
0
 40
0
 40
1
 40
1
 40
1
 40
1
 10
1957.697670
 20
496.702330
 30
0.0
 10
1953.009260
 20
492.013921
 30
0.0
 10
1946.650412
 20
489.380000
 30
0.0
 10
1940.020000
 20
489.380000
 30
0.0
  0
LWPOLYLINE
  5
1f0
100
AcDbEntity
  8
0
 62
7
100
AcDbPolyline
 90
1
 70
1
 10
1856.680000
 20
489.380000
 30
0.0
  0
LWPOLYLINE
  5
1f1
100
AcDbEntity
  8
0
 62
7
100
AcDbPolyline
 90
1
 70
1
 10
1940.020000
 20
489.380000
 30
0.0
  0
LWPOLYLINE
  5
1f2
100
AcDbEntity
  8
0
 62
7
100
AcDbPolyline
 90
2
 70
0
 10
23.380000
 20
324.380000
 30
0.0
 10
23.380000
 20
304.380000
 30
0.0
  0
LWPOLYLINE
  5
1f3
100
AcDbEntity
  8
0
 62
7
100
AcDbPolyline
 90
3
 70
0
 10
23.380000
 20
324.380000
 30
0.0
 10
27.380000
 20
324.380000
 30
0.0
 10
27.380000
 20
344.380000
 30
0.0
  0
LWPOLYLINE
  5
1f4
100
AcDbEntity
  8
0
 62
7
100
AcDbPolyline
 90
2
 70
0
 10
354.720000
 20
344.380000
 30
0.0
 10
27.380000
 20
344.380000
 30
0.0
  0
LWPOLYLINE
  5
1f5
100
AcDbEntity
  8
0
 62
7
100
AcDbPolyline
 90
2
 70
0
 10
354.720000
 20
324.380000
 30
0.0
 10
354.720000
 20
344.380000
 30
0.0
  0
LWPOLYLINE
  5
1f6
100
AcDbEntity
  8
0
 62
7
100
AcDbPolyline
 90
2
 70
0
 10
358.720000
 20
324.380000
 30
0.0
 10
354.720000
 20
324.380000
 30
0.0
  0
LWPOLYLINE
  5
1f7
100
AcDbEntity
  8
0
 62
7
100
AcDbPolyline
 90
2
 70
0
 10
358.720000
 20
344.380000
 30
0.0
 10
358.720000
 20
324.380000
 30
0.0
  0
LWPOLYLINE
  5
1f8
100
AcDbEntity
  8
0
 62
7
100
AcDbPolyline
 90
2
 70
0
 10
688.050000
 20
344.380000
 30
0.0
 10
358.720000
 20
344.380000
 30
0.0
  0
LWPOLYLINE
  5
1f9
100
AcDbEntity
  8
0
 62
7
100
AcDbPolyline
 90
2
 70
0
 10
688.050000
 20
324.380000
 30
0.0
 10
688.050000
 20
344.380000
 30
0.0
  0
LWPOLYLINE
  5
1fa
100
AcDbEntity
  8
0
 62
7
100
AcDbPolyline
 90
2
 70
0
 10
692.050000
 20
324.380000
 30
0.0
 10
688.050000
 20
324.380000
 30
0.0
  0
LWPOLYLINE
  5
1fb
100
AcDbEntity
  8
0
 62
7
100
AcDbPolyline
 90
2
 70
0
 10
692.050000
 20
344.380000
 30
0.0
 10
692.050000
 20
324.380000
 30
0.0
  0
LWPOLYLINE
  5
1fc
100
AcDbEntity
  8
0
 62
7
100
AcDbPolyline
 90
2
 70
0
 10
1021.380000
 20
344.380000
 30
0.0
 10
692.050000
 20
344.380000
 30
0.0
  0
LWPOLYLINE
  5
1fd
100
AcDbEntity
  8
0
 62
7
100
AcDbPolyline
 90
4
 70
0
 10
1021.380000
 20
344.380000
 30
0.0
 10
1021.380000
 20
324.380000
 30
0.0
 10
1025.380000
 20
324.380000
 30
0.0
 10
1025.380000
 20
344.380000
 30
0.0
  0
LWPOLYLINE
  5
1fe
100
AcDbEntity
  8
0
 62
7
100
AcDbPolyline
 90
2
 70
0
 10
1354.710000
 20
344.380000
 30
0.0
 10
1025.380000
 20
344.380000
 30
0.0
  0
LWPOLYLINE
  5
1ff
100
AcDbEntity
  8
0
 62
7
100
AcDbPolyline
 90
4
 70
0
 10
1354.710000
 20
344.380000
 30
0.0
 10
1354.710000
 20
324.380000
 30
0.0
 10
1358.710000
 20
324.380000
 30
0.0
 10
1358.710000
 20
344.380000
 30
0.0
  0
LWPOLYLINE
  5
200
100
AcDbEntity
  8
0
 62
7
100
AcDbPolyline
 90
2
 70
0
 10
1688.040000
 20
344.380000
 30
0.0
 10
1358.710000
 20
344.380000
 30
0.0
  0
LWPOLYLINE
  5
201
100
AcDbEntity
  8
0
 62
7
100
AcDbPolyline
 90
4
 70
0
 10
1688.040000
 20
344.380000
 30
0.0
 10
1688.040000
 20
324.380000
 30
0.0
 10
1692.040000
 20
324.380000
 30
0.0
 10
1692.040000
 20
344.380000
 30
0.0
  0
LWPOLYLINE
  5
202
100
AcDbEntity
  8
0
 62
7
100
AcDbPolyline
 90
2
 70
0
 10
2019.380000
 20
344.380000
 30
0.0
 10
1692.040000
 20
344.380000
 30
0.0
  0
LWPOLYLINE
  5
203
100
AcDbEntity
  8
0
 62
7
100
AcDbPolyline
 90
3
 70
0
 10
2019.380000
 20
344.380000
 30
0.0
 10
2019.380000
 20
324.380000
 30
0.0
 10
2023.380000
 20
324.380000
 30
0.0
  0
LWPOLYLINE
  5
204
100
AcDbEntity
  8
0
 62
7
100
AcDbPolyline
 90
2
 70
0
 10
2023.380000
 20
304.380000
 30
0.0
 10
2023.380000
 20
324.380000
 30
0.0
  0
LWPOLYLINE
  5
205
100
AcDbEntity
  8
0
 62
7
100
AcDbPolyline
 90
2
 70
0
 10
2019.380000
 20
304.380000
 30
0.0
 10
2023.380000
 20
304.380000
 30
0.0
  0
LWPOLYLINE
  5
206
100
AcDbEntity
  8
0
 62
7
100
AcDbPolyline
 90
2
 70
0
 10
2019.380000
 20
284.380000
 30
0.0
 10
2019.380000
 20
304.380000
 30
0.0
  0
LWPOLYLINE
  5
207
100
AcDbEntity
  8
0
 62
7
100
AcDbPolyline
 90
2
 70
0
 10
2023.380000
 20
284.380000
 30
0.0
 10
2019.380000
 20
284.380000
 30
0.0
  0
LWPOLYLINE
  5
208
100
AcDbEntity
  8
0
 62
7
100
AcDbPolyline
 90
2
 70
0
 10
2023.380000
 20
264.380000
 30
0.0
 10
2023.380000
 20
284.380000
 30
0.0
  0
LWPOLYLINE
  5
209
100
AcDbEntity
  8
0
 62
7
100
AcDbPolyline
 90
2
 70
0
 10
2019.380000
 20
264.380000
 30
0.0
 10
2023.380000
 20
264.380000
 30
0.0
  0
LWPOLYLINE
  5
20a
100
AcDbEntity
  8
0
 62
7
100
AcDbPolyline
 90
2
 70
0
 10
2019.380000
 20
244.380000
 30
0.0
 10
2019.380000
 20
264.380000
 30
0.0
  0
LWPOLYLINE
  5
20b
100
AcDbEntity
  8
0
 62
7
100
AcDbPolyline
 90
2
 70
0
 10
1692.040000
 20
244.380000
 30
0.0
 10
2019.380000
 20
244.380000
 30
0.0
  0
LWPOLYLINE
  5
20c
100
AcDbEntity
  8
0
 62
7
100
AcDbPolyline
 90
4
 70
0
 10
1692.040000
 20
244.380000
 30
0.0
 10
1692.040000
 20
264.380000
 30
0.0
 10
1688.040000
 20
264.380000
 30
0.0
 10
1688.040000
 20
244.380000
 30
0.0
  0
LWPOLYLINE
  5
20d
100
AcDbEntity
  8
0
 62
7
100
AcDbPolyline
 90
2
 70
0
 10
1358.710000
 20
244.380000
 30
0.0
 10
1688.040000
 20
244.380000
 30
0.0
  0
LWPOLYLINE
  5
20e
100
AcDbEntity
  8
0
 62
7
100
AcDbPolyline
 90
4
 70
0
 10
1358.710000
 20
244.380000
 30
0.0
 10
1358.710000
 20
264.380000
 30
0.0
 10
1354.710000
 20
264.380000
 30
0.0
 10
1354.710000
 20
244.380000
 30
0.0
  0
LWPOLYLINE
  5
20f
100
AcDbEntity
  8
0
 62
7
100
AcDbPolyline
 90
2
 70
0
 10
1025.380000
 20
244.380000
 30
0.0
 10
1354.710000
 20
244.380000
 30
0.0
  0
LWPOLYLINE
  5
210
100
AcDbEntity
  8
0
 62
7
100
AcDbPolyline
 90
4
 70
0
 10
1025.380000
 20
244.380000
 30
0.0
 10
1025.380000
 20
264.380000
 30
0.0
 10
1021.380000
 20
264.380000
 30
0.0
 10
1021.380000
 20
244.380000
 30
0.0
  0
LWPOLYLINE
  5
211
100
AcDbEntity
  8
0
 62
7
100
AcDbPolyline
 90
2
 70
0
 10
692.050000
 20
244.380000
 30
0.0
 10
1021.380000
 20
244.380000
 30
0.0
  0
LWPOLYLINE
  5
212
100
AcDbEntity
  8
0
 62
7
100
AcDbPolyline
 90
4
 70
0
 10
692.050000
 20
244.380000
 30
0.0
 10
692.050000
 20
264.380000
 30
0.0
 10
688.050000
 20
264.380000
 30
0.0
 10
688.050000
 20
244.380000
 30
0.0
  0
LWPOLYLINE
  5
213
100
AcDbEntity
  8
0
 62
7
100
AcDbPolyline
 90
2
 70
0
 10
358.720000
 20
244.380000
 30
0.0
 10
688.050000
 20
244.380000
 30
0.0
  0
LWPOLYLINE
  5
214
100
AcDbEntity
  8
0
 62
7
100
AcDbPolyline
 90
4
 70
0
 10
358.720000
 20
244.380000
 30
0.0
 10
358.720000
 20
264.380000
 30
0.0
 10
354.720000
 20
264.380000
 30
0.0
 10
354.720000
 20
244.380000
 30
0.0
  0
LWPOLYLINE
  5
215
100
AcDbEntity
  8
0
 62
7
100
AcDbPolyline
 90
2
 70
0
 10
27.380000
 20
244.380000
 30
0.0
 10
354.720000
 20
244.380000
 30
0.0
  0
LWPOLYLINE
  5
216
100
AcDbEntity
  8
0
 62
7
100
AcDbPolyline
 90
3
 70
0
 10
27.380000
 20
244.380000
 30
0.0
 10
27.380000
 20
264.380000
 30
0.0
 10
23.380000
 20
264.380000
 30
0.0
  0
LWPOLYLINE
  5
217
100
AcDbEntity
  8
0
 62
7
100
AcDbPolyline
 90
2
 70
0
 10
23.380000
 20
284.380000
 30
0.0
 10
23.380000
 20
264.380000
 30
0.0
  0
SPLINE
  5
218
100
AcDbEntity
  8
0
 62
7
100
AcDbSpline
 70
8
 71
3
 72
8
 73
4
 74
0
 40
0
 40
0
 40
0
 40
0
 40
1
 40
1
 40
1
 40
1
 10
106.750000
 20
269.380000
 30
0.0
 10
96.638444
 20
269.380000
 30
0.0
 10
87.522537
 20
275.471054
 30
0.0
 10
83.653012
 20
284.812914
 30
0.0
  0
SPLINE
  5
219
100
AcDbEntity
  8
0
 62
7
100
AcDbSpline
 70
8
 71
3
 72
8
 73
4
 74
0
 40
0
 40
0
 40
0
 40
0
 40
1
 40
1
 40
1
 40
1
 10
83.653012
 20
284.812914
 30
0.0
 10
79.783487
 20
294.154774
 30
0.0
 10
81.922381
 20
304.907720
 30
0.0
 10
89.072330
 20
312.057670
 30
0.0
  0
SPLINE
  5
21a
100
AcDbEntity
  8
0
 62
7
100
AcDbSpline
 70
8
 71
3
 72
8
 73
4
 74
0
 40
0
 40
0
 40
0
 40
0
 40
1
 40
1
 40
1
 40
1
 10
89.072330
 20
312.057670
 30
0.0
 10
96.222280
 20
319.207619
 30
0.0
 10
106.975226
 20
321.346513
 30
0.0
 10
116.317086
 20
317.476988
 30
0.0
  0
SPLINE
  5
21b
100
AcDbEntity
  8
0
 62
7
100
AcDbSpline
 70
8
 71
3
 72
8
 73
4
 74
0
 40
0
 40
0
 40
0
 40
0
 40
1
 40
1
 40
1
 40
1
 10
116.317086
 20
317.476988
 30
0.0
 10
125.658946
 20
313.607463
 30
0.0
 10
131.750000
 20
304.491556
 30
0.0
 10
131.750000
 20
294.380000
 30
0.0
  0
SPLINE
  5
21c
100
AcDbEntity
  8
0
 62
7
100
AcDbSpline
 70
8
 71
3
 72
8
 73
4
 74
0
 40
0
 40
0
 40
0
 40
0
 40
1
 40
1
 40
1
 40
1
 10
131.750000
 20
294.380000
 30
0.0
 10
131.750000
 20
287.749588
 30
0.0
 10
129.116079
 20
281.390740
 30
0.0
 10
124.427670
 20
276.702330
 30
0.0
  0
SPLINE
  5
21d
100
AcDbEntity
  8
0
 62
7
100
AcDbSpline
 70
8
 71
3
 72
8
 73
4
 74
0
 40
0
 40
0
 40
0
 40
0
 40
1
 40
1
 40
1
 40
1
 10
124.427670
 20
276.702330
 30
0.0
 10
119.739260
 20
272.013921
 30
0.0
 10
113.380412
 20
269.380000
 30
0.0
 10
106.750000
 20
269.380000
 30
0.0
  0
LWPOLYLINE
  5
21e
100
AcDbEntity
  8
0
 62
7
100
AcDbPolyline
 90
4
 70
0
 10
23.380000
 20
284.380000
 30
0.0
 10
27.380000
 20
284.380000
 30
0.0
 10
27.380000
 20
304.380000
 30
0.0
 10
23.380000
 20
304.380000
 30
0.0
  0
SPLINE
  5
21f
100
AcDbEntity
  8
0
 62
7
100
AcDbSpline
 70
8
 71
3
 72
8
 73
4
 74
0
 40
0
 40
0
 40
0
 40
0
 40
1
 40
1
 40
1
 40
1
 10
190.080000
 20
269.380000
 30
0.0
 10
179.968444
 20
269.380000
 30
0.0
 10
170.852537
 20
275.471054
 30
0.0
 10
166.983012
 20
284.812914
 30
0.0
  0
SPLINE
  5
220
100
AcDbEntity
  8
0
 62
7
100
AcDbSpline
 70
8
 71
3
 72
8
 73
4
 74
0
 40
0
 40
0
 40
0
 40
0
 40
1
 40
1
 40
1
 40
1
 10
166.983012
 20
284.812914
 30
0.0
 10
163.113487
 20
294.154774
 30
0.0
 10
165.252381
 20
304.907720
 30
0.0
 10
172.402330
 20
312.057670
 30
0.0
  0
SPLINE
  5
221
100
AcDbEntity
  8
0
 62
7
100
AcDbSpline
 70
8
 71
3
 72
8
 73
4
 74
0
 40
0
 40
0
 40
0
 40
0
 40
1
 40
1
 40
1
 40
1
 10
172.402330
 20
312.057670
 30
0.0
 10
179.552280
 20
319.207619
 30
0.0
 10
190.305226
 20
321.346513
 30
0.0
 10
199.647086
 20
317.476988
 30
0.0
  0
SPLINE
  5
222
100
AcDbEntity
  8
0
 62
7
100
AcDbSpline
 70
8
 71
3
 72
8
 73
4
 74
0
 40
0
 40
0
 40
0
 40
0
 40
1
 40
1
 40
1
 40
1
 10
199.647086
 20
317.476988
 30
0.0
 10
208.988946
 20
313.607463
 30
0.0
 10
215.080000
 20
304.491556
 30
0.0
 10
215.080000
 20
294.380000
 30
0.0
  0
SPLINE
  5
223
100
AcDbEntity
  8
0
 62
7
100
AcDbSpline
 70
8
 71
3
 72
8
 73
4
 74
0
 40
0
 40
0
 40
0
 40
0
 40
1
 40
1
 40
1
 40
1
 10
215.080000
 20
294.380000
 30
0.0
 10
215.080000
 20
287.749588
 30
0.0
 10
212.446079
 20
281.390740
 30
0.0
 10
207.757670
 20
276.702330
 30
0.0
  0
SPLINE
  5
224
100
AcDbEntity
  8
0
 62
7
100
AcDbSpline
 70
8
 71
3
 72
8
 73
4
 74
0
 40
0
 40
0
 40
0
 40
0
 40
1
 40
1
 40
1
 40
1
 10
207.757670
 20
276.702330
 30
0.0
 10
203.069260
 20
272.013921
 30
0.0
 10
196.710412
 20
269.380000
 30
0.0
 10
190.080000
 20
269.380000
 30
0.0
  0
LWPOLYLINE
  5
225
100
AcDbEntity
  8
0
 62
7
100
AcDbPolyline
 90
1
 70
1
 10
106.750000
 20
269.380000
 30
0.0
  0
SPLINE
  5
226
100
AcDbEntity
  8
0
 62
7
100
AcDbSpline
 70
8
 71
3
 72
8
 73
4
 74
0
 40
0
 40
0
 40
0
 40
0
 40
1
 40
1
 40
1
 40
1
 10
273.410000
 20
269.380000
 30
0.0
 10
263.298444
 20
269.380000
 30
0.0
 10
254.182537
 20
275.471054
 30
0.0
 10
250.313012
 20
284.812914
 30
0.0
  0
SPLINE
  5
227
100
AcDbEntity
  8
0
 62
7
100
AcDbSpline
 70
8
 71
3
 72
8
 73
4
 74
0
 40
0
 40
0
 40
0
 40
0
 40
1
 40
1
 40
1
 40
1
 10
250.313012
 20
284.812914
 30
0.0
 10
246.443487
 20
294.154774
 30
0.0
 10
248.582381
 20
304.907720
 30
0.0
 10
255.732330
 20
312.057670
 30
0.0
  0
SPLINE
  5
228
100
AcDbEntity
  8
0
 62
7
100
AcDbSpline
 70
8
 71
3
 72
8
 73
4
 74
0
 40
0
 40
0
 40
0
 40
0
 40
1
 40
1
 40
1
 40
1
 10
255.732330
 20
312.057670
 30
0.0
 10
262.882280
 20
319.207619
 30
0.0
 10
273.635226
 20
321.346513
 30
0.0
 10
282.977086
 20
317.476988
 30
0.0
  0
SPLINE
  5
229
100
AcDbEntity
  8
0
 62
7
100
AcDbSpline
 70
8
 71
3
 72
8
 73
4
 74
0
 40
0
 40
0
 40
0
 40
0
 40
1
 40
1
 40
1
 40
1
 10
282.977086
 20
317.476988
 30
0.0
 10
292.318946
 20
313.607463
 30
0.0
 10
298.410000
 20
304.491556
 30
0.0
 10
298.410000
 20
294.380000
 30
0.0
  0
SPLINE
  5
22a
100
AcDbEntity
  8
0
 62
7
100
AcDbSpline
 70
8
 71
3
 72
8
 73
4
 74
0
 40
0
 40
0
 40
0
 40
0
 40
1
 40
1
 40
1
 40
1
 10
298.410000
 20
294.380000
 30
0.0
 10
298.410000
 20
287.749588
 30
0.0
 10
295.776079
 20
281.390740
 30
0.0
 10
291.087670
 20
276.702330
 30
0.0
  0
SPLINE
  5
22b
100
AcDbEntity
  8
0
 62
7
100
AcDbSpline
 70
8
 71
3
 72
8
 73
4
 74
0
 40
0
 40
0
 40
0
 40
0
 40
1
 40
1
 40
1
 40
1
 10
291.087670
 20
276.702330
 30
0.0
 10
286.399260
 20
272.013921
 30
0.0
 10
280.040412
 20
269.380000
 30
0.0
 10
273.410000
 20
269.380000
 30
0.0
  0
LWPOLYLINE
  5
22c
100
AcDbEntity
  8
0
 62
7
100
AcDbPolyline
 90
1
 70
1
 10
190.080000
 20
269.380000
 30
0.0
  0
SPLINE
  5
22d
100
AcDbEntity
  8
0
 62
7
100
AcDbSpline
 70
8
 71
3
 72
8
 73
4
 74
0
 40
0
 40
0
 40
0
 40
0
 40
1
 40
1
 40
1
 40
1
 10
440.070000
 20
269.380000
 30
0.0
 10
429.958444
 20
269.380000
 30
0.0
 10
420.842537
 20
275.471054
 30
0.0
 10
416.973012
 20
284.812914
 30
0.0
  0
SPLINE
  5
22e
100
AcDbEntity
  8
0
 62
7
100
AcDbSpline
 70
8
 71
3
 72
8
 73
4
 74
0
 40
0
 40
0
 40
0
 40
0
 40
1
 40
1
 40
1
 40
1
 10
416.973012
 20
284.812914
 30
0.0
 10
413.103487
 20
294.154774
 30
0.0
 10
415.242381
 20
304.907720
 30
0.0
 10
422.392330
 20
312.057670
 30
0.0
  0
SPLINE
  5
22f
100
AcDbEntity
  8
0
 62
7
100
AcDbSpline
 70
8
 71
3
 72
8
 73
4
 74
0
 40
0
 40
0
 40
0
 40
0
 40
1
 40
1
 40
1
 40
1
 10
422.392330
 20
312.057670
 30
0.0
 10
429.542280
 20
319.207619
 30
0.0
 10
440.295226
 20
321.346513
 30
0.0
 10
449.637086
 20
317.476988
 30
0.0
  0
SPLINE
  5
230
100
AcDbEntity
  8
0
 62
7
100
AcDbSpline
 70
8
 71
3
 72
8
 73
4
 74
0
 40
0
 40
0
 40
0
 40
0
 40
1
 40
1
 40
1
 40
1
 10
449.637086
 20
317.476988
 30
0.0
 10
458.978946
 20
313.607463
 30
0.0
 10
465.070000
 20
304.491556
 30
0.0
 10
465.070000
 20
294.380000
 30
0.0
  0
SPLINE
  5
231
100
AcDbEntity
  8
0
 62
7
100
AcDbSpline
 70
8
 71
3
 72
8
 73
4
 74
0
 40
0
 40
0
 40
0
 40
0
 40
1
 40
1
 40
1
 40
1
 10
465.070000
 20
294.380000
 30
0.0
 10
465.070000
 20
287.749588
 30
0.0
 10
462.436079
 20
281.390740
 30
0.0
 10
457.747670
 20
276.702330
 30
0.0
  0
SPLINE
  5
232
100
AcDbEntity
  8
0
 62
7
100
AcDbSpline
 70
8
 71
3
 72
8
 73
4
 74
0
 40
0
 40
0
 40
0
 40
0
 40
1
 40
1
 40
1
 40
1
 10
457.747670
 20
276.702330
 30
0.0
 10
453.059260
 20
272.013921
 30
0.0
 10
446.700412
 20
269.380000
 30
0.0
 10
440.070000
 20
269.380000
 30
0.0
  0
LWPOLYLINE
  5
233
100
AcDbEntity
  8
0
 62
7
100
AcDbPolyline
 90
1
 70
1
 10
273.410000
 20
269.380000
 30
0.0
  0
SPLINE
  5
234
100
AcDbEntity
  8
0
 62
7
100
AcDbSpline
 70
8
 71
3
 72
8
 73
4
 74
0
 40
0
 40
0
 40
0
 40
0
 40
1
 40
1
 40
1
 40
1
 10
523.400000
 20
269.380000
 30
0.0
 10
513.288444
 20
269.380000
 30
0.0
 10
504.172537
 20
275.471054
 30
0.0
 10
500.303012
 20
284.812914
 30
0.0
  0
SPLINE
  5
235
100
AcDbEntity
  8
0
 62
7
100
AcDbSpline
 70
8
 71
3
 72
8
 73
4
 74
0
 40
0
 40
0
 40
0
 40
0
 40
1
 40
1
 40
1
 40
1
 10
500.303012
 20
284.812914
 30
0.0
 10
496.433487
 20
294.154774
 30
0.0
 10
498.572381
 20
304.907720
 30
0.0
 10
505.722330
 20
312.057670
 30
0.0
  0
SPLINE
  5
236
100
AcDbEntity
  8
0
 62
7
100
AcDbSpline
 70
8
 71
3
 72
8
 73
4
 74
0
 40
0
 40
0
 40
0
 40
0
 40
1
 40
1
 40
1
 40
1
 10
505.722330
 20
312.057670
 30
0.0
 10
512.872280
 20
319.207619
 30
0.0
 10
523.625226
 20
321.346513
 30
0.0
 10
532.967086
 20
317.476988
 30
0.0
  0
SPLINE
  5
237
100
AcDbEntity
  8
0
 62
7
100
AcDbSpline
 70
8
 71
3
 72
8
 73
4
 74
0
 40
0
 40
0
 40
0
 40
0
 40
1
 40
1
 40
1
 40
1
 10
532.967086
 20
317.476988
 30
0.0
 10
542.308946
 20
313.607463
 30
0.0
 10
548.400000
 20
304.491556
 30
0.0
 10
548.400000
 20
294.380000
 30
0.0
  0
SPLINE
  5
238
100
AcDbEntity
  8
0
 62
7
100
AcDbSpline
 70
8
 71
3
 72
8
 73
4
 74
0
 40
0
 40
0
 40
0
 40
0
 40
1
 40
1
 40
1
 40
1
 10
548.400000
 20
294.380000
 30
0.0
 10
548.400000
 20
287.749588
 30
0.0
 10
545.766079
 20
281.390740
 30
0.0
 10
541.077670
 20
276.702330
 30
0.0
  0
SPLINE
  5
239
100
AcDbEntity
  8
0
 62
7
100
AcDbSpline
 70
8
 71
3
 72
8
 73
4
 74
0
 40
0
 40
0
 40
0
 40
0
 40
1
 40
1
 40
1
 40
1
 10
541.077670
 20
276.702330
 30
0.0
 10
536.389260
 20
272.013921
 30
0.0
 10
530.030412
 20
269.380000
 30
0.0
 10
523.400000
 20
269.380000
 30
0.0
  0
LWPOLYLINE
  5
23a
100
AcDbEntity
  8
0
 62
7
100
AcDbPolyline
 90
1
 70
1
 10
440.070000
 20
269.380000
 30
0.0
  0
SPLINE
  5
23b
100
AcDbEntity
  8
0
 62
7
100
AcDbSpline
 70
8
 71
3
 72
8
 73
4
 74
0
 40
0
 40
0
 40
0
 40
0
 40
1
 40
1
 40
1
 40
1
 10
606.730000
 20
269.380000
 30
0.0
 10
596.618444
 20
269.380000
 30
0.0
 10
587.502537
 20
275.471054
 30
0.0
 10
583.633012
 20
284.812914
 30
0.0
  0
SPLINE
  5
23c
100
AcDbEntity
  8
0
 62
7
100
AcDbSpline
 70
8
 71
3
 72
8
 73
4
 74
0
 40
0
 40
0
 40
0
 40
0
 40
1
 40
1
 40
1
 40
1
 10
583.633012
 20
284.812914
 30
0.0
 10
579.763487
 20
294.154774
 30
0.0
 10
581.902381
 20
304.907720
 30
0.0
 10
589.052330
 20
312.057670
 30
0.0
  0
SPLINE
  5
23d
100
AcDbEntity
  8
0
 62
7
100
AcDbSpline
 70
8
 71
3
 72
8
 73
4
 74
0
 40
0
 40
0
 40
0
 40
0
 40
1
 40
1
 40
1
 40
1
 10
589.052330
 20
312.057670
 30
0.0
 10
596.202280
 20
319.207619
 30
0.0
 10
606.955226
 20
321.346513
 30
0.0
 10
616.297086
 20
317.476988
 30
0.0
  0
SPLINE
  5
23e
100
AcDbEntity
  8
0
 62
7
100
AcDbSpline
 70
8
 71
3
 72
8
 73
4
 74
0
 40
0
 40
0
 40
0
 40
0
 40
1
 40
1
 40
1
 40
1
 10
616.297086
 20
317.476988
 30
0.0
 10
625.638946
 20
313.607463
 30
0.0
 10
631.730000
 20
304.491556
 30
0.0
 10
631.730000
 20
294.380000
 30
0.0
  0
SPLINE
  5
23f
100
AcDbEntity
  8
0
 62
7
100
AcDbSpline
 70
8
 71
3
 72
8
 73
4
 74
0
 40
0
 40
0
 40
0
 40
0
 40
1
 40
1
 40
1
 40
1
 10
631.730000
 20
294.380000
 30
0.0
 10
631.730000
 20
287.749588
 30
0.0
 10
629.096079
 20
281.390740
 30
0.0
 10
624.407670
 20
276.702330
 30
0.0
  0
SPLINE
  5
240
100
AcDbEntity
  8
0
 62
7
100
AcDbSpline
 70
8
 71
3
 72
8
 73
4
 74
0
 40
0
 40
0
 40
0
 40
0
 40
1
 40
1
 40
1
 40
1
 10
624.407670
 20
276.702330
 30
0.0
 10
619.719260
 20
272.013921
 30
0.0
 10
613.360412
 20
269.380000
 30
0.0
 10
606.730000
 20
269.380000
 30
0.0
  0
LWPOLYLINE
  5
241
100
AcDbEntity
  8
0
 62
7
100
AcDbPolyline
 90
1
 70
1
 10
523.400000
 20
269.380000
 30
0.0
  0
SPLINE
  5
242
100
AcDbEntity
  8
0
 62
7
100
AcDbSpline
 70
8
 71
3
 72
8
 73
4
 74
0
 40
0
 40
0
 40
0
 40
0
 40
1
 40
1
 40
1
 40
1
 10
773.390000
 20
269.380000
 30
0.0
 10
763.278444
 20
269.380000
 30
0.0
 10
754.162537
 20
275.471054
 30
0.0
 10
750.293012
 20
284.812914
 30
0.0
  0
SPLINE
  5
243
100
AcDbEntity
  8
0
 62
7
100
AcDbSpline
 70
8
 71
3
 72
8
 73
4
 74
0
 40
0
 40
0
 40
0
 40
0
 40
1
 40
1
 40
1
 40
1
 10
750.293012
 20
284.812914
 30
0.0
 10
746.423487
 20
294.154774
 30
0.0
 10
748.562381
 20
304.907720
 30
0.0
 10
755.712330
 20
312.057670
 30
0.0
  0
SPLINE
  5
244
100
AcDbEntity
  8
0
 62
7
100
AcDbSpline
 70
8
 71
3
 72
8
 73
4
 74
0
 40
0
 40
0
 40
0
 40
0
 40
1
 40
1
 40
1
 40
1
 10
755.712330
 20
312.057670
 30
0.0
 10
762.862280
 20
319.207619
 30
0.0
 10
773.615226
 20
321.346513
 30
0.0
 10
782.957086
 20
317.476988
 30
0.0
  0
SPLINE
  5
245
100
AcDbEntity
  8
0
 62
7
100
AcDbSpline
 70
8
 71
3
 72
8
 73
4
 74
0
 40
0
 40
0
 40
0
 40
0
 40
1
 40
1
 40
1
 40
1
 10
782.957086
 20
317.476988
 30
0.0
 10
792.298946
 20
313.607463
 30
0.0
 10
798.390000
 20
304.491556
 30
0.0
 10
798.390000
 20
294.380000
 30
0.0
  0
SPLINE
  5
246
100
AcDbEntity
  8
0
 62
7
100
AcDbSpline
 70
8
 71
3
 72
8
 73
4
 74
0
 40
0
 40
0
 40
0
 40
0
 40
1
 40
1
 40
1
 40
1
 10
798.390000
 20
294.380000
 30
0.0
 10
798.390000
 20
287.749588
 30
0.0
 10
795.756079
 20
281.390740
 30
0.0
 10
791.067670
 20
276.702330
 30
0.0
  0
SPLINE
  5
247
100
AcDbEntity
  8
0
 62
7
100
AcDbSpline
 70
8
 71
3
 72
8
 73
4
 74
0
 40
0
 40
0
 40
0
 40
0
 40
1
 40
1
 40
1
 40
1
 10
791.067670
 20
276.702330
 30
0.0
 10
786.379260
 20
272.013921
 30
0.0
 10
780.020412
 20
269.380000
 30
0.0
 10
773.390000
 20
269.380000
 30
0.0
  0
LWPOLYLINE
  5
248
100
AcDbEntity
  8
0
 62
7
100
AcDbPolyline
 90
1
 70
1
 10
606.730000
 20
269.380000
 30
0.0
  0
SPLINE
  5
249
100
AcDbEntity
  8
0
 62
7
100
AcDbSpline
 70
8
 71
3
 72
8
 73
4
 74
0
 40
0
 40
0
 40
0
 40
0
 40
1
 40
1
 40
1
 40
1
 10
856.720000
 20
269.380000
 30
0.0
 10
846.608444
 20
269.380000
 30
0.0
 10
837.492537
 20
275.471054
 30
0.0
 10
833.623012
 20
284.812914
 30
0.0
  0
SPLINE
  5
24a
100
AcDbEntity
  8
0
 62
7
100
AcDbSpline
 70
8
 71
3
 72
8
 73
4
 74
0
 40
0
 40
0
 40
0
 40
0
 40
1
 40
1
 40
1
 40
1
 10
833.623012
 20
284.812914
 30
0.0
 10
829.753487
 20
294.154774
 30
0.0
 10
831.892381
 20
304.907720
 30
0.0
 10
839.042330
 20
312.057670
 30
0.0
  0
SPLINE
  5
24b
100
AcDbEntity
  8
0
 62
7
100
AcDbSpline
 70
8
 71
3
 72
8
 73
4
 74
0
 40
0
 40
0
 40
0
 40
0
 40
1
 40
1
 40
1
 40
1
 10
839.042330
 20
312.057670
 30
0.0
 10
846.192280
 20
319.207619
 30
0.0
 10
856.945226
 20
321.346513
 30
0.0
 10
866.287086
 20
317.476988
 30
0.0
  0
SPLINE
  5
24c
100
AcDbEntity
  8
0
 62
7
100
AcDbSpline
 70
8
 71
3
 72
8
 73
4
 74
0
 40
0
 40
0
 40
0
 40
0
 40
1
 40
1
 40
1
 40
1
 10
866.287086
 20
317.476988
 30
0.0
 10
875.628946
 20
313.607463
 30
0.0
 10
881.720000
 20
304.491556
 30
0.0
 10
881.720000
 20
294.380000
 30
0.0
  0
SPLINE
  5
24d
100
AcDbEntity
  8
0
 62
7
100
AcDbSpline
 70
8
 71
3
 72
8
 73
4
 74
0
 40
0
 40
0
 40
0
 40
0
 40
1
 40
1
 40
1
 40
1
 10
881.720000
 20
294.380000
 30
0.0
 10
881.720000
 20
287.749588
 30
0.0
 10
879.086079
 20
281.390740
 30
0.0
 10
874.397670
 20
276.702330
 30
0.0
  0
SPLINE
  5
24e
100
AcDbEntity
  8
0
 62
7
100
AcDbSpline
 70
8
 71
3
 72
8
 73
4
 74
0
 40
0
 40
0
 40
0
 40
0
 40
1
 40
1
 40
1
 40
1
 10
874.397670
 20
276.702330
 30
0.0
 10
869.709260
 20
272.013921
 30
0.0
 10
863.350412
 20
269.380000
 30
0.0
 10
856.720000
 20
269.380000
 30
0.0
  0
LWPOLYLINE
  5
24f
100
AcDbEntity
  8
0
 62
7
100
AcDbPolyline
 90
1
 70
1
 10
773.390000
 20
269.380000
 30
0.0
  0
SPLINE
  5
250
100
AcDbEntity
  8
0
 62
7
100
AcDbSpline
 70
8
 71
3
 72
8
 73
4
 74
0
 40
0
 40
0
 40
0
 40
0
 40
1
 40
1
 40
1
 40
1
 10
940.050000
 20
269.380000
 30
0.0
 10
929.938444
 20
269.380000
 30
0.0
 10
920.822537
 20
275.471054
 30
0.0
 10
916.953012
 20
284.812914
 30
0.0
  0
SPLINE
  5
251
100
AcDbEntity
  8
0
 62
7
100
AcDbSpline
 70
8
 71
3
 72
8
 73
4
 74
0
 40
0
 40
0
 40
0
 40
0
 40
1
 40
1
 40
1
 40
1
 10
916.953012
 20
284.812914
 30
0.0
 10
913.083487
 20
294.154774
 30
0.0
 10
915.222381
 20
304.907720
 30
0.0
 10
922.372330
 20
312.057670
 30
0.0
  0
SPLINE
  5
252
100
AcDbEntity
  8
0
 62
7
100
AcDbSpline
 70
8
 71
3
 72
8
 73
4
 74
0
 40
0
 40
0
 40
0
 40
0
 40
1
 40
1
 40
1
 40
1
 10
922.372330
 20
312.057670
 30
0.0
 10
929.522280
 20
319.207619
 30
0.0
 10
940.275226
 20
321.346513
 30
0.0
 10
949.617086
 20
317.476988
 30
0.0
  0
SPLINE
  5
253
100
AcDbEntity
  8
0
 62
7
100
AcDbSpline
 70
8
 71
3
 72
8
 73
4
 74
0
 40
0
 40
0
 40
0
 40
0
 40
1
 40
1
 40
1
 40
1
 10
949.617086
 20
317.476988
 30
0.0
 10
958.958946
 20
313.607463
 30
0.0
 10
965.050000
 20
304.491556
 30
0.0
 10
965.050000
 20
294.380000
 30
0.0
  0
SPLINE
  5
254
100
AcDbEntity
  8
0
 62
7
100
AcDbSpline
 70
8
 71
3
 72
8
 73
4
 74
0
 40
0
 40
0
 40
0
 40
0
 40
1
 40
1
 40
1
 40
1
 10
965.050000
 20
294.380000
 30
0.0
 10
965.050000
 20
287.749588
 30
0.0
 10
962.416079
 20
281.390740
 30
0.0
 10
957.727670
 20
276.702330
 30
0.0
  0
SPLINE
  5
255
100
AcDbEntity
  8
0
 62
7
100
AcDbSpline
 70
8
 71
3
 72
8
 73
4
 74
0
 40
0
 40
0
 40
0
 40
0
 40
1
 40
1
 40
1
 40
1
 10
957.727670
 20
276.702330
 30
0.0
 10
953.039260
 20
272.013921
 30
0.0
 10
946.680412
 20
269.380000
 30
0.0
 10
940.050000
 20
269.380000
 30
0.0
  0
LWPOLYLINE
  5
256
100
AcDbEntity
  8
0
 62
7
100
AcDbPolyline
 90
1
 70
1
 10
856.720000
 20
269.380000
 30
0.0
  0
SPLINE
  5
257
100
AcDbEntity
  8
0
 62
7
100
AcDbSpline
 70
8
 71
3
 72
8
 73
4
 74
0
 40
0
 40
0
 40
0
 40
0
 40
1
 40
1
 40
1
 40
1
 10
1106.710000
 20
269.380000
 30
0.0
 10
1096.598444
 20
269.380000
 30
0.0
 10
1087.482537
 20
275.471054
 30
0.0
 10
1083.613012
 20
284.812914
 30
0.0
  0
SPLINE
  5
258
100
AcDbEntity
  8
0
 62
7
100
AcDbSpline
 70
8
 71
3
 72
8
 73
4
 74
0
 40
0
 40
0
 40
0
 40
0
 40
1
 40
1
 40
1
 40
1
 10
1083.613012
 20
284.812914
 30
0.0
 10
1079.743487
 20
294.154774
 30
0.0
 10
1081.882381
 20
304.907720
 30
0.0
 10
1089.032330
 20
312.057670
 30
0.0
  0
SPLINE
  5
259
100
AcDbEntity
  8
0
 62
7
100
AcDbSpline
 70
8
 71
3
 72
8
 73
4
 74
0
 40
0
 40
0
 40
0
 40
0
 40
1
 40
1
 40
1
 40
1
 10
1089.032330
 20
312.057670
 30
0.0
 10
1096.182280
 20
319.207619
 30
0.0
 10
1106.935226
 20
321.346513
 30
0.0
 10
1116.277086
 20
317.476988
 30
0.0
  0
SPLINE
  5
25a
100
AcDbEntity
  8
0
 62
7
100
AcDbSpline
 70
8
 71
3
 72
8
 73
4
 74
0
 40
0
 40
0
 40
0
 40
0
 40
1
 40
1
 40
1
 40
1
 10
1116.277086
 20
317.476988
 30
0.0
 10
1125.618946
 20
313.607463
 30
0.0
 10
1131.710000
 20
304.491556
 30
0.0
 10
1131.710000
 20
294.380000
 30
0.0
  0
SPLINE
  5
25b
100
AcDbEntity
  8
0
 62
7
100
AcDbSpline
 70
8
 71
3
 72
8
 73
4
 74
0
 40
0
 40
0
 40
0
 40
0
 40
1
 40
1
 40
1
 40
1
 10
1131.710000
 20
294.380000
 30
0.0
 10
1131.710000
 20
287.749588
 30
0.0
 10
1129.076079
 20
281.390740
 30
0.0
 10
1124.387670
 20
276.702330
 30
0.0
  0
SPLINE
  5
25c
100
AcDbEntity
  8
0
 62
7
100
AcDbSpline
 70
8
 71
3
 72
8
 73
4
 74
0
 40
0
 40
0
 40
0
 40
0
 40
1
 40
1
 40
1
 40
1
 10
1124.387670
 20
276.702330
 30
0.0
 10
1119.699260
 20
272.013921
 30
0.0
 10
1113.340412
 20
269.380000
 30
0.0
 10
1106.710000
 20
269.380000
 30
0.0
  0
LWPOLYLINE
  5
25d
100
AcDbEntity
  8
0
 62
7
100
AcDbPolyline
 90
1
 70
1
 10
940.050000
 20
269.380000
 30
0.0
  0
SPLINE
  5
25e
100
AcDbEntity
  8
0
 62
7
100
AcDbSpline
 70
8
 71
3
 72
8
 73
4
 74
0
 40
0
 40
0
 40
0
 40
0
 40
1
 40
1
 40
1
 40
1
 10
1190.040000
 20
269.380000
 30
0.0
 10
1179.928444
 20
269.380000
 30
0.0
 10
1170.812537
 20
275.471054
 30
0.0
 10
1166.943012
 20
284.812914
 30
0.0
  0
SPLINE
  5
25f
100
AcDbEntity
  8
0
 62
7
100
AcDbSpline
 70
8
 71
3
 72
8
 73
4
 74
0
 40
0
 40
0
 40
0
 40
0
 40
1
 40
1
 40
1
 40
1
 10
1166.943012
 20
284.812914
 30
0.0
 10
1163.073487
 20
294.154774
 30
0.0
 10
1165.212381
 20
304.907720
 30
0.0
 10
1172.362330
 20
312.057670
 30
0.0
  0
SPLINE
  5
260
100
AcDbEntity
  8
0
 62
7
100
AcDbSpline
 70
8
 71
3
 72
8
 73
4
 74
0
 40
0
 40
0
 40
0
 40
0
 40
1
 40
1
 40
1
 40
1
 10
1172.362330
 20
312.057670
 30
0.0
 10
1179.512280
 20
319.207619
 30
0.0
 10
1190.265226
 20
321.346513
 30
0.0
 10
1199.607086
 20
317.476988
 30
0.0
  0
SPLINE
  5
261
100
AcDbEntity
  8
0
 62
7
100
AcDbSpline
 70
8
 71
3
 72
8
 73
4
 74
0
 40
0
 40
0
 40
0
 40
0
 40
1
 40
1
 40
1
 40
1
 10
1199.607086
 20
317.476988
 30
0.0
 10
1208.948946
 20
313.607463
 30
0.0
 10
1215.040000
 20
304.491556
 30
0.0
 10
1215.040000
 20
294.380000
 30
0.0
  0
SPLINE
  5
262
100
AcDbEntity
  8
0
 62
7
100
AcDbSpline
 70
8
 71
3
 72
8
 73
4
 74
0
 40
0
 40
0
 40
0
 40
0
 40
1
 40
1
 40
1
 40
1
 10
1215.040000
 20
294.380000
 30
0.0
 10
1215.040000
 20
287.749588
 30
0.0
 10
1212.406079
 20
281.390740
 30
0.0
 10
1207.717670
 20
276.702330
 30
0.0
  0
SPLINE
  5
263
100
AcDbEntity
  8
0
 62
7
100
AcDbSpline
 70
8
 71
3
 72
8
 73
4
 74
0
 40
0
 40
0
 40
0
 40
0
 40
1
 40
1
 40
1
 40
1
 10
1207.717670
 20
276.702330
 30
0.0
 10
1203.029260
 20
272.013921
 30
0.0
 10
1196.670412
 20
269.380000
 30
0.0
 10
1190.040000
 20
269.380000
 30
0.0
  0
LWPOLYLINE
  5
264
100
AcDbEntity
  8
0
 62
7
100
AcDbPolyline
 90
1
 70
1
 10
1106.710000
 20
269.380000
 30
0.0
  0
SPLINE
  5
265
100
AcDbEntity
  8
0
 62
7
100
AcDbSpline
 70
8
 71
3
 72
8
 73
4
 74
0
 40
0
 40
0
 40
0
 40
0
 40
1
 40
1
 40
1
 40
1
 10
1273.370000
 20
269.380000
 30
0.0
 10
1263.258444
 20
269.380000
 30
0.0
 10
1254.142537
 20
275.471054
 30
0.0
 10
1250.273012
 20
284.812914
 30
0.0
  0
SPLINE
  5
266
100
AcDbEntity
  8
0
 62
7
100
AcDbSpline
 70
8
 71
3
 72
8
 73
4
 74
0
 40
0
 40
0
 40
0
 40
0
 40
1
 40
1
 40
1
 40
1
 10
1250.273012
 20
284.812914
 30
0.0
 10
1246.403487
 20
294.154774
 30
0.0
 10
1248.542381
 20
304.907720
 30
0.0
 10
1255.692330
 20
312.057670
 30
0.0
  0
SPLINE
  5
267
100
AcDbEntity
  8
0
 62
7
100
AcDbSpline
 70
8
 71
3
 72
8
 73
4
 74
0
 40
0
 40
0
 40
0
 40
0
 40
1
 40
1
 40
1
 40
1
 10
1255.692330
 20
312.057670
 30
0.0
 10
1262.842280
 20
319.207619
 30
0.0
 10
1273.595226
 20
321.346513
 30
0.0
 10
1282.937086
 20
317.476988
 30
0.0
  0
SPLINE
  5
268
100
AcDbEntity
  8
0
 62
7
100
AcDbSpline
 70
8
 71
3
 72
8
 73
4
 74
0
 40
0
 40
0
 40
0
 40
0
 40
1
 40
1
 40
1
 40
1
 10
1282.937086
 20
317.476988
 30
0.0
 10
1292.278946
 20
313.607463
 30
0.0
 10
1298.370000
 20
304.491556
 30
0.0
 10
1298.370000
 20
294.380000
 30
0.0
  0
SPLINE
  5
269
100
AcDbEntity
  8
0
 62
7
100
AcDbSpline
 70
8
 71
3
 72
8
 73
4
 74
0
 40
0
 40
0
 40
0
 40
0
 40
1
 40
1
 40
1
 40
1
 10
1298.370000
 20
294.380000
 30
0.0
 10
1298.370000
 20
287.749588
 30
0.0
 10
1295.736079
 20
281.390740
 30
0.0
 10
1291.047670
 20
276.702330
 30
0.0
  0
SPLINE
  5
26a
100
AcDbEntity
  8
0
 62
7
100
AcDbSpline
 70
8
 71
3
 72
8
 73
4
 74
0
 40
0
 40
0
 40
0
 40
0
 40
1
 40
1
 40
1
 40
1
 10
1291.047670
 20
276.702330
 30
0.0
 10
1286.359260
 20
272.013921
 30
0.0
 10
1280.000412
 20
269.380000
 30
0.0
 10
1273.370000
 20
269.380000
 30
0.0
  0
LWPOLYLINE
  5
26b
100
AcDbEntity
  8
0
 62
7
100
AcDbPolyline
 90
1
 70
1
 10
1190.040000
 20
269.380000
 30
0.0
  0
SPLINE
  5
26c
100
AcDbEntity
  8
0
 62
7
100
AcDbSpline
 70
8
 71
3
 72
8
 73
4
 74
0
 40
0
 40
0
 40
0
 40
0
 40
1
 40
1
 40
1
 40
1
 10
1440.030000
 20
269.380000
 30
0.0
 10
1429.918444
 20
269.380000
 30
0.0
 10
1420.802537
 20
275.471054
 30
0.0
 10
1416.933012
 20
284.812914
 30
0.0
  0
SPLINE
  5
26d
100
AcDbEntity
  8
0
 62
7
100
AcDbSpline
 70
8
 71
3
 72
8
 73
4
 74
0
 40
0
 40
0
 40
0
 40
0
 40
1
 40
1
 40
1
 40
1
 10
1416.933012
 20
284.812914
 30
0.0
 10
1413.063487
 20
294.154774
 30
0.0
 10
1415.202381
 20
304.907720
 30
0.0
 10
1422.352330
 20
312.057670
 30
0.0
  0
SPLINE
  5
26e
100
AcDbEntity
  8
0
 62
7
100
AcDbSpline
 70
8
 71
3
 72
8
 73
4
 74
0
 40
0
 40
0
 40
0
 40
0
 40
1
 40
1
 40
1
 40
1
 10
1422.352330
 20
312.057670
 30
0.0
 10
1429.502280
 20
319.207619
 30
0.0
 10
1440.255226
 20
321.346513
 30
0.0
 10
1449.597086
 20
317.476988
 30
0.0
  0
SPLINE
  5
26f
100
AcDbEntity
  8
0
 62
7
100
AcDbSpline
 70
8
 71
3
 72
8
 73
4
 74
0
 40
0
 40
0
 40
0
 40
0
 40
1
 40
1
 40
1
 40
1
 10
1449.597086
 20
317.476988
 30
0.0
 10
1458.938946
 20
313.607463
 30
0.0
 10
1465.030000
 20
304.491556
 30
0.0
 10
1465.030000
 20
294.380000
 30
0.0
  0
SPLINE
  5
270
100
AcDbEntity
  8
0
 62
7
100
AcDbSpline
 70
8
 71
3
 72
8
 73
4
 74
0
 40
0
 40
0
 40
0
 40
0
 40
1
 40
1
 40
1
 40
1
 10
1465.030000
 20
294.380000
 30
0.0
 10
1465.030000
 20
287.749588
 30
0.0
 10
1462.396079
 20
281.390740
 30
0.0
 10
1457.707670
 20
276.702330
 30
0.0
  0
SPLINE
  5
271
100
AcDbEntity
  8
0
 62
7
100
AcDbSpline
 70
8
 71
3
 72
8
 73
4
 74
0
 40
0
 40
0
 40
0
 40
0
 40
1
 40
1
 40
1
 40
1
 10
1457.707670
 20
276.702330
 30
0.0
 10
1453.019260
 20
272.013921
 30
0.0
 10
1446.660412
 20
269.380000
 30
0.0
 10
1440.030000
 20
269.380000
 30
0.0
  0
LWPOLYLINE
  5
272
100
AcDbEntity
  8
0
 62
7
100
AcDbPolyline
 90
1
 70
1
 10
1273.370000
 20
269.380000
 30
0.0
  0
SPLINE
  5
273
100
AcDbEntity
  8
0
 62
7
100
AcDbSpline
 70
8
 71
3
 72
8
 73
4
 74
0
 40
0
 40
0
 40
0
 40
0
 40
1
 40
1
 40
1
 40
1
 10
1523.360000
 20
269.380000
 30
0.0
 10
1513.248444
 20
269.380000
 30
0.0
 10
1504.132537
 20
275.471054
 30
0.0
 10
1500.263012
 20
284.812914
 30
0.0
  0
SPLINE
  5
274
100
AcDbEntity
  8
0
 62
7
100
AcDbSpline
 70
8
 71
3
 72
8
 73
4
 74
0
 40
0
 40
0
 40
0
 40
0
 40
1
 40
1
 40
1
 40
1
 10
1500.263012
 20
284.812914
 30
0.0
 10
1496.393487
 20
294.154774
 30
0.0
 10
1498.532381
 20
304.907720
 30
0.0
 10
1505.682330
 20
312.057670
 30
0.0
  0
SPLINE
  5
275
100
AcDbEntity
  8
0
 62
7
100
AcDbSpline
 70
8
 71
3
 72
8
 73
4
 74
0
 40
0
 40
0
 40
0
 40
0
 40
1
 40
1
 40
1
 40
1
 10
1505.682330
 20
312.057670
 30
0.0
 10
1512.832280
 20
319.207619
 30
0.0
 10
1523.585226
 20
321.346513
 30
0.0
 10
1532.927086
 20
317.476988
 30
0.0
  0
SPLINE
  5
276
100
AcDbEntity
  8
0
 62
7
100
AcDbSpline
 70
8
 71
3
 72
8
 73
4
 74
0
 40
0
 40
0
 40
0
 40
0
 40
1
 40
1
 40
1
 40
1
 10
1532.927086
 20
317.476988
 30
0.0
 10
1542.268946
 20
313.607463
 30
0.0
 10
1548.360000
 20
304.491556
 30
0.0
 10
1548.360000
 20
294.380000
 30
0.0
  0
SPLINE
  5
277
100
AcDbEntity
  8
0
 62
7
100
AcDbSpline
 70
8
 71
3
 72
8
 73
4
 74
0
 40
0
 40
0
 40
0
 40
0
 40
1
 40
1
 40
1
 40
1
 10
1548.360000
 20
294.380000
 30
0.0
 10
1548.360000
 20
287.749588
 30
0.0
 10
1545.726079
 20
281.390740
 30
0.0
 10
1541.037670
 20
276.702330
 30
0.0
  0
SPLINE
  5
278
100
AcDbEntity
  8
0
 62
7
100
AcDbSpline
 70
8
 71
3
 72
8
 73
4
 74
0
 40
0
 40
0
 40
0
 40
0
 40
1
 40
1
 40
1
 40
1
 10
1541.037670
 20
276.702330
 30
0.0
 10
1536.349260
 20
272.013921
 30
0.0
 10
1529.990412
 20
269.380000
 30
0.0
 10
1523.360000
 20
269.380000
 30
0.0
  0
LWPOLYLINE
  5
279
100
AcDbEntity
  8
0
 62
7
100
AcDbPolyline
 90
1
 70
1
 10
1440.030000
 20
269.380000
 30
0.0
  0
SPLINE
  5
27a
100
AcDbEntity
  8
0
 62
7
100
AcDbSpline
 70
8
 71
3
 72
8
 73
4
 74
0
 40
0
 40
0
 40
0
 40
0
 40
1
 40
1
 40
1
 40
1
 10
1606.690000
 20
269.380000
 30
0.0
 10
1596.578444
 20
269.380000
 30
0.0
 10
1587.462537
 20
275.471054
 30
0.0
 10
1583.593012
 20
284.812914
 30
0.0
  0
SPLINE
  5
27b
100
AcDbEntity
  8
0
 62
7
100
AcDbSpline
 70
8
 71
3
 72
8
 73
4
 74
0
 40
0
 40
0
 40
0
 40
0
 40
1
 40
1
 40
1
 40
1
 10
1583.593012
 20
284.812914
 30
0.0
 10
1579.723487
 20
294.154774
 30
0.0
 10
1581.862381
 20
304.907720
 30
0.0
 10
1589.012330
 20
312.057670
 30
0.0
  0
SPLINE
  5
27c
100
AcDbEntity
  8
0
 62
7
100
AcDbSpline
 70
8
 71
3
 72
8
 73
4
 74
0
 40
0
 40
0
 40
0
 40
0
 40
1
 40
1
 40
1
 40
1
 10
1589.012330
 20
312.057670
 30
0.0
 10
1596.162280
 20
319.207619
 30
0.0
 10
1606.915226
 20
321.346513
 30
0.0
 10
1616.257086
 20
317.476988
 30
0.0
  0
SPLINE
  5
27d
100
AcDbEntity
  8
0
 62
7
100
AcDbSpline
 70
8
 71
3
 72
8
 73
4
 74
0
 40
0
 40
0
 40
0
 40
0
 40
1
 40
1
 40
1
 40
1
 10
1616.257086
 20
317.476988
 30
0.0
 10
1625.598946
 20
313.607463
 30
0.0
 10
1631.690000
 20
304.491556
 30
0.0
 10
1631.690000
 20
294.380000
 30
0.0
  0
SPLINE
  5
27e
100
AcDbEntity
  8
0
 62
7
100
AcDbSpline
 70
8
 71
3
 72
8
 73
4
 74
0
 40
0
 40
0
 40
0
 40
0
 40
1
 40
1
 40
1
 40
1
 10
1631.690000
 20
294.380000
 30
0.0
 10
1631.690000
 20
287.749588
 30
0.0
 10
1629.056079
 20
281.390740
 30
0.0
 10
1624.367670
 20
276.702330
 30
0.0
  0
SPLINE
  5
27f
100
AcDbEntity
  8
0
 62
7
100
AcDbSpline
 70
8
 71
3
 72
8
 73
4
 74
0
 40
0
 40
0
 40
0
 40
0
 40
1
 40
1
 40
1
 40
1
 10
1624.367670
 20
276.702330
 30
0.0
 10
1619.679260
 20
272.013921
 30
0.0
 10
1613.320412
 20
269.380000
 30
0.0
 10
1606.690000
 20
269.380000
 30
0.0
  0
LWPOLYLINE
  5
280
100
AcDbEntity
  8
0
 62
7
100
AcDbPolyline
 90
1
 70
1
 10
1523.360000
 20
269.380000
 30
0.0
  0
SPLINE
  5
281
100
AcDbEntity
  8
0
 62
7
100
AcDbSpline
 70
8
 71
3
 72
8
 73
4
 74
0
 40
0
 40
0
 40
0
 40
0
 40
1
 40
1
 40
1
 40
1
 10
1773.350000
 20
269.380000
 30
0.0
 10
1763.238444
 20
269.380000
 30
0.0
 10
1754.122537
 20
275.471054
 30
0.0
 10
1750.253012
 20
284.812914
 30
0.0
  0
SPLINE
  5
282
100
AcDbEntity
  8
0
 62
7
100
AcDbSpline
 70
8
 71
3
 72
8
 73
4
 74
0
 40
0
 40
0
 40
0
 40
0
 40
1
 40
1
 40
1
 40
1
 10
1750.253012
 20
284.812914
 30
0.0
 10
1746.383487
 20
294.154774
 30
0.0
 10
1748.522381
 20
304.907720
 30
0.0
 10
1755.672330
 20
312.057670
 30
0.0
  0
SPLINE
  5
283
100
AcDbEntity
  8
0
 62
7
100
AcDbSpline
 70
8
 71
3
 72
8
 73
4
 74
0
 40
0
 40
0
 40
0
 40
0
 40
1
 40
1
 40
1
 40
1
 10
1755.672330
 20
312.057670
 30
0.0
 10
1762.822280
 20
319.207619
 30
0.0
 10
1773.575226
 20
321.346513
 30
0.0
 10
1782.917086
 20
317.476988
 30
0.0
  0
SPLINE
  5
284
100
AcDbEntity
  8
0
 62
7
100
AcDbSpline
 70
8
 71
3
 72
8
 73
4
 74
0
 40
0
 40
0
 40
0
 40
0
 40
1
 40
1
 40
1
 40
1
 10
1782.917086
 20
317.476988
 30
0.0
 10
1792.258946
 20
313.607463
 30
0.0
 10
1798.350000
 20
304.491556
 30
0.0
 10
1798.350000
 20
294.380000
 30
0.0
  0
SPLINE
  5
285
100
AcDbEntity
  8
0
 62
7
100
AcDbSpline
 70
8
 71
3
 72
8
 73
4
 74
0
 40
0
 40
0
 40
0
 40
0
 40
1
 40
1
 40
1
 40
1
 10
1798.350000
 20
294.380000
 30
0.0
 10
1798.350000
 20
287.749588
 30
0.0
 10
1795.716079
 20
281.390740
 30
0.0
 10
1791.027670
 20
276.702330
 30
0.0
  0
SPLINE
  5
286
100
AcDbEntity
  8
0
 62
7
100
AcDbSpline
 70
8
 71
3
 72
8
 73
4
 74
0
 40
0
 40
0
 40
0
 40
0
 40
1
 40
1
 40
1
 40
1
 10
1791.027670
 20
276.702330
 30
0.0
 10
1786.339260
 20
272.013921
 30
0.0
 10
1779.980412
 20
269.380000
 30
0.0
 10
1773.350000
 20
269.380000
 30
0.0
  0
LWPOLYLINE
  5
287
100
AcDbEntity
  8
0
 62
7
100
AcDbPolyline
 90
1
 70
1
 10
1606.690000
 20
269.380000
 30
0.0
  0
SPLINE
  5
288
100
AcDbEntity
  8
0
 62
7
100
AcDbSpline
 70
8
 71
3
 72
8
 73
4
 74
0
 40
0
 40
0
 40
0
 40
0
 40
1
 40
1
 40
1
 40
1
 10
1856.680000
 20
269.380000
 30
0.0
 10
1846.568444
 20
269.380000
 30
0.0
 10
1837.452537
 20
275.471054
 30
0.0
 10
1833.583012
 20
284.812914
 30
0.0
  0
SPLINE
  5
289
100
AcDbEntity
  8
0
 62
7
100
AcDbSpline
 70
8
 71
3
 72
8
 73
4
 74
0
 40
0
 40
0
 40
0
 40
0
 40
1
 40
1
 40
1
 40
1
 10
1833.583012
 20
284.812914
 30
0.0
 10
1829.713487
 20
294.154774
 30
0.0
 10
1831.852381
 20
304.907720
 30
0.0
 10
1839.002330
 20
312.057670
 30
0.0
  0
SPLINE
  5
28a
100
AcDbEntity
  8
0
 62
7
100
AcDbSpline
 70
8
 71
3
 72
8
 73
4
 74
0
 40
0
 40
0
 40
0
 40
0
 40
1
 40
1
 40
1
 40
1
 10
1839.002330
 20
312.057670
 30
0.0
 10
1846.152280
 20
319.207619
 30
0.0
 10
1856.905226
 20
321.346513
 30
0.0
 10
1866.247086
 20
317.476988
 30
0.0
  0
SPLINE
  5
28b
100
AcDbEntity
  8
0
 62
7
100
AcDbSpline
 70
8
 71
3
 72
8
 73
4
 74
0
 40
0
 40
0
 40
0
 40
0
 40
1
 40
1
 40
1
 40
1
 10
1866.247086
 20
317.476988
 30
0.0
 10
1875.588946
 20
313.607463
 30
0.0
 10
1881.680000
 20
304.491556
 30
0.0
 10
1881.680000
 20
294.380000
 30
0.0
  0
SPLINE
  5
28c
100
AcDbEntity
  8
0
 62
7
100
AcDbSpline
 70
8
 71
3
 72
8
 73
4
 74
0
 40
0
 40
0
 40
0
 40
0
 40
1
 40
1
 40
1
 40
1
 10
1881.680000
 20
294.380000
 30
0.0
 10
1881.680000
 20
287.749588
 30
0.0
 10
1879.046079
 20
281.390740
 30
0.0
 10
1874.357670
 20
276.702330
 30
0.0
  0
SPLINE
  5
28d
100
AcDbEntity
  8
0
 62
7
100
AcDbSpline
 70
8
 71
3
 72
8
 73
4
 74
0
 40
0
 40
0
 40
0
 40
0
 40
1
 40
1
 40
1
 40
1
 10
1874.357670
 20
276.702330
 30
0.0
 10
1869.669260
 20
272.013921
 30
0.0
 10
1863.310412
 20
269.380000
 30
0.0
 10
1856.680000
 20
269.380000
 30
0.0
  0
LWPOLYLINE
  5
28e
100
AcDbEntity
  8
0
 62
7
100
AcDbPolyline
 90
1
 70
1
 10
1773.350000
 20
269.380000
 30
0.0
  0
SPLINE
  5
28f
100
AcDbEntity
  8
0
 62
7
100
AcDbSpline
 70
8
 71
3
 72
8
 73
4
 74
0
 40
0
 40
0
 40
0
 40
0
 40
1
 40
1
 40
1
 40
1
 10
1940.020000
 20
269.380000
 30
0.0
 10
1929.908444
 20
269.380000
 30
0.0
 10
1920.792537
 20
275.471054
 30
0.0
 10
1916.923012
 20
284.812914
 30
0.0
  0
SPLINE
  5
290
100
AcDbEntity
  8
0
 62
7
100
AcDbSpline
 70
8
 71
3
 72
8
 73
4
 74
0
 40
0
 40
0
 40
0
 40
0
 40
1
 40
1
 40
1
 40
1
 10
1916.923012
 20
284.812914
 30
0.0
 10
1913.053487
 20
294.154774
 30
0.0
 10
1915.192381
 20
304.907720
 30
0.0
 10
1922.342330
 20
312.057670
 30
0.0
  0
SPLINE
  5
291
100
AcDbEntity
  8
0
 62
7
100
AcDbSpline
 70
8
 71
3
 72
8
 73
4
 74
0
 40
0
 40
0
 40
0
 40
0
 40
1
 40
1
 40
1
 40
1
 10
1922.342330
 20
312.057670
 30
0.0
 10
1929.492280
 20
319.207619
 30
0.0
 10
1940.245226
 20
321.346513
 30
0.0
 10
1949.587086
 20
317.476988
 30
0.0
  0
SPLINE
  5
292
100
AcDbEntity
  8
0
 62
7
100
AcDbSpline
 70
8
 71
3
 72
8
 73
4
 74
0
 40
0
 40
0
 40
0
 40
0
 40
1
 40
1
 40
1
 40
1
 10
1949.587086
 20
317.476988
 30
0.0
 10
1958.928946
 20
313.607463
 30
0.0
 10
1965.020000
 20
304.491556
 30
0.0
 10
1965.020000
 20
294.380000
 30
0.0
  0
SPLINE
  5
293
100
AcDbEntity
  8
0
 62
7
100
AcDbSpline
 70
8
 71
3
 72
8
 73
4
 74
0
 40
0
 40
0
 40
0
 40
0
 40
1
 40
1
 40
1
 40
1
 10
1965.020000
 20
294.380000
 30
0.0
 10
1965.020000
 20
287.749588
 30
0.0
 10
1962.386079
 20
281.390740
 30
0.0
 10
1957.697670
 20
276.702330
 30
0.0
  0
SPLINE
  5
294
100
AcDbEntity
  8
0
 62
7
100
AcDbSpline
 70
8
 71
3
 72
8
 73
4
 74
0
 40
0
 40
0
 40
0
 40
0
 40
1
 40
1
 40
1
 40
1
 10
1957.697670
 20
276.702330
 30
0.0
 10
1953.009260
 20
272.013921
 30
0.0
 10
1946.650412
 20
269.380000
 30
0.0
 10
1940.020000
 20
269.380000
 30
0.0
  0
LWPOLYLINE
  5
295
100
AcDbEntity
  8
0
 62
7
100
AcDbPolyline
 90
1
 70
1
 10
1856.680000
 20
269.380000
 30
0.0
  0
LWPOLYLINE
  5
296
100
AcDbEntity
  8
0
 62
7
100
AcDbPolyline
 90
1
 70
1
 10
1940.020000
 20
269.380000
 30
0.0
  0
LWPOLYLINE
  5
297
100
AcDbEntity
  8
0
 62
7
100
AcDbPolyline
 90
2
 70
0
 10
23.380000
 20
434.380000
 30
0.0
 10
23.380000
 20
414.380000
 30
0.0
  0
LWPOLYLINE
  5
298
100
AcDbEntity
  8
0
 62
7
100
AcDbPolyline
 90
3
 70
0
 10
23.380000
 20
434.380000
 30
0.0
 10
27.380000
 20
434.380000
 30
0.0
 10
27.380000
 20
454.380000
 30
0.0
  0
LWPOLYLINE
  5
299
100
AcDbEntity
  8
0
 62
7
100
AcDbPolyline
 90
2
 70
0
 10
354.720000
 20
454.380000
 30
0.0
 10
27.380000
 20
454.380000
 30
0.0
  0
LWPOLYLINE
  5
29a
100
AcDbEntity
  8
0
 62
7
100
AcDbPolyline
 90
2
 70
0
 10
354.720000
 20
434.380000
 30
0.0
 10
354.720000
 20
454.380000
 30
0.0
  0
LWPOLYLINE
  5
29b
100
AcDbEntity
  8
0
 62
7
100
AcDbPolyline
 90
2
 70
0
 10
358.720000
 20
434.380000
 30
0.0
 10
354.720000
 20
434.380000
 30
0.0
  0
LWPOLYLINE
  5
29c
100
AcDbEntity
  8
0
 62
7
100
AcDbPolyline
 90
2
 70
0
 10
358.720000
 20
454.380000
 30
0.0
 10
358.720000
 20
434.380000
 30
0.0
  0
LWPOLYLINE
  5
29d
100
AcDbEntity
  8
0
 62
7
100
AcDbPolyline
 90
2
 70
0
 10
688.050000
 20
454.380000
 30
0.0
 10
358.720000
 20
454.380000
 30
0.0
  0
LWPOLYLINE
  5
29e
100
AcDbEntity
  8
0
 62
7
100
AcDbPolyline
 90
2
 70
0
 10
688.050000
 20
434.380000
 30
0.0
 10
688.050000
 20
454.380000
 30
0.0
  0
LWPOLYLINE
  5
29f
100
AcDbEntity
  8
0
 62
7
100
AcDbPolyline
 90
2
 70
0
 10
692.050000
 20
434.380000
 30
0.0
 10
688.050000
 20
434.380000
 30
0.0
  0
LWPOLYLINE
  5
2a0
100
AcDbEntity
  8
0
 62
7
100
AcDbPolyline
 90
2
 70
0
 10
692.050000
 20
454.380000
 30
0.0
 10
692.050000
 20
434.380000
 30
0.0
  0
LWPOLYLINE
  5
2a1
100
AcDbEntity
  8
0
 62
7
100
AcDbPolyline
 90
2
 70
0
 10
1021.380000
 20
454.380000
 30
0.0
 10
692.050000
 20
454.380000
 30
0.0
  0
LWPOLYLINE
  5
2a2
100
AcDbEntity
  8
0
 62
7
100
AcDbPolyline
 90
4
 70
0
 10
1021.380000
 20
454.380000
 30
0.0
 10
1021.380000
 20
434.380000
 30
0.0
 10
1025.380000
 20
434.380000
 30
0.0
 10
1025.380000
 20
454.380000
 30
0.0
  0
LWPOLYLINE
  5
2a3
100
AcDbEntity
  8
0
 62
7
100
AcDbPolyline
 90
2
 70
0
 10
1354.710000
 20
454.380000
 30
0.0
 10
1025.380000
 20
454.380000
 30
0.0
  0
LWPOLYLINE
  5
2a4
100
AcDbEntity
  8
0
 62
7
100
AcDbPolyline
 90
4
 70
0
 10
1354.710000
 20
454.380000
 30
0.0
 10
1354.710000
 20
434.380000
 30
0.0
 10
1358.710000
 20
434.380000
 30
0.0
 10
1358.710000
 20
454.380000
 30
0.0
  0
LWPOLYLINE
  5
2a5
100
AcDbEntity
  8
0
 62
7
100
AcDbPolyline
 90
2
 70
0
 10
1688.040000
 20
454.380000
 30
0.0
 10
1358.710000
 20
454.380000
 30
0.0
  0
LWPOLYLINE
  5
2a6
100
AcDbEntity
  8
0
 62
7
100
AcDbPolyline
 90
4
 70
0
 10
1688.040000
 20
454.380000
 30
0.0
 10
1688.040000
 20
434.380000
 30
0.0
 10
1692.040000
 20
434.380000
 30
0.0
 10
1692.040000
 20
454.380000
 30
0.0
  0
LWPOLYLINE
  5
2a7
100
AcDbEntity
  8
0
 62
7
100
AcDbPolyline
 90
2
 70
0
 10
2019.380000
 20
454.380000
 30
0.0
 10
1692.040000
 20
454.380000
 30
0.0
  0
LWPOLYLINE
  5
2a8
100
AcDbEntity
  8
0
 62
7
100
AcDbPolyline
 90
3
 70
0
 10
2019.380000
 20
454.380000
 30
0.0
 10
2019.380000
 20
434.380000
 30
0.0
 10
2023.380000
 20
434.380000
 30
0.0
  0
LWPOLYLINE
  5
2a9
100
AcDbEntity
  8
0
 62
7
100
AcDbPolyline
 90
2
 70
0
 10
2023.380000
 20
414.380000
 30
0.0
 10
2023.380000
 20
434.380000
 30
0.0
  0
LWPOLYLINE
  5
2aa
100
AcDbEntity
  8
0
 62
7
100
AcDbPolyline
 90
2
 70
0
 10
2019.380000
 20
414.380000
 30
0.0
 10
2023.380000
 20
414.380000
 30
0.0
  0
LWPOLYLINE
  5
2ab
100
AcDbEntity
  8
0
 62
7
100
AcDbPolyline
 90
2
 70
0
 10
2019.380000
 20
394.380000
 30
0.0
 10
2019.380000
 20
414.380000
 30
0.0
  0
LWPOLYLINE
  5
2ac
100
AcDbEntity
  8
0
 62
7
100
AcDbPolyline
 90
2
 70
0
 10
2023.380000
 20
394.380000
 30
0.0
 10
2019.380000
 20
394.380000
 30
0.0
  0
LWPOLYLINE
  5
2ad
100
AcDbEntity
  8
0
 62
7
100
AcDbPolyline
 90
2
 70
0
 10
2023.380000
 20
374.380000
 30
0.0
 10
2023.380000
 20
394.380000
 30
0.0
  0
LWPOLYLINE
  5
2ae
100
AcDbEntity
  8
0
 62
7
100
AcDbPolyline
 90
2
 70
0
 10
2019.380000
 20
374.380000
 30
0.0
 10
2023.380000
 20
374.380000
 30
0.0
  0
LWPOLYLINE
  5
2af
100
AcDbEntity
  8
0
 62
7
100
AcDbPolyline
 90
2
 70
0
 10
2019.380000
 20
354.380000
 30
0.0
 10
2019.380000
 20
374.380000
 30
0.0
  0
LWPOLYLINE
  5
2b0
100
AcDbEntity
  8
0
 62
7
100
AcDbPolyline
 90
2
 70
0
 10
1692.040000
 20
354.380000
 30
0.0
 10
2019.380000
 20
354.380000
 30
0.0
  0
LWPOLYLINE
  5
2b1
100
AcDbEntity
  8
0
 62
7
100
AcDbPolyline
 90
4
 70
0
 10
1692.040000
 20
354.380000
 30
0.0
 10
1692.040000
 20
374.380000
 30
0.0
 10
1688.040000
 20
374.380000
 30
0.0
 10
1688.040000
 20
354.380000
 30
0.0
  0
LWPOLYLINE
  5
2b2
100
AcDbEntity
  8
0
 62
7
100
AcDbPolyline
 90
2
 70
0
 10
1358.710000
 20
354.380000
 30
0.0
 10
1688.040000
 20
354.380000
 30
0.0
  0
LWPOLYLINE
  5
2b3
100
AcDbEntity
  8
0
 62
7
100
AcDbPolyline
 90
4
 70
0
 10
1358.710000
 20
354.380000
 30
0.0
 10
1358.710000
 20
374.380000
 30
0.0
 10
1354.710000
 20
374.380000
 30
0.0
 10
1354.710000
 20
354.380000
 30
0.0
  0
LWPOLYLINE
  5
2b4
100
AcDbEntity
  8
0
 62
7
100
AcDbPolyline
 90
2
 70
0
 10
1025.380000
 20
354.380000
 30
0.0
 10
1354.710000
 20
354.380000
 30
0.0
  0
LWPOLYLINE
  5
2b5
100
AcDbEntity
  8
0
 62
7
100
AcDbPolyline
 90
4
 70
0
 10
1025.380000
 20
354.380000
 30
0.0
 10
1025.380000
 20
374.380000
 30
0.0
 10
1021.380000
 20
374.380000
 30
0.0
 10
1021.380000
 20
354.380000
 30
0.0
  0
LWPOLYLINE
  5
2b6
100
AcDbEntity
  8
0
 62
7
100
AcDbPolyline
 90
2
 70
0
 10
692.050000
 20
354.380000
 30
0.0
 10
1021.380000
 20
354.380000
 30
0.0
  0
LWPOLYLINE
  5
2b7
100
AcDbEntity
  8
0
 62
7
100
AcDbPolyline
 90
4
 70
0
 10
692.050000
 20
354.380000
 30
0.0
 10
692.050000
 20
374.380000
 30
0.0
 10
688.050000
 20
374.380000
 30
0.0
 10
688.050000
 20
354.380000
 30
0.0
  0
LWPOLYLINE
  5
2b8
100
AcDbEntity
  8
0
 62
7
100
AcDbPolyline
 90
2
 70
0
 10
358.720000
 20
354.380000
 30
0.0
 10
688.050000
 20
354.380000
 30
0.0
  0
LWPOLYLINE
  5
2b9
100
AcDbEntity
  8
0
 62
7
100
AcDbPolyline
 90
4
 70
0
 10
358.720000
 20
354.380000
 30
0.0
 10
358.720000
 20
374.380000
 30
0.0
 10
354.720000
 20
374.380000
 30
0.0
 10
354.720000
 20
354.380000
 30
0.0
  0
LWPOLYLINE
  5
2ba
100
AcDbEntity
  8
0
 62
7
100
AcDbPolyline
 90
2
 70
0
 10
27.380000
 20
354.380000
 30
0.0
 10
354.720000
 20
354.380000
 30
0.0
  0
LWPOLYLINE
  5
2bb
100
AcDbEntity
  8
0
 62
7
100
AcDbPolyline
 90
3
 70
0
 10
27.380000
 20
354.380000
 30
0.0
 10
27.380000
 20
374.380000
 30
0.0
 10
23.380000
 20
374.380000
 30
0.0
  0
LWPOLYLINE
  5
2bc
100
AcDbEntity
  8
0
 62
7
100
AcDbPolyline
 90
2
 70
0
 10
23.380000
 20
394.380000
 30
0.0
 10
23.380000
 20
374.380000
 30
0.0
  0
SPLINE
  5
2bd
100
AcDbEntity
  8
0
 62
7
100
AcDbSpline
 70
8
 71
3
 72
8
 73
4
 74
0
 40
0
 40
0
 40
0
 40
0
 40
1
 40
1
 40
1
 40
1
 10
106.750000
 20
379.380000
 30
0.0
 10
96.638444
 20
379.380000
 30
0.0
 10
87.522537
 20
385.471054
 30
0.0
 10
83.653012
 20
394.812914
 30
0.0
  0
SPLINE
  5
2be
100
AcDbEntity
  8
0
 62
7
100
AcDbSpline
 70
8
 71
3
 72
8
 73
4
 74
0
 40
0
 40
0
 40
0
 40
0
 40
1
 40
1
 40
1
 40
1
 10
83.653012
 20
394.812914
 30
0.0
 10
79.783487
 20
404.154774
 30
0.0
 10
81.922381
 20
414.907720
 30
0.0
 10
89.072330
 20
422.057670
 30
0.0
  0
SPLINE
  5
2bf
100
AcDbEntity
  8
0
 62
7
100
AcDbSpline
 70
8
 71
3
 72
8
 73
4
 74
0
 40
0
 40
0
 40
0
 40
0
 40
1
 40
1
 40
1
 40
1
 10
89.072330
 20
422.057670
 30
0.0
 10
96.222280
 20
429.207619
 30
0.0
 10
106.975226
 20
431.346513
 30
0.0
 10
116.317086
 20
427.476988
 30
0.0
  0
SPLINE
  5
2c0
100
AcDbEntity
  8
0
 62
7
100
AcDbSpline
 70
8
 71
3
 72
8
 73
4
 74
0
 40
0
 40
0
 40
0
 40
0
 40
1
 40
1
 40
1
 40
1
 10
116.317086
 20
427.476988
 30
0.0
 10
125.658946
 20
423.607463
 30
0.0
 10
131.750000
 20
414.491556
 30
0.0
 10
131.750000
 20
404.380000
 30
0.0
  0
SPLINE
  5
2c1
100
AcDbEntity
  8
0
 62
7
100
AcDbSpline
 70
8
 71
3
 72
8
 73
4
 74
0
 40
0
 40
0
 40
0
 40
0
 40
1
 40
1
 40
1
 40
1
 10
131.750000
 20
404.380000
 30
0.0
 10
131.750000
 20
390.572881
 30
0.0
 10
120.557119
 20
379.380000
 30
0.0
 10
106.750000
 20
379.380000
 30
0.0
  0
LWPOLYLINE
  5
2c2
100
AcDbEntity
  8
0
 62
7
100
AcDbPolyline
 90
4
 70
0
 10
23.380000
 20
394.380000
 30
0.0
 10
27.380000
 20
394.380000
 30
0.0
 10
27.380000
 20
414.380000
 30
0.0
 10
23.380000
 20
414.380000
 30
0.0
  0
SPLINE
  5
2c3
100
AcDbEntity
  8
0
 62
7
100
AcDbSpline
 70
8
 71
3
 72
8
 73
4
 74
0
 40
0
 40
0
 40
0
 40
0
 40
1
 40
1
 40
1
 40
1
 10
190.080000
 20
379.380000
 30
0.0
 10
179.968444
 20
379.380000
 30
0.0
 10
170.852537
 20
385.471054
 30
0.0
 10
166.983012
 20
394.812914
 30
0.0
  0
SPLINE
  5
2c4
100
AcDbEntity
  8
0
 62
7
100
AcDbSpline
 70
8
 71
3
 72
8
 73
4
 74
0
 40
0
 40
0
 40
0
 40
0
 40
1
 40
1
 40
1
 40
1
 10
166.983012
 20
394.812914
 30
0.0
 10
163.113487
 20
404.154774
 30
0.0
 10
165.252381
 20
414.907720
 30
0.0
 10
172.402330
 20
422.057670
 30
0.0
  0
SPLINE
  5
2c5
100
AcDbEntity
  8
0
 62
7
100
AcDbSpline
 70
8
 71
3
 72
8
 73
4
 74
0
 40
0
 40
0
 40
0
 40
0
 40
1
 40
1
 40
1
 40
1
 10
172.402330
 20
422.057670
 30
0.0
 10
179.552280
 20
429.207619
 30
0.0
 10
190.305226
 20
431.346513
 30
0.0
 10
199.647086
 20
427.476988
 30
0.0
  0
SPLINE
  5
2c6
100
AcDbEntity
  8
0
 62
7
100
AcDbSpline
 70
8
 71
3
 72
8
 73
4
 74
0
 40
0
 40
0
 40
0
 40
0
 40
1
 40
1
 40
1
 40
1
 10
199.647086
 20
427.476988
 30
0.0
 10
208.988946
 20
423.607463
 30
0.0
 10
215.080000
 20
414.491556
 30
0.0
 10
215.080000
 20
404.380000
 30
0.0
  0
SPLINE
  5
2c7
100
AcDbEntity
  8
0
 62
7
100
AcDbSpline
 70
8
 71
3
 72
8
 73
4
 74
0
 40
0
 40
0
 40
0
 40
0
 40
1
 40
1
 40
1
 40
1
 10
215.080000
 20
404.380000
 30
0.0
 10
215.080000
 20
397.749588
 30
0.0
 10
212.446079
 20
391.390740
 30
0.0
 10
207.757670
 20
386.702330
 30
0.0
  0
SPLINE
  5
2c8
100
AcDbEntity
  8
0
 62
7
100
AcDbSpline
 70
8
 71
3
 72
8
 73
4
 74
0
 40
0
 40
0
 40
0
 40
0
 40
1
 40
1
 40
1
 40
1
 10
207.757670
 20
386.702330
 30
0.0
 10
203.069260
 20
382.013921
 30
0.0
 10
196.710412
 20
379.380000
 30
0.0
 10
190.080000
 20
379.380000
 30
0.0
  0
LWPOLYLINE
  5
2c9
100
AcDbEntity
  8
0
 62
7
100
AcDbPolyline
 90
1
 70
1
 10
106.750000
 20
379.380000
 30
0.0
  0
SPLINE
  5
2ca
100
AcDbEntity
  8
0
 62
7
100
AcDbSpline
 70
8
 71
3
 72
8
 73
4
 74
0
 40
0
 40
0
 40
0
 40
0
 40
1
 40
1
 40
1
 40
1
 10
273.410000
 20
379.380000
 30
0.0
 10
263.298444
 20
379.380000
 30
0.0
 10
254.182537
 20
385.471054
 30
0.0
 10
250.313012
 20
394.812914
 30
0.0
  0
SPLINE
  5
2cb
100
AcDbEntity
  8
0
 62
7
100
AcDbSpline
 70
8
 71
3
 72
8
 73
4
 74
0
 40
0
 40
0
 40
0
 40
0
 40
1
 40
1
 40
1
 40
1
 10
250.313012
 20
394.812914
 30
0.0
 10
246.443487
 20
404.154774
 30
0.0
 10
248.582381
 20
414.907720
 30
0.0
 10
255.732330
 20
422.057670
 30
0.0
  0
SPLINE
  5
2cc
100
AcDbEntity
  8
0
 62
7
100
AcDbSpline
 70
8
 71
3
 72
8
 73
4
 74
0
 40
0
 40
0
 40
0
 40
0
 40
1
 40
1
 40
1
 40
1
 10
255.732330
 20
422.057670
 30
0.0
 10
262.882280
 20
429.207619
 30
0.0
 10
273.635226
 20
431.346513
 30
0.0
 10
282.977086
 20
427.476988
 30
0.0
  0
SPLINE
  5
2cd
100
AcDbEntity
  8
0
 62
7
100
AcDbSpline
 70
8
 71
3
 72
8
 73
4
 74
0
 40
0
 40
0
 40
0
 40
0
 40
1
 40
1
 40
1
 40
1
 10
282.977086
 20
427.476988
 30
0.0
 10
292.318946
 20
423.607463
 30
0.0
 10
298.410000
 20
414.491556
 30
0.0
 10
298.410000
 20
404.380000
 30
0.0
  0
SPLINE
  5
2ce
100
AcDbEntity
  8
0
 62
7
100
AcDbSpline
 70
8
 71
3
 72
8
 73
4
 74
0
 40
0
 40
0
 40
0
 40
0
 40
1
 40
1
 40
1
 40
1
 10
298.410000
 20
404.380000
 30
0.0
 10
298.410000
 20
390.572881
 30
0.0
 10
287.217119
 20
379.380000
 30
0.0
 10
273.410000
 20
379.380000
 30
0.0
  0
LWPOLYLINE
  5
2cf
100
AcDbEntity
  8
0
 62
7
100
AcDbPolyline
 90
1
 70
1
 10
190.080000
 20
379.380000
 30
0.0
  0
SPLINE
  5
2d0
100
AcDbEntity
  8
0
 62
7
100
AcDbSpline
 70
8
 71
3
 72
8
 73
4
 74
0
 40
0
 40
0
 40
0
 40
0
 40
1
 40
1
 40
1
 40
1
 10
440.070000
 20
379.380000
 30
0.0
 10
429.958444
 20
379.380000
 30
0.0
 10
420.842537
 20
385.471054
 30
0.0
 10
416.973012
 20
394.812914
 30
0.0
  0
SPLINE
  5
2d1
100
AcDbEntity
  8
0
 62
7
100
AcDbSpline
 70
8
 71
3
 72
8
 73
4
 74
0
 40
0
 40
0
 40
0
 40
0
 40
1
 40
1
 40
1
 40
1
 10
416.973012
 20
394.812914
 30
0.0
 10
413.103487
 20
404.154774
 30
0.0
 10
415.242381
 20
414.907720
 30
0.0
 10
422.392330
 20
422.057670
 30
0.0
  0
SPLINE
  5
2d2
100
AcDbEntity
  8
0
 62
7
100
AcDbSpline
 70
8
 71
3
 72
8
 73
4
 74
0
 40
0
 40
0
 40
0
 40
0
 40
1
 40
1
 40
1
 40
1
 10
422.392330
 20
422.057670
 30
0.0
 10
429.542280
 20
429.207619
 30
0.0
 10
440.295226
 20
431.346513
 30
0.0
 10
449.637086
 20
427.476988
 30
0.0
  0
SPLINE
  5
2d3
100
AcDbEntity
  8
0
 62
7
100
AcDbSpline
 70
8
 71
3
 72
8
 73
4
 74
0
 40
0
 40
0
 40
0
 40
0
 40
1
 40
1
 40
1
 40
1
 10
449.637086
 20
427.476988
 30
0.0
 10
458.978946
 20
423.607463
 30
0.0
 10
465.070000
 20
414.491556
 30
0.0
 10
465.070000
 20
404.380000
 30
0.0
  0
SPLINE
  5
2d4
100
AcDbEntity
  8
0
 62
7
100
AcDbSpline
 70
8
 71
3
 72
8
 73
4
 74
0
 40
0
 40
0
 40
0
 40
0
 40
1
 40
1
 40
1
 40
1
 10
465.070000
 20
404.380000
 30
0.0
 10
465.070000
 20
397.749588
 30
0.0
 10
462.436079
 20
391.390740
 30
0.0
 10
457.747670
 20
386.702330
 30
0.0
  0
SPLINE
  5
2d5
100
AcDbEntity
  8
0
 62
7
100
AcDbSpline
 70
8
 71
3
 72
8
 73
4
 74
0
 40
0
 40
0
 40
0
 40
0
 40
1
 40
1
 40
1
 40
1
 10
457.747670
 20
386.702330
 30
0.0
 10
453.059260
 20
382.013921
 30
0.0
 10
446.700412
 20
379.380000
 30
0.0
 10
440.070000
 20
379.380000
 30
0.0
  0
LWPOLYLINE
  5
2d6
100
AcDbEntity
  8
0
 62
7
100
AcDbPolyline
 90
1
 70
1
 10
273.410000
 20
379.380000
 30
0.0
  0
SPLINE
  5
2d7
100
AcDbEntity
  8
0
 62
7
100
AcDbSpline
 70
8
 71
3
 72
8
 73
4
 74
0
 40
0
 40
0
 40
0
 40
0
 40
1
 40
1
 40
1
 40
1
 10
523.400000
 20
379.380000
 30
0.0
 10
513.288444
 20
379.380000
 30
0.0
 10
504.172537
 20
385.471054
 30
0.0
 10
500.303012
 20
394.812914
 30
0.0
  0
SPLINE
  5
2d8
100
AcDbEntity
  8
0
 62
7
100
AcDbSpline
 70
8
 71
3
 72
8
 73
4
 74
0
 40
0
 40
0
 40
0
 40
0
 40
1
 40
1
 40
1
 40
1
 10
500.303012
 20
394.812914
 30
0.0
 10
496.433487
 20
404.154774
 30
0.0
 10
498.572381
 20
414.907720
 30
0.0
 10
505.722330
 20
422.057670
 30
0.0
  0
SPLINE
  5
2d9
100
AcDbEntity
  8
0
 62
7
100
AcDbSpline
 70
8
 71
3
 72
8
 73
4
 74
0
 40
0
 40
0
 40
0
 40
0
 40
1
 40
1
 40
1
 40
1
 10
505.722330
 20
422.057670
 30
0.0
 10
512.872280
 20
429.207619
 30
0.0
 10
523.625226
 20
431.346513
 30
0.0
 10
532.967086
 20
427.476988
 30
0.0
  0
SPLINE
  5
2da
100
AcDbEntity
  8
0
 62
7
100
AcDbSpline
 70
8
 71
3
 72
8
 73
4
 74
0
 40
0
 40
0
 40
0
 40
0
 40
1
 40
1
 40
1
 40
1
 10
532.967086
 20
427.476988
 30
0.0
 10
542.308946
 20
423.607463
 30
0.0
 10
548.400000
 20
414.491556
 30
0.0
 10
548.400000
 20
404.380000
 30
0.0
  0
SPLINE
  5
2db
100
AcDbEntity
  8
0
 62
7
100
AcDbSpline
 70
8
 71
3
 72
8
 73
4
 74
0
 40
0
 40
0
 40
0
 40
0
 40
1
 40
1
 40
1
 40
1
 10
548.400000
 20
404.380000
 30
0.0
 10
548.400000
 20
397.749588
 30
0.0
 10
545.766079
 20
391.390740
 30
0.0
 10
541.077670
 20
386.702330
 30
0.0
  0
SPLINE
  5
2dc
100
AcDbEntity
  8
0
 62
7
100
AcDbSpline
 70
8
 71
3
 72
8
 73
4
 74
0
 40
0
 40
0
 40
0
 40
0
 40
1
 40
1
 40
1
 40
1
 10
541.077670
 20
386.702330
 30
0.0
 10
536.389260
 20
382.013921
 30
0.0
 10
530.030412
 20
379.380000
 30
0.0
 10
523.400000
 20
379.380000
 30
0.0
  0
LWPOLYLINE
  5
2dd
100
AcDbEntity
  8
0
 62
7
100
AcDbPolyline
 90
1
 70
1
 10
440.070000
 20
379.380000
 30
0.0
  0
SPLINE
  5
2de
100
AcDbEntity
  8
0
 62
7
100
AcDbSpline
 70
8
 71
3
 72
8
 73
4
 74
0
 40
0
 40
0
 40
0
 40
0
 40
1
 40
1
 40
1
 40
1
 10
606.730000
 20
379.380000
 30
0.0
 10
596.618444
 20
379.380000
 30
0.0
 10
587.502537
 20
385.471054
 30
0.0
 10
583.633012
 20
394.812914
 30
0.0
  0
SPLINE
  5
2df
100
AcDbEntity
  8
0
 62
7
100
AcDbSpline
 70
8
 71
3
 72
8
 73
4
 74
0
 40
0
 40
0
 40
0
 40
0
 40
1
 40
1
 40
1
 40
1
 10
583.633012
 20
394.812914
 30
0.0
 10
579.763487
 20
404.154774
 30
0.0
 10
581.902381
 20
414.907720
 30
0.0
 10
589.052330
 20
422.057670
 30
0.0
  0
SPLINE
  5
2e0
100
AcDbEntity
  8
0
 62
7
100
AcDbSpline
 70
8
 71
3
 72
8
 73
4
 74
0
 40
0
 40
0
 40
0
 40
0
 40
1
 40
1
 40
1
 40
1
 10
589.052330
 20
422.057670
 30
0.0
 10
596.202280
 20
429.207619
 30
0.0
 10
606.955226
 20
431.346513
 30
0.0
 10
616.297086
 20
427.476988
 30
0.0
  0
SPLINE
  5
2e1
100
AcDbEntity
  8
0
 62
7
100
AcDbSpline
 70
8
 71
3
 72
8
 73
4
 74
0
 40
0
 40
0
 40
0
 40
0
 40
1
 40
1
 40
1
 40
1
 10
616.297086
 20
427.476988
 30
0.0
 10
625.638946
 20
423.607463
 30
0.0
 10
631.730000
 20
414.491556
 30
0.0
 10
631.730000
 20
404.380000
 30
0.0
  0
SPLINE
  5
2e2
100
AcDbEntity
  8
0
 62
7
100
AcDbSpline
 70
8
 71
3
 72
8
 73
4
 74
0
 40
0
 40
0
 40
0
 40
0
 40
1
 40
1
 40
1
 40
1
 10
631.730000
 20
404.380000
 30
0.0
 10
631.730000
 20
397.749588
 30
0.0
 10
629.096079
 20
391.390740
 30
0.0
 10
624.407670
 20
386.702330
 30
0.0
  0
SPLINE
  5
2e3
100
AcDbEntity
  8
0
 62
7
100
AcDbSpline
 70
8
 71
3
 72
8
 73
4
 74
0
 40
0
 40
0
 40
0
 40
0
 40
1
 40
1
 40
1
 40
1
 10
624.407670
 20
386.702330
 30
0.0
 10
619.719260
 20
382.013921
 30
0.0
 10
613.360412
 20
379.380000
 30
0.0
 10
606.730000
 20
379.380000
 30
0.0
  0
LWPOLYLINE
  5
2e4
100
AcDbEntity
  8
0
 62
7
100
AcDbPolyline
 90
1
 70
1
 10
523.400000
 20
379.380000
 30
0.0
  0
SPLINE
  5
2e5
100
AcDbEntity
  8
0
 62
7
100
AcDbSpline
 70
8
 71
3
 72
8
 73
4
 74
0
 40
0
 40
0
 40
0
 40
0
 40
1
 40
1
 40
1
 40
1
 10
773.390000
 20
379.380000
 30
0.0
 10
763.278444
 20
379.380000
 30
0.0
 10
754.162537
 20
385.471054
 30
0.0
 10
750.293012
 20
394.812914
 30
0.0
  0
SPLINE
  5
2e6
100
AcDbEntity
  8
0
 62
7
100
AcDbSpline
 70
8
 71
3
 72
8
 73
4
 74
0
 40
0
 40
0
 40
0
 40
0
 40
1
 40
1
 40
1
 40
1
 10
750.293012
 20
394.812914
 30
0.0
 10
746.423487
 20
404.154774
 30
0.0
 10
748.562381
 20
414.907720
 30
0.0
 10
755.712330
 20
422.057670
 30
0.0
  0
SPLINE
  5
2e7
100
AcDbEntity
  8
0
 62
7
100
AcDbSpline
 70
8
 71
3
 72
8
 73
4
 74
0
 40
0
 40
0
 40
0
 40
0
 40
1
 40
1
 40
1
 40
1
 10
755.712330
 20
422.057670
 30
0.0
 10
762.862280
 20
429.207619
 30
0.0
 10
773.615226
 20
431.346513
 30
0.0
 10
782.957086
 20
427.476988
 30
0.0
  0
SPLINE
  5
2e8
100
AcDbEntity
  8
0
 62
7
100
AcDbSpline
 70
8
 71
3
 72
8
 73
4
 74
0
 40
0
 40
0
 40
0
 40
0
 40
1
 40
1
 40
1
 40
1
 10
782.957086
 20
427.476988
 30
0.0
 10
792.298946
 20
423.607463
 30
0.0
 10
798.390000
 20
414.491556
 30
0.0
 10
798.390000
 20
404.380000
 30
0.0
  0
SPLINE
  5
2e9
100
AcDbEntity
  8
0
 62
7
100
AcDbSpline
 70
8
 71
3
 72
8
 73
4
 74
0
 40
0
 40
0
 40
0
 40
0
 40
1
 40
1
 40
1
 40
1
 10
798.390000
 20
404.380000
 30
0.0
 10
798.390000
 20
390.572881
 30
0.0
 10
787.197119
 20
379.380000
 30
0.0
 10
773.390000
 20
379.380000
 30
0.0
  0
LWPOLYLINE
  5
2ea
100
AcDbEntity
  8
0
 62
7
100
AcDbPolyline
 90
1
 70
1
 10
606.730000
 20
379.380000
 30
0.0
  0
SPLINE
  5
2eb
100
AcDbEntity
  8
0
 62
7
100
AcDbSpline
 70
8
 71
3
 72
8
 73
4
 74
0
 40
0
 40
0
 40
0
 40
0
 40
1
 40
1
 40
1
 40
1
 10
856.720000
 20
379.380000
 30
0.0
 10
846.608444
 20
379.380000
 30
0.0
 10
837.492537
 20
385.471054
 30
0.0
 10
833.623012
 20
394.812914
 30
0.0
  0
SPLINE
  5
2ec
100
AcDbEntity
  8
0
 62
7
100
AcDbSpline
 70
8
 71
3
 72
8
 73
4
 74
0
 40
0
 40
0
 40
0
 40
0
 40
1
 40
1
 40
1
 40
1
 10
833.623012
 20
394.812914
 30
0.0
 10
829.753487
 20
404.154774
 30
0.0
 10
831.892381
 20
414.907720
 30
0.0
 10
839.042330
 20
422.057670
 30
0.0
  0
SPLINE
  5
2ed
100
AcDbEntity
  8
0
 62
7
100
AcDbSpline
 70
8
 71
3
 72
8
 73
4
 74
0
 40
0
 40
0
 40
0
 40
0
 40
1
 40
1
 40
1
 40
1
 10
839.042330
 20
422.057670
 30
0.0
 10
846.192280
 20
429.207619
 30
0.0
 10
856.945226
 20
431.346513
 30
0.0
 10
866.287086
 20
427.476988
 30
0.0
  0
SPLINE
  5
2ee
100
AcDbEntity
  8
0
 62
7
100
AcDbSpline
 70
8
 71
3
 72
8
 73
4
 74
0
 40
0
 40
0
 40
0
 40
0
 40
1
 40
1
 40
1
 40
1
 10
866.287086
 20
427.476988
 30
0.0
 10
875.628946
 20
423.607463
 30
0.0
 10
881.720000
 20
414.491556
 30
0.0
 10
881.720000
 20
404.380000
 30
0.0
  0
SPLINE
  5
2ef
100
AcDbEntity
  8
0
 62
7
100
AcDbSpline
 70
8
 71
3
 72
8
 73
4
 74
0
 40
0
 40
0
 40
0
 40
0
 40
1
 40
1
 40
1
 40
1
 10
881.720000
 20
404.380000
 30
0.0
 10
881.720000
 20
397.749588
 30
0.0
 10
879.086079
 20
391.390740
 30
0.0
 10
874.397670
 20
386.702330
 30
0.0
  0
SPLINE
  5
2f0
100
AcDbEntity
  8
0
 62
7
100
AcDbSpline
 70
8
 71
3
 72
8
 73
4
 74
0
 40
0
 40
0
 40
0
 40
0
 40
1
 40
1
 40
1
 40
1
 10
874.397670
 20
386.702330
 30
0.0
 10
869.709260
 20
382.013921
 30
0.0
 10
863.350412
 20
379.380000
 30
0.0
 10
856.720000
 20
379.380000
 30
0.0
  0
LWPOLYLINE
  5
2f1
100
AcDbEntity
  8
0
 62
7
100
AcDbPolyline
 90
1
 70
1
 10
773.390000
 20
379.380000
 30
0.0
  0
SPLINE
  5
2f2
100
AcDbEntity
  8
0
 62
7
100
AcDbSpline
 70
8
 71
3
 72
8
 73
4
 74
0
 40
0
 40
0
 40
0
 40
0
 40
1
 40
1
 40
1
 40
1
 10
940.050000
 20
379.380000
 30
0.0
 10
929.938444
 20
379.380000
 30
0.0
 10
920.822537
 20
385.471054
 30
0.0
 10
916.953012
 20
394.812914
 30
0.0
  0
SPLINE
  5
2f3
100
AcDbEntity
  8
0
 62
7
100
AcDbSpline
 70
8
 71
3
 72
8
 73
4
 74
0
 40
0
 40
0
 40
0
 40
0
 40
1
 40
1
 40
1
 40
1
 10
916.953012
 20
394.812914
 30
0.0
 10
913.083487
 20
404.154774
 30
0.0
 10
915.222381
 20
414.907720
 30
0.0
 10
922.372330
 20
422.057670
 30
0.0
  0
SPLINE
  5
2f4
100
AcDbEntity
  8
0
 62
7
100
AcDbSpline
 70
8
 71
3
 72
8
 73
4
 74
0
 40
0
 40
0
 40
0
 40
0
 40
1
 40
1
 40
1
 40
1
 10
922.372330
 20
422.057670
 30
0.0
 10
929.522280
 20
429.207619
 30
0.0
 10
940.275226
 20
431.346513
 30
0.0
 10
949.617086
 20
427.476988
 30
0.0
  0
SPLINE
  5
2f5
100
AcDbEntity
  8
0
 62
7
100
AcDbSpline
 70
8
 71
3
 72
8
 73
4
 74
0
 40
0
 40
0
 40
0
 40
0
 40
1
 40
1
 40
1
 40
1
 10
949.617086
 20
427.476988
 30
0.0
 10
958.958946
 20
423.607463
 30
0.0
 10
965.050000
 20
414.491556
 30
0.0
 10
965.050000
 20
404.380000
 30
0.0
  0
SPLINE
  5
2f6
100
AcDbEntity
  8
0
 62
7
100
AcDbSpline
 70
8
 71
3
 72
8
 73
4
 74
0
 40
0
 40
0
 40
0
 40
0
 40
1
 40
1
 40
1
 40
1
 10
965.050000
 20
404.380000
 30
0.0
 10
965.050000
 20
397.749588
 30
0.0
 10
962.416079
 20
391.390740
 30
0.0
 10
957.727670
 20
386.702330
 30
0.0
  0
SPLINE
  5
2f7
100
AcDbEntity
  8
0
 62
7
100
AcDbSpline
 70
8
 71
3
 72
8
 73
4
 74
0
 40
0
 40
0
 40
0
 40
0
 40
1
 40
1
 40
1
 40
1
 10
957.727670
 20
386.702330
 30
0.0
 10
953.039260
 20
382.013921
 30
0.0
 10
946.680412
 20
379.380000
 30
0.0
 10
940.050000
 20
379.380000
 30
0.0
  0
LWPOLYLINE
  5
2f8
100
AcDbEntity
  8
0
 62
7
100
AcDbPolyline
 90
1
 70
1
 10
856.720000
 20
379.380000
 30
0.0
  0
SPLINE
  5
2f9
100
AcDbEntity
  8
0
 62
7
100
AcDbSpline
 70
8
 71
3
 72
8
 73
4
 74
0
 40
0
 40
0
 40
0
 40
0
 40
1
 40
1
 40
1
 40
1
 10
1106.710000
 20
379.380000
 30
0.0
 10
1096.598444
 20
379.380000
 30
0.0
 10
1087.482537
 20
385.471054
 30
0.0
 10
1083.613012
 20
394.812914
 30
0.0
  0
SPLINE
  5
2fa
100
AcDbEntity
  8
0
 62
7
100
AcDbSpline
 70
8
 71
3
 72
8
 73
4
 74
0
 40
0
 40
0
 40
0
 40
0
 40
1
 40
1
 40
1
 40
1
 10
1083.613012
 20
394.812914
 30
0.0
 10
1079.743487
 20
404.154774
 30
0.0
 10
1081.882381
 20
414.907720
 30
0.0
 10
1089.032330
 20
422.057670
 30
0.0
  0
SPLINE
  5
2fb
100
AcDbEntity
  8
0
 62
7
100
AcDbSpline
 70
8
 71
3
 72
8
 73
4
 74
0
 40
0
 40
0
 40
0
 40
0
 40
1
 40
1
 40
1
 40
1
 10
1089.032330
 20
422.057670
 30
0.0
 10
1096.182280
 20
429.207619
 30
0.0
 10
1106.935226
 20
431.346513
 30
0.0
 10
1116.277086
 20
427.476988
 30
0.0
  0
SPLINE
  5
2fc
100
AcDbEntity
  8
0
 62
7
100
AcDbSpline
 70
8
 71
3
 72
8
 73
4
 74
0
 40
0
 40
0
 40
0
 40
0
 40
1
 40
1
 40
1
 40
1
 10
1116.277086
 20
427.476988
 30
0.0
 10
1125.618946
 20
423.607463
 30
0.0
 10
1131.710000
 20
414.491556
 30
0.0
 10
1131.710000
 20
404.380000
 30
0.0
  0
SPLINE
  5
2fd
100
AcDbEntity
  8
0
 62
7
100
AcDbSpline
 70
8
 71
3
 72
8
 73
4
 74
0
 40
0
 40
0
 40
0
 40
0
 40
1
 40
1
 40
1
 40
1
 10
1131.710000
 20
404.380000
 30
0.0
 10
1131.710000
 20
397.749588
 30
0.0
 10
1129.076079
 20
391.390740
 30
0.0
 10
1124.387670
 20
386.702330
 30
0.0
  0
SPLINE
  5
2fe
100
AcDbEntity
  8
0
 62
7
100
AcDbSpline
 70
8
 71
3
 72
8
 73
4
 74
0
 40
0
 40
0
 40
0
 40
0
 40
1
 40
1
 40
1
 40
1
 10
1124.387670
 20
386.702330
 30
0.0
 10
1119.699260
 20
382.013921
 30
0.0
 10
1113.340412
 20
379.380000
 30
0.0
 10
1106.710000
 20
379.380000
 30
0.0
  0
LWPOLYLINE
  5
2ff
100
AcDbEntity
  8
0
 62
7
100
AcDbPolyline
 90
1
 70
1
 10
940.050000
 20
379.380000
 30
0.0
  0
SPLINE
  5
300
100
AcDbEntity
  8
0
 62
7
100
AcDbSpline
 70
8
 71
3
 72
8
 73
4
 74
0
 40
0
 40
0
 40
0
 40
0
 40
1
 40
1
 40
1
 40
1
 10
1190.040000
 20
379.380000
 30
0.0
 10
1179.928444
 20
379.380000
 30
0.0
 10
1170.812537
 20
385.471054
 30
0.0
 10
1166.943012
 20
394.812914
 30
0.0
  0
SPLINE
  5
301
100
AcDbEntity
  8
0
 62
7
100
AcDbSpline
 70
8
 71
3
 72
8
 73
4
 74
0
 40
0
 40
0
 40
0
 40
0
 40
1
 40
1
 40
1
 40
1
 10
1166.943012
 20
394.812914
 30
0.0
 10
1163.073487
 20
404.154774
 30
0.0
 10
1165.212381
 20
414.907720
 30
0.0
 10
1172.362330
 20
422.057670
 30
0.0
  0
SPLINE
  5
302
100
AcDbEntity
  8
0
 62
7
100
AcDbSpline
 70
8
 71
3
 72
8
 73
4
 74
0
 40
0
 40
0
 40
0
 40
0
 40
1
 40
1
 40
1
 40
1
 10
1172.362330
 20
422.057670
 30
0.0
 10
1179.512280
 20
429.207619
 30
0.0
 10
1190.265226
 20
431.346513
 30
0.0
 10
1199.607086
 20
427.476988
 30
0.0
  0
SPLINE
  5
303
100
AcDbEntity
  8
0
 62
7
100
AcDbSpline
 70
8
 71
3
 72
8
 73
4
 74
0
 40
0
 40
0
 40
0
 40
0
 40
1
 40
1
 40
1
 40
1
 10
1199.607086
 20
427.476988
 30
0.0
 10
1208.948946
 20
423.607463
 30
0.0
 10
1215.040000
 20
414.491556
 30
0.0
 10
1215.040000
 20
404.380000
 30
0.0
  0
SPLINE
  5
304
100
AcDbEntity
  8
0
 62
7
100
AcDbSpline
 70
8
 71
3
 72
8
 73
4
 74
0
 40
0
 40
0
 40
0
 40
0
 40
1
 40
1
 40
1
 40
1
 10
1215.040000
 20
404.380000
 30
0.0
 10
1215.040000
 20
397.749588
 30
0.0
 10
1212.406079
 20
391.390740
 30
0.0
 10
1207.717670
 20
386.702330
 30
0.0
  0
SPLINE
  5
305
100
AcDbEntity
  8
0
 62
7
100
AcDbSpline
 70
8
 71
3
 72
8
 73
4
 74
0
 40
0
 40
0
 40
0
 40
0
 40
1
 40
1
 40
1
 40
1
 10
1207.717670
 20
386.702330
 30
0.0
 10
1203.029260
 20
382.013921
 30
0.0
 10
1196.670412
 20
379.380000
 30
0.0
 10
1190.040000
 20
379.380000
 30
0.0
  0
LWPOLYLINE
  5
306
100
AcDbEntity
  8
0
 62
7
100
AcDbPolyline
 90
1
 70
1
 10
1106.710000
 20
379.380000
 30
0.0
  0
SPLINE
  5
307
100
AcDbEntity
  8
0
 62
7
100
AcDbSpline
 70
8
 71
3
 72
8
 73
4
 74
0
 40
0
 40
0
 40
0
 40
0
 40
1
 40
1
 40
1
 40
1
 10
1273.370000
 20
379.380000
 30
0.0
 10
1263.258444
 20
379.380000
 30
0.0
 10
1254.142537
 20
385.471054
 30
0.0
 10
1250.273012
 20
394.812914
 30
0.0
  0
SPLINE
  5
308
100
AcDbEntity
  8
0
 62
7
100
AcDbSpline
 70
8
 71
3
 72
8
 73
4
 74
0
 40
0
 40
0
 40
0
 40
0
 40
1
 40
1
 40
1
 40
1
 10
1250.273012
 20
394.812914
 30
0.0
 10
1246.403487
 20
404.154774
 30
0.0
 10
1248.542381
 20
414.907720
 30
0.0
 10
1255.692330
 20
422.057670
 30
0.0
  0
SPLINE
  5
309
100
AcDbEntity
  8
0
 62
7
100
AcDbSpline
 70
8
 71
3
 72
8
 73
4
 74
0
 40
0
 40
0
 40
0
 40
0
 40
1
 40
1
 40
1
 40
1
 10
1255.692330
 20
422.057670
 30
0.0
 10
1262.842280
 20
429.207619
 30
0.0
 10
1273.595226
 20
431.346513
 30
0.0
 10
1282.937086
 20
427.476988
 30
0.0
  0
SPLINE
  5
30a
100
AcDbEntity
  8
0
 62
7
100
AcDbSpline
 70
8
 71
3
 72
8
 73
4
 74
0
 40
0
 40
0
 40
0
 40
0
 40
1
 40
1
 40
1
 40
1
 10
1282.937086
 20
427.476988
 30
0.0
 10
1292.278946
 20
423.607463
 30
0.0
 10
1298.370000
 20
414.491556
 30
0.0
 10
1298.370000
 20
404.380000
 30
0.0
  0
SPLINE
  5
30b
100
AcDbEntity
  8
0
 62
7
100
AcDbSpline
 70
8
 71
3
 72
8
 73
4
 74
0
 40
0
 40
0
 40
0
 40
0
 40
1
 40
1
 40
1
 40
1
 10
1298.370000
 20
404.380000
 30
0.0
 10
1298.370000
 20
397.749588
 30
0.0
 10
1295.736079
 20
391.390740
 30
0.0
 10
1291.047670
 20
386.702330
 30
0.0
  0
SPLINE
  5
30c
100
AcDbEntity
  8
0
 62
7
100
AcDbSpline
 70
8
 71
3
 72
8
 73
4
 74
0
 40
0
 40
0
 40
0
 40
0
 40
1
 40
1
 40
1
 40
1
 10
1291.047670
 20
386.702330
 30
0.0
 10
1286.359260
 20
382.013921
 30
0.0
 10
1280.000412
 20
379.380000
 30
0.0
 10
1273.370000
 20
379.380000
 30
0.0
  0
LWPOLYLINE
  5
30d
100
AcDbEntity
  8
0
 62
7
100
AcDbPolyline
 90
1
 70
1
 10
1190.040000
 20
379.380000
 30
0.0
  0
SPLINE
  5
30e
100
AcDbEntity
  8
0
 62
7
100
AcDbSpline
 70
8
 71
3
 72
8
 73
4
 74
0
 40
0
 40
0
 40
0
 40
0
 40
1
 40
1
 40
1
 40
1
 10
1440.030000
 20
379.380000
 30
0.0
 10
1429.918444
 20
379.380000
 30
0.0
 10
1420.802537
 20
385.471054
 30
0.0
 10
1416.933012
 20
394.812914
 30
0.0
  0
SPLINE
  5
30f
100
AcDbEntity
  8
0
 62
7
100
AcDbSpline
 70
8
 71
3
 72
8
 73
4
 74
0
 40
0
 40
0
 40
0
 40
0
 40
1
 40
1
 40
1
 40
1
 10
1416.933012
 20
394.812914
 30
0.0
 10
1413.063487
 20
404.154774
 30
0.0
 10
1415.202381
 20
414.907720
 30
0.0
 10
1422.352330
 20
422.057670
 30
0.0
  0
SPLINE
  5
310
100
AcDbEntity
  8
0
 62
7
100
AcDbSpline
 70
8
 71
3
 72
8
 73
4
 74
0
 40
0
 40
0
 40
0
 40
0
 40
1
 40
1
 40
1
 40
1
 10
1422.352330
 20
422.057670
 30
0.0
 10
1429.502280
 20
429.207619
 30
0.0
 10
1440.255226
 20
431.346513
 30
0.0
 10
1449.597086
 20
427.476988
 30
0.0
  0
SPLINE
  5
311
100
AcDbEntity
  8
0
 62
7
100
AcDbSpline
 70
8
 71
3
 72
8
 73
4
 74
0
 40
0
 40
0
 40
0
 40
0
 40
1
 40
1
 40
1
 40
1
 10
1449.597086
 20
427.476988
 30
0.0
 10
1458.938946
 20
423.607463
 30
0.0
 10
1465.030000
 20
414.491556
 30
0.0
 10
1465.030000
 20
404.380000
 30
0.0
  0
SPLINE
  5
312
100
AcDbEntity
  8
0
 62
7
100
AcDbSpline
 70
8
 71
3
 72
8
 73
4
 74
0
 40
0
 40
0
 40
0
 40
0
 40
1
 40
1
 40
1
 40
1
 10
1465.030000
 20
404.380000
 30
0.0
 10
1465.030000
 20
397.749588
 30
0.0
 10
1462.396079
 20
391.390740
 30
0.0
 10
1457.707670
 20
386.702330
 30
0.0
  0
SPLINE
  5
313
100
AcDbEntity
  8
0
 62
7
100
AcDbSpline
 70
8
 71
3
 72
8
 73
4
 74
0
 40
0
 40
0
 40
0
 40
0
 40
1
 40
1
 40
1
 40
1
 10
1457.707670
 20
386.702330
 30
0.0
 10
1453.019260
 20
382.013921
 30
0.0
 10
1446.660412
 20
379.380000
 30
0.0
 10
1440.030000
 20
379.380000
 30
0.0
  0
LWPOLYLINE
  5
314
100
AcDbEntity
  8
0
 62
7
100
AcDbPolyline
 90
1
 70
1
 10
1273.370000
 20
379.380000
 30
0.0
  0
SPLINE
  5
315
100
AcDbEntity
  8
0
 62
7
100
AcDbSpline
 70
8
 71
3
 72
8
 73
4
 74
0
 40
0
 40
0
 40
0
 40
0
 40
1
 40
1
 40
1
 40
1
 10
1523.360000
 20
379.380000
 30
0.0
 10
1513.248444
 20
379.380000
 30
0.0
 10
1504.132537
 20
385.471054
 30
0.0
 10
1500.263012
 20
394.812914
 30
0.0
  0
SPLINE
  5
316
100
AcDbEntity
  8
0
 62
7
100
AcDbSpline
 70
8
 71
3
 72
8
 73
4
 74
0
 40
0
 40
0
 40
0
 40
0
 40
1
 40
1
 40
1
 40
1
 10
1500.263012
 20
394.812914
 30
0.0
 10
1496.393487
 20
404.154774
 30
0.0
 10
1498.532381
 20
414.907720
 30
0.0
 10
1505.682330
 20
422.057670
 30
0.0
  0
SPLINE
  5
317
100
AcDbEntity
  8
0
 62
7
100
AcDbSpline
 70
8
 71
3
 72
8
 73
4
 74
0
 40
0
 40
0
 40
0
 40
0
 40
1
 40
1
 40
1
 40
1
 10
1505.682330
 20
422.057670
 30
0.0
 10
1512.832280
 20
429.207619
 30
0.0
 10
1523.585226
 20
431.346513
 30
0.0
 10
1532.927086
 20
427.476988
 30
0.0
  0
SPLINE
  5
318
100
AcDbEntity
  8
0
 62
7
100
AcDbSpline
 70
8
 71
3
 72
8
 73
4
 74
0
 40
0
 40
0
 40
0
 40
0
 40
1
 40
1
 40
1
 40
1
 10
1532.927086
 20
427.476988
 30
0.0
 10
1542.268946
 20
423.607463
 30
0.0
 10
1548.360000
 20
414.491556
 30
0.0
 10
1548.360000
 20
404.380000
 30
0.0
  0
SPLINE
  5
319
100
AcDbEntity
  8
0
 62
7
100
AcDbSpline
 70
8
 71
3
 72
8
 73
4
 74
0
 40
0
 40
0
 40
0
 40
0
 40
1
 40
1
 40
1
 40
1
 10
1548.360000
 20
404.380000
 30
0.0
 10
1548.360000
 20
397.749588
 30
0.0
 10
1545.726079
 20
391.390740
 30
0.0
 10
1541.037670
 20
386.702330
 30
0.0
  0
SPLINE
  5
31a
100
AcDbEntity
  8
0
 62
7
100
AcDbSpline
 70
8
 71
3
 72
8
 73
4
 74
0
 40
0
 40
0
 40
0
 40
0
 40
1
 40
1
 40
1
 40
1
 10
1541.037670
 20
386.702330
 30
0.0
 10
1536.349260
 20
382.013921
 30
0.0
 10
1529.990412
 20
379.380000
 30
0.0
 10
1523.360000
 20
379.380000
 30
0.0
  0
LWPOLYLINE
  5
31b
100
AcDbEntity
  8
0
 62
7
100
AcDbPolyline
 90
1
 70
1
 10
1440.030000
 20
379.380000
 30
0.0
  0
SPLINE
  5
31c
100
AcDbEntity
  8
0
 62
7
100
AcDbSpline
 70
8
 71
3
 72
8
 73
4
 74
0
 40
0
 40
0
 40
0
 40
0
 40
1
 40
1
 40
1
 40
1
 10
1606.690000
 20
379.380000
 30
0.0
 10
1596.578444
 20
379.380000
 30
0.0
 10
1587.462537
 20
385.471054
 30
0.0
 10
1583.593012
 20
394.812914
 30
0.0
  0
SPLINE
  5
31d
100
AcDbEntity
  8
0
 62
7
100
AcDbSpline
 70
8
 71
3
 72
8
 73
4
 74
0
 40
0
 40
0
 40
0
 40
0
 40
1
 40
1
 40
1
 40
1
 10
1583.593012
 20
394.812914
 30
0.0
 10
1579.723487
 20
404.154774
 30
0.0
 10
1581.862381
 20
414.907720
 30
0.0
 10
1589.012330
 20
422.057670
 30
0.0
  0
SPLINE
  5
31e
100
AcDbEntity
  8
0
 62
7
100
AcDbSpline
 70
8
 71
3
 72
8
 73
4
 74
0
 40
0
 40
0
 40
0
 40
0
 40
1
 40
1
 40
1
 40
1
 10
1589.012330
 20
422.057670
 30
0.0
 10
1596.162280
 20
429.207619
 30
0.0
 10
1606.915226
 20
431.346513
 30
0.0
 10
1616.257086
 20
427.476988
 30
0.0
  0
SPLINE
  5
31f
100
AcDbEntity
  8
0
 62
7
100
AcDbSpline
 70
8
 71
3
 72
8
 73
4
 74
0
 40
0
 40
0
 40
0
 40
0
 40
1
 40
1
 40
1
 40
1
 10
1616.257086
 20
427.476988
 30
0.0
 10
1625.598946
 20
423.607463
 30
0.0
 10
1631.690000
 20
414.491556
 30
0.0
 10
1631.690000
 20
404.380000
 30
0.0
  0
SPLINE
  5
320
100
AcDbEntity
  8
0
 62
7
100
AcDbSpline
 70
8
 71
3
 72
8
 73
4
 74
0
 40
0
 40
0
 40
0
 40
0
 40
1
 40
1
 40
1
 40
1
 10
1631.690000
 20
404.380000
 30
0.0
 10
1631.690000
 20
397.749588
 30
0.0
 10
1629.056079
 20
391.390740
 30
0.0
 10
1624.367670
 20
386.702330
 30
0.0
  0
SPLINE
  5
321
100
AcDbEntity
  8
0
 62
7
100
AcDbSpline
 70
8
 71
3
 72
8
 73
4
 74
0
 40
0
 40
0
 40
0
 40
0
 40
1
 40
1
 40
1
 40
1
 10
1624.367670
 20
386.702330
 30
0.0
 10
1619.679260
 20
382.013921
 30
0.0
 10
1613.320412
 20
379.380000
 30
0.0
 10
1606.690000
 20
379.380000
 30
0.0
  0
LWPOLYLINE
  5
322
100
AcDbEntity
  8
0
 62
7
100
AcDbPolyline
 90
1
 70
1
 10
1523.360000
 20
379.380000
 30
0.0
  0
SPLINE
  5
323
100
AcDbEntity
  8
0
 62
7
100
AcDbSpline
 70
8
 71
3
 72
8
 73
4
 74
0
 40
0
 40
0
 40
0
 40
0
 40
1
 40
1
 40
1
 40
1
 10
1773.350000
 20
379.380000
 30
0.0
 10
1763.238444
 20
379.380000
 30
0.0
 10
1754.122537
 20
385.471054
 30
0.0
 10
1750.253012
 20
394.812914
 30
0.0
  0
SPLINE
  5
324
100
AcDbEntity
  8
0
 62
7
100
AcDbSpline
 70
8
 71
3
 72
8
 73
4
 74
0
 40
0
 40
0
 40
0
 40
0
 40
1
 40
1
 40
1
 40
1
 10
1750.253012
 20
394.812914
 30
0.0
 10
1746.383487
 20
404.154774
 30
0.0
 10
1748.522381
 20
414.907720
 30
0.0
 10
1755.672330
 20
422.057670
 30
0.0
  0
SPLINE
  5
325
100
AcDbEntity
  8
0
 62
7
100
AcDbSpline
 70
8
 71
3
 72
8
 73
4
 74
0
 40
0
 40
0
 40
0
 40
0
 40
1
 40
1
 40
1
 40
1
 10
1755.672330
 20
422.057670
 30
0.0
 10
1762.822280
 20
429.207619
 30
0.0
 10
1773.575226
 20
431.346513
 30
0.0
 10
1782.917086
 20
427.476988
 30
0.0
  0
SPLINE
  5
326
100
AcDbEntity
  8
0
 62
7
100
AcDbSpline
 70
8
 71
3
 72
8
 73
4
 74
0
 40
0
 40
0
 40
0
 40
0
 40
1
 40
1
 40
1
 40
1
 10
1782.917086
 20
427.476988
 30
0.0
 10
1792.258946
 20
423.607463
 30
0.0
 10
1798.350000
 20
414.491556
 30
0.0
 10
1798.350000
 20
404.380000
 30
0.0
  0
SPLINE
  5
327
100
AcDbEntity
  8
0
 62
7
100
AcDbSpline
 70
8
 71
3
 72
8
 73
4
 74
0
 40
0
 40
0
 40
0
 40
0
 40
1
 40
1
 40
1
 40
1
 10
1798.350000
 20
404.380000
 30
0.0
 10
1798.350000
 20
397.749588
 30
0.0
 10
1795.716079
 20
391.390740
 30
0.0
 10
1791.027670
 20
386.702330
 30
0.0
  0
SPLINE
  5
328
100
AcDbEntity
  8
0
 62
7
100
AcDbSpline
 70
8
 71
3
 72
8
 73
4
 74
0
 40
0
 40
0
 40
0
 40
0
 40
1
 40
1
 40
1
 40
1
 10
1791.027670
 20
386.702330
 30
0.0
 10
1786.339260
 20
382.013921
 30
0.0
 10
1779.980412
 20
379.380000
 30
0.0
 10
1773.350000
 20
379.380000
 30
0.0
  0
LWPOLYLINE
  5
329
100
AcDbEntity
  8
0
 62
7
100
AcDbPolyline
 90
1
 70
1
 10
1606.690000
 20
379.380000
 30
0.0
  0
SPLINE
  5
32a
100
AcDbEntity
  8
0
 62
7
100
AcDbSpline
 70
8
 71
3
 72
8
 73
4
 74
0
 40
0
 40
0
 40
0
 40
0
 40
1
 40
1
 40
1
 40
1
 10
1856.680000
 20
379.380000
 30
0.0
 10
1846.568444
 20
379.380000
 30
0.0
 10
1837.452537
 20
385.471054
 30
0.0
 10
1833.583012
 20
394.812914
 30
0.0
  0
SPLINE
  5
32b
100
AcDbEntity
  8
0
 62
7
100
AcDbSpline
 70
8
 71
3
 72
8
 73
4
 74
0
 40
0
 40
0
 40
0
 40
0
 40
1
 40
1
 40
1
 40
1
 10
1833.583012
 20
394.812914
 30
0.0
 10
1829.713487
 20
404.154774
 30
0.0
 10
1831.852381
 20
414.907720
 30
0.0
 10
1839.002330
 20
422.057670
 30
0.0
  0
SPLINE
  5
32c
100
AcDbEntity
  8
0
 62
7
100
AcDbSpline
 70
8
 71
3
 72
8
 73
4
 74
0
 40
0
 40
0
 40
0
 40
0
 40
1
 40
1
 40
1
 40
1
 10
1839.002330
 20
422.057670
 30
0.0
 10
1846.152280
 20
429.207619
 30
0.0
 10
1856.905226
 20
431.346513
 30
0.0
 10
1866.247086
 20
427.476988
 30
0.0
  0
SPLINE
  5
32d
100
AcDbEntity
  8
0
 62
7
100
AcDbSpline
 70
8
 71
3
 72
8
 73
4
 74
0
 40
0
 40
0
 40
0
 40
0
 40
1
 40
1
 40
1
 40
1
 10
1866.247086
 20
427.476988
 30
0.0
 10
1875.588946
 20
423.607463
 30
0.0
 10
1881.680000
 20
414.491556
 30
0.0
 10
1881.680000
 20
404.380000
 30
0.0
  0
SPLINE
  5
32e
100
AcDbEntity
  8
0
 62
7
100
AcDbSpline
 70
8
 71
3
 72
8
 73
4
 74
0
 40
0
 40
0
 40
0
 40
0
 40
1
 40
1
 40
1
 40
1
 10
1881.680000
 20
404.380000
 30
0.0
 10
1881.680000
 20
397.749588
 30
0.0
 10
1879.046079
 20
391.390740
 30
0.0
 10
1874.357670
 20
386.702330
 30
0.0
  0
SPLINE
  5
32f
100
AcDbEntity
  8
0
 62
7
100
AcDbSpline
 70
8
 71
3
 72
8
 73
4
 74
0
 40
0
 40
0
 40
0
 40
0
 40
1
 40
1
 40
1
 40
1
 10
1874.357670
 20
386.702330
 30
0.0
 10
1869.669260
 20
382.013921
 30
0.0
 10
1863.310412
 20
379.380000
 30
0.0
 10
1856.680000
 20
379.380000
 30
0.0
  0
LWPOLYLINE
  5
330
100
AcDbEntity
  8
0
 62
7
100
AcDbPolyline
 90
1
 70
1
 10
1773.350000
 20
379.380000
 30
0.0
  0
SPLINE
  5
331
100
AcDbEntity
  8
0
 62
7
100
AcDbSpline
 70
8
 71
3
 72
8
 73
4
 74
0
 40
0
 40
0
 40
0
 40
0
 40
1
 40
1
 40
1
 40
1
 10
1940.020000
 20
379.380000
 30
0.0
 10
1929.908444
 20
379.380000
 30
0.0
 10
1920.792537
 20
385.471054
 30
0.0
 10
1916.923012
 20
394.812914
 30
0.0
  0
SPLINE
  5
332
100
AcDbEntity
  8
0
 62
7
100
AcDbSpline
 70
8
 71
3
 72
8
 73
4
 74
0
 40
0
 40
0
 40
0
 40
0
 40
1
 40
1
 40
1
 40
1
 10
1916.923012
 20
394.812914
 30
0.0
 10
1913.053487
 20
404.154774
 30
0.0
 10
1915.192381
 20
414.907720
 30
0.0
 10
1922.342330
 20
422.057670
 30
0.0
  0
SPLINE
  5
333
100
AcDbEntity
  8
0
 62
7
100
AcDbSpline
 70
8
 71
3
 72
8
 73
4
 74
0
 40
0
 40
0
 40
0
 40
0
 40
1
 40
1
 40
1
 40
1
 10
1922.342330
 20
422.057670
 30
0.0
 10
1929.492280
 20
429.207619
 30
0.0
 10
1940.245226
 20
431.346513
 30
0.0
 10
1949.587086
 20
427.476988
 30
0.0
  0
SPLINE
  5
334
100
AcDbEntity
  8
0
 62
7
100
AcDbSpline
 70
8
 71
3
 72
8
 73
4
 74
0
 40
0
 40
0
 40
0
 40
0
 40
1
 40
1
 40
1
 40
1
 10
1949.587086
 20
427.476988
 30
0.0
 10
1958.928946
 20
423.607463
 30
0.0
 10
1965.020000
 20
414.491556
 30
0.0
 10
1965.020000
 20
404.380000
 30
0.0
  0
SPLINE
  5
335
100
AcDbEntity
  8
0
 62
7
100
AcDbSpline
 70
8
 71
3
 72
8
 73
4
 74
0
 40
0
 40
0
 40
0
 40
0
 40
1
 40
1
 40
1
 40
1
 10
1965.020000
 20
404.380000
 30
0.0
 10
1965.020000
 20
397.749588
 30
0.0
 10
1962.386079
 20
391.390740
 30
0.0
 10
1957.697670
 20
386.702330
 30
0.0
  0
SPLINE
  5
336
100
AcDbEntity
  8
0
 62
7
100
AcDbSpline
 70
8
 71
3
 72
8
 73
4
 74
0
 40
0
 40
0
 40
0
 40
0
 40
1
 40
1
 40
1
 40
1
 10
1957.697670
 20
386.702330
 30
0.0
 10
1953.009260
 20
382.013921
 30
0.0
 10
1946.650412
 20
379.380000
 30
0.0
 10
1940.020000
 20
379.380000
 30
0.0
  0
LWPOLYLINE
  5
337
100
AcDbEntity
  8
0
 62
7
100
AcDbPolyline
 90
1
 70
1
 10
1856.680000
 20
379.380000
 30
0.0
  0
LWPOLYLINE
  5
338
100
AcDbEntity
  8
0
 62
7
100
AcDbPolyline
 90
1
 70
1
 10
1940.020000
 20
379.380000
 30
0.0
  0
LWPOLYLINE
  5
339
100
AcDbEntity
  8
0
 62
7
100
AcDbPolyline
 90
2
 70
0
 10
27.380000
 20
574.380000
 30
0.0
 10
2027.380000
 20
574.380000
 30
0.0
  0
LWPOLYLINE
  5
33a
100
AcDbEntity
  8
0
 62
7
100
AcDbPolyline
 90
3
 70
0
 10
27.380000
 20
574.380000
 30
0.0
 10
27.380000
 20
581.380000
 30
0.0
 10
23.380000
 20
581.380000
 30
0.0
  0
LWPOLYLINE
  5
33b
100
AcDbEntity
  8
0
 62
7
100
AcDbPolyline
 90
2
 70
0
 10
23.380000
 20
601.380000
 30
0.0
 10
23.380000
 20
581.380000
 30
0.0
  0
LWPOLYLINE
  5
33c
100
AcDbEntity
  8
0
 62
7
100
AcDbPolyline
 90
4
 70
0
 10
23.380000
 20
601.380000
 30
0.0
 10
27.380000
 20
601.380000
 30
0.0
 10
27.380000
 20
621.380000
 30
0.0
 10
23.380000
 20
621.380000
 30
0.0
  0
LWPOLYLINE
  5
33d
100
AcDbEntity
  8
0
 62
7
100
AcDbPolyline
 90
2
 70
0
 10
23.380000
 20
641.380000
 30
0.0
 10
23.380000
 20
621.380000
 30
0.0
  0
LWPOLYLINE
  5
33e
100
AcDbEntity
  8
0
 62
7
100
AcDbPolyline
 90
4
 70
0
 10
23.380000
 20
641.380000
 30
0.0
 10
27.380000
 20
641.380000
 30
0.0
 10
27.380000
 20
661.380000
 30
0.0
 10
23.380000
 20
661.380000
 30
0.0
  0
LWPOLYLINE
  5
33f
100
AcDbEntity
  8
0
 62
7
100
AcDbPolyline
 90
2
 70
0
 10
23.380000
 20
681.380000
 30
0.0
 10
23.380000
 20
661.380000
 30
0.0
  0
LWPOLYLINE
  5
340
100
AcDbEntity
  8
0
 62
7
100
AcDbPolyline
 90
4
 70
0
 10
23.380000
 20
681.380000
 30
0.0
 10
27.380000
 20
681.380000
 30
0.0
 10
27.380000
 20
701.380000
 30
0.0
 10
23.380000
 20
701.380000
 30
0.0
  0
LWPOLYLINE
  5
341
100
AcDbEntity
  8
0
 62
7
100
AcDbPolyline
 90
2
 70
0
 10
23.380000
 20
721.380000
 30
0.0
 10
23.380000
 20
701.380000
 30
0.0
  0
LWPOLYLINE
  5
342
100
AcDbEntity
  8
0
 62
7
100
AcDbPolyline
 90
4
 70
0
 10
23.380000
 20
721.380000
 30
0.0
 10
27.380000
 20
721.380000
 30
0.0
 10
27.380000
 20
741.380000
 30
0.0
 10
23.380000
 20
741.380000
 30
0.0
  0
LWPOLYLINE
  5
343
100
AcDbEntity
  8
0
 62
7
100
AcDbPolyline
 90
2
 70
0
 10
23.380000
 20
761.380000
 30
0.0
 10
23.380000
 20
741.380000
 30
0.0
  0
LWPOLYLINE
  5
344
100
AcDbEntity
  8
0
 62
7
100
AcDbPolyline
 90
4
 70
0
 10
23.380000
 20
761.380000
 30
0.0
 10
27.380000
 20
761.380000
 30
0.0
 10
27.380000
 20
781.380000
 30
0.0
 10
23.380000
 20
781.380000
 30
0.0
  0
LWPOLYLINE
  5
345
100
AcDbEntity
  8
0
 62
7
100
AcDbPolyline
 90
2
 70
0
 10
23.380000
 20
801.380000
 30
0.0
 10
23.380000
 20
781.380000
 30
0.0
  0
LWPOLYLINE
  5
346
100
AcDbEntity
  8
0
 62
7
100
AcDbPolyline
 90
4
 70
0
 10
23.380000
 20
801.380000
 30
0.0
 10
27.380000
 20
801.380000
 30
0.0
 10
27.380000
 20
821.380000
 30
0.0
 10
23.380000
 20
821.380000
 30
0.0
  0
LWPOLYLINE
  5
347
100
AcDbEntity
  8
0
 62
7
100
AcDbPolyline
 90
2
 70
0
 10
23.380000
 20
841.380000
 30
0.0
 10
23.380000
 20
821.380000
 30
0.0
  0
LWPOLYLINE
  5
348
100
AcDbEntity
  8
0
 62
7
100
AcDbPolyline
 90
4
 70
0
 10
23.380000
 20
841.380000
 30
0.0
 10
27.380000
 20
841.380000
 30
0.0
 10
27.380000
 20
861.380000
 30
0.0
 10
23.380000
 20
861.380000
 30
0.0
  0
LWPOLYLINE
  5
349
100
AcDbEntity
  8
0
 62
7
100
AcDbPolyline
 90
2
 70
0
 10
23.380000
 20
881.380000
 30
0.0
 10
23.380000
 20
861.380000
 30
0.0
  0
LWPOLYLINE
  5
34a
100
AcDbEntity
  8
0
 62
7
100
AcDbPolyline
 90
4
 70
0
 10
23.380000
 20
881.380000
 30
0.0
 10
27.380000
 20
881.380000
 30
0.0
 10
27.380000
 20
901.380000
 30
0.0
 10
23.380000
 20
901.380000
 30
0.0
  0
LWPOLYLINE
  5
34b
100
AcDbEntity
  8
0
 62
7
100
AcDbPolyline
 90
2
 70
0
 10
23.380000
 20
921.380000
 30
0.0
 10
23.380000
 20
901.380000
 30
0.0
  0
LWPOLYLINE
  5
34c
100
AcDbEntity
  8
0
 62
7
100
AcDbPolyline
 90
4
 70
0
 10
23.380000
 20
921.380000
 30
0.0
 10
27.380000
 20
921.380000
 30
0.0
 10
27.380000
 20
941.380000
 30
0.0
 10
23.380000
 20
941.380000
 30
0.0
  0
LWPOLYLINE
  5
34d
100
AcDbEntity
  8
0
 62
7
100
AcDbPolyline
 90
2
 70
0
 10
23.380000
 20
961.380000
 30
0.0
 10
23.380000
 20
941.380000
 30
0.0
  0
LWPOLYLINE
  5
34e
100
AcDbEntity
  8
0
 62
7
100
AcDbPolyline
 90
4
 70
0
 10
23.380000
 20
961.380000
 30
0.0
 10
27.380000
 20
961.380000
 30
0.0
 10
27.380000
 20
981.380000
 30
0.0
 10
23.380000
 20
981.380000
 30
0.0
  0
LWPOLYLINE
  5
34f
100
AcDbEntity
  8
0
 62
7
100
AcDbPolyline
 90
2
 70
0
 10
23.380000
 20
1001.380000
 30
0.0
 10
23.380000
 20
981.380000
 30
0.0
  0
LWPOLYLINE
  5
350
100
AcDbEntity
  8
0
 62
7
100
AcDbPolyline
 90
4
 70
0
 10
23.380000
 20
1001.380000
 30
0.0
 10
27.380000
 20
1001.380000
 30
0.0
 10
27.380000
 20
1021.380000
 30
0.0
 10
23.380000
 20
1021.380000
 30
0.0
  0
LWPOLYLINE
  5
351
100
AcDbEntity
  8
0
 62
7
100
AcDbPolyline
 90
2
 70
0
 10
23.380000
 20
1041.380000
 30
0.0
 10
23.380000
 20
1021.380000
 30
0.0
  0
LWPOLYLINE
  5
352
100
AcDbEntity
  8
0
 62
7
100
AcDbPolyline
 90
4
 70
0
 10
23.380000
 20
1041.380000
 30
0.0
 10
27.380000
 20
1041.380000
 30
0.0
 10
27.380000
 20
1061.380000
 30
0.0
 10
23.380000
 20
1061.380000
 30
0.0
  0
LWPOLYLINE
  5
353
100
AcDbEntity
  8
0
 62
7
100
AcDbPolyline
 90
2
 70
0
 10
23.380000
 20
1081.380000
 30
0.0
 10
23.380000
 20
1061.380000
 30
0.0
  0
LWPOLYLINE
  5
354
100
AcDbEntity
  8
0
 62
7
100
AcDbPolyline
 90
4
 70
0
 10
23.380000
 20
1081.380000
 30
0.0
 10
27.380000
 20
1081.380000
 30
0.0
 10
27.380000
 20
1101.380000
 30
0.0
 10
23.380000
 20
1101.380000
 30
0.0
  0
LWPOLYLINE
  5
355
100
AcDbEntity
  8
0
 62
7
100
AcDbPolyline
 90
2
 70
0
 10
23.380000
 20
1121.380000
 30
0.0
 10
23.380000
 20
1101.380000
 30
0.0
  0
LWPOLYLINE
  5
356
100
AcDbEntity
  8
0
 62
7
100
AcDbPolyline
 90
4
 70
0
 10
23.380000
 20
1121.380000
 30
0.0
 10
27.380000
 20
1121.380000
 30
0.0
 10
27.380000
 20
1141.380000
 30
0.0
 10
23.380000
 20
1141.380000
 30
0.0
  0
LWPOLYLINE
  5
357
100
AcDbEntity
  8
0
 62
7
100
AcDbPolyline
 90
2
 70
0
 10
23.380000
 20
1161.380000
 30
0.0
 10
23.380000
 20
1141.380000
 30
0.0
  0
LWPOLYLINE
  5
358
100
AcDbEntity
  8
0
 62
7
100
AcDbPolyline
 90
4
 70
0
 10
23.380000
 20
1161.380000
 30
0.0
 10
27.380000
 20
1161.380000
 30
0.0
 10
27.380000
 20
1181.380000
 30
0.0
 10
23.380000
 20
1181.380000
 30
0.0
  0
LWPOLYLINE
  5
359
100
AcDbEntity
  8
0
 62
7
100
AcDbPolyline
 90
2
 70
0
 10
23.380000
 20
1201.380000
 30
0.0
 10
23.380000
 20
1181.380000
 30
0.0
  0
LWPOLYLINE
  5
35a
100
AcDbEntity
  8
0
 62
7
100
AcDbPolyline
 90
2
 70
0
 10
2031.380000
 20
1201.380000
 30
0.0
 10
23.380000
 20
1201.380000
 30
0.0
  0
LWPOLYLINE
  5
35b
100
AcDbEntity
  8
0
 62
7
100
AcDbPolyline
 90
2
 70
0
 10
2031.380000
 20
1181.380000
 30
0.0
 10
2031.380000
 20
1201.380000
 30
0.0
  0
LWPOLYLINE
  5
35c
100
AcDbEntity
  8
0
 62
7
100
AcDbPolyline
 90
4
 70
0
 10
2031.380000
 20
1181.380000
 30
0.0
 10
2027.380000
 20
1181.380000
 30
0.0
 10
2027.380000
 20
1161.380000
 30
0.0
 10
2031.380000
 20
1161.380000
 30
0.0
  0
LWPOLYLINE
  5
35d
100
AcDbEntity
  8
0
 62
7
100
AcDbPolyline
 90
2
 70
0
 10
2031.380000
 20
1141.380000
 30
0.0
 10
2031.380000
 20
1161.380000
 30
0.0
  0
LWPOLYLINE
  5
35e
100
AcDbEntity
  8
0
 62
7
100
AcDbPolyline
 90
4
 70
0
 10
2031.380000
 20
1141.380000
 30
0.0
 10
2027.380000
 20
1141.380000
 30
0.0
 10
2027.380000
 20
1121.380000
 30
0.0
 10
2031.380000
 20
1121.380000
 30
0.0
  0
LWPOLYLINE
  5
35f
100
AcDbEntity
  8
0
 62
7
100
AcDbPolyline
 90
2
 70
0
 10
2031.380000
 20
1101.380000
 30
0.0
 10
2031.380000
 20
1121.380000
 30
0.0
  0
LWPOLYLINE
  5
360
100
AcDbEntity
  8
0
 62
7
100
AcDbPolyline
 90
4
 70
0
 10
2031.380000
 20
1101.380000
 30
0.0
 10
2027.380000
 20
1101.380000
 30
0.0
 10
2027.380000
 20
1081.380000
 30
0.0
 10
2031.380000
 20
1081.380000
 30
0.0
  0
LWPOLYLINE
  5
361
100
AcDbEntity
  8
0
 62
7
100
AcDbPolyline
 90
2
 70
0
 10
2031.380000
 20
1061.380000
 30
0.0
 10
2031.380000
 20
1081.380000
 30
0.0
  0
LWPOLYLINE
  5
362
100
AcDbEntity
  8
0
 62
7
100
AcDbPolyline
 90
4
 70
0
 10
2031.380000
 20
1061.380000
 30
0.0
 10
2027.380000
 20
1061.380000
 30
0.0
 10
2027.380000
 20
1041.380000
 30
0.0
 10
2031.380000
 20
1041.380000
 30
0.0
  0
LWPOLYLINE
  5
363
100
AcDbEntity
  8
0
 62
7
100
AcDbPolyline
 90
2
 70
0
 10
2031.380000
 20
1021.380000
 30
0.0
 10
2031.380000
 20
1041.380000
 30
0.0
  0
LWPOLYLINE
  5
364
100
AcDbEntity
  8
0
 62
7
100
AcDbPolyline
 90
4
 70
0
 10
2031.380000
 20
1021.380000
 30
0.0
 10
2027.380000
 20
1021.380000
 30
0.0
 10
2027.380000
 20
1001.380000
 30
0.0
 10
2031.380000
 20
1001.380000
 30
0.0
  0
LWPOLYLINE
  5
365
100
AcDbEntity
  8
0
 62
7
100
AcDbPolyline
 90
2
 70
0
 10
2031.380000
 20
981.380000
 30
0.0
 10
2031.380000
 20
1001.380000
 30
0.0
  0
LWPOLYLINE
  5
366
100
AcDbEntity
  8
0
 62
7
100
AcDbPolyline
 90
4
 70
0
 10
2031.380000
 20
981.380000
 30
0.0
 10
2027.380000
 20
981.380000
 30
0.0
 10
2027.380000
 20
961.380000
 30
0.0
 10
2031.380000
 20
961.380000
 30
0.0
  0
LWPOLYLINE
  5
367
100
AcDbEntity
  8
0
 62
7
100
AcDbPolyline
 90
2
 70
0
 10
2031.380000
 20
941.380000
 30
0.0
 10
2031.380000
 20
961.380000
 30
0.0
  0
LWPOLYLINE
  5
368
100
AcDbEntity
  8
0
 62
7
100
AcDbPolyline
 90
4
 70
0
 10
2031.380000
 20
941.380000
 30
0.0
 10
2027.380000
 20
941.380000
 30
0.0
 10
2027.380000
 20
921.380000
 30
0.0
 10
2031.380000
 20
921.380000
 30
0.0
  0
LWPOLYLINE
  5
369
100
AcDbEntity
  8
0
 62
7
100
AcDbPolyline
 90
2
 70
0
 10
2031.380000
 20
901.380000
 30
0.0
 10
2031.380000
 20
921.380000
 30
0.0
  0
LWPOLYLINE
  5
36a
100
AcDbEntity
  8
0
 62
7
100
AcDbPolyline
 90
4
 70
0
 10
2031.380000
 20
901.380000
 30
0.0
 10
2027.380000
 20
901.380000
 30
0.0
 10
2027.380000
 20
881.380000
 30
0.0
 10
2031.380000
 20
881.380000
 30
0.0
  0
LWPOLYLINE
  5
36b
100
AcDbEntity
  8
0
 62
7
100
AcDbPolyline
 90
2
 70
0
 10
2031.380000
 20
861.380000
 30
0.0
 10
2031.380000
 20
881.380000
 30
0.0
  0
LWPOLYLINE
  5
36c
100
AcDbEntity
  8
0
 62
7
100
AcDbPolyline
 90
4
 70
0
 10
2031.380000
 20
861.380000
 30
0.0
 10
2027.380000
 20
861.380000
 30
0.0
 10
2027.380000
 20
841.380000
 30
0.0
 10
2031.380000
 20
841.380000
 30
0.0
  0
LWPOLYLINE
  5
36d
100
AcDbEntity
  8
0
 62
7
100
AcDbPolyline
 90
2
 70
0
 10
2031.380000
 20
821.380000
 30
0.0
 10
2031.380000
 20
841.380000
 30
0.0
  0
LWPOLYLINE
  5
36e
100
AcDbEntity
  8
0
 62
7
100
AcDbPolyline
 90
4
 70
0
 10
2031.380000
 20
821.380000
 30
0.0
 10
2027.380000
 20
821.380000
 30
0.0
 10
2027.380000
 20
801.380000
 30
0.0
 10
2031.380000
 20
801.380000
 30
0.0
  0
LWPOLYLINE
  5
36f
100
AcDbEntity
  8
0
 62
7
100
AcDbPolyline
 90
2
 70
0
 10
2031.380000
 20
781.380000
 30
0.0
 10
2031.380000
 20
801.380000
 30
0.0
  0
LWPOLYLINE
  5
370
100
AcDbEntity
  8
0
 62
7
100
AcDbPolyline
 90
4
 70
0
 10
2031.380000
 20
781.380000
 30
0.0
 10
2027.380000
 20
781.380000
 30
0.0
 10
2027.380000
 20
761.380000
 30
0.0
 10
2031.380000
 20
761.380000
 30
0.0
  0
LWPOLYLINE
  5
371
100
AcDbEntity
  8
0
 62
7
100
AcDbPolyline
 90
2
 70
0
 10
2031.380000
 20
741.380000
 30
0.0
 10
2031.380000
 20
761.380000
 30
0.0
  0
LWPOLYLINE
  5
372
100
AcDbEntity
  8
0
 62
7
100
AcDbPolyline
 90
4
 70
0
 10
2031.380000
 20
741.380000
 30
0.0
 10
2027.380000
 20
741.380000
 30
0.0
 10
2027.380000
 20
721.380000
 30
0.0
 10
2031.380000
 20
721.380000
 30
0.0
  0
LWPOLYLINE
  5
373
100
AcDbEntity
  8
0
 62
7
100
AcDbPolyline
 90
2
 70
0
 10
2031.380000
 20
701.380000
 30
0.0
 10
2031.380000
 20
721.380000
 30
0.0
  0
LWPOLYLINE
  5
374
100
AcDbEntity
  8
0
 62
7
100
AcDbPolyline
 90
4
 70
0
 10
2031.380000
 20
701.380000
 30
0.0
 10
2027.380000
 20
701.380000
 30
0.0
 10
2027.380000
 20
681.380000
 30
0.0
 10
2031.380000
 20
681.380000
 30
0.0
  0
LWPOLYLINE
  5
375
100
AcDbEntity
  8
0
 62
7
100
AcDbPolyline
 90
2
 70
0
 10
2031.380000
 20
661.380000
 30
0.0
 10
2031.380000
 20
681.380000
 30
0.0
  0
LWPOLYLINE
  5
376
100
AcDbEntity
  8
0
 62
7
100
AcDbPolyline
 90
4
 70
0
 10
2031.380000
 20
661.380000
 30
0.0
 10
2027.380000
 20
661.380000
 30
0.0
 10
2027.380000
 20
641.380000
 30
0.0
 10
2031.380000
 20
641.380000
 30
0.0
  0
LWPOLYLINE
  5
377
100
AcDbEntity
  8
0
 62
7
100
AcDbPolyline
 90
2
 70
0
 10
2031.380000
 20
621.380000
 30
0.0
 10
2031.380000
 20
641.380000
 30
0.0
  0
LWPOLYLINE
  5
378
100
AcDbEntity
  8
0
 62
7
100
AcDbPolyline
 90
4
 70
0
 10
2031.380000
 20
621.380000
 30
0.0
 10
2027.380000
 20
621.380000
 30
0.0
 10
2027.380000
 20
601.380000
 30
0.0
 10
2031.380000
 20
601.380000
 30
0.0
  0
LWPOLYLINE
  5
379
100
AcDbEntity
  8
0
 62
7
100
AcDbPolyline
 90
2
 70
0
 10
2031.380000
 20
581.380000
 30
0.0
 10
2031.380000
 20
601.380000
 30
0.0
  0
LWPOLYLINE
  5
37a
100
AcDbEntity
  8
0
 62
7
100
AcDbPolyline
 90
3
 70
0
 10
2031.380000
 20
581.380000
 30
0.0
 10
2027.380000
 20
581.380000
 30
0.0
 10
2027.380000
 20
574.380000
 30
0.0
  0
LWPOLYLINE
  5
37b
100
AcDbEntity
  8
0
 62
7
100
AcDbPolyline
 90
2
 70
0
 10
2041.380000
 20
23.380000
 30
0.0
 10
2061.380000
 20
23.380000
 30
0.0
  0
LWPOLYLINE
  5
37c
100
AcDbEntity
  8
0
 62
7
100
AcDbPolyline
 90
2
 70
0
 10
2061.380000
 20
27.380000
 30
0.0
 10
2061.380000
 20
23.380000
 30
0.0
  0
LWPOLYLINE
  5
37d
100
AcDbEntity
  8
0
 62
7
100
AcDbPolyline
 90
2
 70
0
 10
2081.380000
 20
27.380000
 30
0.0
 10
2061.380000
 20
27.380000
 30
0.0
  0
LWPOLYLINE
  5
37e
100
AcDbEntity
  8
0
 62
7
100
AcDbPolyline
 90
2
 70
0
 10
2081.380000
 20
23.380000
 30
0.0
 10
2081.380000
 20
27.380000
 30
0.0
  0
LWPOLYLINE
  5
37f
100
AcDbEntity
  8
0
 62
7
100
AcDbPolyline
 90
2
 70
0
 10
2081.380000
 20
23.380000
 30
0.0
 10
2101.380000
 20
23.380000
 30
0.0
  0
LWPOLYLINE
  5
380
100
AcDbEntity
  8
0
 62
7
100
AcDbPolyline
 90
2
 70
0
 10
2101.380000
 20
27.380000
 30
0.0
 10
2101.380000
 20
23.380000
 30
0.0
  0
LWPOLYLINE
  5
381
100
AcDbEntity
  8
0
 62
7
100
AcDbPolyline
 90
2
 70
0
 10
2121.380000
 20
27.380000
 30
0.0
 10
2101.380000
 20
27.380000
 30
0.0
  0
LWPOLYLINE
  5
382
100
AcDbEntity
  8
0
 62
7
100
AcDbPolyline
 90
2
 70
0
 10
2121.380000
 20
23.380000
 30
0.0
 10
2121.380000
 20
27.380000
 30
0.0
  0
LWPOLYLINE
  5
383
100
AcDbEntity
  8
0
 62
7
100
AcDbPolyline
 90
8
 70
0
 10
2121.380000
 20
23.380000
 30
0.0
 10
2141.380000
 20
23.380000
 30
0.0
 10
2141.380000
 20
1223.380000
 30
0.0
 10
2121.380000
 20
1223.380000
 30
0.0
 10
2121.380000
 20
1219.380000
 30
0.0
 10
2101.380000
 20
1219.380000
 30
0.0
 10
2101.380000
 20
1223.380000
 30
0.0
 10
2081.380000
 20
1223.380000
 30
0.0
  0
LWPOLYLINE
  5
384
100
AcDbEntity
  8
0
 62
7
100
AcDbPolyline
 90
2
 70
0
 10
2081.380000
 20
1219.380000
 30
0.0
 10
2081.380000
 20
1223.380000
 30
0.0
  0
LWPOLYLINE
  5
385
100
AcDbEntity
  8
0
 62
7
100
AcDbPolyline
 90
2
 70
0
 10
2061.380000
 20
1219.380000
 30
0.0
 10
2081.380000
 20
1219.380000
 30
0.0
  0
LWPOLYLINE
  5
386
100
AcDbEntity
  8
0
 62
7
100
AcDbPolyline
 90
2
 70
0
 10
2061.380000
 20
1223.380000
 30
0.0
 10
2061.380000
 20
1219.380000
 30
0.0
  0
LWPOLYLINE
  5
387
100
AcDbEntity
  8
0
 62
7
100
AcDbPolyline
 90
3
 70
0
 10
2061.380000
 20
1223.380000
 30
0.0
 10
2041.380000
 20
1223.380000
 30
0.0
 10
2041.380000
 20
23.380000
 30
0.0
  0
LWPOLYLINE
  5
388
100
AcDbEntity
  8
0
 62
7
100
AcDbPolyline
 90
2
 70
0
 10
2061.380000
 20
321.380000
 30
0.0
 10
2081.380000
 20
321.380000
 30
0.0
  0
LWPOLYLINE
  5
389
100
AcDbEntity
  8
0
 62
7
100
AcDbPolyline
 90
2
 70
0
 10
2061.380000
 20
325.380000
 30
0.0
 10
2061.380000
 20
321.380000
 30
0.0
  0
LWPOLYLINE
  5
38a
100
AcDbEntity
  8
0
 62
7
100
AcDbPolyline
 90
2
 70
0
 10
2081.380000
 20
325.380000
 30
0.0
 10
2061.380000
 20
325.380000
 30
0.0
  0
LWPOLYLINE
  5
38b
100
AcDbEntity
  8
0
 62
7
100
AcDbPolyline
 90
2
 70
0
 10
2081.380000
 20
321.380000
 30
0.0
 10
2081.380000
 20
325.380000
 30
0.0
  0
LWPOLYLINE
  5
38c
100
AcDbEntity
  8
0
 62
7
100
AcDbPolyline
 90
2
 70
0
 10
2061.380000
 20
621.380000
 30
0.0
 10
2081.380000
 20
621.380000
 30
0.0
  0
LWPOLYLINE
  5
38d
100
AcDbEntity
  8
0
 62
7
100
AcDbPolyline
 90
2
 70
0
 10
2061.380000
 20
625.380000
 30
0.0
 10
2061.380000
 20
621.380000
 30
0.0
  0
LWPOLYLINE
  5
38e
100
AcDbEntity
  8
0
 62
7
100
AcDbPolyline
 90
2
 70
0
 10
2081.380000
 20
625.380000
 30
0.0
 10
2061.380000
 20
625.380000
 30
0.0
  0
LWPOLYLINE
  5
38f
100
AcDbEntity
  8
0
 62
7
100
AcDbPolyline
 90
2
 70
0
 10
2081.380000
 20
621.380000
 30
0.0
 10
2081.380000
 20
625.380000
 30
0.0
  0
LWPOLYLINE
  5
390
100
AcDbEntity
  8
0
 62
7
100
AcDbPolyline
 90
2
 70
0
 10
2061.380000
 20
921.380000
 30
0.0
 10
2081.380000
 20
921.380000
 30
0.0
  0
LWPOLYLINE
  5
391
100
AcDbEntity
  8
0
 62
7
100
AcDbPolyline
 90
2
 70
0
 10
2061.380000
 20
925.380000
 30
0.0
 10
2061.380000
 20
921.380000
 30
0.0
  0
LWPOLYLINE
  5
392
100
AcDbEntity
  8
0
 62
7
100
AcDbPolyline
 90
2
 70
0
 10
2081.380000
 20
925.380000
 30
0.0
 10
2061.380000
 20
925.380000
 30
0.0
  0
LWPOLYLINE
  5
393
100
AcDbEntity
  8
0
 62
7
100
AcDbPolyline
 90
2
 70
0
 10
2081.380000
 20
921.380000
 30
0.0
 10
2081.380000
 20
925.380000
 30
0.0
  0
LWPOLYLINE
  5
394
100
AcDbEntity
  8
0
 62
7
100
AcDbPolyline
 90
2
 70
0
 10
2101.380000
 20
321.380000
 30
0.0
 10
2121.380000
 20
321.380000
 30
0.0
  0
LWPOLYLINE
  5
395
100
AcDbEntity
  8
0
 62
7
100
AcDbPolyline
 90
2
 70
0
 10
2101.380000
 20
325.380000
 30
0.0
 10
2101.380000
 20
321.380000
 30
0.0
  0
LWPOLYLINE
  5
396
100
AcDbEntity
  8
0
 62
7
100
AcDbPolyline
 90
2
 70
0
 10
2121.380000
 20
325.380000
 30
0.0
 10
2101.380000
 20
325.380000
 30
0.0
  0
LWPOLYLINE
  5
397
100
AcDbEntity
  8
0
 62
7
100
AcDbPolyline
 90
2
 70
0
 10
2121.380000
 20
321.380000
 30
0.0
 10
2121.380000
 20
325.380000
 30
0.0
  0
LWPOLYLINE
  5
398
100
AcDbEntity
  8
0
 62
7
100
AcDbPolyline
 90
2
 70
0
 10
2101.380000
 20
621.380000
 30
0.0
 10
2121.380000
 20
621.380000
 30
0.0
  0
LWPOLYLINE
  5
399
100
AcDbEntity
  8
0
 62
7
100
AcDbPolyline
 90
2
 70
0
 10
2101.380000
 20
625.380000
 30
0.0
 10
2101.380000
 20
621.380000
 30
0.0
  0
LWPOLYLINE
  5
39a
100
AcDbEntity
  8
0
 62
7
100
AcDbPolyline
 90
2
 70
0
 10
2121.380000
 20
625.380000
 30
0.0
 10
2101.380000
 20
625.380000
 30
0.0
  0
LWPOLYLINE
  5
39b
100
AcDbEntity
  8
0
 62
7
100
AcDbPolyline
 90
2
 70
0
 10
2121.380000
 20
621.380000
 30
0.0
 10
2121.380000
 20
625.380000
 30
0.0
  0
LWPOLYLINE
  5
39c
100
AcDbEntity
  8
0
 62
7
100
AcDbPolyline
 90
2
 70
0
 10
2101.380000
 20
921.380000
 30
0.0
 10
2121.380000
 20
921.380000
 30
0.0
  0
LWPOLYLINE
  5
39d
100
AcDbEntity
  8
0
 62
7
100
AcDbPolyline
 90
2
 70
0
 10
2101.380000
 20
925.380000
 30
0.0
 10
2101.380000
 20
921.380000
 30
0.0
  0
LWPOLYLINE
  5
39e
100
AcDbEntity
  8
0
 62
7
100
AcDbPolyline
 90
2
 70
0
 10
2121.380000
 20
925.380000
 30
0.0
 10
2101.380000
 20
925.380000
 30
0.0
  0
LWPOLYLINE
  5
39f
100
AcDbEntity
  8
0
 62
7
100
AcDbPolyline
 90
2
 70
0
 10
2121.380000
 20
921.380000
 30
0.0
 10
2121.380000
 20
925.380000
 30
0.0
  0
LWPOLYLINE
  5
3a0
100
AcDbEntity
  8
0
 62
7
100
AcDbPolyline
 90
2
 70
0
 10
2151.380000
 20
23.380000
 30
0.0
 10
2171.380000
 20
23.380000
 30
0.0
  0
LWPOLYLINE
  5
3a1
100
AcDbEntity
  8
0
 62
7
100
AcDbPolyline
 90
2
 70
0
 10
2171.380000
 20
27.380000
 30
0.0
 10
2171.380000
 20
23.380000
 30
0.0
  0
LWPOLYLINE
  5
3a2
100
AcDbEntity
  8
0
 62
7
100
AcDbPolyline
 90
2
 70
0
 10
2191.380000
 20
27.380000
 30
0.0
 10
2171.380000
 20
27.380000
 30
0.0
  0
LWPOLYLINE
  5
3a3
100
AcDbEntity
  8
0
 62
7
100
AcDbPolyline
 90
2
 70
0
 10
2191.380000
 20
23.380000
 30
0.0
 10
2191.380000
 20
27.380000
 30
0.0
  0
LWPOLYLINE
  5
3a4
100
AcDbEntity
  8
0
 62
7
100
AcDbPolyline
 90
2
 70
0
 10
2191.380000
 20
23.380000
 30
0.0
 10
2211.380000
 20
23.380000
 30
0.0
  0
LWPOLYLINE
  5
3a5
100
AcDbEntity
  8
0
 62
7
100
AcDbPolyline
 90
2
 70
0
 10
2211.380000
 20
27.380000
 30
0.0
 10
2211.380000
 20
23.380000
 30
0.0
  0
LWPOLYLINE
  5
3a6
100
AcDbEntity
  8
0
 62
7
100
AcDbPolyline
 90
2
 70
0
 10
2231.380000
 20
27.380000
 30
0.0
 10
2211.380000
 20
27.380000
 30
0.0
  0
LWPOLYLINE
  5
3a7
100
AcDbEntity
  8
0
 62
7
100
AcDbPolyline
 90
2
 70
0
 10
2231.380000
 20
23.380000
 30
0.0
 10
2231.380000
 20
27.380000
 30
0.0
  0
LWPOLYLINE
  5
3a8
100
AcDbEntity
  8
0
 62
7
100
AcDbPolyline
 90
8
 70
0
 10
2231.380000
 20
23.380000
 30
0.0
 10
2251.380000
 20
23.380000
 30
0.0
 10
2251.380000
 20
1223.380000
 30
0.0
 10
2231.380000
 20
1223.380000
 30
0.0
 10
2231.380000
 20
1219.380000
 30
0.0
 10
2211.380000
 20
1219.380000
 30
0.0
 10
2211.380000
 20
1223.380000
 30
0.0
 10
2191.380000
 20
1223.380000
 30
0.0
  0
LWPOLYLINE
  5
3a9
100
AcDbEntity
  8
0
 62
7
100
AcDbPolyline
 90
2
 70
0
 10
2191.380000
 20
1219.380000
 30
0.0
 10
2191.380000
 20
1223.380000
 30
0.0
  0
LWPOLYLINE
  5
3aa
100
AcDbEntity
  8
0
 62
7
100
AcDbPolyline
 90
2
 70
0
 10
2171.380000
 20
1219.380000
 30
0.0
 10
2191.380000
 20
1219.380000
 30
0.0
  0
LWPOLYLINE
  5
3ab
100
AcDbEntity
  8
0
 62
7
100
AcDbPolyline
 90
2
 70
0
 10
2171.380000
 20
1223.380000
 30
0.0
 10
2171.380000
 20
1219.380000
 30
0.0
  0
LWPOLYLINE
  5
3ac
100
AcDbEntity
  8
0
 62
7
100
AcDbPolyline
 90
3
 70
0
 10
2171.380000
 20
1223.380000
 30
0.0
 10
2151.380000
 20
1223.380000
 30
0.0
 10
2151.380000
 20
23.380000
 30
0.0
  0
LWPOLYLINE
  5
3ad
100
AcDbEntity
  8
0
 62
7
100
AcDbPolyline
 90
2
 70
0
 10
2171.380000
 20
321.380000
 30
0.0
 10
2191.380000
 20
321.380000
 30
0.0
  0
LWPOLYLINE
  5
3ae
100
AcDbEntity
  8
0
 62
7
100
AcDbPolyline
 90
2
 70
0
 10
2171.380000
 20
325.380000
 30
0.0
 10
2171.380000
 20
321.380000
 30
0.0
  0
LWPOLYLINE
  5
3af
100
AcDbEntity
  8
0
 62
7
100
AcDbPolyline
 90
2
 70
0
 10
2191.380000
 20
325.380000
 30
0.0
 10
2171.380000
 20
325.380000
 30
0.0
  0
LWPOLYLINE
  5
3b0
100
AcDbEntity
  8
0
 62
7
100
AcDbPolyline
 90
2
 70
0
 10
2191.380000
 20
321.380000
 30
0.0
 10
2191.380000
 20
325.380000
 30
0.0
  0
LWPOLYLINE
  5
3b1
100
AcDbEntity
  8
0
 62
7
100
AcDbPolyline
 90
2
 70
0
 10
2171.380000
 20
621.380000
 30
0.0
 10
2191.380000
 20
621.380000
 30
0.0
  0
LWPOLYLINE
  5
3b2
100
AcDbEntity
  8
0
 62
7
100
AcDbPolyline
 90
2
 70
0
 10
2171.380000
 20
625.380000
 30
0.0
 10
2171.380000
 20
621.380000
 30
0.0
  0
LWPOLYLINE
  5
3b3
100
AcDbEntity
  8
0
 62
7
100
AcDbPolyline
 90
2
 70
0
 10
2191.380000
 20
625.380000
 30
0.0
 10
2171.380000
 20
625.380000
 30
0.0
  0
LWPOLYLINE
  5
3b4
100
AcDbEntity
  8
0
 62
7
100
AcDbPolyline
 90
2
 70
0
 10
2191.380000
 20
621.380000
 30
0.0
 10
2191.380000
 20
625.380000
 30
0.0
  0
LWPOLYLINE
  5
3b5
100
AcDbEntity
  8
0
 62
7
100
AcDbPolyline
 90
2
 70
0
 10
2171.380000
 20
921.380000
 30
0.0
 10
2191.380000
 20
921.380000
 30
0.0
  0
LWPOLYLINE
  5
3b6
100
AcDbEntity
  8
0
 62
7
100
AcDbPolyline
 90
2
 70
0
 10
2171.380000
 20
925.380000
 30
0.0
 10
2171.380000
 20
921.380000
 30
0.0
  0
LWPOLYLINE
  5
3b7
100
AcDbEntity
  8
0
 62
7
100
AcDbPolyline
 90
2
 70
0
 10
2191.380000
 20
925.380000
 30
0.0
 10
2171.380000
 20
925.380000
 30
0.0
  0
LWPOLYLINE
  5
3b8
100
AcDbEntity
  8
0
 62
7
100
AcDbPolyline
 90
2
 70
0
 10
2191.380000
 20
921.380000
 30
0.0
 10
2191.380000
 20
925.380000
 30
0.0
  0
LWPOLYLINE
  5
3b9
100
AcDbEntity
  8
0
 62
7
100
AcDbPolyline
 90
2
 70
0
 10
2211.380000
 20
321.380000
 30
0.0
 10
2231.380000
 20
321.380000
 30
0.0
  0
LWPOLYLINE
  5
3ba
100
AcDbEntity
  8
0
 62
7
100
AcDbPolyline
 90
2
 70
0
 10
2211.380000
 20
325.380000
 30
0.0
 10
2211.380000
 20
321.380000
 30
0.0
  0
LWPOLYLINE
  5
3bb
100
AcDbEntity
  8
0
 62
7
100
AcDbPolyline
 90
2
 70
0
 10
2231.380000
 20
325.380000
 30
0.0
 10
2211.380000
 20
325.380000
 30
0.0
  0
LWPOLYLINE
  5
3bc
100
AcDbEntity
  8
0
 62
7
100
AcDbPolyline
 90
2
 70
0
 10
2231.380000
 20
321.380000
 30
0.0
 10
2231.380000
 20
325.380000
 30
0.0
  0
LWPOLYLINE
  5
3bd
100
AcDbEntity
  8
0
 62
7
100
AcDbPolyline
 90
2
 70
0
 10
2211.380000
 20
621.380000
 30
0.0
 10
2231.380000
 20
621.380000
 30
0.0
  0
LWPOLYLINE
  5
3be
100
AcDbEntity
  8
0
 62
7
100
AcDbPolyline
 90
2
 70
0
 10
2211.380000
 20
625.380000
 30
0.0
 10
2211.380000
 20
621.380000
 30
0.0
  0
LWPOLYLINE
  5
3bf
100
AcDbEntity
  8
0
 62
7
100
AcDbPolyline
 90
2
 70
0
 10
2231.380000
 20
625.380000
 30
0.0
 10
2211.380000
 20
625.380000
 30
0.0
  0
LWPOLYLINE
  5
3c0
100
AcDbEntity
  8
0
 62
7
100
AcDbPolyline
 90
2
 70
0
 10
2231.380000
 20
621.380000
 30
0.0
 10
2231.380000
 20
625.380000
 30
0.0
  0
LWPOLYLINE
  5
3c1
100
AcDbEntity
  8
0
 62
7
100
AcDbPolyline
 90
2
 70
0
 10
2211.380000
 20
921.380000
 30
0.0
 10
2231.380000
 20
921.380000
 30
0.0
  0
LWPOLYLINE
  5
3c2
100
AcDbEntity
  8
0
 62
7
100
AcDbPolyline
 90
2
 70
0
 10
2211.380000
 20
925.380000
 30
0.0
 10
2211.380000
 20
921.380000
 30
0.0
  0
LWPOLYLINE
  5
3c3
100
AcDbEntity
  8
0
 62
7
100
AcDbPolyline
 90
2
 70
0
 10
2231.380000
 20
925.380000
 30
0.0
 10
2211.380000
 20
925.380000
 30
0.0
  0
LWPOLYLINE
  5
3c4
100
AcDbEntity
  8
0
 62
7
100
AcDbPolyline
 90
2
 70
0
 10
2231.380000
 20
921.380000
 30
0.0
 10
2231.380000
 20
925.380000
 30
0.0
  0
LWPOLYLINE
  5
3c5
100
AcDbEntity
  8
0
 62
7
100
AcDbPolyline
 90
2
 70
0
 10
2261.380000
 20
23.380000
 30
0.0
 10
2281.380000
 20
23.380000
 30
0.0
  0
LWPOLYLINE
  5
3c6
100
AcDbEntity
  8
0
 62
7
100
AcDbPolyline
 90
2
 70
0
 10
2281.380000
 20
27.380000
 30
0.0
 10
2281.380000
 20
23.380000
 30
0.0
  0
LWPOLYLINE
  5
3c7
100
AcDbEntity
  8
0
 62
7
100
AcDbPolyline
 90
2
 70
0
 10
2301.380000
 20
27.380000
 30
0.0
 10
2281.380000
 20
27.380000
 30
0.0
  0
LWPOLYLINE
  5
3c8
100
AcDbEntity
  8
0
 62
7
100
AcDbPolyline
 90
2
 70
0
 10
2301.380000
 20
23.380000
 30
0.0
 10
2301.380000
 20
27.380000
 30
0.0
  0
LWPOLYLINE
  5
3c9
100
AcDbEntity
  8
0
 62
7
100
AcDbPolyline
 90
2
 70
0
 10
2301.380000
 20
23.380000
 30
0.0
 10
2321.380000
 20
23.380000
 30
0.0
  0
LWPOLYLINE
  5
3ca
100
AcDbEntity
  8
0
 62
7
100
AcDbPolyline
 90
2
 70
0
 10
2321.380000
 20
27.380000
 30
0.0
 10
2321.380000
 20
23.380000
 30
0.0
  0
LWPOLYLINE
  5
3cb
100
AcDbEntity
  8
0
 62
7
100
AcDbPolyline
 90
2
 70
0
 10
2341.380000
 20
27.380000
 30
0.0
 10
2321.380000
 20
27.380000
 30
0.0
  0
LWPOLYLINE
  5
3cc
100
AcDbEntity
  8
0
 62
7
100
AcDbPolyline
 90
2
 70
0
 10
2341.380000
 20
23.380000
 30
0.0
 10
2341.380000
 20
27.380000
 30
0.0
  0
LWPOLYLINE
  5
3cd
100
AcDbEntity
  8
0
 62
7
100
AcDbPolyline
 90
4
 70
0
 10
2341.380000
 20
23.380000
 30
0.0
 10
2361.380000
 20
23.380000
 30
0.0
 10
2361.380000
 20
1223.380000
 30
0.0
 10
2341.380000
 20
1223.380000
 30
0.0
  0
LWPOLYLINE
  5
3ce
100
AcDbEntity
  8
0
 62
7
100
AcDbPolyline
 90
2
 70
0
 10
2341.380000
 20
1219.380000
 30
0.0
 10
2341.380000
 20
1223.380000
 30
0.0
  0
LWPOLYLINE
  5
3cf
100
AcDbEntity
  8
0
 62
7
100
AcDbPolyline
 90
2
 70
0
 10
2321.380000
 20
1219.380000
 30
0.0
 10
2341.380000
 20
1219.380000
 30
0.0
  0
LWPOLYLINE
  5
3d0
100
AcDbEntity
  8
0
 62
7
100
AcDbPolyline
 90
2
 70
0
 10
2321.380000
 20
1223.380000
 30
0.0
 10
2321.380000
 20
1219.380000
 30
0.0
  0
LWPOLYLINE
  5
3d1
100
AcDbEntity
  8
0
 62
7
100
AcDbPolyline
 90
2
 70
0
 10
2321.380000
 20
1223.380000
 30
0.0
 10
2301.380000
 20
1223.380000
 30
0.0
  0
LWPOLYLINE
  5
3d2
100
AcDbEntity
  8
0
 62
7
100
AcDbPolyline
 90
2
 70
0
 10
2301.380000
 20
1219.380000
 30
0.0
 10
2301.380000
 20
1223.380000
 30
0.0
  0
LWPOLYLINE
  5
3d3
100
AcDbEntity
  8
0
 62
7
100
AcDbPolyline
 90
2
 70
0
 10
2281.380000
 20
1219.380000
 30
0.0
 10
2301.380000
 20
1219.380000
 30
0.0
  0
LWPOLYLINE
  5
3d4
100
AcDbEntity
  8
0
 62
7
100
AcDbPolyline
 90
2
 70
0
 10
2281.380000
 20
1223.380000
 30
0.0
 10
2281.380000
 20
1219.380000
 30
0.0
  0
SPLINE
  5
3d5
100
AcDbEntity
  8
0
 62
7
100
AcDbSpline
 70
8
 71
3
 72
8
 73
4
 74
0
 40
0
 40
0
 40
0
 40
0
 40
1
 40
1
 40
1
 40
1
 10
2311.380000
 20
73.380000
 30
0.0
 10
2301.268444
 20
73.380000
 30
0.0
 10
2292.152537
 20
79.471054
 30
0.0
 10
2288.283012
 20
88.812914
 30
0.0
  0
SPLINE
  5
3d6
100
AcDbEntity
  8
0
 62
7
100
AcDbSpline
 70
8
 71
3
 72
8
 73
4
 74
0
 40
0
 40
0
 40
0
 40
0
 40
1
 40
1
 40
1
 40
1
 10
2288.283012
 20
88.812914
 30
0.0
 10
2284.413487
 20
98.154774
 30
0.0
 10
2286.552381
 20
108.907720
 30
0.0
 10
2293.702330
 20
116.057670
 30
0.0
  0
SPLINE
  5
3d7
100
AcDbEntity
  8
0
 62
7
100
AcDbSpline
 70
8
 71
3
 72
8
 73
4
 74
0
 40
0
 40
0
 40
0
 40
0
 40
1
 40
1
 40
1
 40
1
 10
2293.702330
 20
116.057670
 30
0.0
 10
2300.852280
 20
123.207619
 30
0.0
 10
2311.605226
 20
125.346513
 30
0.0
 10
2320.947086
 20
121.476988
 30
0.0
  0
SPLINE
  5
3d8
100
AcDbEntity
  8
0
 62
7
100
AcDbSpline
 70
8
 71
3
 72
8
 73
4
 74
0
 40
0
 40
0
 40
0
 40
0
 40
1
 40
1
 40
1
 40
1
 10
2320.947086
 20
121.476988
 30
0.0
 10
2330.288946
 20
117.607463
 30
0.0
 10
2336.380000
 20
108.491556
 30
0.0
 10
2336.380000
 20
98.380000
 30
0.0
  0
SPLINE
  5
3d9
100
AcDbEntity
  8
0
 62
7
100
AcDbSpline
 70
8
 71
3
 72
8
 73
4
 74
0
 40
0
 40
0
 40
0
 40
0
 40
1
 40
1
 40
1
 40
1
 10
2336.380000
 20
98.380000
 30
0.0
 10
2336.380000
 20
91.749588
 30
0.0
 10
2333.746079
 20
85.390740
 30
0.0
 10
2329.057670
 20
80.702330
 30
0.0
  0
SPLINE
  5
3da
100
AcDbEntity
  8
0
 62
7
100
AcDbSpline
 70
8
 71
3
 72
8
 73
4
 74
0
 40
0
 40
0
 40
0
 40
0
 40
1
 40
1
 40
1
 40
1
 10
2329.057670
 20
80.702330
 30
0.0
 10
2324.369260
 20
76.013921
 30
0.0
 10
2318.010412
 20
73.380000
 30
0.0
 10
2311.380000
 20
73.380000
 30
0.0
  0
LWPOLYLINE
  5
3db
100
AcDbEntity
  8
0
 62
7
100
AcDbPolyline
 90
3
 70
0
 10
2281.380000
 20
1223.380000
 30
0.0
 10
2261.380000
 20
1223.380000
 30
0.0
 10
2261.380000
 20
23.380000
 30
0.0
  0
SPLINE
  5
3dc
100
AcDbEntity
  8
0
 62
7
100
AcDbSpline
 70
8
 71
3
 72
8
 73
4
 74
0
 40
0
 40
0
 40
0
 40
0
 40
1
 40
1
 40
1
 40
1
 10
2311.380000
 20
173.380000
 30
0.0
 10
2301.268444
 20
173.380000
 30
0.0
 10
2292.152537
 20
179.471054
 30
0.0
 10
2288.283012
 20
188.812914
 30
0.0
  0
SPLINE
  5
3dd
100
AcDbEntity
  8
0
 62
7
100
AcDbSpline
 70
8
 71
3
 72
8
 73
4
 74
0
 40
0
 40
0
 40
0
 40
0
 40
1
 40
1
 40
1
 40
1
 10
2288.283012
 20
188.812914
 30
0.0
 10
2284.413487
 20
198.154774
 30
0.0
 10
2286.552381
 20
208.907720
 30
0.0
 10
2293.702330
 20
216.057670
 30
0.0
  0
SPLINE
  5
3de
100
AcDbEntity
  8
0
 62
7
100
AcDbSpline
 70
8
 71
3
 72
8
 73
4
 74
0
 40
0
 40
0
 40
0
 40
0
 40
1
 40
1
 40
1
 40
1
 10
2293.702330
 20
216.057670
 30
0.0
 10
2300.852280
 20
223.207619
 30
0.0
 10
2311.605226
 20
225.346513
 30
0.0
 10
2320.947086
 20
221.476988
 30
0.0
  0
SPLINE
  5
3df
100
AcDbEntity
  8
0
 62
7
100
AcDbSpline
 70
8
 71
3
 72
8
 73
4
 74
0
 40
0
 40
0
 40
0
 40
0
 40
1
 40
1
 40
1
 40
1
 10
2320.947086
 20
221.476988
 30
0.0
 10
2330.288946
 20
217.607463
 30
0.0
 10
2336.380000
 20
208.491556
 30
0.0
 10
2336.380000
 20
198.380000
 30
0.0
  0
SPLINE
  5
3e0
100
AcDbEntity
  8
0
 62
7
100
AcDbSpline
 70
8
 71
3
 72
8
 73
4
 74
0
 40
0
 40
0
 40
0
 40
0
 40
1
 40
1
 40
1
 40
1
 10
2336.380000
 20
198.380000
 30
0.0
 10
2336.380000
 20
191.749588
 30
0.0
 10
2333.746079
 20
185.390740
 30
0.0
 10
2329.057670
 20
180.702330
 30
0.0
  0
SPLINE
  5
3e1
100
AcDbEntity
  8
0
 62
7
100
AcDbSpline
 70
8
 71
3
 72
8
 73
4
 74
0
 40
0
 40
0
 40
0
 40
0
 40
1
 40
1
 40
1
 40
1
 10
2329.057670
 20
180.702330
 30
0.0
 10
2324.369260
 20
176.013921
 30
0.0
 10
2318.010412
 20
173.380000
 30
0.0
 10
2311.380000
 20
173.380000
 30
0.0
  0
LWPOLYLINE
  5
3e2
100
AcDbEntity
  8
0
 62
7
100
AcDbPolyline
 90
1
 70
1
 10
2311.380000
 20
73.380000
 30
0.0
  0
SPLINE
  5
3e3
100
AcDbEntity
  8
0
 62
7
100
AcDbSpline
 70
8
 71
3
 72
8
 73
4
 74
0
 40
0
 40
0
 40
0
 40
0
 40
1
 40
1
 40
1
 40
1
 10
2341.380000
 20
300.880000
 30
0.0
 10
2341.380000
 20
290.162032
 30
0.0
 10
2335.662032
 20
280.258222
 30
0.0
 10
2326.380000
 20
274.899238
 30
0.0
  0
SPLINE
  5
3e4
100
AcDbEntity
  8
0
 62
7
100
AcDbSpline
 70
8
 71
3
 72
8
 73
4
 74
0
 40
0
 40
0
 40
0
 40
0
 40
1
 40
1
 40
1
 40
1
 10
2326.380000
 20
274.899238
 30
0.0
 10
2317.097968
 20
269.540254
 30
0.0
 10
2305.662032
 20
269.540254
 30
0.0
 10
2296.380000
 20
274.899238
 30
0.0
  0
SPLINE
  5
3e5
100
AcDbEntity
  8
0
 62
7
100
AcDbSpline
 70
8
 71
3
 72
8
 73
4
 74
0
 40
0
 40
0
 40
0
 40
0
 40
1
 40
1
 40
1
 40
1
 10
2296.380000
 20
274.899238
 30
0.0
 10
2287.097968
 20
280.258222
 30
0.0
 10
2281.380000
 20
290.162032
 30
0.0
 10
2281.380000
 20
300.880000
 30
0.0
  0
LWPOLYLINE
  5
3e6
100
AcDbEntity
  8
0
 62
7
100
AcDbPolyline
 90
1
 70
1
 10
2311.380000
 20
173.380000
 30
0.0
  0
SPLINE
  5
3e7
100
AcDbEntity
  8
0
 62
7
100
AcDbSpline
 70
8
 71
3
 72
8
 73
4
 74
0
 40
0
 40
0
 40
0
 40
0
 40
1
 40
1
 40
1
 40
1
 10
2281.380000
 20
345.880000
 30
0.0
 10
2281.380000
 20
356.597968
 30
0.0
 10
2287.097968
 20
366.501778
 30
0.0
 10
2296.380000
 20
371.860762
 30
0.0
  0
SPLINE
  5
3e8
100
AcDbEntity
  8
0
 62
7
100
AcDbSpline
 70
8
 71
3
 72
8
 73
4
 74
0
 40
0
 40
0
 40
0
 40
0
 40
1
 40
1
 40
1
 40
1
 10
2296.380000
 20
371.860762
 30
0.0
 10
2305.662032
 20
377.219746
 30
0.0
 10
2317.097968
 20
377.219746
 30
0.0
 10
2326.380000
 20
371.860762
 30
0.0
  0
SPLINE
  5
3e9
100
AcDbEntity
  8
0
 62
7
100
AcDbSpline
 70
8
 71
3
 72
8
 73
4
 74
0
 40
0
 40
0
 40
0
 40
0
 40
1
 40
1
 40
1
 40
1
 10
2326.380000
 20
371.860762
 30
0.0
 10
2335.662032
 20
366.501778
 30
0.0
 10
2341.380000
 20
356.597968
 30
0.0
 10
2341.380000
 20
345.880000
 30
0.0
  0
LWPOLYLINE
  5
3ea
100
AcDbEntity
  8
0
 62
7
100
AcDbPolyline
 90
2
 70
0
 10
2281.380000
 20
300.880000
 30
0.0
 10
2281.380000
 20
345.880000
 30
0.0
  0
SPLINE
  5
3eb
100
AcDbEntity
  8
0
 62
7
100
AcDbSpline
 70
8
 71
3
 72
8
 73
4
 74
0
 40
0
 40
0
 40
0
 40
0
 40
1
 40
1
 40
1
 40
1
 10
2311.380000
 20
404.210000
 30
0.0
 10
2301.268444
 20
404.210000
 30
0.0
 10
2292.152537
 20
410.301054
 30
0.0
 10
2288.283012
 20
419.642914
 30
0.0
  0
SPLINE
  5
3ec
100
AcDbEntity
  8
0
 62
7
100
AcDbSpline
 70
8
 71
3
 72
8
 73
4
 74
0
 40
0
 40
0
 40
0
 40
0
 40
1
 40
1
 40
1
 40
1
 10
2288.283012
 20
419.642914
 30
0.0
 10
2284.413487
 20
428.984774
 30
0.0
 10
2286.552381
 20
439.737720
 30
0.0
 10
2293.702330
 20
446.887670
 30
0.0
  0
SPLINE
  5
3ed
100
AcDbEntity
  8
0
 62
7
100
AcDbSpline
 70
8
 71
3
 72
8
 73
4
 74
0
 40
0
 40
0
 40
0
 40
0
 40
1
 40
1
 40
1
 40
1
 10
2293.702330
 20
446.887670
 30
0.0
 10
2300.852280
 20
454.037619
 30
0.0
 10
2311.605226
 20
456.176513
 30
0.0
 10
2320.947086
 20
452.306988
 30
0.0
  0
SPLINE
  5
3ee
100
AcDbEntity
  8
0
 62
7
100
AcDbSpline
 70
8
 71
3
 72
8
 73
4
 74
0
 40
0
 40
0
 40
0
 40
0
 40
1
 40
1
 40
1
 40
1
 10
2320.947086
 20
452.306988
 30
0.0
 10
2330.288946
 20
448.437463
 30
0.0
 10
2336.380000
 20
439.321556
 30
0.0
 10
2336.380000
 20
429.210000
 30
0.0
  0
SPLINE
  5
3ef
100
AcDbEntity
  8
0
 62
7
100
AcDbSpline
 70
8
 71
3
 72
8
 73
4
 74
0
 40
0
 40
0
 40
0
 40
0
 40
1
 40
1
 40
1
 40
1
 10
2336.380000
 20
429.210000
 30
0.0
 10
2336.380000
 20
422.579588
 30
0.0
 10
2333.746079
 20
416.220740
 30
0.0
 10
2329.057670
 20
411.532330
 30
0.0
  0
SPLINE
  5
3f0
100
AcDbEntity
  8
0
 62
7
100
AcDbSpline
 70
8
 71
3
 72
8
 73
4
 74
0
 40
0
 40
0
 40
0
 40
0
 40
1
 40
1
 40
1
 40
1
 10
2329.057670
 20
411.532330
 30
0.0
 10
2324.369260
 20
406.843921
 30
0.0
 10
2318.010412
 20
404.210000
 30
0.0
 10
2311.380000
 20
404.210000
 30
0.0
  0
LWPOLYLINE
  5
3f1
100
AcDbEntity
  8
0
 62
7
100
AcDbPolyline
 90
2
 70
0
 10
2341.380000
 20
345.880000
 30
0.0
 10
2341.380000
 20
300.880000
 30
0.0
  0
SPLINE
  5
3f2
100
AcDbEntity
  8
0
 62
7
100
AcDbSpline
 70
8
 71
3
 72
8
 73
4
 74
0
 40
0
 40
0
 40
0
 40
0
 40
1
 40
1
 40
1
 40
1
 10
2311.380000
 20
487.540000
 30
0.0
 10
2301.268444
 20
487.540000
 30
0.0
 10
2292.152537
 20
493.631054
 30
0.0
 10
2288.283012
 20
502.972914
 30
0.0
  0
SPLINE
  5
3f3
100
AcDbEntity
  8
0
 62
7
100
AcDbSpline
 70
8
 71
3
 72
8
 73
4
 74
0
 40
0
 40
0
 40
0
 40
0
 40
1
 40
1
 40
1
 40
1
 10
2288.283012
 20
502.972914
 30
0.0
 10
2284.413487
 20
512.314774
 30
0.0
 10
2286.552381
 20
523.067720
 30
0.0
 10
2293.702330
 20
530.217670
 30
0.0
  0
SPLINE
  5
3f4
100
AcDbEntity
  8
0
 62
7
100
AcDbSpline
 70
8
 71
3
 72
8
 73
4
 74
0
 40
0
 40
0
 40
0
 40
0
 40
1
 40
1
 40
1
 40
1
 10
2293.702330
 20
530.217670
 30
0.0
 10
2300.852280
 20
537.367619
 30
0.0
 10
2311.605226
 20
539.506513
 30
0.0
 10
2320.947086
 20
535.636988
 30
0.0
  0
SPLINE
  5
3f5
100
AcDbEntity
  8
0
 62
7
100
AcDbSpline
 70
8
 71
3
 72
8
 73
4
 74
0
 40
0
 40
0
 40
0
 40
0
 40
1
 40
1
 40
1
 40
1
 10
2320.947086
 20
535.636988
 30
0.0
 10
2330.288946
 20
531.767463
 30
0.0
 10
2336.380000
 20
522.651556
 30
0.0
 10
2336.380000
 20
512.540000
 30
0.0
  0
SPLINE
  5
3f6
100
AcDbEntity
  8
0
 62
7
100
AcDbSpline
 70
8
 71
3
 72
8
 73
4
 74
0
 40
0
 40
0
 40
0
 40
0
 40
1
 40
1
 40
1
 40
1
 10
2336.380000
 20
512.540000
 30
0.0
 10
2336.380000
 20
505.909588
 30
0.0
 10
2333.746079
 20
499.550740
 30
0.0
 10
2329.057670
 20
494.862330
 30
0.0
  0
SPLINE
  5
3f7
100
AcDbEntity
  8
0
 62
7
100
AcDbSpline
 70
8
 71
3
 72
8
 73
4
 74
0
 40
0
 40
0
 40
0
 40
0
 40
1
 40
1
 40
1
 40
1
 10
2329.057670
 20
494.862330
 30
0.0
 10
2324.369260
 20
490.173921
 30
0.0
 10
2318.010412
 20
487.540000
 30
0.0
 10
2311.380000
 20
487.540000
 30
0.0
  0
LWPOLYLINE
  5
3f8
100
AcDbEntity
  8
0
 62
7
100
AcDbPolyline
 90
1
 70
1
 10
2311.380000
 20
404.210000
 30
0.0
  0
SPLINE
  5
3f9
100
AcDbEntity
  8
0
 62
7
100
AcDbSpline
 70
8
 71
3
 72
8
 73
4
 74
0
 40
0
 40
0
 40
0
 40
0
 40
1
 40
1
 40
1
 40
1
 10
2341.380000
 20
600.880000
 30
0.0
 10
2341.380000
 20
590.162032
 30
0.0
 10
2335.662032
 20
580.258222
 30
0.0
 10
2326.380000
 20
574.899238
 30
0.0
  0
SPLINE
  5
3fa
100
AcDbEntity
  8
0
 62
7
100
AcDbSpline
 70
8
 71
3
 72
8
 73
4
 74
0
 40
0
 40
0
 40
0
 40
0
 40
1
 40
1
 40
1
 40
1
 10
2326.380000
 20
574.899238
 30
0.0
 10
2317.097968
 20
569.540254
 30
0.0
 10
2305.662032
 20
569.540254
 30
0.0
 10
2296.380000
 20
574.899238
 30
0.0
  0
SPLINE
  5
3fb
100
AcDbEntity
  8
0
 62
7
100
AcDbSpline
 70
8
 71
3
 72
8
 73
4
 74
0
 40
0
 40
0
 40
0
 40
0
 40
1
 40
1
 40
1
 40
1
 10
2296.380000
 20
574.899238
 30
0.0
 10
2287.097968
 20
580.258222
 30
0.0
 10
2281.380000
 20
590.162032
 30
0.0
 10
2281.380000
 20
600.880000
 30
0.0
  0
LWPOLYLINE
  5
3fc
100
AcDbEntity
  8
0
 62
7
100
AcDbPolyline
 90
1
 70
1
 10
2311.380000
 20
487.540000
 30
0.0
  0
SPLINE
  5
3fd
100
AcDbEntity
  8
0
 62
7
100
AcDbSpline
 70
8
 71
3
 72
8
 73
4
 74
0
 40
0
 40
0
 40
0
 40
0
 40
1
 40
1
 40
1
 40
1
 10
2281.380000
 20
645.880000
 30
0.0
 10
2281.380000
 20
656.597968
 30
0.0
 10
2287.097968
 20
666.501778
 30
0.0
 10
2296.380000
 20
671.860762
 30
0.0
  0
SPLINE
  5
3fe
100
AcDbEntity
  8
0
 62
7
100
AcDbSpline
 70
8
 71
3
 72
8
 73
4
 74
0
 40
0
 40
0
 40
0
 40
0
 40
1
 40
1
 40
1
 40
1
 10
2296.380000
 20
671.860762
 30
0.0
 10
2305.662032
 20
677.219746
 30
0.0
 10
2317.097968
 20
677.219746
 30
0.0
 10
2326.380000
 20
671.860762
 30
0.0
  0
SPLINE
  5
3ff
100
AcDbEntity
  8
0
 62
7
100
AcDbSpline
 70
8
 71
3
 72
8
 73
4
 74
0
 40
0
 40
0
 40
0
 40
0
 40
1
 40
1
 40
1
 40
1
 10
2326.380000
 20
671.860762
 30
0.0
 10
2335.662032
 20
666.501778
 30
0.0
 10
2341.380000
 20
656.597968
 30
0.0
 10
2341.380000
 20
645.880000
 30
0.0
  0
LWPOLYLINE
  5
400
100
AcDbEntity
  8
0
 62
7
100
AcDbPolyline
 90
2
 70
0
 10
2281.380000
 20
600.880000
 30
0.0
 10
2281.380000
 20
645.880000
 30
0.0
  0
SPLINE
  5
401
100
AcDbEntity
  8
0
 62
7
100
AcDbSpline
 70
8
 71
3
 72
8
 73
4
 74
0
 40
0
 40
0
 40
0
 40
0
 40
1
 40
1
 40
1
 40
1
 10
2311.380000
 20
704.210000
 30
0.0
 10
2301.268444
 20
704.210000
 30
0.0
 10
2292.152537
 20
710.301054
 30
0.0
 10
2288.283012
 20
719.642914
 30
0.0
  0
SPLINE
  5
402
100
AcDbEntity
  8
0
 62
7
100
AcDbSpline
 70
8
 71
3
 72
8
 73
4
 74
0
 40
0
 40
0
 40
0
 40
0
 40
1
 40
1
 40
1
 40
1
 10
2288.283012
 20
719.642914
 30
0.0
 10
2284.413487
 20
728.984774
 30
0.0
 10
2286.552381
 20
739.737720
 30
0.0
 10
2293.702330
 20
746.887670
 30
0.0
  0
SPLINE
  5
403
100
AcDbEntity
  8
0
 62
7
100
AcDbSpline
 70
8
 71
3
 72
8
 73
4
 74
0
 40
0
 40
0
 40
0
 40
0
 40
1
 40
1
 40
1
 40
1
 10
2293.702330
 20
746.887670
 30
0.0
 10
2300.852280
 20
754.037619
 30
0.0
 10
2311.605226
 20
756.176513
 30
0.0
 10
2320.947086
 20
752.306988
 30
0.0
  0
SPLINE
  5
404
100
AcDbEntity
  8
0
 62
7
100
AcDbSpline
 70
8
 71
3
 72
8
 73
4
 74
0
 40
0
 40
0
 40
0
 40
0
 40
1
 40
1
 40
1
 40
1
 10
2320.947086
 20
752.306988
 30
0.0
 10
2330.288946
 20
748.437463
 30
0.0
 10
2336.380000
 20
739.321556
 30
0.0
 10
2336.380000
 20
729.210000
 30
0.0
  0
SPLINE
  5
405
100
AcDbEntity
  8
0
 62
7
100
AcDbSpline
 70
8
 71
3
 72
8
 73
4
 74
0
 40
0
 40
0
 40
0
 40
0
 40
1
 40
1
 40
1
 40
1
 10
2336.380000
 20
729.210000
 30
0.0
 10
2336.380000
 20
722.579588
 30
0.0
 10
2333.746079
 20
716.220740
 30
0.0
 10
2329.057670
 20
711.532330
 30
0.0
  0
SPLINE
  5
406
100
AcDbEntity
  8
0
 62
7
100
AcDbSpline
 70
8
 71
3
 72
8
 73
4
 74
0
 40
0
 40
0
 40
0
 40
0
 40
1
 40
1
 40
1
 40
1
 10
2329.057670
 20
711.532330
 30
0.0
 10
2324.369260
 20
706.843921
 30
0.0
 10
2318.010412
 20
704.210000
 30
0.0
 10
2311.380000
 20
704.210000
 30
0.0
  0
LWPOLYLINE
  5
407
100
AcDbEntity
  8
0
 62
7
100
AcDbPolyline
 90
2
 70
0
 10
2341.380000
 20
645.880000
 30
0.0
 10
2341.380000
 20
600.880000
 30
0.0
  0
SPLINE
  5
408
100
AcDbEntity
  8
0
 62
7
100
AcDbSpline
 70
8
 71
3
 72
8
 73
4
 74
0
 40
0
 40
0
 40
0
 40
0
 40
1
 40
1
 40
1
 40
1
 10
2311.380000
 20
787.540000
 30
0.0
 10
2301.268444
 20
787.540000
 30
0.0
 10
2292.152537
 20
793.631054
 30
0.0
 10
2288.283012
 20
802.972914
 30
0.0
  0
SPLINE
  5
409
100
AcDbEntity
  8
0
 62
7
100
AcDbSpline
 70
8
 71
3
 72
8
 73
4
 74
0
 40
0
 40
0
 40
0
 40
0
 40
1
 40
1
 40
1
 40
1
 10
2288.283012
 20
802.972914
 30
0.0
 10
2284.413487
 20
812.314774
 30
0.0
 10
2286.552381
 20
823.067720
 30
0.0
 10
2293.702330
 20
830.217670
 30
0.0
  0
SPLINE
  5
40a
100
AcDbEntity
  8
0
 62
7
100
AcDbSpline
 70
8
 71
3
 72
8
 73
4
 74
0
 40
0
 40
0
 40
0
 40
0
 40
1
 40
1
 40
1
 40
1
 10
2293.702330
 20
830.217670
 30
0.0
 10
2300.852280
 20
837.367619
 30
0.0
 10
2311.605226
 20
839.506513
 30
0.0
 10
2320.947086
 20
835.636988
 30
0.0
  0
SPLINE
  5
40b
100
AcDbEntity
  8
0
 62
7
100
AcDbSpline
 70
8
 71
3
 72
8
 73
4
 74
0
 40
0
 40
0
 40
0
 40
0
 40
1
 40
1
 40
1
 40
1
 10
2320.947086
 20
835.636988
 30
0.0
 10
2330.288946
 20
831.767463
 30
0.0
 10
2336.380000
 20
822.651556
 30
0.0
 10
2336.380000
 20
812.540000
 30
0.0
  0
SPLINE
  5
40c
100
AcDbEntity
  8
0
 62
7
100
AcDbSpline
 70
8
 71
3
 72
8
 73
4
 74
0
 40
0
 40
0
 40
0
 40
0
 40
1
 40
1
 40
1
 40
1
 10
2336.380000
 20
812.540000
 30
0.0
 10
2336.380000
 20
805.909588
 30
0.0
 10
2333.746079
 20
799.550740
 30
0.0
 10
2329.057670
 20
794.862330
 30
0.0
  0
SPLINE
  5
40d
100
AcDbEntity
  8
0
 62
7
100
AcDbSpline
 70
8
 71
3
 72
8
 73
4
 74
0
 40
0
 40
0
 40
0
 40
0
 40
1
 40
1
 40
1
 40
1
 10
2329.057670
 20
794.862330
 30
0.0
 10
2324.369260
 20
790.173921
 30
0.0
 10
2318.010412
 20
787.540000
 30
0.0
 10
2311.380000
 20
787.540000
 30
0.0
  0
LWPOLYLINE
  5
40e
100
AcDbEntity
  8
0
 62
7
100
AcDbPolyline
 90
1
 70
1
 10
2311.380000
 20
704.210000
 30
0.0
  0
SPLINE
  5
40f
100
AcDbEntity
  8
0
 62
7
100
AcDbSpline
 70
8
 71
3
 72
8
 73
4
 74
0
 40
0
 40
0
 40
0
 40
0
 40
1
 40
1
 40
1
 40
1
 10
2341.380000
 20
900.880000
 30
0.0
 10
2341.380000
 20
890.162032
 30
0.0
 10
2335.662032
 20
880.258222
 30
0.0
 10
2326.380000
 20
874.899238
 30
0.0
  0
SPLINE
  5
410
100
AcDbEntity
  8
0
 62
7
100
AcDbSpline
 70
8
 71
3
 72
8
 73
4
 74
0
 40
0
 40
0
 40
0
 40
0
 40
1
 40
1
 40
1
 40
1
 10
2326.380000
 20
874.899238
 30
0.0
 10
2317.097968
 20
869.540254
 30
0.0
 10
2305.662032
 20
869.540254
 30
0.0
 10
2296.380000
 20
874.899238
 30
0.0
  0
SPLINE
  5
411
100
AcDbEntity
  8
0
 62
7
100
AcDbSpline
 70
8
 71
3
 72
8
 73
4
 74
0
 40
0
 40
0
 40
0
 40
0
 40
1
 40
1
 40
1
 40
1
 10
2296.380000
 20
874.899238
 30
0.0
 10
2287.097968
 20
880.258222
 30
0.0
 10
2281.380000
 20
890.162032
 30
0.0
 10
2281.380000
 20
900.880000
 30
0.0
  0
LWPOLYLINE
  5
412
100
AcDbEntity
  8
0
 62
7
100
AcDbPolyline
 90
1
 70
1
 10
2311.380000
 20
787.540000
 30
0.0
  0
SPLINE
  5
413
100
AcDbEntity
  8
0
 62
7
100
AcDbSpline
 70
8
 71
3
 72
8
 73
4
 74
0
 40
0
 40
0
 40
0
 40
0
 40
1
 40
1
 40
1
 40
1
 10
2281.380000
 20
945.880000
 30
0.0
 10
2281.380000
 20
956.597968
 30
0.0
 10
2287.097968
 20
966.501778
 30
0.0
 10
2296.380000
 20
971.860762
 30
0.0
  0
SPLINE
  5
414
100
AcDbEntity
  8
0
 62
7
100
AcDbSpline
 70
8
 71
3
 72
8
 73
4
 74
0
 40
0
 40
0
 40
0
 40
0
 40
1
 40
1
 40
1
 40
1
 10
2296.380000
 20
971.860762
 30
0.0
 10
2305.662032
 20
977.219746
 30
0.0
 10
2317.097968
 20
977.219746
 30
0.0
 10
2326.380000
 20
971.860762
 30
0.0
  0
SPLINE
  5
415
100
AcDbEntity
  8
0
 62
7
100
AcDbSpline
 70
8
 71
3
 72
8
 73
4
 74
0
 40
0
 40
0
 40
0
 40
0
 40
1
 40
1
 40
1
 40
1
 10
2326.380000
 20
971.860762
 30
0.0
 10
2335.662032
 20
966.501778
 30
0.0
 10
2341.380000
 20
956.597968
 30
0.0
 10
2341.380000
 20
945.880000
 30
0.0
  0
LWPOLYLINE
  5
416
100
AcDbEntity
  8
0
 62
7
100
AcDbPolyline
 90
2
 70
0
 10
2281.380000
 20
900.880000
 30
0.0
 10
2281.380000
 20
945.880000
 30
0.0
  0
SPLINE
  5
417
100
AcDbEntity
  8
0
 62
7
100
AcDbSpline
 70
8
 71
3
 72
8
 73
4
 74
0
 40
0
 40
0
 40
0
 40
0
 40
1
 40
1
 40
1
 40
1
 10
2311.380000
 20
1023.380000
 30
0.0
 10
2301.268444
 20
1023.380000
 30
0.0
 10
2292.152537
 20
1029.471054
 30
0.0
 10
2288.283012
 20
1038.812914
 30
0.0
  0
SPLINE
  5
418
100
AcDbEntity
  8
0
 62
7
100
AcDbSpline
 70
8
 71
3
 72
8
 73
4
 74
0
 40
0
 40
0
 40
0
 40
0
 40
1
 40
1
 40
1
 40
1
 10
2288.283012
 20
1038.812914
 30
0.0
 10
2284.413487
 20
1048.154774
 30
0.0
 10
2286.552381
 20
1058.907720
 30
0.0
 10
2293.702330
 20
1066.057670
 30
0.0
  0
SPLINE
  5
419
100
AcDbEntity
  8
0
 62
7
100
AcDbSpline
 70
8
 71
3
 72
8
 73
4
 74
0
 40
0
 40
0
 40
0
 40
0
 40
1
 40
1
 40
1
 40
1
 10
2293.702330
 20
1066.057670
 30
0.0
 10
2300.852280
 20
1073.207619
 30
0.0
 10
2311.605226
 20
1075.346513
 30
0.0
 10
2320.947086
 20
1071.476988
 30
0.0
  0
SPLINE
  5
41a
100
AcDbEntity
  8
0
 62
7
100
AcDbSpline
 70
8
 71
3
 72
8
 73
4
 74
0
 40
0
 40
0
 40
0
 40
0
 40
1
 40
1
 40
1
 40
1
 10
2320.947086
 20
1071.476988
 30
0.0
 10
2330.288946
 20
1067.607463
 30
0.0
 10
2336.380000
 20
1058.491556
 30
0.0
 10
2336.380000
 20
1048.380000
 30
0.0
  0
SPLINE
  5
41b
100
AcDbEntity
  8
0
 62
7
100
AcDbSpline
 70
8
 71
3
 72
8
 73
4
 74
0
 40
0
 40
0
 40
0
 40
0
 40
1
 40
1
 40
1
 40
1
 10
2336.380000
 20
1048.380000
 30
0.0
 10
2336.380000
 20
1041.749588
 30
0.0
 10
2333.746079
 20
1035.390740
 30
0.0
 10
2329.057670
 20
1030.702330
 30
0.0
  0
SPLINE
  5
41c
100
AcDbEntity
  8
0
 62
7
100
AcDbSpline
 70
8
 71
3
 72
8
 73
4
 74
0
 40
0
 40
0
 40
0
 40
0
 40
1
 40
1
 40
1
 40
1
 10
2329.057670
 20
1030.702330
 30
0.0
 10
2324.369260
 20
1026.013921
 30
0.0
 10
2318.010412
 20
1023.380000
 30
0.0
 10
2311.380000
 20
1023.380000
 30
0.0
  0
LWPOLYLINE
  5
41d
100
AcDbEntity
  8
0
 62
7
100
AcDbPolyline
 90
2
 70
0
 10
2341.380000
 20
945.880000
 30
0.0
 10
2341.380000
 20
900.880000
 30
0.0
  0
SPLINE
  5
41e
100
AcDbEntity
  8
0
 62
7
100
AcDbSpline
 70
8
 71
3
 72
8
 73
4
 74
0
 40
0
 40
0
 40
0
 40
0
 40
1
 40
1
 40
1
 40
1
 10
2311.380000
 20
1123.380000
 30
0.0
 10
2301.268444
 20
1123.380000
 30
0.0
 10
2292.152537
 20
1129.471054
 30
0.0
 10
2288.283012
 20
1138.812914
 30
0.0
  0
SPLINE
  5
41f
100
AcDbEntity
  8
0
 62
7
100
AcDbSpline
 70
8
 71
3
 72
8
 73
4
 74
0
 40
0
 40
0
 40
0
 40
0
 40
1
 40
1
 40
1
 40
1
 10
2288.283012
 20
1138.812914
 30
0.0
 10
2284.413487
 20
1148.154774
 30
0.0
 10
2286.552381
 20
1158.907720
 30
0.0
 10
2293.702330
 20
1166.057670
 30
0.0
  0
SPLINE
  5
420
100
AcDbEntity
  8
0
 62
7
100
AcDbSpline
 70
8
 71
3
 72
8
 73
4
 74
0
 40
0
 40
0
 40
0
 40
0
 40
1
 40
1
 40
1
 40
1
 10
2293.702330
 20
1166.057670
 30
0.0
 10
2300.852280
 20
1173.207619
 30
0.0
 10
2311.605226
 20
1175.346513
 30
0.0
 10
2320.947086
 20
1171.476988
 30
0.0
  0
SPLINE
  5
421
100
AcDbEntity
  8
0
 62
7
100
AcDbSpline
 70
8
 71
3
 72
8
 73
4
 74
0
 40
0
 40
0
 40
0
 40
0
 40
1
 40
1
 40
1
 40
1
 10
2320.947086
 20
1171.476988
 30
0.0
 10
2330.288946
 20
1167.607463
 30
0.0
 10
2336.380000
 20
1158.491556
 30
0.0
 10
2336.380000
 20
1148.380000
 30
0.0
  0
SPLINE
  5
422
100
AcDbEntity
  8
0
 62
7
100
AcDbSpline
 70
8
 71
3
 72
8
 73
4
 74
0
 40
0
 40
0
 40
0
 40
0
 40
1
 40
1
 40
1
 40
1
 10
2336.380000
 20
1148.380000
 30
0.0
 10
2336.380000
 20
1141.749588
 30
0.0
 10
2333.746079
 20
1135.390740
 30
0.0
 10
2329.057670
 20
1130.702330
 30
0.0
  0
SPLINE
  5
423
100
AcDbEntity
  8
0
 62
7
100
AcDbSpline
 70
8
 71
3
 72
8
 73
4
 74
0
 40
0
 40
0
 40
0
 40
0
 40
1
 40
1
 40
1
 40
1
 10
2329.057670
 20
1130.702330
 30
0.0
 10
2324.369260
 20
1126.013921
 30
0.0
 10
2318.010412
 20
1123.380000
 30
0.0
 10
2311.380000
 20
1123.380000
 30
0.0
  0
LWPOLYLINE
  5
424
100
AcDbEntity
  8
0
 62
7
100
AcDbPolyline
 90
1
 70
1
 10
2311.380000
 20
1023.380000
 30
0.0
  0
LWPOLYLINE
  5
425
100
AcDbEntity
  8
0
 62
7
100
AcDbPolyline
 90
1
 70
1
 10
2311.380000
 20
1123.380000
 30
0.0
  0
ENDSEC
  0
SECTION
  2
OBJECTS
  0
DICTIONARY
  5
C
330
0
100
AcDbDictionary
  3
ACAD_GROUP
350
D
  3
ACAD_MLINESTYLE
350
17
  0
DICTIONARY
  5
D
330
C
100
AcDbDictionary
  0
DICTIONARY
  5
1A
330
C
100
AcDbDictionary
  0
DICTIONARY
  5
17
330
C
100
AcDbDictionary
  3
STANDARD
350
18
  0
DICTIONARY
  5
19
330
C
100
AcDbDictionary
  0
ENDSEC
  0
EOF
