  0
SECTION
  2
HEADER
  9
$ACADVER
  1
AC1014
  9
$HANDSEED
  5
FFFF
  9
$INSUNITS
 70
     4
  9
$MEASUREMENT
 70
     1
  0
ENDSEC
  0
SECTION
  2
TABLES
  0
TABLE
  2
VPORT
  5
8
330
0
100
AcDbSymbolTable
 70
     4
  0
VPORT
  5
2E
330
8
100
AcDbSymbolTableRecord
100
AcDbViewportTableRecord
  2
*ACTIVE
 70
     0
 10
0.0
 20
0.0
 11
1.0
 21
1.0
 12
210.0
 22
148.5
 13
0.0
 23
0.0
 14
10.0
 24
10.0
 15
10.0
 25
10.0
 16
0.0
 26
0.0
 36
1.0
 17
0.0
 27
0.0
 37
0.0
 40
341.0
 41
1.24
 42
50.0
 43
0.0
 44
0.0
 50
0.0
 51
0.0
 71
     0
 72
   100
 73
     1
 74
     3
 75
     0
 76
     0
 77
     0
 78
     0
  0
ENDTAB
  0
TABLE
  2
LTYPE
  5
5
330
0
100
AcDbSymbolTable
 70
     1
  0
LTYPE
  5
14
330
5
100
AcDbSymbolTableRecord
100
AcDbLinetypeTableRecord
  2
BYBLOCK
 70
     0
  3

 72
    65
 73
     0
 40
0.0
  0
LTYPE
  5
15
330
5
100
AcDbSymbolTableRecord
100
AcDbLinetypeTableRecord
  2
BYLAYER
 70
     0
  3

 72
    65
 73
     0
 40
0.0
  0
LTYPE
  5
16
330
5
100
AcDbSymbolTableRecord
100
AcDbLinetypeTableRecord
  2
CONTINUOUS
 70
     0
  3
Solid line
 72
    65
 73
     0
 40
0.0
  0
ENDTAB
  0
TABLE
  2
LAYER
  5
2
100
AcDbSymbolTable
 70
1
  0
LAYER
  5
50
100
AcDbSymbolTableRecord
100
AcDbLayerTableRecord
  2
0
 70
0
  6
CONTINUOUS
  0
ENDTAB
  0
TABLE
  2
STYLE
  5
3
330
0
100
AcDbSymbolTable
 70
     1
  0
STYLE
  5
11
330
3
100
AcDbSymbolTableRecord
100
AcDbTextStyleTableRecord
  2
STANDARD
 70
     0
 40
0.0
 41
1.0
 50
0.0
 71
     0
 42
2.5
  3
txt
  4

  0
ENDTAB
  0
TABLE
  2
VIEW
  5
6
330
0
100
AcDbSymbolTable
 70
     0
  0
ENDTAB
  0
TABLE
  2
UCS
  5
7
330
0
100
AcDbSymbolTable
 70
     0
  0
ENDTAB
  0
TABLE
  2
APPID
  5
9
330
0
100
AcDbSymbolTable
 70
     2
  0
APPID
  5
12
330
9
100
AcDbSymbolTableRecord
100
AcDbRegAppTableRecord
  2
ACAD
 70
     0
  0
ENDTAB
  0
TABLE
  2
DIMSTYLE
  5
A
330
0
100
AcDbSymbolTable
 70
     1
  0
DIMSTYLE
105
27
330
A
100
AcDbSymbolTableRecord
100
AcDbDimStyleTableRecord
  2
ISO-25
 70
     0
  3

  4

  5

  6

  7

 40
1.0
 41
2.5
 42
0.625
 43
3.75
 44
1.25
 45
0.0
 46
0.0
 47
0.0
 48
0.0
140
2.5
141
2.5
142
0.0
143
0.03937007874016
144
1.0
145
0.0
146
1.0
147
0.625
 71
     0
 72
     0
 73
     0
 74
     0
 75
     0
 76
     0
 77
     1
 78
     8
170
     0
171
     3
172
     1
173
     0
174
     0
175
     0
176
     0
177
     0
178
     0
270
     2
271
     2
272
     2
273
     2
274
     3
340
11
275
     0
280
     0
281
     0
282
     0
283
     0
284
     8
285
     0
286
     0
287
     3
288
     0
  0
ENDTAB
  0
TABLE
  2
BLOCK_RECORD
  5
1
330
0
100
AcDbSymbolTable
 70
     1
  0
BLOCK_RECORD
  5
1F
330
1
100
AcDbSymbolTableRecord
100
AcDbBlockTableRecord
  2
*MODEL_SPACE
  0
BLOCK_RECORD
  5
1B
330
1
100
AcDbSymbolTableRecord
100
AcDbBlockTableRecord
  2
*PAPER_SPACE
  0
ENDTAB
  0
ENDSEC
  0
SECTION
  2
BLOCKS
  0
BLOCK
  5
20
330
1F
100
AcDbEntity
  8
0
100
AcDbBlockBegin
  2
*MODEL_SPACE
 70
     0
 10
0.0
 20
0.0
 30
0.0
  3
*MODEL_SPACE
  1

  0
ENDBLK
  5
21
330
1F
100
AcDbEntity
  8
0
100
AcDbBlockEnd
  0
BLOCK
  5
1C
330
1B
100
AcDbEntity
 67
     1
  8
0
100
AcDbBlockBegin
  2
*PAPER_SPACE
  1

  0
ENDBLK
  5
1D
330
1B
100
AcDbEntity
 67
     1
  8
0
100
AcDbBlockEnd
  0
ENDSEC
  0
SECTION
  2
ENTITIES
  0
LWPOLYLINE
  5
100
100
AcDbEntity
  8
0
 62
7
100
AcDbPolyline
 90
3
 70
1
 10
2213.080000
 20
403.081395
 30
0.0
 10
2213.080000
 20
343.081395
 30
0.0
 10
2273.080000
 20
343.081395
 30
0.0
  0
LWPOLYLINE
  5
101
100
AcDbEntity
  8
0
 62
7
100
AcDbPolyline
 90
3
 70
1
 10
2118.080000
 20
343.081395
 30
0.0
 10
2118.080000
 20
403.081395
 30
0.0
 10
2058.080000
 20
403.081395
 30
0.0
  0
LWPOLYLINE
  5
102
100
AcDbEntity
  8
0
 62
7
100
AcDbPolyline
 90
3
 70
1
 10
2117.080000
 20
413.081395
 30
0.0
 10
2117.080000
 20
473.081395
 30
0.0
 10
2057.080000
 20
473.081395
 30
0.0
  0
LWPOLYLINE
  5
103
100
AcDbEntity
  8
0
 62
7
100
AcDbPolyline
 90
3
 70
1
 10
2212.080000
 20
473.081395
 30
0.0
 10
2212.080000
 20
413.081395
 30
0.0
 10
2272.080000
 20
413.081395
 30
0.0
  0
LWPOLYLINE
  5
104
100
AcDbEntity
  8
0
 62
7
100
AcDbPolyline
 90
3
 70
1
 10
2042.080000
 20
543.081395
 30
0.0
 10
2042.080000
 20
483.081395
 30
0.0
 10
2102.080000
 20
483.081395
 30
0.0
  0
LWPOLYLINE
  5
105
100
AcDbEntity
  8
0
 62
7
100
AcDbPolyline
 90
3
 70
1
 10
2202.080000
 20
483.081395
 30
0.0
 10
2202.080000
 20
543.081395
 30
0.0
 10
2142.080000
 20
543.081395
 30
0.0
  0
LWPOLYLINE
  5
106
100
AcDbEntity
  8
0
 62
7
100
AcDbPolyline
 90
3
 70
1
 10
2117.080000
 20
483.081395
 30
0.0
 10
2117.080000
 20
543.081395
 30
0.0
 10
2057.080000
 20
543.081395
 30
0.0
  0
LWPOLYLINE
  5
107
100
AcDbEntity
  8
0
 62
7
100
AcDbPolyline
 90
3
 70
1
 10
2128.080000
 20
403.081395
 30
0.0
 10
2128.080000
 20
343.081395
 30
0.0
 10
2188.080000
 20
343.081395
 30
0.0
  0
LWPOLYLINE
  5
108
100
AcDbEntity
  8
0
 62
7
100
AcDbPolyline
 90
3
 70
1
 10
2288.080000
 20
343.081395
 30
0.0
 10
2288.080000
 20
403.081395
 30
0.0
 10
2228.080000
 20
403.081395
 30
0.0
  0
LWPOLYLINE
  5
109
100
AcDbEntity
  8
0
 62
7
100
AcDbPolyline
 90
3
 70
1
 10
2042.080000
 20
473.081395
 30
0.0
 10
2042.080000
 20
413.081395
 30
0.0
 10
2102.080000
 20
413.081395
 30
0.0
  0
LWPOLYLINE
  5
10a
100
AcDbEntity
  8
0
 62
7
100
AcDbPolyline
 90
3
 70
1
 10
2297.080000
 20
473.081395
 30
0.0
 10
2297.080000
 20
413.081395
 30
0.0
 10
2357.080000
 20
413.081395
 30
0.0
  0
LWPOLYLINE
  5
10b
100
AcDbEntity
  8
0
 62
7
100
AcDbPolyline
 90
3
 70
1
 10
2202.080000
 20
413.081395
 30
0.0
 10
2202.080000
 20
473.081395
 30
0.0
 10
2142.080000
 20
473.081395
 30
0.0
  0
LWPOLYLINE
  5
10c
100
AcDbEntity
  8
0
 62
7
100
AcDbPolyline
 90
3
 70
1
 10
2127.080000
 20
543.081395
 30
0.0
 10
2127.080000
 20
483.081395
 30
0.0
 10
2187.080000
 20
483.081395
 30
0.0
  0
LWPOLYLINE
  5
10d
100
AcDbEntity
  8
0
 62
7
100
AcDbPolyline
 90
3
 70
1
 10
2297.080000
 20
543.081395
 30
0.0
 10
2297.080000
 20
483.081395
 30
0.0
 10
2357.080000
 20
483.081395
 30
0.0
  0
LWPOLYLINE
  5
10e
100
AcDbEntity
  8
0
 62
7
100
AcDbPolyline
 90
3
 70
1
 10
2367.080000
 20
413.081395
 30
0.0
 10
2367.080000
 20
473.081395
 30
0.0
 10
2307.080000
 20
473.081395
 30
0.0
  0
LWPOLYLINE
  5
10f
100
AcDbEntity
  8
0
 62
7
100
AcDbPolyline
 90
3
 70
1
 10
2287.080000
 20
483.081395
 30
0.0
 10
2287.080000
 20
543.081395
 30
0.0
 10
2227.080000
 20
543.081395
 30
0.0
  0
LWPOLYLINE
  5
110
100
AcDbEntity
  8
0
 62
7
100
AcDbPolyline
 90
3
 70
1
 10
2372.080000
 20
483.081395
 30
0.0
 10
2372.080000
 20
543.081395
 30
0.0
 10
2312.080000
 20
543.081395
 30
0.0
  0
LWPOLYLINE
  5
111
100
AcDbEntity
  8
0
 62
7
100
AcDbPolyline
 90
3
 70
1
 10
2042.080000
 20
404.081395
 30
0.0
 10
2042.080000
 20
344.081395
 30
0.0
 10
2102.080000
 20
344.081395
 30
0.0
  0
LWPOLYLINE
  5
112
100
AcDbEntity
  8
0
 62
7
100
AcDbPolyline
 90
3
 70
1
 10
2203.080000
 20
343.081395
 30
0.0
 10
2203.080000
 20
403.081395
 30
0.0
 10
2143.080000
 20
403.081395
 30
0.0
  0
LWPOLYLINE
  5
113
100
AcDbEntity
  8
0
 62
7
100
AcDbPolyline
 90
3
 70
1
 10
2298.080000
 20
403.081395
 30
0.0
 10
2298.080000
 20
343.081395
 30
0.0
 10
2358.080000
 20
343.081395
 30
0.0
  0
LWPOLYLINE
  5
114
100
AcDbEntity
  8
0
 62
7
100
AcDbPolyline
 90
3
 70
1
 10
2127.080000
 20
473.081395
 30
0.0
 10
2127.080000
 20
413.081395
 30
0.0
 10
2187.080000
 20
413.081395
 30
0.0
  0
LWPOLYLINE
  5
115
100
AcDbEntity
  8
0
 62
7
100
AcDbPolyline
 90
3
 70
1
 10
2373.080000
 20
343.081395
 30
0.0
 10
2373.080000
 20
403.081395
 30
0.0
 10
2313.080000
 20
403.081395
 30
0.0
  0
LWPOLYLINE
  5
116
100
AcDbEntity
  8
0
 62
7
100
AcDbPolyline
 90
3
 70
1
 10
2212.080000
 20
543.081395
 30
0.0
 10
2212.080000
 20
483.081395
 30
0.0
 10
2272.080000
 20
483.081395
 30
0.0
  0
LWPOLYLINE
  5
117
100
AcDbEntity
  8
0
 62
7
100
AcDbPolyline
 90
3
 70
1
 10
2287.080000
 20
413.081395
 30
0.0
 10
2287.080000
 20
473.081395
 30
0.0
 10
2227.080000
 20
473.081395
 30
0.0
  0
LWPOLYLINE
  5
118
100
AcDbEntity
  8
0
 62
7
100
AcDbPolyline
 90
4
 70
1
 10
2432.080000
 20
334.081395
 30
0.0
 10
2362.080000
 20
334.081395
 30
0.0
 10
2362.080000
 20
264.081395
 30
0.0
 10
2432.080000
 20
264.081395
 30
0.0
  0
LWPOLYLINE
  5
119
100
AcDbEntity
  8
0
 62
7
100
AcDbPolyline
 90
4
 70
1
 10
2432.080000
 20
94.081395
 30
0.0
 10
2362.080000
 20
94.081395
 30
0.0
 10
2362.080000
 20
24.081395
 30
0.0
 10
2432.080000
 20
24.081395
 30
0.0
  0
LWPOLYLINE
  5
11a
100
AcDbEntity
  8
0
 62
7
100
AcDbPolyline
 90
4
 70
1
 10
2112.080000
 20
174.081395
 30
0.0
 10
2042.080000
 20
174.081395
 30
0.0
 10
2042.080000
 20
104.081395
 30
0.0
 10
2112.080000
 20
104.081395
 30
0.0
  0
LWPOLYLINE
  5
11b
100
AcDbEntity
  8
0
 62
7
100
AcDbPolyline
 90
4
 70
1
 10
2352.080000
 20
94.081395
 30
0.0
 10
2282.080000
 20
94.081395
 30
0.0
 10
2282.080000
 20
24.081395
 30
0.0
 10
2352.080000
 20
24.081395
 30
0.0
  0
LWPOLYLINE
  5
11c
100
AcDbEntity
  8
0
 62
7
100
AcDbPolyline
 90
4
 70
1
 10
2352.080000
 20
174.081395
 30
0.0
 10
2282.080000
 20
174.081395
 30
0.0
 10
2282.080000
 20
104.081395
 30
0.0
 10
2352.080000
 20
104.081395
 30
0.0
  0
LWPOLYLINE
  5
11d
100
AcDbEntity
  8
0
 62
7
100
AcDbPolyline
 90
4
 70
1
 10
2112.080000
 20
254.081395
 30
0.0
 10
2042.080000
 20
254.081395
 30
0.0
 10
2042.080000
 20
184.081395
 30
0.0
 10
2112.080000
 20
184.081395
 30
0.0
  0
LWPOLYLINE
  5
11e
100
AcDbEntity
  8
0
 62
7
100
AcDbPolyline
 90
4
 70
1
 10
2112.080000
 20
334.081395
 30
0.0
 10
2042.080000
 20
334.081395
 30
0.0
 10
2042.080000
 20
264.081395
 30
0.0
 10
2112.080000
 20
264.081395
 30
0.0
  0
LWPOLYLINE
  5
11f
100
AcDbEntity
  8
0
 62
7
100
AcDbPolyline
 90
4
 70
1
 10
2192.080000
 20
334.081395
 30
0.0
 10
2122.080000
 20
334.081395
 30
0.0
 10
2122.080000
 20
264.081395
 30
0.0
 10
2192.080000
 20
264.081395
 30
0.0
  0
LWPOLYLINE
  5
120
100
AcDbEntity
  8
0
 62
7
100
AcDbPolyline
 90
4
 70
1
 10
2272.080000
 20
334.081395
 30
0.0
 10
2202.080000
 20
334.081395
 30
0.0
 10
2202.080000
 20
264.081395
 30
0.0
 10
2272.080000
 20
264.081395
 30
0.0
  0
LWPOLYLINE
  5
121
100
AcDbEntity
  8
0
 62
7
100
AcDbPolyline
 90
4
 70
1
 10
2352.080000
 20
334.081395
 30
0.0
 10
2282.080000
 20
334.081395
 30
0.0
 10
2282.080000
 20
264.081395
 30
0.0
 10
2352.080000
 20
264.081395
 30
0.0
  0
LWPOLYLINE
  5
122
100
AcDbEntity
  8
0
 62
7
100
AcDbPolyline
 90
4
 70
1
 10
2432.080000
 20
174.081395
 30
0.0
 10
2362.080000
 20
174.081395
 30
0.0
 10
2362.080000
 20
104.081395
 30
0.0
 10
2432.080000
 20
104.081395
 30
0.0
  0
LWPOLYLINE
  5
123
100
AcDbEntity
  8
0
 62
7
100
AcDbPolyline
 90
4
 70
1
 10
2432.080000
 20
254.081395
 30
0.0
 10
2362.080000
 20
254.081395
 30
0.0
 10
2362.080000
 20
184.081395
 30
0.0
 10
2432.080000
 20
184.081395
 30
0.0
  0
LWPOLYLINE
  5
124
100
AcDbEntity
  8
0
 62
7
100
AcDbPolyline
 90
4
 70
1
 10
2272.080000
 20
94.081395
 30
0.0
 10
2202.080000
 20
94.081395
 30
0.0
 10
2202.080000
 20
24.081395
 30
0.0
 10
2272.080000
 20
24.081395
 30
0.0
  0
LWPOLYLINE
  5
125
100
AcDbEntity
  8
0
 62
7
100
AcDbPolyline
 90
4
 70
1
 10
2192.080000
 20
94.081395
 30
0.0
 10
2122.080000
 20
94.081395
 30
0.0
 10
2122.080000
 20
24.081395
 30
0.0
 10
2192.080000
 20
24.081395
 30
0.0
  0
LWPOLYLINE
  5
126
100
AcDbEntity
  8
0
 62
7
100
AcDbPolyline
 90
4
 70
1
 10
2112.080000
 20
94.081395
 30
0.0
 10
2042.080000
 20
94.081395
 30
0.0
 10
2042.080000
 20
24.081395
 30
0.0
 10
2112.080000
 20
24.081395
 30
0.0
  0
LWPOLYLINE
  5
127
100
AcDbEntity
  8
0
 62
7
100
AcDbPolyline
 90
4
 70
1
 10
2192.080000
 20
174.081395
 30
0.0
 10
2122.080000
 20
174.081395
 30
0.0
 10
2122.080000
 20
104.081395
 30
0.0
 10
2192.080000
 20
104.081395
 30
0.0
  0
LWPOLYLINE
  5
128
100
AcDbEntity
  8
0
 62
7
100
AcDbPolyline
 90
4
 70
1
 10
2272.080000
 20
174.081395
 30
0.0
 10
2202.080000
 20
174.081395
 30
0.0
 10
2202.080000
 20
104.081395
 30
0.0
 10
2272.080000
 20
104.081395
 30
0.0
  0
LWPOLYLINE
  5
129
100
AcDbEntity
  8
0
 62
7
100
AcDbPolyline
 90
4
 70
1
 10
2192.080000
 20
254.081395
 30
0.0
 10
2122.080000
 20
254.081395
 30
0.0
 10
2122.080000
 20
184.081395
 30
0.0
 10
2192.080000
 20
184.081395
 30
0.0
  0
LWPOLYLINE
  5
12a
100
AcDbEntity
  8
0
 62
7
100
AcDbPolyline
 90
4
 70
1
 10
2272.080000
 20
254.081395
 30
0.0
 10
2202.080000
 20
254.081395
 30
0.0
 10
2202.080000
 20
184.081395
 30
0.0
 10
2272.080000
 20
184.081395
 30
0.0
  0
LWPOLYLINE
  5
12b
100
AcDbEntity
  8
0
 62
7
100
AcDbPolyline
 90
4
 70
1
 10
2352.080000
 20
254.081395
 30
0.0
 10
2282.080000
 20
254.081395
 30
0.0
 10
2282.080000
 20
184.081395
 30
0.0
 10
2352.080000
 20
184.081395
 30
0.0
  0
LWPOLYLINE
  5
12c
100
AcDbEntity
  8
0
 62
7
100
AcDbPolyline
 90
3
 70
1
 10
2214.014266
 20
583.192509
 30
0.0
 10
2214.014266
 20
553.192509
 30
0.0
 10
2244.014266
 20
553.192509
 30
0.0
  0
LWPOLYLINE
  5
12d
100
AcDbEntity
  8
0
 62
7
100
AcDbPolyline
 90
3
 70
1
 10
2202.599287
 20
553.274388
 30
0.0
 10
2202.599287
 20
583.274388
 30
0.0
 10
2172.599287
 20
583.274388
 30
0.0
  0
LWPOLYLINE
  5
12e
100
AcDbEntity
  8
0
 62
7
100
AcDbPolyline
 90
3
 70
1
 10
2144.374859
 20
552.779057
 30
0.0
 10
2144.374859
 20
582.779057
 30
0.0
 10
2114.374859
 20
582.779057
 30
0.0
  0
LWPOLYLINE
  5
12f
100
AcDbEntity
  8
0
 62
7
100
AcDbPolyline
 90
3
 70
1
 10
2098.437791
 20
583.937812
 30
0.0
 10
2098.437791
 20
553.937812
 30
0.0
 10
2128.437791
 20
553.937812
 30
0.0
  0
LWPOLYLINE
  5
130
100
AcDbEntity
  8
0
 62
7
100
AcDbPolyline
 90
3
 70
1
 10
2157.677654
 20
583.808995
 30
0.0
 10
2157.677654
 20
553.808995
 30
0.0
 10
2187.677654
 20
553.808995
 30
0.0
  0
LWPOLYLINE
  5
131
100
AcDbEntity
  8
0
 62
7
100
AcDbPolyline
 90
3
 70
1
 10
2087.651899
 20
553.570775
 30
0.0
 10
2087.651899
 20
583.570775
 30
0.0
 10
2057.651899
 20
583.570775
 30
0.0
  0
LWPOLYLINE
  5
132
100
AcDbEntity
  8
0
 62
7
100
AcDbPolyline
 90
3
 70
1
 10
2214.559749
 20
628.949073
 30
0.0
 10
2214.559749
 20
598.949073
 30
0.0
 10
2244.559749
 20
598.949073
 30
0.0
  0
LWPOLYLINE
  5
133
100
AcDbEntity
  8
0
 62
7
100
AcDbPolyline
 90
3
 70
1
 10
2266.136614
 20
627.864537
 30
0.0
 10
2266.136614
 20
597.864537
 30
0.0
 10
2296.136614
 20
597.864537
 30
0.0
  0
LWPOLYLINE
  5
134
100
AcDbEntity
  8
0
 62
7
100
AcDbPolyline
 90
3
 70
1
 10
2086.856543
 20
639.250767
 30
0.0
 10
2086.856543
 20
669.250767
 30
0.0
 10
2056.856543
 20
669.250767
 30
0.0
  0
LWPOLYLINE
  5
135
100
AcDbEntity
  8
0
 62
7
100
AcDbPolyline
 90
3
 70
1
 10
2156.548506
 20
670.931920
 30
0.0
 10
2156.548506
 20
640.931920
 30
0.0
 10
2186.548506
 20
640.931920
 30
0.0
  0
LWPOLYLINE
  5
136
100
AcDbEntity
  8
0
 62
7
100
AcDbPolyline
 90
3
 70
1
 10
2199.544859
 20
640.931859
 30
0.0
 10
2199.544859
 20
670.931859
 30
0.0
 10
2169.544859
 20
670.931859
 30
0.0
  0
LWPOLYLINE
  5
137
100
AcDbEntity
  8
0
 62
7
100
AcDbPolyline
 90
3
 70
1
 10
2267.214689
 20
670.931920
 30
0.0
 10
2267.214689
 20
640.931920
 30
0.0
 10
2297.214689
 20
640.931920
 30
0.0
  0
LWPOLYLINE
  5
138
100
AcDbEntity
  8
0
 62
7
100
AcDbPolyline
 90
3
 70
1
 10
2086.749983
 20
679.592167
 30
0.0
 10
2086.749983
 20
709.592167
 30
0.0
 10
2056.749983
 20
709.592167
 30
0.0
  0
LWPOLYLINE
  5
139
100
AcDbEntity
  8
0
 62
7
100
AcDbPolyline
 90
3
 70
1
 10
2382.795334
 20
373.775026
 30
0.0
 10
2382.795334
 20
343.775026
 30
0.0
 10
2412.795334
 20
343.775026
 30
0.0
  0
LWPOLYLINE
  5
13a
100
AcDbEntity
  8
0
 62
7
100
AcDbPolyline
 90
3
 70
1
 10
2308.123609
 20
553.647798
 30
0.0
 10
2308.123609
 20
583.647798
 30
0.0
 10
2278.123609
 20
583.647798
 30
0.0
  0
LWPOLYLINE
  5
13b
100
AcDbEntity
  8
0
 62
7
100
AcDbPolyline
 90
3
 70
1
 10
2257.421125
 20
552.442476
 30
0.0
 10
2257.421125
 20
582.442476
 30
0.0
 10
2227.421125
 20
582.442476
 30
0.0
  0
LWPOLYLINE
  5
13c
100
AcDbEntity
  8
0
 62
7
100
AcDbPolyline
 90
3
 70
1
 10
2265.079969
 20
583.575047
 30
0.0
 10
2265.079969
 20
553.575047
 30
0.0
 10
2295.079969
 20
553.575047
 30
0.0
  0
LWPOLYLINE
  5
13d
100
AcDbEntity
  8
0
 62
7
100
AcDbPolyline
 90
3
 70
1
 10
2257.524213
 20
597.212498
 30
0.0
 10
2257.524213
 20
627.212498
 30
0.0
 10
2227.524213
 20
627.212498
 30
0.0
  0
LWPOLYLINE
  5
13e
100
AcDbEntity
  8
0
 62
7
100
AcDbPolyline
 90
3
 70
1
 10
2319.215102
 20
626.763038
 30
0.0
 10
2319.215102
 20
596.763038
 30
0.0
 10
2349.215102
 20
596.763038
 30
0.0
  0
LWPOLYLINE
  5
13f
100
AcDbEntity
  8
0
 62
7
100
AcDbPolyline
 90
3
 70
1
 10
2142.858252
 20
640.016514
 30
0.0
 10
2142.858252
 20
670.016514
 30
0.0
 10
2112.858252
 20
670.016514
 30
0.0
  0
LWPOLYLINE
  5
140
100
AcDbEntity
  8
0
 62
7
100
AcDbPolyline
 90
3
 70
1
 10
2213.397757
 20
671.137303
 30
0.0
 10
2213.397757
 20
641.137303
 30
0.0
 10
2243.397757
 20
641.137303
 30
0.0
  0
LWPOLYLINE
  5
141
100
AcDbEntity
  8
0
 62
7
100
AcDbPolyline
 90
3
 70
1
 10
2256.315245
 20
641.229588
 30
0.0
 10
2256.315245
 20
671.229588
 30
0.0
 10
2226.315245
 20
671.229588
 30
0.0
  0
LWPOLYLINE
  5
142
100
AcDbEntity
  8
0
 62
7
100
AcDbPolyline
 90
3
 70
1
 10
2042.099363
 20
710.631382
 30
0.0
 10
2042.099363
 20
680.631382
 30
0.0
 10
2072.099363
 20
680.631382
 30
0.0
  0
LWPOLYLINE
  5
143
100
AcDbEntity
  8
0
 62
7
100
AcDbPolyline
 90
3
 70
1
 10
2098.826674
 20
710.357823
 30
0.0
 10
2098.826674
 20
680.357823
 30
0.0
 10
2128.826674
 20
680.357823
 30
0.0
  0
LWPOLYLINE
  5
144
100
AcDbEntity
  8
0
 62
7
100
AcDbPolyline
 90
3
 70
1
 10
2427.288711
 20
343.237769
 30
0.0
 10
2427.288711
 20
373.237769
 30
0.0
 10
2397.288711
 20
373.237769
 30
0.0
  0
LWPOLYLINE
  5
145
100
AcDbEntity
  8
0
 62
7
100
AcDbPolyline
 90
3
 70
1
 10
2380.886578
 20
416.709175
 30
0.0
 10
2380.886578
 20
386.709175
 30
0.0
 10
2410.886578
 20
386.709175
 30
0.0
  0
LWPOLYLINE
  5
146
100
AcDbEntity
  8
0
 62
7
100
AcDbPolyline
 90
3
 70
1
 10
2361.089674
 20
553.141395
 30
0.0
 10
2361.089674
 20
583.141395
 30
0.0
 10
2331.089674
 20
583.141395
 30
0.0
  0
LWPOLYLINE
  5
147
100
AcDbEntity
  8
0
 62
7
100
AcDbPolyline
 90
3
 70
1
 10
2319.110306
 20
583.563264
 30
0.0
 10
2319.110306
 20
553.563264
 30
0.0
 10
2349.110306
 20
553.563264
 30
0.0
  0
LWPOLYLINE
  5
148
100
AcDbEntity
  8
0
 62
7
100
AcDbPolyline
 90
3
 70
1
 10
2307.159350
 20
596.972081
 30
0.0
 10
2307.159350
 20
626.972081
 30
0.0
 10
2277.159350
 20
626.972081
 30
0.0
  0
LWPOLYLINE
  5
149
100
AcDbEntity
  8
0
 62
7
100
AcDbPolyline
 90
3
 70
1
 10
2359.810287
 20
596.299964
 30
0.0
 10
2359.810287
 20
626.299964
 30
0.0
 10
2329.810287
 20
626.299964
 30
0.0
  0
LWPOLYLINE
  5
14a
100
AcDbEntity
  8
0
 62
7
100
AcDbPolyline
 90
3
 70
1
 10
2371.418638
 20
626.163240
 30
0.0
 10
2371.418638
 20
596.163240
 30
0.0
 10
2401.418638
 20
596.163240
 30
0.0
  0
LWPOLYLINE
  5
14b
100
AcDbEntity
  8
0
 62
7
100
AcDbPolyline
 90
3
 70
1
 10
2097.990980
 20
669.948399
 30
0.0
 10
2097.990980
 20
639.948399
 30
0.0
 10
2127.990980
 20
639.948399
 30
0.0
  0
LWPOLYLINE
  5
14c
100
AcDbEntity
  8
0
 62
7
100
AcDbPolyline
 90
3
 70
1
 10
2358.614546
 20
640.061162
 30
0.0
 10
2358.614546
 20
670.061162
 30
0.0
 10
2328.614546
 20
670.061162
 30
0.0
  0
LWPOLYLINE
  5
14d
100
AcDbEntity
  8
0
 62
7
100
AcDbPolyline
 90
3
 70
1
 10
2156.618177
 20
710.276494
 30
0.0
 10
2156.618177
 20
680.276494
 30
0.0
 10
2186.618177
 20
680.276494
 30
0.0
  0
LWPOLYLINE
  5
14e
100
AcDbEntity
  8
0
 62
7
100
AcDbPolyline
 90
3
 70
1
 10
2142.725248
 20
680.016392
 30
0.0
 10
2142.725248
 20
710.016392
 30
0.0
 10
2112.725248
 20
710.016392
 30
0.0
  0
LWPOLYLINE
  5
14f
100
AcDbEntity
  8
0
 62
7
100
AcDbPolyline
 90
3
 70
1
 10
2415.066664
 20
553.016878
 30
0.0
 10
2415.066664
 20
583.016878
 30
0.0
 10
2385.066664
 20
583.016878
 30
0.0
  0
LWPOLYLINE
  5
150
100
AcDbEntity
  8
0
 62
7
100
AcDbPolyline
 90
3
 70
1
 10
2379.153822
 20
499.743565
 30
0.0
 10
2379.153822
 20
469.743565
 30
0.0
 10
2409.153822
 20
469.743565
 30
0.0
  0
LWPOLYLINE
  5
151
100
AcDbEntity
  8
0
 62
7
100
AcDbPolyline
 90
3
 70
1
 10
2422.323471
 20
387.927375
 30
0.0
 10
2422.323471
 20
417.927375
 30
0.0
 10
2392.323471
 20
417.927375
 30
0.0
  0
LWPOLYLINE
  5
152
100
AcDbEntity
  8
0
 62
7
100
AcDbPolyline
 90
3
 70
1
 10
2379.471815
 20
456.791173
 30
0.0
 10
2379.471815
 20
426.791173
 30
0.0
 10
2409.471815
 20
426.791173
 30
0.0
  0
LWPOLYLINE
  5
153
100
AcDbEntity
  8
0
 62
7
100
AcDbPolyline
 90
3
 70
1
 10
2043.424764
 20
627.953709
 30
0.0
 10
2043.424764
 20
597.953709
 30
0.0
 10
2073.424764
 20
597.953709
 30
0.0
  0
LWPOLYLINE
  5
154
100
AcDbEntity
  8
0
 62
7
100
AcDbPolyline
 90
3
 70
1
 10
2413.485853
 20
597.188450
 30
0.0
 10
2413.485853
 20
627.188450
 30
0.0
 10
2383.485853
 20
627.188450
 30
0.0
  0
LWPOLYLINE
  5
155
100
AcDbEntity
  8
0
 62
7
100
AcDbPolyline
 90
3
 70
1
 10
2042.944807
 20
669.293065
 30
0.0
 10
2042.944807
 20
639.293065
 30
0.0
 10
2072.944807
 20
639.293065
 30
0.0
  0
LWPOLYLINE
  5
156
100
AcDbEntity
  8
0
 62
7
100
AcDbPolyline
 90
3
 70
1
 10
2307.504774
 20
641.637730
 30
0.0
 10
2307.504774
 20
671.637730
 30
0.0
 10
2277.504774
 20
671.637730
 30
0.0
  0
LWPOLYLINE
  5
157
100
AcDbEntity
  8
0
 62
7
100
AcDbPolyline
 90
3
 70
1
 10
2318.471876
 20
670.338475
 30
0.0
 10
2318.471876
 20
640.338475
 30
0.0
 10
2348.471876
 20
640.338475
 30
0.0
  0
LWPOLYLINE
  5
158
100
AcDbEntity
  8
0
 62
7
100
AcDbPolyline
 90
3
 70
1
 10
2259.229200
 20
678.434849
 30
0.0
 10
2259.229200
 20
708.434849
 30
0.0
 10
2229.229200
 20
708.434849
 30
0.0
  0
LWPOLYLINE
  5
159
100
AcDbEntity
  8
0
 62
7
100
AcDbPolyline
 90
3
 70
1
 10
2213.889662
 20
709.436314
 30
0.0
 10
2213.889662
 20
679.436314
 30
0.0
 10
2243.889662
 20
679.436314
 30
0.0
  0
LWPOLYLINE
  5
15a
100
AcDbEntity
  8
0
 62
7
100
AcDbPolyline
 90
3
 70
1
 10
2415.698958
 20
508.034764
 30
0.0
 10
2415.698958
 20
538.034764
 30
0.0
 10
2385.698958
 20
538.034764
 30
0.0
  0
LWPOLYLINE
  5
15b
100
AcDbEntity
  8
0
 62
7
100
AcDbPolyline
 90
3
 70
1
 10
2372.939710
 20
583.482457
 30
0.0
 10
2372.939710
 20
553.482457
 30
0.0
 10
2402.939710
 20
553.482457
 30
0.0
  0
LWPOLYLINE
  5
15c
100
AcDbEntity
  8
0
 62
7
100
AcDbPolyline
 90
3
 70
1
 10
2419.982892
 20
429.060032
 30
0.0
 10
2419.982892
 20
459.060032
 30
0.0
 10
2389.982892
 20
459.060032
 30
0.0
  0
LWPOLYLINE
  5
15d
100
AcDbEntity
  8
0
 62
7
100
AcDbPolyline
 90
3
 70
1
 10
2043.904584
 20
583.969761
 30
0.0
 10
2043.904584
 20
553.969761
 30
0.0
 10
2073.904584
 20
553.969761
 30
0.0
  0
LWPOLYLINE
  5
15e
100
AcDbEntity
  8
0
 62
7
100
AcDbPolyline
 90
3
 70
1
 10
2087.359349
 20
597.431859
 30
0.0
 10
2087.359349
 20
627.431859
 30
0.0
 10
2057.359349
 20
627.431859
 30
0.0
  0
LWPOLYLINE
  5
15f
100
AcDbEntity
  8
0
 62
7
100
AcDbPolyline
 90
3
 70
1
 10
2098.029878
 20
628.087620
 30
0.0
 10
2098.029878
 20
598.087620
 30
0.0
 10
2128.029878
 20
598.087620
 30
0.0
  0
LWPOLYLINE
  5
160
100
AcDbEntity
  8
0
 62
7
100
AcDbPolyline
 90
3
 70
1
 10
2144.086776
 20
598.286351
 30
0.0
 10
2144.086776
 20
628.286351
 30
0.0
 10
2114.086776
 20
628.286351
 30
0.0
  0
LWPOLYLINE
  5
161
100
AcDbEntity
  8
0
 62
7
100
AcDbPolyline
 90
3
 70
1
 10
2155.234463
 20
629.465248
 30
0.0
 10
2155.234463
 20
599.465248
 30
0.0
 10
2185.234463
 20
599.465248
 30
0.0
  0
LWPOLYLINE
  5
162
100
AcDbEntity
  8
0
 62
7
100
AcDbPolyline
 90
3
 70
1
 10
2200.168760
 20
679.864842
 30
0.0
 10
2200.168760
 20
709.864842
 30
0.0
 10
2170.168760
 20
709.864842
 30
0.0
  0
LWPOLYLINE
  5
163
100
AcDbEntity
  8
0
 62
7
100
AcDbPolyline
 90
3
 70
1
 10
2200.130200
 20
599.158116
 30
0.0
 10
2200.130200
 20
629.158116
 30
0.0
 10
2170.130200
 20
629.158116
 30
0.0
  0
LWPOLYLINE
  5
164
100
AcDbEntity
  8
0
 62
7
100
AcDbPolyline
 90
3
 70
1
 10
2270.370405
 20
709.266087
 30
0.0
 10
2270.370405
 20
679.266087
 30
0.0
 10
2300.370405
 20
679.266087
 30
0.0
  0
LWPOLYLINE
  5
165
100
AcDbEntity
  8
0
 62
7
100
AcDbPolyline
 90
3
 70
1
 10
2378.098127
 20
537.203770
 30
0.0
 10
2378.098127
 20
507.203770
 30
0.0
 10
2408.098127
 20
507.203770
 30
0.0
  0
LWPOLYLINE
  5
166
100
AcDbEntity
  8
0
 62
7
100
AcDbPolyline
 90
3
 70
1
 10
2418.372237
 20
468.406407
 30
0.0
 10
2418.372237
 20
498.406407
 30
0.0
 10
2388.372237
 20
498.406407
 30
0.0
  0
LWPOLYLINE
  5
167
100
AcDbEntity
  8
0
 62
7
100
AcDbPolyline
 90
4
 70
1
 10
2033.080000
 20
813.081395
 30
0.0
 10
25.080000
 20
813.081395
 30
0.0
 10
25.080000
 20
713.081395
 30
0.0
 10
2033.080000
 20
713.081395
 30
0.0
  0
LWPOLYLINE
  5
168
100
AcDbEntity
  8
0
 62
7
100
AcDbPolyline
 90
4
 70
1
 10
2033.080000
 20
593.081395
 30
0.0
 10
25.080000
 20
593.081395
 30
0.0
 10
25.080000
 20
493.081395
 30
0.0
 10
2033.080000
 20
493.081395
 30
0.0
  0
LWPOLYLINE
  5
169
100
AcDbEntity
  8
0
 62
7
100
AcDbPolyline
 90
4
 70
1
 10
2033.080000
 20
703.081395
 30
0.0
 10
25.080000
 20
703.081395
 30
0.0
 10
25.080000
 20
603.081395
 30
0.0
 10
2033.080000
 20
603.081395
 30
0.0
  0
LWPOLYLINE
  5
16a
100
AcDbEntity
  8
0
 62
7
100
AcDbPolyline
 90
2
 70
0
 10
25.080000
 20
463.081395
 30
0.0
 10
25.080000
 20
443.081395
 30
0.0
  0
LWPOLYLINE
  5
16b
100
AcDbEntity
  8
0
 62
7
100
AcDbPolyline
 90
3
 70
0
 10
25.080000
 20
463.081395
 30
0.0
 10
29.080000
 20
463.081395
 30
0.0
 10
29.080000
 20
483.081395
 30
0.0
  0
LWPOLYLINE
  5
16c
100
AcDbEntity
  8
0
 62
7
100
AcDbPolyline
 90
2
 70
0
 10
356.420000
 20
483.081395
 30
0.0
 10
29.080000
 20
483.081395
 30
0.0
  0
LWPOLYLINE
  5
16d
100
AcDbEntity
  8
0
 62
7
100
AcDbPolyline
 90
2
 70
0
 10
356.420000
 20
463.081395
 30
0.0
 10
356.420000
 20
483.081395
 30
0.0
  0
LWPOLYLINE
  5
16e
100
AcDbEntity
  8
0
 62
7
100
AcDbPolyline
 90
2
 70
0
 10
360.420000
 20
463.081395
 30
0.0
 10
356.420000
 20
463.081395
 30
0.0
  0
LWPOLYLINE
  5
16f
100
AcDbEntity
  8
0
 62
7
100
AcDbPolyline
 90
2
 70
0
 10
360.420000
 20
483.081395
 30
0.0
 10
360.420000
 20
463.081395
 30
0.0
  0
LWPOLYLINE
  5
170
100
AcDbEntity
  8
0
 62
7
100
AcDbPolyline
 90
2
 70
0
 10
689.750000
 20
483.081395
 30
0.0
 10
360.420000
 20
483.081395
 30
0.0
  0
LWPOLYLINE
  5
171
100
AcDbEntity
  8
0
 62
7
100
AcDbPolyline
 90
2
 70
0
 10
689.750000
 20
463.081395
 30
0.0
 10
689.750000
 20
483.081395
 30
0.0
  0
LWPOLYLINE
  5
172
100
AcDbEntity
  8
0
 62
7
100
AcDbPolyline
 90
2
 70
0
 10
693.750000
 20
463.081395
 30
0.0
 10
689.750000
 20
463.081395
 30
0.0
  0
LWPOLYLINE
  5
173
100
AcDbEntity
  8
0
 62
7
100
AcDbPolyline
 90
2
 70
0
 10
693.750000
 20
483.081395
 30
0.0
 10
693.750000
 20
463.081395
 30
0.0
  0
LWPOLYLINE
  5
174
100
AcDbEntity
  8
0
 62
7
100
AcDbPolyline
 90
2
 70
0
 10
1023.080000
 20
483.081395
 30
0.0
 10
693.750000
 20
483.081395
 30
0.0
  0
LWPOLYLINE
  5
175
100
AcDbEntity
  8
0
 62
7
100
AcDbPolyline
 90
4
 70
0
 10
1023.080000
 20
483.081395
 30
0.0
 10
1023.080000
 20
463.081395
 30
0.0
 10
1027.080000
 20
463.081395
 30
0.0
 10
1027.080000
 20
483.081395
 30
0.0
  0
LWPOLYLINE
  5
176
100
AcDbEntity
  8
0
 62
7
100
AcDbPolyline
 90
2
 70
0
 10
1356.410000
 20
483.081395
 30
0.0
 10
1027.080000
 20
483.081395
 30
0.0
  0
LWPOLYLINE
  5
177
100
AcDbEntity
  8
0
 62
7
100
AcDbPolyline
 90
4
 70
0
 10
1356.410000
 20
483.081395
 30
0.0
 10
1356.410000
 20
463.081395
 30
0.0
 10
1360.410000
 20
463.081395
 30
0.0
 10
1360.410000
 20
483.081395
 30
0.0
  0
LWPOLYLINE
  5
178
100
AcDbEntity
  8
0
 62
7
100
AcDbPolyline
 90
2
 70
0
 10
1689.740000
 20
483.081395
 30
0.0
 10
1360.410000
 20
483.081395
 30
0.0
  0
LWPOLYLINE
  5
179
100
AcDbEntity
  8
0
 62
7
100
AcDbPolyline
 90
4
 70
0
 10
1689.740000
 20
483.081395
 30
0.0
 10
1689.740000
 20
463.081395
 30
0.0
 10
1693.740000
 20
463.081395
 30
0.0
 10
1693.740000
 20
483.081395
 30
0.0
  0
LWPOLYLINE
  5
17a
100
AcDbEntity
  8
0
 62
7
100
AcDbPolyline
 90
2
 70
0
 10
2021.080000
 20
483.081395
 30
0.0
 10
1693.740000
 20
483.081395
 30
0.0
  0
LWPOLYLINE
  5
17b
100
AcDbEntity
  8
0
 62
7
100
AcDbPolyline
 90
3
 70
0
 10
2021.080000
 20
483.081395
 30
0.0
 10
2021.080000
 20
463.081395
 30
0.0
 10
2025.080000
 20
463.081395
 30
0.0
  0
LWPOLYLINE
  5
17c
100
AcDbEntity
  8
0
 62
7
100
AcDbPolyline
 90
2
 70
0
 10
2025.080000
 20
443.081395
 30
0.0
 10
2025.080000
 20
463.081395
 30
0.0
  0
LWPOLYLINE
  5
17d
100
AcDbEntity
  8
0
 62
7
100
AcDbPolyline
 90
2
 70
0
 10
2021.080000
 20
443.081395
 30
0.0
 10
2025.080000
 20
443.081395
 30
0.0
  0
LWPOLYLINE
  5
17e
100
AcDbEntity
  8
0
 62
7
100
AcDbPolyline
 90
2
 70
0
 10
2021.080000
 20
423.081395
 30
0.0
 10
2021.080000
 20
443.081395
 30
0.0
  0
LWPOLYLINE
  5
17f
100
AcDbEntity
  8
0
 62
7
100
AcDbPolyline
 90
2
 70
0
 10
2025.080000
 20
423.081395
 30
0.0
 10
2021.080000
 20
423.081395
 30
0.0
  0
LWPOLYLINE
  5
180
100
AcDbEntity
  8
0
 62
7
100
AcDbPolyline
 90
2
 70
0
 10
2025.080000
 20
403.081395
 30
0.0
 10
2025.080000
 20
423.081395
 30
0.0
  0
LWPOLYLINE
  5
181
100
AcDbEntity
  8
0
 62
7
100
AcDbPolyline
 90
2
 70
0
 10
2021.080000
 20
403.081395
 30
0.0
 10
2025.080000
 20
403.081395
 30
0.0
  0
LWPOLYLINE
  5
182
100
AcDbEntity
  8
0
 62
7
100
AcDbPolyline
 90
2
 70
0
 10
2021.080000
 20
383.081395
 30
0.0
 10
2021.080000
 20
403.081395
 30
0.0
  0
LWPOLYLINE
  5
183
100
AcDbEntity
  8
0
 62
7
100
AcDbPolyline
 90
2
 70
0
 10
1693.740000
 20
383.081395
 30
0.0
 10
2021.080000
 20
383.081395
 30
0.0
  0
LWPOLYLINE
  5
184
100
AcDbEntity
  8
0
 62
7
100
AcDbPolyline
 90
4
 70
0
 10
1693.740000
 20
383.081395
 30
0.0
 10
1693.740000
 20
403.081395
 30
0.0
 10
1689.740000
 20
403.081395
 30
0.0
 10
1689.740000
 20
383.081395
 30
0.0
  0
LWPOLYLINE
  5
185
100
AcDbEntity
  8
0
 62
7
100
AcDbPolyline
 90
2
 70
0
 10
1360.410000
 20
383.081395
 30
0.0
 10
1689.740000
 20
383.081395
 30
0.0
  0
LWPOLYLINE
  5
186
100
AcDbEntity
  8
0
 62
7
100
AcDbPolyline
 90
4
 70
0
 10
1360.410000
 20
383.081395
 30
0.0
 10
1360.410000
 20
403.081395
 30
0.0
 10
1356.410000
 20
403.081395
 30
0.0
 10
1356.410000
 20
383.081395
 30
0.0
  0
LWPOLYLINE
  5
187
100
AcDbEntity
  8
0
 62
7
100
AcDbPolyline
 90
2
 70
0
 10
1027.080000
 20
383.081395
 30
0.0
 10
1356.410000
 20
383.081395
 30
0.0
  0
LWPOLYLINE
  5
188
100
AcDbEntity
  8
0
 62
7
100
AcDbPolyline
 90
4
 70
0
 10
1027.080000
 20
383.081395
 30
0.0
 10
1027.080000
 20
403.081395
 30
0.0
 10
1023.080000
 20
403.081395
 30
0.0
 10
1023.080000
 20
383.081395
 30
0.0
  0
LWPOLYLINE
  5
189
100
AcDbEntity
  8
0
 62
7
100
AcDbPolyline
 90
2
 70
0
 10
693.750000
 20
383.081395
 30
0.0
 10
1023.080000
 20
383.081395
 30
0.0
  0
LWPOLYLINE
  5
18a
100
AcDbEntity
  8
0
 62
7
100
AcDbPolyline
 90
4
 70
0
 10
693.750000
 20
383.081395
 30
0.0
 10
693.750000
 20
403.081395
 30
0.0
 10
689.750000
 20
403.081395
 30
0.0
 10
689.750000
 20
383.081395
 30
0.0
  0
LWPOLYLINE
  5
18b
100
AcDbEntity
  8
0
 62
7
100
AcDbPolyline
 90
2
 70
0
 10
360.420000
 20
383.081395
 30
0.0
 10
689.750000
 20
383.081395
 30
0.0
  0
LWPOLYLINE
  5
18c
100
AcDbEntity
  8
0
 62
7
100
AcDbPolyline
 90
4
 70
0
 10
360.420000
 20
383.081395
 30
0.0
 10
360.420000
 20
403.081395
 30
0.0
 10
356.420000
 20
403.081395
 30
0.0
 10
356.420000
 20
383.081395
 30
0.0
  0
LWPOLYLINE
  5
18d
100
AcDbEntity
  8
0
 62
7
100
AcDbPolyline
 90
2
 70
0
 10
29.080000
 20
383.081395
 30
0.0
 10
356.420000
 20
383.081395
 30
0.0
  0
LWPOLYLINE
  5
18e
100
AcDbEntity
  8
0
 62
7
100
AcDbPolyline
 90
3
 70
0
 10
29.080000
 20
383.081395
 30
0.0
 10
29.080000
 20
403.081395
 30
0.0
 10
25.080000
 20
403.081395
 30
0.0
  0
LWPOLYLINE
  5
18f
100
AcDbEntity
  8
0
 62
7
100
AcDbPolyline
 90
2
 70
0
 10
25.080000
 20
423.081395
 30
0.0
 10
25.080000
 20
403.081395
 30
0.0
  0
SPLINE
  5
190
100
AcDbEntity
  8
0
 62
7
100
AcDbSpline
 70
8
 71
3
 72
8
 73
4
 74
0
 40
0
 40
0
 40
0
 40
0
 40
1
 40
1
 40
1
 40
1
 10
108.450000
 20
408.081395
 30
0.0
 10
98.338444
 20
408.081395
 30
0.0
 10
89.222537
 20
414.172449
 30
0.0
 10
85.353012
 20
423.514309
 30
0.0
  0
SPLINE
  5
191
100
AcDbEntity
  8
0
 62
7
100
AcDbSpline
 70
8
 71
3
 72
8
 73
4
 74
0
 40
0
 40
0
 40
0
 40
0
 40
1
 40
1
 40
1
 40
1
 10
85.353012
 20
423.514309
 30
0.0
 10
81.483487
 20
432.856169
 30
0.0
 10
83.622381
 20
443.609114
 30
0.0
 10
90.772330
 20
450.759064
 30
0.0
  0
SPLINE
  5
192
100
AcDbEntity
  8
0
 62
7
100
AcDbSpline
 70
8
 71
3
 72
8
 73
4
 74
0
 40
0
 40
0
 40
0
 40
0
 40
1
 40
1
 40
1
 40
1
 10
90.772330
 20
450.759064
 30
0.0
 10
97.922280
 20
457.909014
 30
0.0
 10
108.675226
 20
460.047908
 30
0.0
 10
118.017086
 20
456.178383
 30
0.0
  0
SPLINE
  5
193
100
AcDbEntity
  8
0
 62
7
100
AcDbSpline
 70
8
 71
3
 72
8
 73
4
 74
0
 40
0
 40
0
 40
0
 40
0
 40
1
 40
1
 40
1
 40
1
 10
118.017086
 20
456.178383
 30
0.0
 10
127.358946
 20
452.308858
 30
0.0
 10
133.450000
 20
443.192951
 30
0.0
 10
133.450000
 20
433.081395
 30
0.0
  0
SPLINE
  5
194
100
AcDbEntity
  8
0
 62
7
100
AcDbSpline
 70
8
 71
3
 72
8
 73
4
 74
0
 40
0
 40
0
 40
0
 40
0
 40
1
 40
1
 40
1
 40
1
 10
133.450000
 20
433.081395
 30
0.0
 10
133.450000
 20
426.450982
 30
0.0
 10
130.816079
 20
420.092135
 30
0.0
 10
126.127670
 20
415.403725
 30
0.0
  0
SPLINE
  5
195
100
AcDbEntity
  8
0
 62
7
100
AcDbSpline
 70
8
 71
3
 72
8
 73
4
 74
0
 40
0
 40
0
 40
0
 40
0
 40
1
 40
1
 40
1
 40
1
 10
126.127670
 20
415.403725
 30
0.0
 10
121.439260
 20
410.715316
 30
0.0
 10
115.080412
 20
408.081395
 30
0.0
 10
108.450000
 20
408.081395
 30
0.0
  0
LWPOLYLINE
  5
196
100
AcDbEntity
  8
0
 62
7
100
AcDbPolyline
 90
4
 70
0
 10
25.080000
 20
423.081395
 30
0.0
 10
29.080000
 20
423.081395
 30
0.0
 10
29.080000
 20
443.081395
 30
0.0
 10
25.080000
 20
443.081395
 30
0.0
  0
SPLINE
  5
197
100
AcDbEntity
  8
0
 62
7
100
AcDbSpline
 70
8
 71
3
 72
8
 73
4
 74
0
 40
0
 40
0
 40
0
 40
0
 40
1
 40
1
 40
1
 40
1
 10
191.780000
 20
408.081395
 30
0.0
 10
181.668444
 20
408.081395
 30
0.0
 10
172.552537
 20
414.172449
 30
0.0
 10
168.683012
 20
423.514309
 30
0.0
  0
SPLINE
  5
198
100
AcDbEntity
  8
0
 62
7
100
AcDbSpline
 70
8
 71
3
 72
8
 73
4
 74
0
 40
0
 40
0
 40
0
 40
0
 40
1
 40
1
 40
1
 40
1
 10
168.683012
 20
423.514309
 30
0.0
 10
164.813487
 20
432.856169
 30
0.0
 10
166.952381
 20
443.609114
 30
0.0
 10
174.102330
 20
450.759064
 30
0.0
  0
SPLINE
  5
199
100
AcDbEntity
  8
0
 62
7
100
AcDbSpline
 70
8
 71
3
 72
8
 73
4
 74
0
 40
0
 40
0
 40
0
 40
0
 40
1
 40
1
 40
1
 40
1
 10
174.102330
 20
450.759064
 30
0.0
 10
181.252280
 20
457.909014
 30
0.0
 10
192.005226
 20
460.047908
 30
0.0
 10
201.347086
 20
456.178383
 30
0.0
  0
SPLINE
  5
19a
100
AcDbEntity
  8
0
 62
7
100
AcDbSpline
 70
8
 71
3
 72
8
 73
4
 74
0
 40
0
 40
0
 40
0
 40
0
 40
1
 40
1
 40
1
 40
1
 10
201.347086
 20
456.178383
 30
0.0
 10
210.688946
 20
452.308858
 30
0.0
 10
216.780000
 20
443.192951
 30
0.0
 10
216.780000
 20
433.081395
 30
0.0
  0
SPLINE
  5
19b
100
AcDbEntity
  8
0
 62
7
100
AcDbSpline
 70
8
 71
3
 72
8
 73
4
 74
0
 40
0
 40
0
 40
0
 40
0
 40
1
 40
1
 40
1
 40
1
 10
216.780000
 20
433.081395
 30
0.0
 10
216.780000
 20
426.450982
 30
0.0
 10
214.146079
 20
420.092135
 30
0.0
 10
209.457670
 20
415.403725
 30
0.0
  0
SPLINE
  5
19c
100
AcDbEntity
  8
0
 62
7
100
AcDbSpline
 70
8
 71
3
 72
8
 73
4
 74
0
 40
0
 40
0
 40
0
 40
0
 40
1
 40
1
 40
1
 40
1
 10
209.457670
 20
415.403725
 30
0.0
 10
204.769260
 20
410.715316
 30
0.0
 10
198.410412
 20
408.081395
 30
0.0
 10
191.780000
 20
408.081395
 30
0.0
  0
LWPOLYLINE
  5
19d
100
AcDbEntity
  8
0
 62
7
100
AcDbPolyline
 90
1
 70
1
 10
108.450000
 20
408.081395
 30
0.0
  0
SPLINE
  5
19e
100
AcDbEntity
  8
0
 62
7
100
AcDbSpline
 70
8
 71
3
 72
8
 73
4
 74
0
 40
0
 40
0
 40
0
 40
0
 40
1
 40
1
 40
1
 40
1
 10
275.110000
 20
408.081395
 30
0.0
 10
264.998444
 20
408.081395
 30
0.0
 10
255.882537
 20
414.172449
 30
0.0
 10
252.013012
 20
423.514309
 30
0.0
  0
SPLINE
  5
19f
100
AcDbEntity
  8
0
 62
7
100
AcDbSpline
 70
8
 71
3
 72
8
 73
4
 74
0
 40
0
 40
0
 40
0
 40
0
 40
1
 40
1
 40
1
 40
1
 10
252.013012
 20
423.514309
 30
0.0
 10
248.143487
 20
432.856169
 30
0.0
 10
250.282381
 20
443.609114
 30
0.0
 10
257.432330
 20
450.759064
 30
0.0
  0
SPLINE
  5
1a0
100
AcDbEntity
  8
0
 62
7
100
AcDbSpline
 70
8
 71
3
 72
8
 73
4
 74
0
 40
0
 40
0
 40
0
 40
0
 40
1
 40
1
 40
1
 40
1
 10
257.432330
 20
450.759064
 30
0.0
 10
264.582280
 20
457.909014
 30
0.0
 10
275.335226
 20
460.047908
 30
0.0
 10
284.677086
 20
456.178383
 30
0.0
  0
SPLINE
  5
1a1
100
AcDbEntity
  8
0
 62
7
100
AcDbSpline
 70
8
 71
3
 72
8
 73
4
 74
0
 40
0
 40
0
 40
0
 40
0
 40
1
 40
1
 40
1
 40
1
 10
284.677086
 20
456.178383
 30
0.0
 10
294.018946
 20
452.308858
 30
0.0
 10
300.110000
 20
443.192951
 30
0.0
 10
300.110000
 20
433.081395
 30
0.0
  0
SPLINE
  5
1a2
100
AcDbEntity
  8
0
 62
7
100
AcDbSpline
 70
8
 71
3
 72
8
 73
4
 74
0
 40
0
 40
0
 40
0
 40
0
 40
1
 40
1
 40
1
 40
1
 10
300.110000
 20
433.081395
 30
0.0
 10
300.110000
 20
426.450982
 30
0.0
 10
297.476079
 20
420.092135
 30
0.0
 10
292.787670
 20
415.403725
 30
0.0
  0
SPLINE
  5
1a3
100
AcDbEntity
  8
0
 62
7
100
AcDbSpline
 70
8
 71
3
 72
8
 73
4
 74
0
 40
0
 40
0
 40
0
 40
0
 40
1
 40
1
 40
1
 40
1
 10
292.787670
 20
415.403725
 30
0.0
 10
288.099260
 20
410.715316
 30
0.0
 10
281.740412
 20
408.081395
 30
0.0
 10
275.110000
 20
408.081395
 30
0.0
  0
LWPOLYLINE
  5
1a4
100
AcDbEntity
  8
0
 62
7
100
AcDbPolyline
 90
1
 70
1
 10
191.780000
 20
408.081395
 30
0.0
  0
SPLINE
  5
1a5
100
AcDbEntity
  8
0
 62
7
100
AcDbSpline
 70
8
 71
3
 72
8
 73
4
 74
0
 40
0
 40
0
 40
0
 40
0
 40
1
 40
1
 40
1
 40
1
 10
441.770000
 20
408.081395
 30
0.0
 10
431.658444
 20
408.081395
 30
0.0
 10
422.542537
 20
414.172449
 30
0.0
 10
418.673012
 20
423.514309
 30
0.0
  0
SPLINE
  5
1a6
100
AcDbEntity
  8
0
 62
7
100
AcDbSpline
 70
8
 71
3
 72
8
 73
4
 74
0
 40
0
 40
0
 40
0
 40
0
 40
1
 40
1
 40
1
 40
1
 10
418.673012
 20
423.514309
 30
0.0
 10
414.803487
 20
432.856169
 30
0.0
 10
416.942381
 20
443.609114
 30
0.0
 10
424.092330
 20
450.759064
 30
0.0
  0
SPLINE
  5
1a7
100
AcDbEntity
  8
0
 62
7
100
AcDbSpline
 70
8
 71
3
 72
8
 73
4
 74
0
 40
0
 40
0
 40
0
 40
0
 40
1
 40
1
 40
1
 40
1
 10
424.092330
 20
450.759064
 30
0.0
 10
431.242280
 20
457.909014
 30
0.0
 10
441.995226
 20
460.047908
 30
0.0
 10
451.337086
 20
456.178383
 30
0.0
  0
SPLINE
  5
1a8
100
AcDbEntity
  8
0
 62
7
100
AcDbSpline
 70
8
 71
3
 72
8
 73
4
 74
0
 40
0
 40
0
 40
0
 40
0
 40
1
 40
1
 40
1
 40
1
 10
451.337086
 20
456.178383
 30
0.0
 10
460.678946
 20
452.308858
 30
0.0
 10
466.770000
 20
443.192951
 30
0.0
 10
466.770000
 20
433.081395
 30
0.0
  0
SPLINE
  5
1a9
100
AcDbEntity
  8
0
 62
7
100
AcDbSpline
 70
8
 71
3
 72
8
 73
4
 74
0
 40
0
 40
0
 40
0
 40
0
 40
1
 40
1
 40
1
 40
1
 10
466.770000
 20
433.081395
 30
0.0
 10
466.770000
 20
426.450982
 30
0.0
 10
464.136079
 20
420.092135
 30
0.0
 10
459.447670
 20
415.403725
 30
0.0
  0
SPLINE
  5
1aa
100
AcDbEntity
  8
0
 62
7
100
AcDbSpline
 70
8
 71
3
 72
8
 73
4
 74
0
 40
0
 40
0
 40
0
 40
0
 40
1
 40
1
 40
1
 40
1
 10
459.447670
 20
415.403725
 30
0.0
 10
454.759260
 20
410.715316
 30
0.0
 10
448.400412
 20
408.081395
 30
0.0
 10
441.770000
 20
408.081395
 30
0.0
  0
LWPOLYLINE
  5
1ab
100
AcDbEntity
  8
0
 62
7
100
AcDbPolyline
 90
1
 70
1
 10
275.110000
 20
408.081395
 30
0.0
  0
SPLINE
  5
1ac
100
AcDbEntity
  8
0
 62
7
100
AcDbSpline
 70
8
 71
3
 72
8
 73
4
 74
0
 40
0
 40
0
 40
0
 40
0
 40
1
 40
1
 40
1
 40
1
 10
525.100000
 20
408.081395
 30
0.0
 10
514.988444
 20
408.081395
 30
0.0
 10
505.872537
 20
414.172449
 30
0.0
 10
502.003012
 20
423.514309
 30
0.0
  0
SPLINE
  5
1ad
100
AcDbEntity
  8
0
 62
7
100
AcDbSpline
 70
8
 71
3
 72
8
 73
4
 74
0
 40
0
 40
0
 40
0
 40
0
 40
1
 40
1
 40
1
 40
1
 10
502.003012
 20
423.514309
 30
0.0
 10
498.133487
 20
432.856169
 30
0.0
 10
500.272381
 20
443.609114
 30
0.0
 10
507.422330
 20
450.759064
 30
0.0
  0
SPLINE
  5
1ae
100
AcDbEntity
  8
0
 62
7
100
AcDbSpline
 70
8
 71
3
 72
8
 73
4
 74
0
 40
0
 40
0
 40
0
 40
0
 40
1
 40
1
 40
1
 40
1
 10
507.422330
 20
450.759064
 30
0.0
 10
514.572280
 20
457.909014
 30
0.0
 10
525.325226
 20
460.047908
 30
0.0
 10
534.667086
 20
456.178383
 30
0.0
  0
SPLINE
  5
1af
100
AcDbEntity
  8
0
 62
7
100
AcDbSpline
 70
8
 71
3
 72
8
 73
4
 74
0
 40
0
 40
0
 40
0
 40
0
 40
1
 40
1
 40
1
 40
1
 10
534.667086
 20
456.178383
 30
0.0
 10
544.008946
 20
452.308858
 30
0.0
 10
550.100000
 20
443.192951
 30
0.0
 10
550.100000
 20
433.081395
 30
0.0
  0
SPLINE
  5
1b0
100
AcDbEntity
  8
0
 62
7
100
AcDbSpline
 70
8
 71
3
 72
8
 73
4
 74
0
 40
0
 40
0
 40
0
 40
0
 40
1
 40
1
 40
1
 40
1
 10
550.100000
 20
433.081395
 30
0.0
 10
550.100000
 20
426.450982
 30
0.0
 10
547.466079
 20
420.092135
 30
0.0
 10
542.777670
 20
415.403725
 30
0.0
  0
SPLINE
  5
1b1
100
AcDbEntity
  8
0
 62
7
100
AcDbSpline
 70
8
 71
3
 72
8
 73
4
 74
0
 40
0
 40
0
 40
0
 40
0
 40
1
 40
1
 40
1
 40
1
 10
542.777670
 20
415.403725
 30
0.0
 10
538.089260
 20
410.715316
 30
0.0
 10
531.730412
 20
408.081395
 30
0.0
 10
525.100000
 20
408.081395
 30
0.0
  0
LWPOLYLINE
  5
1b2
100
AcDbEntity
  8
0
 62
7
100
AcDbPolyline
 90
1
 70
1
 10
441.770000
 20
408.081395
 30
0.0
  0
SPLINE
  5
1b3
100
AcDbEntity
  8
0
 62
7
100
AcDbSpline
 70
8
 71
3
 72
8
 73
4
 74
0
 40
0
 40
0
 40
0
 40
0
 40
1
 40
1
 40
1
 40
1
 10
608.430000
 20
408.081395
 30
0.0
 10
598.318444
 20
408.081395
 30
0.0
 10
589.202537
 20
414.172449
 30
0.0
 10
585.333012
 20
423.514309
 30
0.0
  0
SPLINE
  5
1b4
100
AcDbEntity
  8
0
 62
7
100
AcDbSpline
 70
8
 71
3
 72
8
 73
4
 74
0
 40
0
 40
0
 40
0
 40
0
 40
1
 40
1
 40
1
 40
1
 10
585.333012
 20
423.514309
 30
0.0
 10
581.463487
 20
432.856169
 30
0.0
 10
583.602381
 20
443.609114
 30
0.0
 10
590.752330
 20
450.759064
 30
0.0
  0
SPLINE
  5
1b5
100
AcDbEntity
  8
0
 62
7
100
AcDbSpline
 70
8
 71
3
 72
8
 73
4
 74
0
 40
0
 40
0
 40
0
 40
0
 40
1
 40
1
 40
1
 40
1
 10
590.752330
 20
450.759064
 30
0.0
 10
597.902280
 20
457.909014
 30
0.0
 10
608.655226
 20
460.047908
 30
0.0
 10
617.997086
 20
456.178383
 30
0.0
  0
SPLINE
  5
1b6
100
AcDbEntity
  8
0
 62
7
100
AcDbSpline
 70
8
 71
3
 72
8
 73
4
 74
0
 40
0
 40
0
 40
0
 40
0
 40
1
 40
1
 40
1
 40
1
 10
617.997086
 20
456.178383
 30
0.0
 10
627.338946
 20
452.308858
 30
0.0
 10
633.430000
 20
443.192951
 30
0.0
 10
633.430000
 20
433.081395
 30
0.0
  0
SPLINE
  5
1b7
100
AcDbEntity
  8
0
 62
7
100
AcDbSpline
 70
8
 71
3
 72
8
 73
4
 74
0
 40
0
 40
0
 40
0
 40
0
 40
1
 40
1
 40
1
 40
1
 10
633.430000
 20
433.081395
 30
0.0
 10
633.430000
 20
426.450982
 30
0.0
 10
630.796079
 20
420.092135
 30
0.0
 10
626.107670
 20
415.403725
 30
0.0
  0
SPLINE
  5
1b8
100
AcDbEntity
  8
0
 62
7
100
AcDbSpline
 70
8
 71
3
 72
8
 73
4
 74
0
 40
0
 40
0
 40
0
 40
0
 40
1
 40
1
 40
1
 40
1
 10
626.107670
 20
415.403725
 30
0.0
 10
621.419260
 20
410.715316
 30
0.0
 10
615.060412
 20
408.081395
 30
0.0
 10
608.430000
 20
408.081395
 30
0.0
  0
LWPOLYLINE
  5
1b9
100
AcDbEntity
  8
0
 62
7
100
AcDbPolyline
 90
1
 70
1
 10
525.100000
 20
408.081395
 30
0.0
  0
SPLINE
  5
1ba
100
AcDbEntity
  8
0
 62
7
100
AcDbSpline
 70
8
 71
3
 72
8
 73
4
 74
0
 40
0
 40
0
 40
0
 40
0
 40
1
 40
1
 40
1
 40
1
 10
775.090000
 20
408.081395
 30
0.0
 10
764.978444
 20
408.081395
 30
0.0
 10
755.862537
 20
414.172449
 30
0.0
 10
751.993012
 20
423.514309
 30
0.0
  0
SPLINE
  5
1bb
100
AcDbEntity
  8
0
 62
7
100
AcDbSpline
 70
8
 71
3
 72
8
 73
4
 74
0
 40
0
 40
0
 40
0
 40
0
 40
1
 40
1
 40
1
 40
1
 10
751.993012
 20
423.514309
 30
0.0
 10
748.123487
 20
432.856169
 30
0.0
 10
750.262381
 20
443.609114
 30
0.0
 10
757.412330
 20
450.759064
 30
0.0
  0
SPLINE
  5
1bc
100
AcDbEntity
  8
0
 62
7
100
AcDbSpline
 70
8
 71
3
 72
8
 73
4
 74
0
 40
0
 40
0
 40
0
 40
0
 40
1
 40
1
 40
1
 40
1
 10
757.412330
 20
450.759064
 30
0.0
 10
764.562280
 20
457.909014
 30
0.0
 10
775.315226
 20
460.047908
 30
0.0
 10
784.657086
 20
456.178383
 30
0.0
  0
SPLINE
  5
1bd
100
AcDbEntity
  8
0
 62
7
100
AcDbSpline
 70
8
 71
3
 72
8
 73
4
 74
0
 40
0
 40
0
 40
0
 40
0
 40
1
 40
1
 40
1
 40
1
 10
784.657086
 20
456.178383
 30
0.0
 10
793.998946
 20
452.308858
 30
0.0
 10
800.090000
 20
443.192951
 30
0.0
 10
800.090000
 20
433.081395
 30
0.0
  0
SPLINE
  5
1be
100
AcDbEntity
  8
0
 62
7
100
AcDbSpline
 70
8
 71
3
 72
8
 73
4
 74
0
 40
0
 40
0
 40
0
 40
0
 40
1
 40
1
 40
1
 40
1
 10
800.090000
 20
433.081395
 30
0.0
 10
800.090000
 20
426.450982
 30
0.0
 10
797.456079
 20
420.092135
 30
0.0
 10
792.767670
 20
415.403725
 30
0.0
  0
SPLINE
  5
1bf
100
AcDbEntity
  8
0
 62
7
100
AcDbSpline
 70
8
 71
3
 72
8
 73
4
 74
0
 40
0
 40
0
 40
0
 40
0
 40
1
 40
1
 40
1
 40
1
 10
792.767670
 20
415.403725
 30
0.0
 10
788.079260
 20
410.715316
 30
0.0
 10
781.720412
 20
408.081395
 30
0.0
 10
775.090000
 20
408.081395
 30
0.0
  0
LWPOLYLINE
  5
1c0
100
AcDbEntity
  8
0
 62
7
100
AcDbPolyline
 90
1
 70
1
 10
608.430000
 20
408.081395
 30
0.0
  0
SPLINE
  5
1c1
100
AcDbEntity
  8
0
 62
7
100
AcDbSpline
 70
8
 71
3
 72
8
 73
4
 74
0
 40
0
 40
0
 40
0
 40
0
 40
1
 40
1
 40
1
 40
1
 10
858.420000
 20
408.081395
 30
0.0
 10
848.308444
 20
408.081395
 30
0.0
 10
839.192537
 20
414.172449
 30
0.0
 10
835.323012
 20
423.514309
 30
0.0
  0
SPLINE
  5
1c2
100
AcDbEntity
  8
0
 62
7
100
AcDbSpline
 70
8
 71
3
 72
8
 73
4
 74
0
 40
0
 40
0
 40
0
 40
0
 40
1
 40
1
 40
1
 40
1
 10
835.323012
 20
423.514309
 30
0.0
 10
831.453487
 20
432.856169
 30
0.0
 10
833.592381
 20
443.609114
 30
0.0
 10
840.742330
 20
450.759064
 30
0.0
  0
SPLINE
  5
1c3
100
AcDbEntity
  8
0
 62
7
100
AcDbSpline
 70
8
 71
3
 72
8
 73
4
 74
0
 40
0
 40
0
 40
0
 40
0
 40
1
 40
1
 40
1
 40
1
 10
840.742330
 20
450.759064
 30
0.0
 10
847.892280
 20
457.909014
 30
0.0
 10
858.645226
 20
460.047908
 30
0.0
 10
867.987086
 20
456.178383
 30
0.0
  0
SPLINE
  5
1c4
100
AcDbEntity
  8
0
 62
7
100
AcDbSpline
 70
8
 71
3
 72
8
 73
4
 74
0
 40
0
 40
0
 40
0
 40
0
 40
1
 40
1
 40
1
 40
1
 10
867.987086
 20
456.178383
 30
0.0
 10
877.328946
 20
452.308858
 30
0.0
 10
883.420000
 20
443.192951
 30
0.0
 10
883.420000
 20
433.081395
 30
0.0
  0
SPLINE
  5
1c5
100
AcDbEntity
  8
0
 62
7
100
AcDbSpline
 70
8
 71
3
 72
8
 73
4
 74
0
 40
0
 40
0
 40
0
 40
0
 40
1
 40
1
 40
1
 40
1
 10
883.420000
 20
433.081395
 30
0.0
 10
883.420000
 20
426.450982
 30
0.0
 10
880.786079
 20
420.092135
 30
0.0
 10
876.097670
 20
415.403725
 30
0.0
  0
SPLINE
  5
1c6
100
AcDbEntity
  8
0
 62
7
100
AcDbSpline
 70
8
 71
3
 72
8
 73
4
 74
0
 40
0
 40
0
 40
0
 40
0
 40
1
 40
1
 40
1
 40
1
 10
876.097670
 20
415.403725
 30
0.0
 10
871.409260
 20
410.715316
 30
0.0
 10
865.050412
 20
408.081395
 30
0.0
 10
858.420000
 20
408.081395
 30
0.0
  0
LWPOLYLINE
  5
1c7
100
AcDbEntity
  8
0
 62
7
100
AcDbPolyline
 90
1
 70
1
 10
775.090000
 20
408.081395
 30
0.0
  0
SPLINE
  5
1c8
100
AcDbEntity
  8
0
 62
7
100
AcDbSpline
 70
8
 71
3
 72
8
 73
4
 74
0
 40
0
 40
0
 40
0
 40
0
 40
1
 40
1
 40
1
 40
1
 10
941.750000
 20
408.081395
 30
0.0
 10
931.638444
 20
408.081395
 30
0.0
 10
922.522537
 20
414.172449
 30
0.0
 10
918.653012
 20
423.514309
 30
0.0
  0
SPLINE
  5
1c9
100
AcDbEntity
  8
0
 62
7
100
AcDbSpline
 70
8
 71
3
 72
8
 73
4
 74
0
 40
0
 40
0
 40
0
 40
0
 40
1
 40
1
 40
1
 40
1
 10
918.653012
 20
423.514309
 30
0.0
 10
914.783487
 20
432.856169
 30
0.0
 10
916.922381
 20
443.609114
 30
0.0
 10
924.072330
 20
450.759064
 30
0.0
  0
SPLINE
  5
1ca
100
AcDbEntity
  8
0
 62
7
100
AcDbSpline
 70
8
 71
3
 72
8
 73
4
 74
0
 40
0
 40
0
 40
0
 40
0
 40
1
 40
1
 40
1
 40
1
 10
924.072330
 20
450.759064
 30
0.0
 10
931.222280
 20
457.909014
 30
0.0
 10
941.975226
 20
460.047908
 30
0.0
 10
951.317086
 20
456.178383
 30
0.0
  0
SPLINE
  5
1cb
100
AcDbEntity
  8
0
 62
7
100
AcDbSpline
 70
8
 71
3
 72
8
 73
4
 74
0
 40
0
 40
0
 40
0
 40
0
 40
1
 40
1
 40
1
 40
1
 10
951.317086
 20
456.178383
 30
0.0
 10
960.658946
 20
452.308858
 30
0.0
 10
966.750000
 20
443.192951
 30
0.0
 10
966.750000
 20
433.081395
 30
0.0
  0
SPLINE
  5
1cc
100
AcDbEntity
  8
0
 62
7
100
AcDbSpline
 70
8
 71
3
 72
8
 73
4
 74
0
 40
0
 40
0
 40
0
 40
0
 40
1
 40
1
 40
1
 40
1
 10
966.750000
 20
433.081395
 30
0.0
 10
966.750000
 20
426.450982
 30
0.0
 10
964.116079
 20
420.092135
 30
0.0
 10
959.427670
 20
415.403725
 30
0.0
  0
SPLINE
  5
1cd
100
AcDbEntity
  8
0
 62
7
100
AcDbSpline
 70
8
 71
3
 72
8
 73
4
 74
0
 40
0
 40
0
 40
0
 40
0
 40
1
 40
1
 40
1
 40
1
 10
959.427670
 20
415.403725
 30
0.0
 10
954.739260
 20
410.715316
 30
0.0
 10
948.380412
 20
408.081395
 30
0.0
 10
941.750000
 20
408.081395
 30
0.0
  0
LWPOLYLINE
  5
1ce
100
AcDbEntity
  8
0
 62
7
100
AcDbPolyline
 90
1
 70
1
 10
858.420000
 20
408.081395
 30
0.0
  0
SPLINE
  5
1cf
100
AcDbEntity
  8
0
 62
7
100
AcDbSpline
 70
8
 71
3
 72
8
 73
4
 74
0
 40
0
 40
0
 40
0
 40
0
 40
1
 40
1
 40
1
 40
1
 10
1108.410000
 20
408.081395
 30
0.0
 10
1098.298444
 20
408.081395
 30
0.0
 10
1089.182537
 20
414.172449
 30
0.0
 10
1085.313012
 20
423.514309
 30
0.0
  0
SPLINE
  5
1d0
100
AcDbEntity
  8
0
 62
7
100
AcDbSpline
 70
8
 71
3
 72
8
 73
4
 74
0
 40
0
 40
0
 40
0
 40
0
 40
1
 40
1
 40
1
 40
1
 10
1085.313012
 20
423.514309
 30
0.0
 10
1081.443487
 20
432.856169
 30
0.0
 10
1083.582381
 20
443.609114
 30
0.0
 10
1090.732330
 20
450.759064
 30
0.0
  0
SPLINE
  5
1d1
100
AcDbEntity
  8
0
 62
7
100
AcDbSpline
 70
8
 71
3
 72
8
 73
4
 74
0
 40
0
 40
0
 40
0
 40
0
 40
1
 40
1
 40
1
 40
1
 10
1090.732330
 20
450.759064
 30
0.0
 10
1097.882280
 20
457.909014
 30
0.0
 10
1108.635226
 20
460.047908
 30
0.0
 10
1117.977086
 20
456.178383
 30
0.0
  0
SPLINE
  5
1d2
100
AcDbEntity
  8
0
 62
7
100
AcDbSpline
 70
8
 71
3
 72
8
 73
4
 74
0
 40
0
 40
0
 40
0
 40
0
 40
1
 40
1
 40
1
 40
1
 10
1117.977086
 20
456.178383
 30
0.0
 10
1127.318946
 20
452.308858
 30
0.0
 10
1133.410000
 20
443.192951
 30
0.0
 10
1133.410000
 20
433.081395
 30
0.0
  0
SPLINE
  5
1d3
100
AcDbEntity
  8
0
 62
7
100
AcDbSpline
 70
8
 71
3
 72
8
 73
4
 74
0
 40
0
 40
0
 40
0
 40
0
 40
1
 40
1
 40
1
 40
1
 10
1133.410000
 20
433.081395
 30
0.0
 10
1133.410000
 20
426.450982
 30
0.0
 10
1130.776079
 20
420.092135
 30
0.0
 10
1126.087670
 20
415.403725
 30
0.0
  0
SPLINE
  5
1d4
100
AcDbEntity
  8
0
 62
7
100
AcDbSpline
 70
8
 71
3
 72
8
 73
4
 74
0
 40
0
 40
0
 40
0
 40
0
 40
1
 40
1
 40
1
 40
1
 10
1126.087670
 20
415.403725
 30
0.0
 10
1121.399260
 20
410.715316
 30
0.0
 10
1115.040412
 20
408.081395
 30
0.0
 10
1108.410000
 20
408.081395
 30
0.0
  0
LWPOLYLINE
  5
1d5
100
AcDbEntity
  8
0
 62
7
100
AcDbPolyline
 90
1
 70
1
 10
941.750000
 20
408.081395
 30
0.0
  0
SPLINE
  5
1d6
100
AcDbEntity
  8
0
 62
7
100
AcDbSpline
 70
8
 71
3
 72
8
 73
4
 74
0
 40
0
 40
0
 40
0
 40
0
 40
1
 40
1
 40
1
 40
1
 10
1191.740000
 20
408.081395
 30
0.0
 10
1181.628444
 20
408.081395
 30
0.0
 10
1172.512537
 20
414.172449
 30
0.0
 10
1168.643012
 20
423.514309
 30
0.0
  0
SPLINE
  5
1d7
100
AcDbEntity
  8
0
 62
7
100
AcDbSpline
 70
8
 71
3
 72
8
 73
4
 74
0
 40
0
 40
0
 40
0
 40
0
 40
1
 40
1
 40
1
 40
1
 10
1168.643012
 20
423.514309
 30
0.0
 10
1164.773487
 20
432.856169
 30
0.0
 10
1166.912381
 20
443.609114
 30
0.0
 10
1174.062330
 20
450.759064
 30
0.0
  0
SPLINE
  5
1d8
100
AcDbEntity
  8
0
 62
7
100
AcDbSpline
 70
8
 71
3
 72
8
 73
4
 74
0
 40
0
 40
0
 40
0
 40
0
 40
1
 40
1
 40
1
 40
1
 10
1174.062330
 20
450.759064
 30
0.0
 10
1181.212280
 20
457.909014
 30
0.0
 10
1191.965226
 20
460.047908
 30
0.0
 10
1201.307086
 20
456.178383
 30
0.0
  0
SPLINE
  5
1d9
100
AcDbEntity
  8
0
 62
7
100
AcDbSpline
 70
8
 71
3
 72
8
 73
4
 74
0
 40
0
 40
0
 40
0
 40
0
 40
1
 40
1
 40
1
 40
1
 10
1201.307086
 20
456.178383
 30
0.0
 10
1210.648946
 20
452.308858
 30
0.0
 10
1216.740000
 20
443.192951
 30
0.0
 10
1216.740000
 20
433.081395
 30
0.0
  0
SPLINE
  5
1da
100
AcDbEntity
  8
0
 62
7
100
AcDbSpline
 70
8
 71
3
 72
8
 73
4
 74
0
 40
0
 40
0
 40
0
 40
0
 40
1
 40
1
 40
1
 40
1
 10
1216.740000
 20
433.081395
 30
0.0
 10
1216.740000
 20
426.450982
 30
0.0
 10
1214.106079
 20
420.092135
 30
0.0
 10
1209.417670
 20
415.403725
 30
0.0
  0
SPLINE
  5
1db
100
AcDbEntity
  8
0
 62
7
100
AcDbSpline
 70
8
 71
3
 72
8
 73
4
 74
0
 40
0
 40
0
 40
0
 40
0
 40
1
 40
1
 40
1
 40
1
 10
1209.417670
 20
415.403725
 30
0.0
 10
1204.729260
 20
410.715316
 30
0.0
 10
1198.370412
 20
408.081395
 30
0.0
 10
1191.740000
 20
408.081395
 30
0.0
  0
LWPOLYLINE
  5
1dc
100
AcDbEntity
  8
0
 62
7
100
AcDbPolyline
 90
1
 70
1
 10
1108.410000
 20
408.081395
 30
0.0
  0
SPLINE
  5
1dd
100
AcDbEntity
  8
0
 62
7
100
AcDbSpline
 70
8
 71
3
 72
8
 73
4
 74
0
 40
0
 40
0
 40
0
 40
0
 40
1
 40
1
 40
1
 40
1
 10
1275.070000
 20
408.081395
 30
0.0
 10
1264.958444
 20
408.081395
 30
0.0
 10
1255.842537
 20
414.172449
 30
0.0
 10
1251.973012
 20
423.514309
 30
0.0
  0
SPLINE
  5
1de
100
AcDbEntity
  8
0
 62
7
100
AcDbSpline
 70
8
 71
3
 72
8
 73
4
 74
0
 40
0
 40
0
 40
0
 40
0
 40
1
 40
1
 40
1
 40
1
 10
1251.973012
 20
423.514309
 30
0.0
 10
1248.103487
 20
432.856169
 30
0.0
 10
1250.242381
 20
443.609114
 30
0.0
 10
1257.392330
 20
450.759064
 30
0.0
  0
SPLINE
  5
1df
100
AcDbEntity
  8
0
 62
7
100
AcDbSpline
 70
8
 71
3
 72
8
 73
4
 74
0
 40
0
 40
0
 40
0
 40
0
 40
1
 40
1
 40
1
 40
1
 10
1257.392330
 20
450.759064
 30
0.0
 10
1264.542280
 20
457.909014
 30
0.0
 10
1275.295226
 20
460.047908
 30
0.0
 10
1284.637086
 20
456.178383
 30
0.0
  0
SPLINE
  5
1e0
100
AcDbEntity
  8
0
 62
7
100
AcDbSpline
 70
8
 71
3
 72
8
 73
4
 74
0
 40
0
 40
0
 40
0
 40
0
 40
1
 40
1
 40
1
 40
1
 10
1284.637086
 20
456.178383
 30
0.0
 10
1293.978946
 20
452.308858
 30
0.0
 10
1300.070000
 20
443.192951
 30
0.0
 10
1300.070000
 20
433.081395
 30
0.0
  0
SPLINE
  5
1e1
100
AcDbEntity
  8
0
 62
7
100
AcDbSpline
 70
8
 71
3
 72
8
 73
4
 74
0
 40
0
 40
0
 40
0
 40
0
 40
1
 40
1
 40
1
 40
1
 10
1300.070000
 20
433.081395
 30
0.0
 10
1300.070000
 20
426.450982
 30
0.0
 10
1297.436079
 20
420.092135
 30
0.0
 10
1292.747670
 20
415.403725
 30
0.0
  0
SPLINE
  5
1e2
100
AcDbEntity
  8
0
 62
7
100
AcDbSpline
 70
8
 71
3
 72
8
 73
4
 74
0
 40
0
 40
0
 40
0
 40
0
 40
1
 40
1
 40
1
 40
1
 10
1292.747670
 20
415.403725
 30
0.0
 10
1288.059260
 20
410.715316
 30
0.0
 10
1281.700412
 20
408.081395
 30
0.0
 10
1275.070000
 20
408.081395
 30
0.0
  0
LWPOLYLINE
  5
1e3
100
AcDbEntity
  8
0
 62
7
100
AcDbPolyline
 90
1
 70
1
 10
1191.740000
 20
408.081395
 30
0.0
  0
SPLINE
  5
1e4
100
AcDbEntity
  8
0
 62
7
100
AcDbSpline
 70
8
 71
3
 72
8
 73
4
 74
0
 40
0
 40
0
 40
0
 40
0
 40
1
 40
1
 40
1
 40
1
 10
1441.730000
 20
408.081395
 30
0.0
 10
1431.618444
 20
408.081395
 30
0.0
 10
1422.502537
 20
414.172449
 30
0.0
 10
1418.633012
 20
423.514309
 30
0.0
  0
SPLINE
  5
1e5
100
AcDbEntity
  8
0
 62
7
100
AcDbSpline
 70
8
 71
3
 72
8
 73
4
 74
0
 40
0
 40
0
 40
0
 40
0
 40
1
 40
1
 40
1
 40
1
 10
1418.633012
 20
423.514309
 30
0.0
 10
1414.763487
 20
432.856169
 30
0.0
 10
1416.902381
 20
443.609114
 30
0.0
 10
1424.052330
 20
450.759064
 30
0.0
  0
SPLINE
  5
1e6
100
AcDbEntity
  8
0
 62
7
100
AcDbSpline
 70
8
 71
3
 72
8
 73
4
 74
0
 40
0
 40
0
 40
0
 40
0
 40
1
 40
1
 40
1
 40
1
 10
1424.052330
 20
450.759064
 30
0.0
 10
1431.202280
 20
457.909014
 30
0.0
 10
1441.955226
 20
460.047908
 30
0.0
 10
1451.297086
 20
456.178383
 30
0.0
  0
SPLINE
  5
1e7
100
AcDbEntity
  8
0
 62
7
100
AcDbSpline
 70
8
 71
3
 72
8
 73
4
 74
0
 40
0
 40
0
 40
0
 40
0
 40
1
 40
1
 40
1
 40
1
 10
1451.297086
 20
456.178383
 30
0.0
 10
1460.638946
 20
452.308858
 30
0.0
 10
1466.730000
 20
443.192951
 30
0.0
 10
1466.730000
 20
433.081395
 30
0.0
  0
SPLINE
  5
1e8
100
AcDbEntity
  8
0
 62
7
100
AcDbSpline
 70
8
 71
3
 72
8
 73
4
 74
0
 40
0
 40
0
 40
0
 40
0
 40
1
 40
1
 40
1
 40
1
 10
1466.730000
 20
433.081395
 30
0.0
 10
1466.730000
 20
419.274276
 30
0.0
 10
1455.537119
 20
408.081395
 30
0.0
 10
1441.730000
 20
408.081395
 30
0.0
  0
LWPOLYLINE
  5
1e9
100
AcDbEntity
  8
0
 62
7
100
AcDbPolyline
 90
1
 70
1
 10
1275.070000
 20
408.081395
 30
0.0
  0
SPLINE
  5
1ea
100
AcDbEntity
  8
0
 62
7
100
AcDbSpline
 70
8
 71
3
 72
8
 73
4
 74
0
 40
0
 40
0
 40
0
 40
0
 40
1
 40
1
 40
1
 40
1
 10
1525.060000
 20
408.081395
 30
0.0
 10
1514.948444
 20
408.081395
 30
0.0
 10
1505.832537
 20
414.172449
 30
0.0
 10
1501.963012
 20
423.514309
 30
0.0
  0
SPLINE
  5
1eb
100
AcDbEntity
  8
0
 62
7
100
AcDbSpline
 70
8
 71
3
 72
8
 73
4
 74
0
 40
0
 40
0
 40
0
 40
0
 40
1
 40
1
 40
1
 40
1
 10
1501.963012
 20
423.514309
 30
0.0
 10
1498.093487
 20
432.856169
 30
0.0
 10
1500.232381
 20
443.609114
 30
0.0
 10
1507.382330
 20
450.759064
 30
0.0
  0
SPLINE
  5
1ec
100
AcDbEntity
  8
0
 62
7
100
AcDbSpline
 70
8
 71
3
 72
8
 73
4
 74
0
 40
0
 40
0
 40
0
 40
0
 40
1
 40
1
 40
1
 40
1
 10
1507.382330
 20
450.759064
 30
0.0
 10
1514.532280
 20
457.909014
 30
0.0
 10
1525.285226
 20
460.047908
 30
0.0
 10
1534.627086
 20
456.178383
 30
0.0
  0
SPLINE
  5
1ed
100
AcDbEntity
  8
0
 62
7
100
AcDbSpline
 70
8
 71
3
 72
8
 73
4
 74
0
 40
0
 40
0
 40
0
 40
0
 40
1
 40
1
 40
1
 40
1
 10
1534.627086
 20
456.178383
 30
0.0
 10
1543.968946
 20
452.308858
 30
0.0
 10
1550.060000
 20
443.192951
 30
0.0
 10
1550.060000
 20
433.081395
 30
0.0
  0
SPLINE
  5
1ee
100
AcDbEntity
  8
0
 62
7
100
AcDbSpline
 70
8
 71
3
 72
8
 73
4
 74
0
 40
0
 40
0
 40
0
 40
0
 40
1
 40
1
 40
1
 40
1
 10
1550.060000
 20
433.081395
 30
0.0
 10
1550.060000
 20
426.450982
 30
0.0
 10
1547.426079
 20
420.092135
 30
0.0
 10
1542.737670
 20
415.403725
 30
0.0
  0
SPLINE
  5
1ef
100
AcDbEntity
  8
0
 62
7
100
AcDbSpline
 70
8
 71
3
 72
8
 73
4
 74
0
 40
0
 40
0
 40
0
 40
0
 40
1
 40
1
 40
1
 40
1
 10
1542.737670
 20
415.403725
 30
0.0
 10
1538.049260
 20
410.715316
 30
0.0
 10
1531.690412
 20
408.081395
 30
0.0
 10
1525.060000
 20
408.081395
 30
0.0
  0
LWPOLYLINE
  5
1f0
100
AcDbEntity
  8
0
 62
7
100
AcDbPolyline
 90
1
 70
1
 10
1441.730000
 20
408.081395
 30
0.0
  0
SPLINE
  5
1f1
100
AcDbEntity
  8
0
 62
7
100
AcDbSpline
 70
8
 71
3
 72
8
 73
4
 74
0
 40
0
 40
0
 40
0
 40
0
 40
1
 40
1
 40
1
 40
1
 10
1608.390000
 20
408.081395
 30
0.0
 10
1598.278444
 20
408.081395
 30
0.0
 10
1589.162537
 20
414.172449
 30
0.0
 10
1585.293012
 20
423.514309
 30
0.0
  0
SPLINE
  5
1f2
100
AcDbEntity
  8
0
 62
7
100
AcDbSpline
 70
8
 71
3
 72
8
 73
4
 74
0
 40
0
 40
0
 40
0
 40
0
 40
1
 40
1
 40
1
 40
1
 10
1585.293012
 20
423.514309
 30
0.0
 10
1581.423487
 20
432.856169
 30
0.0
 10
1583.562381
 20
443.609114
 30
0.0
 10
1590.712330
 20
450.759064
 30
0.0
  0
SPLINE
  5
1f3
100
AcDbEntity
  8
0
 62
7
100
AcDbSpline
 70
8
 71
3
 72
8
 73
4
 74
0
 40
0
 40
0
 40
0
 40
0
 40
1
 40
1
 40
1
 40
1
 10
1590.712330
 20
450.759064
 30
0.0
 10
1597.862280
 20
457.909014
 30
0.0
 10
1608.615226
 20
460.047908
 30
0.0
 10
1617.957086
 20
456.178383
 30
0.0
  0
SPLINE
  5
1f4
100
AcDbEntity
  8
0
 62
7
100
AcDbSpline
 70
8
 71
3
 72
8
 73
4
 74
0
 40
0
 40
0
 40
0
 40
0
 40
1
 40
1
 40
1
 40
1
 10
1617.957086
 20
456.178383
 30
0.0
 10
1627.298946
 20
452.308858
 30
0.0
 10
1633.390000
 20
443.192951
 30
0.0
 10
1633.390000
 20
433.081395
 30
0.0
  0
SPLINE
  5
1f5
100
AcDbEntity
  8
0
 62
7
100
AcDbSpline
 70
8
 71
3
 72
8
 73
4
 74
0
 40
0
 40
0
 40
0
 40
0
 40
1
 40
1
 40
1
 40
1
 10
1633.390000
 20
433.081395
 30
0.0
 10
1633.390000
 20
419.274276
 30
0.0
 10
1622.197119
 20
408.081395
 30
0.0
 10
1608.390000
 20
408.081395
 30
0.0
  0
LWPOLYLINE
  5
1f6
100
AcDbEntity
  8
0
 62
7
100
AcDbPolyline
 90
1
 70
1
 10
1525.060000
 20
408.081395
 30
0.0
  0
SPLINE
  5
1f7
100
AcDbEntity
  8
0
 62
7
100
AcDbSpline
 70
8
 71
3
 72
8
 73
4
 74
0
 40
0
 40
0
 40
0
 40
0
 40
1
 40
1
 40
1
 40
1
 10
1775.050000
 20
408.081395
 30
0.0
 10
1764.938444
 20
408.081395
 30
0.0
 10
1755.822537
 20
414.172449
 30
0.0
 10
1751.953012
 20
423.514309
 30
0.0
  0
SPLINE
  5
1f8
100
AcDbEntity
  8
0
 62
7
100
AcDbSpline
 70
8
 71
3
 72
8
 73
4
 74
0
 40
0
 40
0
 40
0
 40
0
 40
1
 40
1
 40
1
 40
1
 10
1751.953012
 20
423.514309
 30
0.0
 10
1748.083487
 20
432.856169
 30
0.0
 10
1750.222381
 20
443.609114
 30
0.0
 10
1757.372330
 20
450.759064
 30
0.0
  0
SPLINE
  5
1f9
100
AcDbEntity
  8
0
 62
7
100
AcDbSpline
 70
8
 71
3
 72
8
 73
4
 74
0
 40
0
 40
0
 40
0
 40
0
 40
1
 40
1
 40
1
 40
1
 10
1757.372330
 20
450.759064
 30
0.0
 10
1764.522280
 20
457.909014
 30
0.0
 10
1775.275226
 20
460.047908
 30
0.0
 10
1784.617086
 20
456.178383
 30
0.0
  0
SPLINE
  5
1fa
100
AcDbEntity
  8
0
 62
7
100
AcDbSpline
 70
8
 71
3
 72
8
 73
4
 74
0
 40
0
 40
0
 40
0
 40
0
 40
1
 40
1
 40
1
 40
1
 10
1784.617086
 20
456.178383
 30
0.0
 10
1793.958946
 20
452.308858
 30
0.0
 10
1800.050000
 20
443.192951
 30
0.0
 10
1800.050000
 20
433.081395
 30
0.0
  0
SPLINE
  5
1fb
100
AcDbEntity
  8
0
 62
7
100
AcDbSpline
 70
8
 71
3
 72
8
 73
4
 74
0
 40
0
 40
0
 40
0
 40
0
 40
1
 40
1
 40
1
 40
1
 10
1800.050000
 20
433.081395
 30
0.0
 10
1800.050000
 20
426.450982
 30
0.0
 10
1797.416079
 20
420.092135
 30
0.0
 10
1792.727670
 20
415.403725
 30
0.0
  0
SPLINE
  5
1fc
100
AcDbEntity
  8
0
 62
7
100
AcDbSpline
 70
8
 71
3
 72
8
 73
4
 74
0
 40
0
 40
0
 40
0
 40
0
 40
1
 40
1
 40
1
 40
1
 10
1792.727670
 20
415.403725
 30
0.0
 10
1788.039260
 20
410.715316
 30
0.0
 10
1781.680412
 20
408.081395
 30
0.0
 10
1775.050000
 20
408.081395
 30
0.0
  0
LWPOLYLINE
  5
1fd
100
AcDbEntity
  8
0
 62
7
100
AcDbPolyline
 90
1
 70
1
 10
1608.390000
 20
408.081395
 30
0.0
  0
SPLINE
  5
1fe
100
AcDbEntity
  8
0
 62
7
100
AcDbSpline
 70
8
 71
3
 72
8
 73
4
 74
0
 40
0
 40
0
 40
0
 40
0
 40
1
 40
1
 40
1
 40
1
 10
1858.380000
 20
408.081395
 30
0.0
 10
1848.268444
 20
408.081395
 30
0.0
 10
1839.152537
 20
414.172449
 30
0.0
 10
1835.283012
 20
423.514309
 30
0.0
  0
SPLINE
  5
1ff
100
AcDbEntity
  8
0
 62
7
100
AcDbSpline
 70
8
 71
3
 72
8
 73
4
 74
0
 40
0
 40
0
 40
0
 40
0
 40
1
 40
1
 40
1
 40
1
 10
1835.283012
 20
423.514309
 30
0.0
 10
1831.413487
 20
432.856169
 30
0.0
 10
1833.552381
 20
443.609114
 30
0.0
 10
1840.702330
 20
450.759064
 30
0.0
  0
SPLINE
  5
200
100
AcDbEntity
  8
0
 62
7
100
AcDbSpline
 70
8
 71
3
 72
8
 73
4
 74
0
 40
0
 40
0
 40
0
 40
0
 40
1
 40
1
 40
1
 40
1
 10
1840.702330
 20
450.759064
 30
0.0
 10
1847.852280
 20
457.909014
 30
0.0
 10
1858.605226
 20
460.047908
 30
0.0
 10
1867.947086
 20
456.178383
 30
0.0
  0
SPLINE
  5
201
100
AcDbEntity
  8
0
 62
7
100
AcDbSpline
 70
8
 71
3
 72
8
 73
4
 74
0
 40
0
 40
0
 40
0
 40
0
 40
1
 40
1
 40
1
 40
1
 10
1867.947086
 20
456.178383
 30
0.0
 10
1877.288946
 20
452.308858
 30
0.0
 10
1883.380000
 20
443.192951
 30
0.0
 10
1883.380000
 20
433.081395
 30
0.0
  0
SPLINE
  5
202
100
AcDbEntity
  8
0
 62
7
100
AcDbSpline
 70
8
 71
3
 72
8
 73
4
 74
0
 40
0
 40
0
 40
0
 40
0
 40
1
 40
1
 40
1
 40
1
 10
1883.380000
 20
433.081395
 30
0.0
 10
1883.380000
 20
426.450982
 30
0.0
 10
1880.746079
 20
420.092135
 30
0.0
 10
1876.057670
 20
415.403725
 30
0.0
  0
SPLINE
  5
203
100
AcDbEntity
  8
0
 62
7
100
AcDbSpline
 70
8
 71
3
 72
8
 73
4
 74
0
 40
0
 40
0
 40
0
 40
0
 40
1
 40
1
 40
1
 40
1
 10
1876.057670
 20
415.403725
 30
0.0
 10
1871.369260
 20
410.715316
 30
0.0
 10
1865.010412
 20
408.081395
 30
0.0
 10
1858.380000
 20
408.081395
 30
0.0
  0
LWPOLYLINE
  5
204
100
AcDbEntity
  8
0
 62
7
100
AcDbPolyline
 90
1
 70
1
 10
1775.050000
 20
408.081395
 30
0.0
  0
SPLINE
  5
205
100
AcDbEntity
  8
0
 62
7
100
AcDbSpline
 70
8
 71
3
 72
8
 73
4
 74
0
 40
0
 40
0
 40
0
 40
0
 40
1
 40
1
 40
1
 40
1
 10
1941.720000
 20
408.081395
 30
0.0
 10
1931.608444
 20
408.081395
 30
0.0
 10
1922.492537
 20
414.172449
 30
0.0
 10
1918.623012
 20
423.514309
 30
0.0
  0
SPLINE
  5
206
100
AcDbEntity
  8
0
 62
7
100
AcDbSpline
 70
8
 71
3
 72
8
 73
4
 74
0
 40
0
 40
0
 40
0
 40
0
 40
1
 40
1
 40
1
 40
1
 10
1918.623012
 20
423.514309
 30
0.0
 10
1914.753487
 20
432.856169
 30
0.0
 10
1916.892381
 20
443.609114
 30
0.0
 10
1924.042330
 20
450.759064
 30
0.0
  0
SPLINE
  5
207
100
AcDbEntity
  8
0
 62
7
100
AcDbSpline
 70
8
 71
3
 72
8
 73
4
 74
0
 40
0
 40
0
 40
0
 40
0
 40
1
 40
1
 40
1
 40
1
 10
1924.042330
 20
450.759064
 30
0.0
 10
1931.192280
 20
457.909014
 30
0.0
 10
1941.945226
 20
460.047908
 30
0.0
 10
1951.287086
 20
456.178383
 30
0.0
  0
SPLINE
  5
208
100
AcDbEntity
  8
0
 62
7
100
AcDbSpline
 70
8
 71
3
 72
8
 73
4
 74
0
 40
0
 40
0
 40
0
 40
0
 40
1
 40
1
 40
1
 40
1
 10
1951.287086
 20
456.178383
 30
0.0
 10
1960.628946
 20
452.308858
 30
0.0
 10
1966.720000
 20
443.192951
 30
0.0
 10
1966.720000
 20
433.081395
 30
0.0
  0
SPLINE
  5
209
100
AcDbEntity
  8
0
 62
7
100
AcDbSpline
 70
8
 71
3
 72
8
 73
4
 74
0
 40
0
 40
0
 40
0
 40
0
 40
1
 40
1
 40
1
 40
1
 10
1966.720000
 20
433.081395
 30
0.0
 10
1966.720000
 20
426.450982
 30
0.0
 10
1964.086079
 20
420.092135
 30
0.0
 10
1959.397670
 20
415.403725
 30
0.0
  0
SPLINE
  5
20a
100
AcDbEntity
  8
0
 62
7
100
AcDbSpline
 70
8
 71
3
 72
8
 73
4
 74
0
 40
0
 40
0
 40
0
 40
0
 40
1
 40
1
 40
1
 40
1
 10
1959.397670
 20
415.403725
 30
0.0
 10
1954.709260
 20
410.715316
 30
0.0
 10
1948.350412
 20
408.081395
 30
0.0
 10
1941.720000
 20
408.081395
 30
0.0
  0
LWPOLYLINE
  5
20b
100
AcDbEntity
  8
0
 62
7
100
AcDbPolyline
 90
1
 70
1
 10
1858.380000
 20
408.081395
 30
0.0
  0
LWPOLYLINE
  5
20c
100
AcDbEntity
  8
0
 62
7
100
AcDbPolyline
 90
1
 70
1
 10
1941.720000
 20
408.081395
 30
0.0
  0
LWPOLYLINE
  5
20d
100
AcDbEntity
  8
0
 62
7
100
AcDbPolyline
 90
2
 70
0
 10
25.080000
 20
373.081395
 30
0.0
 10
2033.080000
 20
373.081395
 30
0.0
  0
LWPOLYLINE
  5
20e
100
AcDbEntity
  8
0
 62
7
100
AcDbPolyline
 90
2
 70
0
 10
25.080000
 20
353.081395
 30
0.0
 10
25.080000
 20
373.081395
 30
0.0
  0
LWPOLYLINE
  5
20f
100
AcDbEntity
  8
0
 62
7
100
AcDbPolyline
 90
2
 70
0
 10
2033.080000
 20
373.081395
 30
0.0
 10
2033.080000
 20
353.081395
 30
0.0
  0
LWPOLYLINE
  5
210
100
AcDbEntity
  8
0
 62
7
100
AcDbPolyline
 90
2
 70
0
 10
29.080000
 20
353.081395
 30
0.0
 10
25.080000
 20
353.081395
 30
0.0
  0
LWPOLYLINE
  5
211
100
AcDbEntity
  8
0
 62
7
100
AcDbPolyline
 90
2
 70
0
 10
29.080000
 20
333.081395
 30
0.0
 10
29.080000
 20
353.081395
 30
0.0
  0
LWPOLYLINE
  5
212
100
AcDbEntity
  8
0
 62
7
100
AcDbPolyline
 90
2
 70
0
 10
25.080000
 20
333.081395
 30
0.0
 10
29.080000
 20
333.081395
 30
0.0
  0
LWPOLYLINE
  5
213
100
AcDbEntity
  8
0
 62
7
100
AcDbPolyline
 90
2
 70
0
 10
25.080000
 20
313.081395
 30
0.0
 10
25.080000
 20
333.081395
 30
0.0
  0
LWPOLYLINE
  5
214
100
AcDbEntity
  8
0
 62
7
100
AcDbPolyline
 90
2
 70
0
 10
29.080000
 20
313.081395
 30
0.0
 10
25.080000
 20
313.081395
 30
0.0
  0
LWPOLYLINE
  5
215
100
AcDbEntity
  8
0
 62
7
100
AcDbPolyline
 90
2
 70
0
 10
29.080000
 20
293.081395
 30
0.0
 10
29.080000
 20
313.081395
 30
0.0
  0
LWPOLYLINE
  5
216
100
AcDbEntity
  8
0
 62
7
100
AcDbPolyline
 90
2
 70
0
 10
25.080000
 20
293.081395
 30
0.0
 10
29.080000
 20
293.081395
 30
0.0
  0
LWPOLYLINE
  5
217
100
AcDbEntity
  8
0
 62
7
100
AcDbPolyline
 90
2
 70
0
 10
25.080000
 20
273.081395
 30
0.0
 10
25.080000
 20
293.081395
 30
0.0
  0
LWPOLYLINE
  5
218
100
AcDbEntity
  8
0
 62
7
100
AcDbPolyline
 90
2
 70
0
 10
29.080000
 20
273.081395
 30
0.0
 10
25.080000
 20
273.081395
 30
0.0
  0
LWPOLYLINE
  5
219
100
AcDbEntity
  8
0
 62
7
100
AcDbPolyline
 90
2
 70
0
 10
29.080000
 20
253.081395
 30
0.0
 10
29.080000
 20
273.081395
 30
0.0
  0
LWPOLYLINE
  5
21a
100
AcDbEntity
  8
0
 62
7
100
AcDbPolyline
 90
2
 70
0
 10
25.080000
 20
253.081395
 30
0.0
 10
29.080000
 20
253.081395
 30
0.0
  0
LWPOLYLINE
  5
21b
100
AcDbEntity
  8
0
 62
7
100
AcDbPolyline
 90
2
 70
0
 10
25.080000
 20
246.081395
 30
0.0
 10
25.080000
 20
253.081395
 30
0.0
  0
LWPOLYLINE
  5
21c
100
AcDbEntity
  8
0
 62
7
100
AcDbPolyline
 90
2
 70
0
 10
2033.080000
 20
246.081395
 30
0.0
 10
25.080000
 20
246.081395
 30
0.0
  0
LWPOLYLINE
  5
21d
100
AcDbEntity
  8
0
 62
7
100
AcDbPolyline
 90
2
 70
0
 10
2033.080000
 20
253.081395
 30
0.0
 10
2033.080000
 20
246.081395
 30
0.0
  0
LWPOLYLINE
  5
21e
100
AcDbEntity
  8
0
 62
7
100
AcDbPolyline
 90
2
 70
0
 10
2029.080000
 20
253.081395
 30
0.0
 10
2033.080000
 20
253.081395
 30
0.0
  0
LWPOLYLINE
  5
21f
100
AcDbEntity
  8
0
 62
7
100
AcDbPolyline
 90
2
 70
0
 10
2029.080000
 20
273.081395
 30
0.0
 10
2029.080000
 20
253.081395
 30
0.0
  0
LWPOLYLINE
  5
220
100
AcDbEntity
  8
0
 62
7
100
AcDbPolyline
 90
2
 70
0
 10
2033.080000
 20
273.081395
 30
0.0
 10
2029.080000
 20
273.081395
 30
0.0
  0
LWPOLYLINE
  5
221
100
AcDbEntity
  8
0
 62
7
100
AcDbPolyline
 90
2
 70
0
 10
2033.080000
 20
293.081395
 30
0.0
 10
2033.080000
 20
273.081395
 30
0.0
  0
LWPOLYLINE
  5
222
100
AcDbEntity
  8
0
 62
7
100
AcDbPolyline
 90
2
 70
0
 10
2029.080000
 20
293.081395
 30
0.0
 10
2033.080000
 20
293.081395
 30
0.0
  0
LWPOLYLINE
  5
223
100
AcDbEntity
  8
0
 62
7
100
AcDbPolyline
 90
2
 70
0
 10
2029.080000
 20
313.081395
 30
0.0
 10
2029.080000
 20
293.081395
 30
0.0
  0
LWPOLYLINE
  5
224
100
AcDbEntity
  8
0
 62
7
100
AcDbPolyline
 90
2
 70
0
 10
2033.080000
 20
313.081395
 30
0.0
 10
2029.080000
 20
313.081395
 30
0.0
  0
LWPOLYLINE
  5
225
100
AcDbEntity
  8
0
 62
7
100
AcDbPolyline
 90
2
 70
0
 10
2033.080000
 20
333.081395
 30
0.0
 10
2033.080000
 20
313.081395
 30
0.0
  0
LWPOLYLINE
  5
226
100
AcDbEntity
  8
0
 62
7
100
AcDbPolyline
 90
2
 70
0
 10
2029.080000
 20
333.081395
 30
0.0
 10
2033.080000
 20
333.081395
 30
0.0
  0
LWPOLYLINE
  5
227
100
AcDbEntity
  8
0
 62
7
100
AcDbPolyline
 90
2
 70
0
 10
2029.080000
 20
353.081395
 30
0.0
 10
2029.080000
 20
333.081395
 30
0.0
  0
LWPOLYLINE
  5
228
100
AcDbEntity
  8
0
 62
7
100
AcDbPolyline
 90
2
 70
0
 10
2033.080000
 20
353.081395
 30
0.0
 10
2029.080000
 20
353.081395
 30
0.0
  0
LWPOLYLINE
  5
229
100
AcDbEntity
  8
0
 62
7
100
AcDbPolyline
 90
2
 70
0
 10
2131.928223
 20
1003.333975
 30
0.0
 10
2149.398223
 20
1003.333975
 30
0.0
  0
LWPOLYLINE
  5
22a
100
AcDbEntity
  8
0
 62
7
100
AcDbPolyline
 90
2
 70
0
 10
2046.758223
 20
726.205845
 30
0.0
 10
2114.458223
 20
1003.333975
 30
0.0
  0
LWPOLYLINE
  5
22b
100
AcDbEntity
  8
0
 62
7
100
AcDbPolyline
 90
2
 70
0
 10
2056.758223
 20
726.205845
 30
0.0
 10
2046.758223
 20
726.205845
 30
0.0
  0
LWPOLYLINE
  5
22c
100
AcDbEntity
  8
0
 62
7
100
AcDbPolyline
 90
2
 70
0
 10
2056.758223
 20
730.205845
 30
0.0
 10
2056.758223
 20
726.205845
 30
0.0
  0
LWPOLYLINE
  5
22d
100
AcDbEntity
  8
0
 62
7
100
AcDbPolyline
 90
2
 70
0
 10
2066.758223
 20
730.205845
 30
0.0
 10
2056.758223
 20
730.205845
 30
0.0
  0
LWPOLYLINE
  5
22e
100
AcDbEntity
  8
0
 62
7
100
AcDbPolyline
 90
2
 70
0
 10
2066.758223
 20
726.205845
 30
0.0
 10
2066.758223
 20
730.205845
 30
0.0
  0
LWPOLYLINE
  5
22f
100
AcDbEntity
  8
0
 62
7
100
AcDbPolyline
 90
2
 70
0
 10
2076.758223
 20
726.205845
 30
0.0
 10
2066.758223
 20
726.205845
 30
0.0
  0
LWPOLYLINE
  5
230
100
AcDbEntity
  8
0
 62
7
100
AcDbPolyline
 90
2
 70
0
 10
2234.448822
 20
999.333975
 30
0.0
 10
2076.758223
 20
726.205845
 30
0.0
  0
LWPOLYLINE
  5
231
100
AcDbEntity
  8
0
 62
7
100
AcDbPolyline
 90
3
 70
0
 10
2234.448822
 20
999.333975
 30
0.0
 10
2219.288223
 20
999.333975
 30
0.0
 10
2219.288223
 20
1003.333975
 30
0.0
  0
LWPOLYLINE
  5
232
100
AcDbEntity
  8
0
 62
7
100
AcDbPolyline
 90
2
 70
0
 10
2201.808223
 20
1003.333975
 30
0.0
 10
2219.288223
 20
1003.333975
 30
0.0
  0
LWPOLYLINE
  5
233
100
AcDbEntity
  8
0
 62
7
100
AcDbPolyline
 90
2
 70
0
 10
2201.808223
 20
999.333975
 30
0.0
 10
2201.808223
 20
1003.333975
 30
0.0
  0
LWPOLYLINE
  5
234
100
AcDbEntity
  8
0
 62
7
100
AcDbPolyline
 90
2
 70
0
 10
2184.338223
 20
999.333975
 30
0.0
 10
2201.808223
 20
999.333975
 30
0.0
  0
LWPOLYLINE
  5
235
100
AcDbEntity
  8
0
 62
7
100
AcDbPolyline
 90
2
 70
0
 10
2184.338223
 20
1003.333975
 30
0.0
 10
2184.338223
 20
999.333975
 30
0.0
  0
LWPOLYLINE
  5
236
100
AcDbEntity
  8
0
 62
7
100
AcDbPolyline
 90
2
 70
0
 10
2166.868223
 20
1003.333975
 30
0.0
 10
2184.338223
 20
1003.333975
 30
0.0
  0
LWPOLYLINE
  5
237
100
AcDbEntity
  8
0
 62
7
100
AcDbPolyline
 90
2
 70
0
 10
2166.868223
 20
999.333975
 30
0.0
 10
2166.868223
 20
1003.333975
 30
0.0
  0
LWPOLYLINE
  5
238
100
AcDbEntity
  8
0
 62
7
100
AcDbPolyline
 90
2
 70
0
 10
2149.398223
 20
999.333975
 30
0.0
 10
2166.868223
 20
999.333975
 30
0.0
  0
LWPOLYLINE
  5
239
100
AcDbEntity
  8
0
 62
7
100
AcDbPolyline
 90
2
 70
0
 10
2149.398223
 20
1003.333975
 30
0.0
 10
2149.398223
 20
999.333975
 30
0.0
  0
LWPOLYLINE
  5
23a
100
AcDbEntity
  8
0
 62
7
100
AcDbPolyline
 90
2
 70
0
 10
2131.928223
 20
999.333975
 30
0.0
 10
2131.928223
 20
1003.333975
 30
0.0
  0
LWPOLYLINE
  5
23b
100
AcDbEntity
  8
0
 62
7
100
AcDbPolyline
 90
2
 70
0
 10
2114.458223
 20
999.333975
 30
0.0
 10
2131.928223
 20
999.333975
 30
0.0
  0
LWPOLYLINE
  5
23c
100
AcDbEntity
  8
0
 62
7
100
AcDbPolyline
 90
2
 70
0
 10
2114.458223
 20
1003.333975
 30
0.0
 10
2114.458223
 20
999.333975
 30
0.0
  0
LWPOLYLINE
  5
23d
100
AcDbEntity
  8
0
 62
7
100
AcDbPolyline
 90
2
 70
0
 10
24.080000
 20
24.081395
 30
0.0
 10
2032.080000
 20
24.081395
 30
0.0
  0
LWPOLYLINE
  5
23e
100
AcDbEntity
  8
0
 62
7
100
AcDbPolyline
 90
2
 70
0
 10
24.080000
 20
46.281395
 30
0.0
 10
24.080000
 20
24.081395
 30
0.0
  0
LWPOLYLINE
  5
23f
100
AcDbEntity
  8
0
 62
7
100
AcDbPolyline
 90
2
 70
0
 10
2032.080000
 20
24.081395
 30
0.0
 10
2032.080000
 20
46.281395
 30
0.0
  0
LWPOLYLINE
  5
240
100
AcDbEntity
  8
0
 62
7
100
AcDbPolyline
 90
4
 70
0
 10
24.080000
 20
46.281395
 30
0.0
 10
28.080000
 20
46.281395
 30
0.0
 10
28.080000
 20
63.751395
 30
0.0
 10
24.080000
 20
63.751395
 30
0.0
  0
LWPOLYLINE
  5
241
100
AcDbEntity
  8
0
 62
7
100
AcDbPolyline
 90
2
 70
0
 10
24.080000
 20
81.221395
 30
0.0
 10
24.080000
 20
63.751395
 30
0.0
  0
LWPOLYLINE
  5
242
100
AcDbEntity
  8
0
 62
7
100
AcDbPolyline
 90
4
 70
0
 10
24.080000
 20
81.221395
 30
0.0
 10
28.080000
 20
81.221395
 30
0.0
 10
28.080000
 20
98.691395
 30
0.0
 10
24.080000
 20
98.691395
 30
0.0
  0
LWPOLYLINE
  5
243
100
AcDbEntity
  8
0
 62
7
100
AcDbPolyline
 90
2
 70
0
 10
24.080000
 20
116.141395
 30
0.0
 10
24.080000
 20
98.691395
 30
0.0
  0
LWPOLYLINE
  5
244
100
AcDbEntity
  8
0
 62
7
100
AcDbPolyline
 90
4
 70
0
 10
24.080000
 20
116.141395
 30
0.0
 10
28.080000
 20
116.141395
 30
0.0
 10
28.080000
 20
133.611395
 30
0.0
 10
24.080000
 20
133.611395
 30
0.0
  0
LWPOLYLINE
  5
245
100
AcDbEntity
  8
0
 62
7
100
AcDbPolyline
 90
2
 70
0
 10
24.080000
 20
151.081395
 30
0.0
 10
24.080000
 20
133.611395
 30
0.0
  0
LWPOLYLINE
  5
246
100
AcDbEntity
  8
0
 62
7
100
AcDbPolyline
 90
2
 70
0
 10
2032.080000
 20
151.081395
 30
0.0
 10
24.080000
 20
151.081395
 30
0.0
  0
LWPOLYLINE
  5
247
100
AcDbEntity
  8
0
 62
7
100
AcDbPolyline
 90
2
 70
0
 10
2032.080000
 20
133.611395
 30
0.0
 10
2032.080000
 20
151.081395
 30
0.0
  0
LWPOLYLINE
  5
248
100
AcDbEntity
  8
0
 62
7
100
AcDbPolyline
 90
4
 70
0
 10
2032.080000
 20
133.611395
 30
0.0
 10
2028.080000
 20
133.611395
 30
0.0
 10
2028.080000
 20
116.141395
 30
0.0
 10
2032.080000
 20
116.141395
 30
0.0
  0
LWPOLYLINE
  5
249
100
AcDbEntity
  8
0
 62
7
100
AcDbPolyline
 90
2
 70
0
 10
2032.080000
 20
98.691395
 30
0.0
 10
2032.080000
 20
116.141395
 30
0.0
  0
LWPOLYLINE
  5
24a
100
AcDbEntity
  8
0
 62
7
100
AcDbPolyline
 90
4
 70
0
 10
2032.080000
 20
98.691395
 30
0.0
 10
2028.080000
 20
98.691395
 30
0.0
 10
2028.080000
 20
81.221395
 30
0.0
 10
2032.080000
 20
81.221395
 30
0.0
  0
LWPOLYLINE
  5
24b
100
AcDbEntity
  8
0
 62
7
100
AcDbPolyline
 90
2
 70
0
 10
2032.080000
 20
63.751395
 30
0.0
 10
2032.080000
 20
81.221395
 30
0.0
  0
LWPOLYLINE
  5
24c
100
AcDbEntity
  8
0
 62
7
100
AcDbPolyline
 90
4
 70
0
 10
2032.080000
 20
63.751395
 30
0.0
 10
2028.080000
 20
63.751395
 30
0.0
 10
2028.080000
 20
46.281395
 30
0.0
 10
2032.080000
 20
46.281395
 30
0.0
  0
LWPOLYLINE
  5
24d
100
AcDbEntity
  8
0
 62
7
100
AcDbPolyline
 90
4
 70
1
 10
423.680000
 20
116.141395
 30
0.0
 10
427.680000
 20
116.141395
 30
0.0
 10
427.680000
 20
133.611395
 30
0.0
 10
423.680000
 20
133.611395
 30
0.0
  0
LWPOLYLINE
  5
24e
100
AcDbEntity
  8
0
 62
7
100
AcDbPolyline
 90
4
 70
1
 10
423.680000
 20
81.221395
 30
0.0
 10
427.680000
 20
81.221395
 30
0.0
 10
427.680000
 20
98.691395
 30
0.0
 10
423.680000
 20
98.691395
 30
0.0
  0
LWPOLYLINE
  5
24f
100
AcDbEntity
  8
0
 62
7
100
AcDbPolyline
 90
4
 70
1
 10
825.280000
 20
116.141395
 30
0.0
 10
829.280000
 20
116.141395
 30
0.0
 10
829.280000
 20
133.611395
 30
0.0
 10
825.280000
 20
133.611395
 30
0.0
  0
SPLINE
  5
250
100
AcDbEntity
  8
0
 62
7
100
AcDbSpline
 70
8
 71
3
 72
8
 73
4
 74
0
 40
0
 40
0
 40
0
 40
0
 40
1
 40
1
 40
1
 40
1
 10
124.480000
 20
47.581395
 30
0.0
 10
108.301510
 20
47.581395
 30
0.0
 10
93.716059
 20
57.327082
 30
0.0
 10
87.524819
 20
72.274057
 30
0.0
  0
SPLINE
  5
251
100
AcDbEntity
  8
0
 62
7
100
AcDbSpline
 70
8
 71
3
 72
8
 73
4
 74
0
 40
0
 40
0
 40
0
 40
0
 40
1
 40
1
 40
1
 40
1
 10
87.524819
 20
72.274057
 30
0.0
 10
81.333579
 20
87.221033
 30
0.0
 10
84.755809
 20
104.425746
 30
0.0
 10
96.195729
 20
115.865666
 30
0.0
  0
SPLINE
  5
252
100
AcDbEntity
  8
0
 62
7
100
AcDbSpline
 70
8
 71
3
 72
8
 73
4
 74
0
 40
0
 40
0
 40
0
 40
0
 40
1
 40
1
 40
1
 40
1
 10
96.195729
 20
115.865666
 30
0.0
 10
107.635649
 20
127.305586
 30
0.0
 10
124.840362
 20
130.727816
 30
0.0
 10
139.787337
 20
124.536576
 30
0.0
  0
SPLINE
  5
253
100
AcDbEntity
  8
0
 62
7
100
AcDbSpline
 70
8
 71
3
 72
8
 73
4
 74
0
 40
0
 40
0
 40
0
 40
0
 40
1
 40
1
 40
1
 40
1
 10
139.787337
 20
124.536576
 30
0.0
 10
154.734313
 20
118.345336
 30
0.0
 10
164.480000
 20
103.759884
 30
0.0
 10
164.480000
 20
87.581395
 30
0.0
  0
SPLINE
  5
254
100
AcDbEntity
  8
0
 62
7
100
AcDbSpline
 70
8
 71
3
 72
8
 73
4
 74
0
 40
0
 40
0
 40
0
 40
0
 40
1
 40
1
 40
1
 40
1
 10
164.480000
 20
87.581395
 30
0.0
 10
164.480000
 20
76.972735
 30
0.0
 10
160.265726
 20
66.798579
 30
0.0
 10
152.764271
 20
59.297123
 30
0.0
  0
SPLINE
  5
255
100
AcDbEntity
  8
0
 62
7
100
AcDbSpline
 70
8
 71
3
 72
8
 73
4
 74
0
 40
0
 40
0
 40
0
 40
0
 40
1
 40
1
 40
1
 40
1
 10
152.764271
 20
59.297123
 30
0.0
 10
145.262816
 20
51.795668
 30
0.0
 10
135.088660
 20
47.581395
 30
0.0
 10
124.480000
 20
47.581395
 30
0.0
  0
LWPOLYLINE
  5
256
100
AcDbEntity
  8
0
 62
7
100
AcDbPolyline
 90
4
 70
1
 10
825.280000
 20
81.221395
 30
0.0
 10
829.280000
 20
81.221395
 30
0.0
 10
829.280000
 20
98.691395
 30
0.0
 10
825.280000
 20
98.691395
 30
0.0
  0
SPLINE
  5
257
100
AcDbEntity
  8
0
 62
7
100
AcDbSpline
 70
8
 71
3
 72
8
 73
4
 74
0
 40
0
 40
0
 40
0
 40
0
 40
1
 40
1
 40
1
 40
1
 10
325.280000
 20
47.581395
 30
0.0
 10
309.101510
 20
47.581395
 30
0.0
 10
294.516059
 20
57.327082
 30
0.0
 10
288.324819
 20
72.274057
 30
0.0
  0
SPLINE
  5
258
100
AcDbEntity
  8
0
 62
7
100
AcDbSpline
 70
8
 71
3
 72
8
 73
4
 74
0
 40
0
 40
0
 40
0
 40
0
 40
1
 40
1
 40
1
 40
1
 10
288.324819
 20
72.274057
 30
0.0
 10
282.133579
 20
87.221033
 30
0.0
 10
285.555809
 20
104.425746
 30
0.0
 10
296.995729
 20
115.865666
 30
0.0
  0
SPLINE
  5
259
100
AcDbEntity
  8
0
 62
7
100
AcDbSpline
 70
8
 71
3
 72
8
 73
4
 74
0
 40
0
 40
0
 40
0
 40
0
 40
1
 40
1
 40
1
 40
1
 10
296.995729
 20
115.865666
 30
0.0
 10
308.435649
 20
127.305586
 30
0.0
 10
325.640362
 20
130.727816
 30
0.0
 10
340.587337
 20
124.536576
 30
0.0
  0
SPLINE
  5
25a
100
AcDbEntity
  8
0
 62
7
100
AcDbSpline
 70
8
 71
3
 72
8
 73
4
 74
0
 40
0
 40
0
 40
0
 40
0
 40
1
 40
1
 40
1
 40
1
 10
340.587337
 20
124.536576
 30
0.0
 10
355.534313
 20
118.345336
 30
0.0
 10
365.280000
 20
103.759884
 30
0.0
 10
365.280000
 20
87.581395
 30
0.0
  0
SPLINE
  5
25b
100
AcDbEntity
  8
0
 62
7
100
AcDbSpline
 70
8
 71
3
 72
8
 73
4
 74
0
 40
0
 40
0
 40
0
 40
0
 40
1
 40
1
 40
1
 40
1
 10
365.280000
 20
87.581395
 30
0.0
 10
365.280000
 20
65.490005
 30
0.0
 10
347.371390
 20
47.581395
 30
0.0
 10
325.280000
 20
47.581395
 30
0.0
  0
LWPOLYLINE
  5
25c
100
AcDbEntity
  8
0
 62
7
100
AcDbPolyline
 90
1
 70
1
 10
124.480000
 20
47.581395
 30
0.0
  0
SPLINE
  5
25d
100
AcDbEntity
  8
0
 62
7
100
AcDbSpline
 70
8
 71
3
 72
8
 73
4
 74
0
 40
0
 40
0
 40
0
 40
0
 40
1
 40
1
 40
1
 40
1
 10
526.080000
 20
47.581395
 30
0.0
 10
509.901510
 20
47.581395
 30
0.0
 10
495.316059
 20
57.327082
 30
0.0
 10
489.124819
 20
72.274057
 30
0.0
  0
SPLINE
  5
25e
100
AcDbEntity
  8
0
 62
7
100
AcDbSpline
 70
8
 71
3
 72
8
 73
4
 74
0
 40
0
 40
0
 40
0
 40
0
 40
1
 40
1
 40
1
 40
1
 10
489.124819
 20
72.274057
 30
0.0
 10
482.933579
 20
87.221033
 30
0.0
 10
486.355809
 20
104.425746
 30
0.0
 10
497.795729
 20
115.865666
 30
0.0
  0
SPLINE
  5
25f
100
AcDbEntity
  8
0
 62
7
100
AcDbSpline
 70
8
 71
3
 72
8
 73
4
 74
0
 40
0
 40
0
 40
0
 40
0
 40
1
 40
1
 40
1
 40
1
 10
497.795729
 20
115.865666
 30
0.0
 10
509.235649
 20
127.305586
 30
0.0
 10
526.440362
 20
130.727816
 30
0.0
 10
541.387337
 20
124.536576
 30
0.0
  0
SPLINE
  5
260
100
AcDbEntity
  8
0
 62
7
100
AcDbSpline
 70
8
 71
3
 72
8
 73
4
 74
0
 40
0
 40
0
 40
0
 40
0
 40
1
 40
1
 40
1
 40
1
 10
541.387337
 20
124.536576
 30
0.0
 10
556.334313
 20
118.345336
 30
0.0
 10
566.080000
 20
103.759884
 30
0.0
 10
566.080000
 20
87.581395
 30
0.0
  0
SPLINE
  5
261
100
AcDbEntity
  8
0
 62
7
100
AcDbSpline
 70
8
 71
3
 72
8
 73
4
 74
0
 40
0
 40
0
 40
0
 40
0
 40
1
 40
1
 40
1
 40
1
 10
566.080000
 20
87.581395
 30
0.0
 10
566.080000
 20
76.972735
 30
0.0
 10
561.865726
 20
66.798579
 30
0.0
 10
554.364271
 20
59.297123
 30
0.0
  0
SPLINE
  5
262
100
AcDbEntity
  8
0
 62
7
100
AcDbSpline
 70
8
 71
3
 72
8
 73
4
 74
0
 40
0
 40
0
 40
0
 40
0
 40
1
 40
1
 40
1
 40
1
 10
554.364271
 20
59.297123
 30
0.0
 10
546.862816
 20
51.795668
 30
0.0
 10
536.688660
 20
47.581395
 30
0.0
 10
526.080000
 20
47.581395
 30
0.0
  0
LWPOLYLINE
  5
263
100
AcDbEntity
  8
0
 62
7
100
AcDbPolyline
 90
1
 70
1
 10
325.280000
 20
47.581395
 30
0.0
  0
LWPOLYLINE
  5
264
100
AcDbEntity
  8
0
 62
7
100
AcDbPolyline
 90
1
 70
1
 10
526.080000
 20
47.581395
 30
0.0
  0
SPLINE
  5
265
100
AcDbEntity
  8
0
 62
7
100
AcDbSpline
 70
8
 71
3
 72
8
 73
4
 74
0
 40
0
 40
0
 40
0
 40
0
 40
1
 40
1
 40
1
 40
1
 10
726.880000
 20
47.581395
 30
0.0
 10
710.701510
 20
47.581395
 30
0.0
 10
696.116059
 20
57.327082
 30
0.0
 10
689.924819
 20
72.274057
 30
0.0
  0
SPLINE
  5
266
100
AcDbEntity
  8
0
 62
7
100
AcDbSpline
 70
8
 71
3
 72
8
 73
4
 74
0
 40
0
 40
0
 40
0
 40
0
 40
1
 40
1
 40
1
 40
1
 10
689.924819
 20
72.274057
 30
0.0
 10
683.733579
 20
87.221033
 30
0.0
 10
687.155809
 20
104.425746
 30
0.0
 10
698.595729
 20
115.865666
 30
0.0
  0
SPLINE
  5
267
100
AcDbEntity
  8
0
 62
7
100
AcDbSpline
 70
8
 71
3
 72
8
 73
4
 74
0
 40
0
 40
0
 40
0
 40
0
 40
1
 40
1
 40
1
 40
1
 10
698.595729
 20
115.865666
 30
0.0
 10
710.035649
 20
127.305586
 30
0.0
 10
727.240362
 20
130.727816
 30
0.0
 10
742.187337
 20
124.536576
 30
0.0
  0
SPLINE
  5
268
100
AcDbEntity
  8
0
 62
7
100
AcDbSpline
 70
8
 71
3
 72
8
 73
4
 74
0
 40
0
 40
0
 40
0
 40
0
 40
1
 40
1
 40
1
 40
1
 10
742.187337
 20
124.536576
 30
0.0
 10
757.134313
 20
118.345336
 30
0.0
 10
766.880000
 20
103.759884
 30
0.0
 10
766.880000
 20
87.581395
 30
0.0
  0
SPLINE
  5
269
100
AcDbEntity
  8
0
 62
7
100
AcDbSpline
 70
8
 71
3
 72
8
 73
4
 74
0
 40
0
 40
0
 40
0
 40
0
 40
1
 40
1
 40
1
 40
1
 10
766.880000
 20
87.581395
 30
0.0
 10
766.880000
 20
76.972735
 30
0.0
 10
762.665726
 20
66.798579
 30
0.0
 10
755.164271
 20
59.297123
 30
0.0
  0
SPLINE
  5
26a
100
AcDbEntity
  8
0
 62
7
100
AcDbSpline
 70
8
 71
3
 72
8
 73
4
 74
0
 40
0
 40
0
 40
0
 40
0
 40
1
 40
1
 40
1
 40
1
 10
755.164271
 20
59.297123
 30
0.0
 10
747.662816
 20
51.795668
 30
0.0
 10
737.488660
 20
47.581395
 30
0.0
 10
726.880000
 20
47.581395
 30
0.0
  0
LWPOLYLINE
  5
26b
100
AcDbEntity
  8
0
 62
7
100
AcDbPolyline
 90
4
 70
1
 10
423.680000
 20
46.281395
 30
0.0
 10
427.680000
 20
46.281395
 30
0.0
 10
427.680000
 20
63.751395
 30
0.0
 10
423.680000
 20
63.751395
 30
0.0
  0
SPLINE
  5
26c
100
AcDbEntity
  8
0
 62
7
100
AcDbSpline
 70
8
 71
3
 72
8
 73
4
 74
0
 40
0
 40
0
 40
0
 40
0
 40
1
 40
1
 40
1
 40
1
 10
927.680000
 20
47.581395
 30
0.0
 10
911.501510
 20
47.581395
 30
0.0
 10
896.916059
 20
57.327082
 30
0.0
 10
890.724819
 20
72.274057
 30
0.0
  0
SPLINE
  5
26d
100
AcDbEntity
  8
0
 62
7
100
AcDbSpline
 70
8
 71
3
 72
8
 73
4
 74
0
 40
0
 40
0
 40
0
 40
0
 40
1
 40
1
 40
1
 40
1
 10
890.724819
 20
72.274057
 30
0.0
 10
884.533579
 20
87.221033
 30
0.0
 10
887.955809
 20
104.425746
 30
0.0
 10
899.395729
 20
115.865666
 30
0.0
  0
SPLINE
  5
26e
100
AcDbEntity
  8
0
 62
7
100
AcDbSpline
 70
8
 71
3
 72
8
 73
4
 74
0
 40
0
 40
0
 40
0
 40
0
 40
1
 40
1
 40
1
 40
1
 10
899.395729
 20
115.865666
 30
0.0
 10
910.835649
 20
127.305586
 30
0.0
 10
928.040362
 20
130.727816
 30
0.0
 10
942.987337
 20
124.536576
 30
0.0
  0
SPLINE
  5
26f
100
AcDbEntity
  8
0
 62
7
100
AcDbSpline
 70
8
 71
3
 72
8
 73
4
 74
0
 40
0
 40
0
 40
0
 40
0
 40
1
 40
1
 40
1
 40
1
 10
942.987337
 20
124.536576
 30
0.0
 10
957.934313
 20
118.345336
 30
0.0
 10
967.680000
 20
103.759884
 30
0.0
 10
967.680000
 20
87.581395
 30
0.0
  0
SPLINE
  5
270
100
AcDbEntity
  8
0
 62
7
100
AcDbSpline
 70
8
 71
3
 72
8
 73
4
 74
0
 40
0
 40
0
 40
0
 40
0
 40
1
 40
1
 40
1
 40
1
 10
967.680000
 20
87.581395
 30
0.0
 10
967.680000
 20
76.972735
 30
0.0
 10
963.465726
 20
66.798579
 30
0.0
 10
955.964271
 20
59.297123
 30
0.0
  0
SPLINE
  5
271
100
AcDbEntity
  8
0
 62
7
100
AcDbSpline
 70
8
 71
3
 72
8
 73
4
 74
0
 40
0
 40
0
 40
0
 40
0
 40
1
 40
1
 40
1
 40
1
 10
955.964271
 20
59.297123
 30
0.0
 10
948.462816
 20
51.795668
 30
0.0
 10
938.288660
 20
47.581395
 30
0.0
 10
927.680000
 20
47.581395
 30
0.0
  0
LWPOLYLINE
  5
272
100
AcDbEntity
  8
0
 62
7
100
AcDbPolyline
 90
1
 70
1
 10
726.880000
 20
47.581395
 30
0.0
  0
LWPOLYLINE
  5
273
100
AcDbEntity
  8
0
 62
7
100
AcDbPolyline
 90
1
 70
1
 10
927.680000
 20
47.581395
 30
0.0
  0
LWPOLYLINE
  5
274
100
AcDbEntity
  8
0
 62
7
100
AcDbPolyline
 90
4
 70
1
 10
825.280000
 20
46.281395
 30
0.0
 10
829.280000
 20
46.281395
 30
0.0
 10
829.280000
 20
63.751395
 30
0.0
 10
825.280000
 20
63.751395
 30
0.0
  0
LWPOLYLINE
  5
275
100
AcDbEntity
  8
0
 62
7
100
AcDbPolyline
 90
4
 70
1
 10
1226.880000
 20
116.141395
 30
0.0
 10
1230.880000
 20
116.141395
 30
0.0
 10
1230.880000
 20
133.611395
 30
0.0
 10
1226.880000
 20
133.611395
 30
0.0
  0
LWPOLYLINE
  5
276
100
AcDbEntity
  8
0
 62
7
100
AcDbPolyline
 90
4
 70
1
 10
1226.880000
 20
81.221395
 30
0.0
 10
1230.880000
 20
81.221395
 30
0.0
 10
1230.880000
 20
98.691395
 30
0.0
 10
1226.880000
 20
98.691395
 30
0.0
  0
LWPOLYLINE
  5
277
100
AcDbEntity
  8
0
 62
7
100
AcDbPolyline
 90
4
 70
1
 10
1628.480000
 20
116.141395
 30
0.0
 10
1632.480000
 20
116.141395
 30
0.0
 10
1632.480000
 20
133.611395
 30
0.0
 10
1628.480000
 20
133.611395
 30
0.0
  0
SPLINE
  5
278
100
AcDbEntity
  8
0
 62
7
100
AcDbSpline
 70
8
 71
3
 72
8
 73
4
 74
0
 40
0
 40
0
 40
0
 40
0
 40
1
 40
1
 40
1
 40
1
 10
1128.480000
 20
47.581395
 30
0.0
 10
1112.301510
 20
47.581395
 30
0.0
 10
1097.716059
 20
57.327082
 30
0.0
 10
1091.524819
 20
72.274057
 30
0.0
  0
SPLINE
  5
279
100
AcDbEntity
  8
0
 62
7
100
AcDbSpline
 70
8
 71
3
 72
8
 73
4
 74
0
 40
0
 40
0
 40
0
 40
0
 40
1
 40
1
 40
1
 40
1
 10
1091.524819
 20
72.274057
 30
0.0
 10
1085.333579
 20
87.221033
 30
0.0
 10
1088.755809
 20
104.425746
 30
0.0
 10
1100.195729
 20
115.865666
 30
0.0
  0
SPLINE
  5
27a
100
AcDbEntity
  8
0
 62
7
100
AcDbSpline
 70
8
 71
3
 72
8
 73
4
 74
0
 40
0
 40
0
 40
0
 40
0
 40
1
 40
1
 40
1
 40
1
 10
1100.195729
 20
115.865666
 30
0.0
 10
1111.635649
 20
127.305586
 30
0.0
 10
1128.840362
 20
130.727816
 30
0.0
 10
1143.787337
 20
124.536576
 30
0.0
  0
SPLINE
  5
27b
100
AcDbEntity
  8
0
 62
7
100
AcDbSpline
 70
8
 71
3
 72
8
 73
4
 74
0
 40
0
 40
0
 40
0
 40
0
 40
1
 40
1
 40
1
 40
1
 10
1143.787337
 20
124.536576
 30
0.0
 10
1158.734313
 20
118.345336
 30
0.0
 10
1168.480000
 20
103.759884
 30
0.0
 10
1168.480000
 20
87.581395
 30
0.0
  0
SPLINE
  5
27c
100
AcDbEntity
  8
0
 62
7
100
AcDbSpline
 70
8
 71
3
 72
8
 73
4
 74
0
 40
0
 40
0
 40
0
 40
0
 40
1
 40
1
 40
1
 40
1
 10
1168.480000
 20
87.581395
 30
0.0
 10
1168.480000
 20
76.972735
 30
0.0
 10
1164.265726
 20
66.798579
 30
0.0
 10
1156.764271
 20
59.297123
 30
0.0
  0
SPLINE
  5
27d
100
AcDbEntity
  8
0
 62
7
100
AcDbSpline
 70
8
 71
3
 72
8
 73
4
 74
0
 40
0
 40
0
 40
0
 40
0
 40
1
 40
1
 40
1
 40
1
 10
1156.764271
 20
59.297123
 30
0.0
 10
1149.262816
 20
51.795668
 30
0.0
 10
1139.088660
 20
47.581395
 30
0.0
 10
1128.480000
 20
47.581395
 30
0.0
  0
LWPOLYLINE
  5
27e
100
AcDbEntity
  8
0
 62
7
100
AcDbPolyline
 90
4
 70
1
 10
1628.480000
 20
81.221395
 30
0.0
 10
1632.480000
 20
81.221395
 30
0.0
 10
1632.480000
 20
98.691395
 30
0.0
 10
1628.480000
 20
98.691395
 30
0.0
  0
SPLINE
  5
27f
100
AcDbEntity
  8
0
 62
7
100
AcDbSpline
 70
8
 71
3
 72
8
 73
4
 74
0
 40
0
 40
0
 40
0
 40
0
 40
1
 40
1
 40
1
 40
1
 10
1329.280000
 20
47.581395
 30
0.0
 10
1313.101510
 20
47.581395
 30
0.0
 10
1298.516059
 20
57.327082
 30
0.0
 10
1292.324819
 20
72.274057
 30
0.0
  0
SPLINE
  5
280
100
AcDbEntity
  8
0
 62
7
100
AcDbSpline
 70
8
 71
3
 72
8
 73
4
 74
0
 40
0
 40
0
 40
0
 40
0
 40
1
 40
1
 40
1
 40
1
 10
1292.324819
 20
72.274057
 30
0.0
 10
1286.133579
 20
87.221033
 30
0.0
 10
1289.555809
 20
104.425746
 30
0.0
 10
1300.995729
 20
115.865666
 30
0.0
  0
SPLINE
  5
281
100
AcDbEntity
  8
0
 62
7
100
AcDbSpline
 70
8
 71
3
 72
8
 73
4
 74
0
 40
0
 40
0
 40
0
 40
0
 40
1
 40
1
 40
1
 40
1
 10
1300.995729
 20
115.865666
 30
0.0
 10
1312.435649
 20
127.305586
 30
0.0
 10
1329.640362
 20
130.727816
 30
0.0
 10
1344.587337
 20
124.536576
 30
0.0
  0
SPLINE
  5
282
100
AcDbEntity
  8
0
 62
7
100
AcDbSpline
 70
8
 71
3
 72
8
 73
4
 74
0
 40
0
 40
0
 40
0
 40
0
 40
1
 40
1
 40
1
 40
1
 10
1344.587337
 20
124.536576
 30
0.0
 10
1359.534313
 20
118.345336
 30
0.0
 10
1369.280000
 20
103.759884
 30
0.0
 10
1369.280000
 20
87.581395
 30
0.0
  0
SPLINE
  5
283
100
AcDbEntity
  8
0
 62
7
100
AcDbSpline
 70
8
 71
3
 72
8
 73
4
 74
0
 40
0
 40
0
 40
0
 40
0
 40
1
 40
1
 40
1
 40
1
 10
1369.280000
 20
87.581395
 30
0.0
 10
1369.280000
 20
76.972735
 30
0.0
 10
1365.065726
 20
66.798579
 30
0.0
 10
1357.564271
 20
59.297123
 30
0.0
  0
SPLINE
  5
284
100
AcDbEntity
  8
0
 62
7
100
AcDbSpline
 70
8
 71
3
 72
8
 73
4
 74
0
 40
0
 40
0
 40
0
 40
0
 40
1
 40
1
 40
1
 40
1
 10
1357.564271
 20
59.297123
 30
0.0
 10
1350.062816
 20
51.795668
 30
0.0
 10
1339.888660
 20
47.581395
 30
0.0
 10
1329.280000
 20
47.581395
 30
0.0
  0
LWPOLYLINE
  5
285
100
AcDbEntity
  8
0
 62
7
100
AcDbPolyline
 90
1
 70
1
 10
1128.480000
 20
47.581395
 30
0.0
  0
LWPOLYLINE
  5
286
100
AcDbEntity
  8
0
 62
7
100
AcDbPolyline
 90
1
 70
1
 10
1329.280000
 20
47.581395
 30
0.0
  0
SPLINE
  5
287
100
AcDbEntity
  8
0
 62
7
100
AcDbSpline
 70
8
 71
3
 72
8
 73
4
 74
0
 40
0
 40
0
 40
0
 40
0
 40
1
 40
1
 40
1
 40
1
 10
1530.080000
 20
47.581395
 30
0.0
 10
1513.901510
 20
47.581395
 30
0.0
 10
1499.316059
 20
57.327082
 30
0.0
 10
1493.124819
 20
72.274057
 30
0.0
  0
SPLINE
  5
288
100
AcDbEntity
  8
0
 62
7
100
AcDbSpline
 70
8
 71
3
 72
8
 73
4
 74
0
 40
0
 40
0
 40
0
 40
0
 40
1
 40
1
 40
1
 40
1
 10
1493.124819
 20
72.274057
 30
0.0
 10
1486.933579
 20
87.221033
 30
0.0
 10
1490.355809
 20
104.425746
 30
0.0
 10
1501.795729
 20
115.865666
 30
0.0
  0
SPLINE
  5
289
100
AcDbEntity
  8
0
 62
7
100
AcDbSpline
 70
8
 71
3
 72
8
 73
4
 74
0
 40
0
 40
0
 40
0
 40
0
 40
1
 40
1
 40
1
 40
1
 10
1501.795729
 20
115.865666
 30
0.0
 10
1513.235649
 20
127.305586
 30
0.0
 10
1530.440362
 20
130.727816
 30
0.0
 10
1545.387337
 20
124.536576
 30
0.0
  0
SPLINE
  5
28a
100
AcDbEntity
  8
0
 62
7
100
AcDbSpline
 70
8
 71
3
 72
8
 73
4
 74
0
 40
0
 40
0
 40
0
 40
0
 40
1
 40
1
 40
1
 40
1
 10
1545.387337
 20
124.536576
 30
0.0
 10
1560.334313
 20
118.345336
 30
0.0
 10
1570.080000
 20
103.759884
 30
0.0
 10
1570.080000
 20
87.581395
 30
0.0
  0
SPLINE
  5
28b
100
AcDbEntity
  8
0
 62
7
100
AcDbSpline
 70
8
 71
3
 72
8
 73
4
 74
0
 40
0
 40
0
 40
0
 40
0
 40
1
 40
1
 40
1
 40
1
 10
1570.080000
 20
87.581395
 30
0.0
 10
1570.080000
 20
76.972735
 30
0.0
 10
1565.865726
 20
66.798579
 30
0.0
 10
1558.364271
 20
59.297123
 30
0.0
  0
SPLINE
  5
28c
100
AcDbEntity
  8
0
 62
7
100
AcDbSpline
 70
8
 71
3
 72
8
 73
4
 74
0
 40
0
 40
0
 40
0
 40
0
 40
1
 40
1
 40
1
 40
1
 10
1558.364271
 20
59.297123
 30
0.0
 10
1550.862816
 20
51.795668
 30
0.0
 10
1540.688660
 20
47.581395
 30
0.0
 10
1530.080000
 20
47.581395
 30
0.0
  0
LWPOLYLINE
  5
28d
100
AcDbEntity
  8
0
 62
7
100
AcDbPolyline
 90
4
 70
1
 10
1226.880000
 20
46.281395
 30
0.0
 10
1230.880000
 20
46.281395
 30
0.0
 10
1230.880000
 20
63.751395
 30
0.0
 10
1226.880000
 20
63.751395
 30
0.0
  0
SPLINE
  5
28e
100
AcDbEntity
  8
0
 62
7
100
AcDbSpline
 70
8
 71
3
 72
8
 73
4
 74
0
 40
0
 40
0
 40
0
 40
0
 40
1
 40
1
 40
1
 40
1
 10
1730.880000
 20
47.581395
 30
0.0
 10
1714.701510
 20
47.581395
 30
0.0
 10
1700.116059
 20
57.327082
 30
0.0
 10
1693.924819
 20
72.274057
 30
0.0
  0
SPLINE
  5
28f
100
AcDbEntity
  8
0
 62
7
100
AcDbSpline
 70
8
 71
3
 72
8
 73
4
 74
0
 40
0
 40
0
 40
0
 40
0
 40
1
 40
1
 40
1
 40
1
 10
1693.924819
 20
72.274057
 30
0.0
 10
1687.733579
 20
87.221033
 30
0.0
 10
1691.155809
 20
104.425746
 30
0.0
 10
1702.595729
 20
115.865666
 30
0.0
  0
SPLINE
  5
290
100
AcDbEntity
  8
0
 62
7
100
AcDbSpline
 70
8
 71
3
 72
8
 73
4
 74
0
 40
0
 40
0
 40
0
 40
0
 40
1
 40
1
 40
1
 40
1
 10
1702.595729
 20
115.865666
 30
0.0
 10
1714.035649
 20
127.305586
 30
0.0
 10
1731.240362
 20
130.727816
 30
0.0
 10
1746.187337
 20
124.536576
 30
0.0
  0
SPLINE
  5
291
100
AcDbEntity
  8
0
 62
7
100
AcDbSpline
 70
8
 71
3
 72
8
 73
4
 74
0
 40
0
 40
0
 40
0
 40
0
 40
1
 40
1
 40
1
 40
1
 10
1746.187337
 20
124.536576
 30
0.0
 10
1761.134313
 20
118.345336
 30
0.0
 10
1770.880000
 20
103.759884
 30
0.0
 10
1770.880000
 20
87.581395
 30
0.0
  0
SPLINE
  5
292
100
AcDbEntity
  8
0
 62
7
100
AcDbSpline
 70
8
 71
3
 72
8
 73
4
 74
0
 40
0
 40
0
 40
0
 40
0
 40
1
 40
1
 40
1
 40
1
 10
1770.880000
 20
87.581395
 30
0.0
 10
1770.880000
 20
76.972735
 30
0.0
 10
1766.665726
 20
66.798579
 30
0.0
 10
1759.164271
 20
59.297123
 30
0.0
  0
SPLINE
  5
293
100
AcDbEntity
  8
0
 62
7
100
AcDbSpline
 70
8
 71
3
 72
8
 73
4
 74
0
 40
0
 40
0
 40
0
 40
0
 40
1
 40
1
 40
1
 40
1
 10
1759.164271
 20
59.297123
 30
0.0
 10
1751.662816
 20
51.795668
 30
0.0
 10
1741.488660
 20
47.581395
 30
0.0
 10
1730.880000
 20
47.581395
 30
0.0
  0
LWPOLYLINE
  5
294
100
AcDbEntity
  8
0
 62
7
100
AcDbPolyline
 90
1
 70
1
 10
1530.080000
 20
47.581395
 30
0.0
  0
SPLINE
  5
295
100
AcDbEntity
  8
0
 62
7
100
AcDbSpline
 70
8
 71
3
 72
8
 73
4
 74
0
 40
0
 40
0
 40
0
 40
0
 40
1
 40
1
 40
1
 40
1
 10
1931.680000
 20
47.581395
 30
0.0
 10
1915.501510
 20
47.581395
 30
0.0
 10
1900.916059
 20
57.327082
 30
0.0
 10
1894.724819
 20
72.274057
 30
0.0
  0
SPLINE
  5
296
100
AcDbEntity
  8
0
 62
7
100
AcDbSpline
 70
8
 71
3
 72
8
 73
4
 74
0
 40
0
 40
0
 40
0
 40
0
 40
1
 40
1
 40
1
 40
1
 10
1894.724819
 20
72.274057
 30
0.0
 10
1888.533579
 20
87.221033
 30
0.0
 10
1891.955809
 20
104.425746
 30
0.0
 10
1903.395729
 20
115.865666
 30
0.0
  0
SPLINE
  5
297
100
AcDbEntity
  8
0
 62
7
100
AcDbSpline
 70
8
 71
3
 72
8
 73
4
 74
0
 40
0
 40
0
 40
0
 40
0
 40
1
 40
1
 40
1
 40
1
 10
1903.395729
 20
115.865666
 30
0.0
 10
1914.835649
 20
127.305586
 30
0.0
 10
1932.040362
 20
130.727816
 30
0.0
 10
1946.987337
 20
124.536576
 30
0.0
  0
SPLINE
  5
298
100
AcDbEntity
  8
0
 62
7
100
AcDbSpline
 70
8
 71
3
 72
8
 73
4
 74
0
 40
0
 40
0
 40
0
 40
0
 40
1
 40
1
 40
1
 40
1
 10
1946.987337
 20
124.536576
 30
0.0
 10
1961.934313
 20
118.345336
 30
0.0
 10
1971.680000
 20
103.759884
 30
0.0
 10
1971.680000
 20
87.581395
 30
0.0
  0
SPLINE
  5
299
100
AcDbEntity
  8
0
 62
7
100
AcDbSpline
 70
8
 71
3
 72
8
 73
4
 74
0
 40
0
 40
0
 40
0
 40
0
 40
1
 40
1
 40
1
 40
1
 10
1971.680000
 20
87.581395
 30
0.0
 10
1971.680000
 20
65.490005
 30
0.0
 10
1953.771390
 20
47.581395
 30
0.0
 10
1931.680000
 20
47.581395
 30
0.0
  0
LWPOLYLINE
  5
29a
100
AcDbEntity
  8
0
 62
7
100
AcDbPolyline
 90
1
 70
1
 10
1730.880000
 20
47.581395
 30
0.0
  0
LWPOLYLINE
  5
29b
100
AcDbEntity
  8
0
 62
7
100
AcDbPolyline
 90
1
 70
1
 10
1931.680000
 20
47.581395
 30
0.0
  0
LWPOLYLINE
  5
29c
100
AcDbEntity
  8
0
 62
7
100
AcDbPolyline
 90
4
 70
1
 10
1628.480000
 20
46.281395
 30
0.0
 10
1632.480000
 20
46.281395
 30
0.0
 10
1632.480000
 20
63.751395
 30
0.0
 10
1628.480000
 20
63.751395
 30
0.0
  0
LWPOLYLINE
  5
29d
100
AcDbEntity
  8
0
 62
7
100
AcDbPolyline
 90
2
 70
0
 10
2269.148118
 20
1005.437673
 30
0.0
 10
2286.618118
 20
1005.437673
 30
0.0
  0
LWPOLYLINE
  5
29e
100
AcDbEntity
  8
0
 62
7
100
AcDbPolyline
 90
2
 70
0
 10
2183.978118
 20
728.309544
 30
0.0
 10
2251.678118
 20
1005.437673
 30
0.0
  0
LWPOLYLINE
  5
29f
100
AcDbEntity
  8
0
 62
7
100
AcDbPolyline
 90
2
 70
0
 10
2193.978118
 20
728.309544
 30
0.0
 10
2183.978118
 20
728.309544
 30
0.0
  0
LWPOLYLINE
  5
2a0
100
AcDbEntity
  8
0
 62
7
100
AcDbPolyline
 90
2
 70
0
 10
2193.978118
 20
732.309544
 30
0.0
 10
2193.978118
 20
728.309544
 30
0.0
  0
LWPOLYLINE
  5
2a1
100
AcDbEntity
  8
0
 62
7
100
AcDbPolyline
 90
2
 70
0
 10
2203.978118
 20
732.309544
 30
0.0
 10
2193.978118
 20
732.309544
 30
0.0
  0
LWPOLYLINE
  5
2a2
100
AcDbEntity
  8
0
 62
7
100
AcDbPolyline
 90
2
 70
0
 10
2203.978118
 20
728.309544
 30
0.0
 10
2203.978118
 20
732.309544
 30
0.0
  0
LWPOLYLINE
  5
2a3
100
AcDbEntity
  8
0
 62
7
100
AcDbPolyline
 90
2
 70
0
 10
2213.978118
 20
728.309544
 30
0.0
 10
2203.978118
 20
728.309544
 30
0.0
  0
LWPOLYLINE
  5
2a4
100
AcDbEntity
  8
0
 62
7
100
AcDbPolyline
 90
2
 70
0
 10
2371.668717
 20
1001.437673
 30
0.0
 10
2213.978118
 20
728.309544
 30
0.0
  0
LWPOLYLINE
  5
2a5
100
AcDbEntity
  8
0
 62
7
100
AcDbPolyline
 90
3
 70
0
 10
2371.668717
 20
1001.437673
 30
0.0
 10
2356.508118
 20
1001.437673
 30
0.0
 10
2356.508118
 20
1005.437673
 30
0.0
  0
LWPOLYLINE
  5
2a6
100
AcDbEntity
  8
0
 62
7
100
AcDbPolyline
 90
2
 70
0
 10
2339.028118
 20
1005.437673
 30
0.0
 10
2356.508118
 20
1005.437673
 30
0.0
  0
LWPOLYLINE
  5
2a7
100
AcDbEntity
  8
0
 62
7
100
AcDbPolyline
 90
2
 70
0
 10
2339.028118
 20
1001.437673
 30
0.0
 10
2339.028118
 20
1005.437673
 30
0.0
  0
LWPOLYLINE
  5
2a8
100
AcDbEntity
  8
0
 62
7
100
AcDbPolyline
 90
2
 70
0
 10
2321.558118
 20
1001.437673
 30
0.0
 10
2339.028118
 20
1001.437673
 30
0.0
  0
LWPOLYLINE
  5
2a9
100
AcDbEntity
  8
0
 62
7
100
AcDbPolyline
 90
2
 70
0
 10
2321.558118
 20
1005.437673
 30
0.0
 10
2321.558118
 20
1001.437673
 30
0.0
  0
LWPOLYLINE
  5
2aa
100
AcDbEntity
  8
0
 62
7
100
AcDbPolyline
 90
2
 70
0
 10
2304.088118
 20
1005.437673
 30
0.0
 10
2321.558118
 20
1005.437673
 30
0.0
  0
LWPOLYLINE
  5
2ab
100
AcDbEntity
  8
0
 62
7
100
AcDbPolyline
 90
2
 70
0
 10
2304.088118
 20
1001.437673
 30
0.0
 10
2304.088118
 20
1005.437673
 30
0.0
  0
LWPOLYLINE
  5
2ac
100
AcDbEntity
  8
0
 62
7
100
AcDbPolyline
 90
2
 70
0
 10
2286.618118
 20
1001.437673
 30
0.0
 10
2304.088118
 20
1001.437673
 30
0.0
  0
LWPOLYLINE
  5
2ad
100
AcDbEntity
  8
0
 62
7
100
AcDbPolyline
 90
2
 70
0
 10
2286.618118
 20
1005.437673
 30
0.0
 10
2286.618118
 20
1001.437673
 30
0.0
  0
LWPOLYLINE
  5
2ae
100
AcDbEntity
  8
0
 62
7
100
AcDbPolyline
 90
2
 70
0
 10
2269.148118
 20
1001.437673
 30
0.0
 10
2269.148118
 20
1005.437673
 30
0.0
  0
LWPOLYLINE
  5
2af
100
AcDbEntity
  8
0
 62
7
100
AcDbPolyline
 90
2
 70
0
 10
2251.678118
 20
1001.437673
 30
0.0
 10
2269.148118
 20
1001.437673
 30
0.0
  0
LWPOLYLINE
  5
2b0
100
AcDbEntity
  8
0
 62
7
100
AcDbPolyline
 90
2
 70
0
 10
2251.678118
 20
1005.437673
 30
0.0
 10
2251.678118
 20
1001.437673
 30
0.0
  0
LWPOLYLINE
  5
2b1
100
AcDbEntity
  8
0
 62
7
100
AcDbPolyline
 90
4
 70
1
 10
25.080000
 20
823.342789
 30
0.0
 10
2033.080000
 20
823.342789
 30
0.0
 10
2033.080000
 20
1136.342789
 30
0.0
 10
25.080000
 20
1136.342789
 30
0.0
  0
LWPOLYLINE
  5
2b2
100
AcDbEntity
  8
0
 62
7
100
AcDbPolyline
 90
2
 70
0
 10
25.080000
 20
161.141395
 30
0.0
 10
2033.080000
 20
161.141395
 30
0.0
  0
LWPOLYLINE
  5
2b3
100
AcDbEntity
  8
0
 62
7
100
AcDbPolyline
 90
2
 70
0
 10
25.080000
 20
205.841395
 30
0.0
 10
25.080000
 20
161.141395
 30
0.0
  0
LWPOLYLINE
  5
2b4
100
AcDbEntity
  8
0
 62
7
100
AcDbPolyline
 90
2
 70
0
 10
2033.080000
 20
161.141395
 30
0.0
 10
2033.080000
 20
205.841395
 30
0.0
  0
LWPOLYLINE
  5
2b5
100
AcDbEntity
  8
0
 62
7
100
AcDbPolyline
 90
2
 70
0
 10
29.080000
 20
205.841395
 30
0.0
 10
25.080000
 20
205.841395
 30
0.0
  0
LWPOLYLINE
  5
2b6
100
AcDbEntity
  8
0
 62
7
100
AcDbPolyline
 90
2
 70
0
 10
29.080000
 20
215.841395
 30
0.0
 10
29.080000
 20
205.841395
 30
0.0
  0
LWPOLYLINE
  5
2b7
100
AcDbEntity
  8
0
 62
7
100
AcDbPolyline
 90
2
 70
0
 10
25.080000
 20
215.841395
 30
0.0
 10
29.080000
 20
215.841395
 30
0.0
  0
LWPOLYLINE
  5
2b8
100
AcDbEntity
  8
0
 62
7
100
AcDbPolyline
 90
2
 70
0
 10
25.080000
 20
225.841395
 30
0.0
 10
25.080000
 20
215.841395
 30
0.0
  0
LWPOLYLINE
  5
2b9
100
AcDbEntity
  8
0
 62
7
100
AcDbPolyline
 90
2
 70
0
 10
29.080000
 20
225.841395
 30
0.0
 10
25.080000
 20
225.841395
 30
0.0
  0
LWPOLYLINE
  5
2ba
100
AcDbEntity
  8
0
 62
7
100
AcDbPolyline
 90
2
 70
0
 10
29.080000
 20
235.841395
 30
0.0
 10
29.080000
 20
225.841395
 30
0.0
  0
LWPOLYLINE
  5
2bb
100
AcDbEntity
  8
0
 62
7
100
AcDbPolyline
 90
2
 70
0
 10
424.680000
 20
235.841395
 30
0.0
 10
29.080000
 20
235.841395
 30
0.0
  0
LWPOLYLINE
  5
2bc
100
AcDbEntity
  8
0
 62
7
100
AcDbPolyline
 90
4
 70
0
 10
424.680000
 20
235.841395
 30
0.0
 10
424.680000
 20
225.841395
 30
0.0
 10
428.680000
 20
225.841395
 30
0.0
 10
428.680000
 20
235.841395
 30
0.0
  0
LWPOLYLINE
  5
2bd
100
AcDbEntity
  8
0
 62
7
100
AcDbPolyline
 90
2
 70
0
 10
826.280000
 20
235.841395
 30
0.0
 10
428.680000
 20
235.841395
 30
0.0
  0
LWPOLYLINE
  5
2be
100
AcDbEntity
  8
0
 62
7
100
AcDbPolyline
 90
4
 70
0
 10
826.280000
 20
235.841395
 30
0.0
 10
826.280000
 20
225.841395
 30
0.0
 10
830.280000
 20
225.841395
 30
0.0
 10
830.280000
 20
235.841395
 30
0.0
  0
LWPOLYLINE
  5
2bf
100
AcDbEntity
  8
0
 62
7
100
AcDbPolyline
 90
2
 70
0
 10
1227.880000
 20
235.841395
 30
0.0
 10
830.280000
 20
235.841395
 30
0.0
  0
LWPOLYLINE
  5
2c0
100
AcDbEntity
  8
0
 62
7
100
AcDbPolyline
 90
4
 70
0
 10
1227.880000
 20
235.841395
 30
0.0
 10
1227.880000
 20
225.841395
 30
0.0
 10
1231.880000
 20
225.841395
 30
0.0
 10
1231.880000
 20
235.841395
 30
0.0
  0
LWPOLYLINE
  5
2c1
100
AcDbEntity
  8
0
 62
7
100
AcDbPolyline
 90
2
 70
0
 10
1629.480000
 20
235.841395
 30
0.0
 10
1231.880000
 20
235.841395
 30
0.0
  0
LWPOLYLINE
  5
2c2
100
AcDbEntity
  8
0
 62
7
100
AcDbPolyline
 90
4
 70
0
 10
1629.480000
 20
235.841395
 30
0.0
 10
1629.480000
 20
225.841395
 30
0.0
 10
1633.480000
 20
225.841395
 30
0.0
 10
1633.480000
 20
235.841395
 30
0.0
  0
LWPOLYLINE
  5
2c3
100
AcDbEntity
  8
0
 62
7
100
AcDbPolyline
 90
2
 70
0
 10
2029.080000
 20
235.841395
 30
0.0
 10
1633.480000
 20
235.841395
 30
0.0
  0
LWPOLYLINE
  5
2c4
100
AcDbEntity
  8
0
 62
7
100
AcDbPolyline
 90
3
 70
0
 10
2029.080000
 20
235.841395
 30
0.0
 10
2029.080000
 20
225.841395
 30
0.0
 10
2033.080000
 20
225.841395
 30
0.0
  0
LWPOLYLINE
  5
2c5
100
AcDbEntity
  8
0
 62
7
100
AcDbPolyline
 90
2
 70
0
 10
2033.080000
 20
215.841395
 30
0.0
 10
2033.080000
 20
225.841395
 30
0.0
  0
LWPOLYLINE
  5
2c6
100
AcDbEntity
  8
0
 62
7
100
AcDbPolyline
 90
4
 70
0
 10
2033.080000
 20
215.841395
 30
0.0
 10
2029.080000
 20
215.841395
 30
0.0
 10
2029.080000
 20
205.841395
 30
0.0
 10
2033.080000
 20
205.841395
 30
0.0
  0
LWPOLYLINE
  5
2c7
100
AcDbEntity
  8
0
 62
7
100
AcDbPolyline
 90
4
 70
1
 10
424.680000
 20
205.841395
 30
0.0
 10
428.680000
 20
205.841395
 30
0.0
 10
428.680000
 20
215.841395
 30
0.0
 10
424.680000
 20
215.841395
 30
0.0
  0
LWPOLYLINE
  5
2c8
100
AcDbEntity
  8
0
 62
7
100
AcDbPolyline
 90
4
 70
1
 10
826.280000
 20
205.841395
 30
0.0
 10
830.280000
 20
205.841395
 30
0.0
 10
830.280000
 20
215.841395
 30
0.0
 10
826.280000
 20
215.841395
 30
0.0
  0
LWPOLYLINE
  5
2c9
100
AcDbEntity
  8
0
 62
7
100
AcDbPolyline
 90
4
 70
1
 10
1227.880000
 20
205.841395
 30
0.0
 10
1231.880000
 20
205.841395
 30
0.0
 10
1231.880000
 20
215.841395
 30
0.0
 10
1227.880000
 20
215.841395
 30
0.0
  0
LWPOLYLINE
  5
2ca
100
AcDbEntity
  8
0
 62
7
100
AcDbPolyline
 90
4
 70
1
 10
1629.480000
 20
205.841395
 30
0.0
 10
1633.480000
 20
205.841395
 30
0.0
 10
1633.480000
 20
215.841395
 30
0.0
 10
1629.480000
 20
215.841395
 30
0.0
  0
ENDSEC
  0
SECTION
  2
OBJECTS
  0
DICTIONARY
  5
C
330
0
100
AcDbDictionary
  3
ACAD_GROUP
350
D
  3
ACAD_MLINESTYLE
350
17
  0
DICTIONARY
  5
D
330
C
100
AcDbDictionary
  0
DICTIONARY
  5
1A
330
C
100
AcDbDictionary
  0
DICTIONARY
  5
17
330
C
100
AcDbDictionary
  3
STANDARD
350
18
  0
DICTIONARY
  5
19
330
C
100
AcDbDictionary
  0
ENDSEC
  0
EOF
