999
FreeCAD v0.19 24291 (Git)
  0
SECTION
  2
HEADER
  9
$ACADVER
  1
AC1014
  9
$ACADMAINTVER
 70
     9
  9
$DWGCODEPAGE
  3
ANSI_1252
  9
$TEXTSTYLE
  7
STANDARD
  9
$DIMSTYLE
  2
STANDARD
  9
$DIMTXSTY
  7
STANDARD
  9
$CMLSTYLE
  2
STANDARD
  9
$PEXTMAX
 10
50
 20
50
 30
50
  9
$PEXTMIN
 10
0
 20
0
 30
0
  9
$HANDSEED
  5
FFFF
  0
ENDSEC
  0
SECTION
  2
CLASSES
  0
CLASS
  1
ACDBDICTIONARYWDFLT
  2
AcDbDictionaryWithDefault
  3
ObjectDBX Classes
 90
        0
280
     0
281
     0
  0
CLASS
  1
XRECORD
  2
AcDbXrecord
  3
ObjectDBX Classes
 90
        0
280
     0
281
     0
  0
CLASS
  1
LWPOLYLINE
  2
AcDbPolyline
  3
ObjectDBX Classes
 90
        0
280
     0
281
     1
  0
ENDSEC
  0
SECTION
  2
TABLES
  0
TABLE
  2
VPORT
  5
20
330
0
100
AcDbSymbolTable
 70
     1
  0
VPORT
  5
21
330
20
100
AcDbSymbolTableRecord
100
AcDbViewportTableRecord
  2
*ACTIVE
 70
     0
  0
ENDTAB
  0
TABLE
  2
LTYPE
  5
22
330
0
100
AcDbSymbolTable
 70
     1
  0
LTYPE
  5
23
330
21
100
AcDbSymbolTableRecord
100
AcDbLinetypeTableRecord
  2
BYBLOCK
 70
     0
  3

 72
    65
 73
     0
 40
0.0
  0
LTYPE
  5
24
330
21
100
AcDbSymbolTableRecord
100
AcDbLinetypeTableRecord
  2
BYLAYER
 70
     0
  3

 72
    65
 73
     0
 40
0.0
  0
LTYPE
  5
25
330
21
100
AcDbSymbolTableRecord
100
AcDbLinetypeTableRecord
  2
CONTINUOUS
 70
     0
  3
Solid line
 72
    65
 73
     0
 40
0.0
  0
ENDTAB
  0
TABLE
  2
LAYER
  5
B52
330
0
100
AcDbSymbolTable
 70
6
  0
LAYER
  5
B53
330
B52
100
AcDbSymbolTableRecord
100
AcDbLayerTableRecord
  2
0
 70
   0
 62
   7
  6
CONTINUOUS
  0
LAYER
  5
B54
330
B52
100
AcDbSymbolTableRecord
100
AcDbLayerTableRecord
  2
Framkant_Yttre_1_contour003
 70
    0
 62
    7
  6
CONTINUOUS
  0
LAYER
  5
B55
330
B52
100
AcDbSymbolTableRecord
100
AcDbLayerTableRecord
  2
Sidkant_Yttre_1_contour003
 70
    0
 62
    7
  6
CONTINUOUS
  0
LAYER
  5
B56
330
B52
100
AcDbSymbolTableRecord
100
AcDbLayerTableRecord
  2
Sidkant_Inre_1_contour002
 70
    0
 62
    7
  6
CONTINUOUS
  0
LAYER
  5
B57
330
B52
100
AcDbSymbolTableRecord
100
AcDbLayerTableRecord
  2
Sidkant_Inre_2_contour002
 70
    0
 62
    7
  6
CONTINUOUS
  0
LAYER
  5
B58
330
B52
100
AcDbSymbolTableRecord
100
AcDbLayerTableRecord
  2
KortSprygel_1_contour002
 70
    0
 62
    7
  6
CONTINUOUS
  0
ENDTAB
  0
TABLE
  2
STYLE
  5
70
330
0
100
AcDbSymbolTable
 70
     2
  0
STYLE
  5
71
330
70
100
AcDbSymbolTableRecord
100
AcDbTextStyleTableRecord
  2
STANDARD
 70
     0
 40
0.0
 41
1.0
 50
0.0
 71
     0
 42
2.5
  3
arial.ttf
  4

  0
STYLE
  5
72
330
70
100
AcDbSymbolTableRecord
100
AcDbTextStyleTableRecord
  2
ANNOTATIVE
 70
     0
 40
0.0
 41
1.0
 50
0.0
 71
     0
 42
2.5
  3
arial.ttf
  4

  0
ENDTAB
  0
TABLE
  2
VIEW
  5
73
330
0
100
AcDbSymbolTable
 70
     0
  0
ENDTAB
  0
TABLE
  2
UCS
  5
74
330
0
100
AcDbSymbolTable
 70
     0
  0
ENDTAB
  0
TABLE
  2
APPID
  5
75
330
0
100
AcDbSymbolTable
 70
     2
  0
APPID
  5
76
330
75
100
AcDbSymbolTableRecord
100
AcDbRegAppTableRecord
  2
ACAD
 70
     0
  0
APPID
  5
77
330
75
100
AcDbSymbolTableRecord
100
AcDbRegAppTableRecord
  2
ACADANNOTATIVE
 70
     0
  0
ENDTAB
  0
TABLE
  2
DIMSTYLE
  5
78
330
0
100
AcDbSymbolTable
 70
     2
  0
DIMSTYLE
105
79
330
78
100
AcDbSymbolTableRecord
100
AcDbDimStyleTableRecord
  2
STANDARD
 70
     0
  3

  4

  5

  6

  7

 40
0.0
 41
2.5
 42
0.625
 43
3.75
 44
1.25
 45
0.0
 46
0.0
 47
0.0
 48
0.0
140
2.5
141
2.5
142
0.0
143
0.03937007874016
144
1.0
145
0.0
146
1.0
147
0.625
 71
     0
 72
     0
 73
     0
 74
     0
 75
     0
 76
     0
 77
     1
 78
     8
170
     0
171
     3
172
     1
173
     0
174
     0
175
     0
176
     0
177
     0
178
     0
270
     2
271
     2
272
     2
273
     2
274
     3
340
71
275
     0
280
     0
281
     0
282
     0
283
     0
284
     8
285
     0
286
     0
287
     3
288
     0
  0
ENDTAB
  0
TABLE
  2
BLOCK_RECORD
  5
A01
330
0
100
AcDbSymbolTable
  70
5
  0
BLOCK_RECORD
  5
A02
330
A01
100
AcDbSymbolTableRecord
100
AcDbBlockTableRecord
  2
*MODEL_SPACE
  0
BLOCK_RECORD
  5
A03
330
A01
100
AcDbSymbolTableRecord
100
AcDbBlockTableRecord
  2
*PAPER_SPACE
  0
ENDTAB
  0
ENDSEC
  0
SECTION
  2
BLOCKS
  0
BLOCK
  5
A04
330
A02
100
AcDbEntity
  8
0
100
AcDbBlockBegin
  2
*MODEL_SPACE
 70
   0
 10
0
 20
0
 30
0
  3
*MODEL_SPACE
  1
 
  0
ENDBLK
  5
A05
330
A02
100
AcDbEntity
  8
0
100
AcDbBlockEnd
  0
BLOCK
  5
A06
330
A03
100
AcDbEntity
 67
1
  8
0
100
AcDbBlockBegin
  2
*PAPER_SPACE
 70
   0
 10
0
 20
0
 30
0
  3
*PAPER_SPACE
  1
 
  0
ENDBLK
  5
A07
330
A03
100
AcDbEntity
 67
    1
  8
0
100
AcDbBlockEnd
  0
ENDSEC
  0
SECTION
  2
ENTITIES
  0
LINE
  5
A08
330
A02
100
AcDbEntity
  8
Framkant_Yttre_1_contour003
100
AcDbLine
 10
20.3
 20
0
 30
0
 11
0.3
 21
0
 31
0
  0
ARC
  5
A09
330
A02
100
AcDbEntity
  8
Framkant_Yttre_1_contour003
100
AcDbCircle
 10
0.3
 20
0.1
 30
0
 40
0.1
100
AcDbArc
 50
180
 51
-90
  0
LINE
  5
A0A
330
A02
100
AcDbEntity
  8
Framkant_Yttre_1_contour003
100
AcDbLine
 10
0.2
 20
0.1
 30
0
 11
0.2
 21
2008.1
 31
0
  0
ARC
  5
A0B
330
A02
100
AcDbEntity
  8
Framkant_Yttre_1_contour003
100
AcDbCircle
 10
0.3
 20
2008.1
 30
0
 40
0.1
100
AcDbArc
 50
90
 51
180
  0
LINE
  5
A0C
330
A02
100
AcDbEntity
  8
Framkant_Yttre_1_contour003
100
AcDbLine
 10
0.3
 20
2008.2
 30
0
 11
20.3
 21
2008.2
 31
0
  0
ARC
  5
A0D
330
A02
100
AcDbEntity
  8
Framkant_Yttre_1_contour003
100
AcDbCircle
 10
20.3
 20
2008.1
 30
0
 40
0.1
100
AcDbArc
 50
0
 51
90
  0
LINE
  5
A0E
330
A02
100
AcDbEntity
  8
Framkant_Yttre_1_contour003
100
AcDbLine
 10
20.4
 20
2008.1
 30
0
 11
20.4
 21
2004.2
 31
0
  0
LINE
  5
A0F
330
A02
100
AcDbEntity
  8
Framkant_Yttre_1_contour003
100
AcDbLine
 10
20.4
 20
2004.2
 30
0
 11
40.2
 21
2004.2
 31
0
  0
LINE
  5
A10
330
A02
100
AcDbEntity
  8
Framkant_Yttre_1_contour003
100
AcDbLine
 10
40.2
 20
2004.2
 30
0
 11
40.2
 21
2008.1
 31
0
  0
ARC
  5
A11
330
A02
100
AcDbEntity
  8
Framkant_Yttre_1_contour003
100
AcDbCircle
 10
40.3
 20
2008.1
 30
0
 40
0.1
100
AcDbArc
 50
90
 51
180
  0
LINE
  5
A12
330
A02
100
AcDbEntity
  8
Framkant_Yttre_1_contour003
100
AcDbLine
 10
40.3
 20
2008.2
 30
0
 11
60.3
 21
2008.2
 31
0
  0
ARC
  5
A13
330
A02
100
AcDbEntity
  8
Framkant_Yttre_1_contour003
100
AcDbCircle
 10
60.3
 20
2008.1
 30
0
 40
0.1
100
AcDbArc
 50
0
 51
90
  0
LINE
  5
A14
330
A02
100
AcDbEntity
  8
Framkant_Yttre_1_contour003
100
AcDbLine
 10
60.4
 20
2008.1
 30
0
 11
60.4
 21
2004.2
 31
0
  0
LINE
  5
A15
330
A02
100
AcDbEntity
  8
Framkant_Yttre_1_contour003
100
AcDbLine
 10
60.4
 20
2004.2
 30
0
 11
80.2
 21
2004.2
 31
0
  0
LINE
  5
A16
330
A02
100
AcDbEntity
  8
Framkant_Yttre_1_contour003
100
AcDbLine
 10
80.2
 20
2004.2
 30
0
 11
80.2
 21
2008.1
 31
0
  0
ARC
  5
A17
330
A02
100
AcDbEntity
  8
Framkant_Yttre_1_contour003
100
AcDbCircle
 10
80.3
 20
2008.1
 30
0
 40
0.1
100
AcDbArc
 50
90
 51
180
  0
LINE
  5
A18
330
A02
100
AcDbEntity
  8
Framkant_Yttre_1_contour003
100
AcDbLine
 10
80.3
 20
2008.2
 30
0
 11
100.3
 21
2008.2
 31
0
  0
ARC
  5
A19
330
A02
100
AcDbEntity
  8
Framkant_Yttre_1_contour003
100
AcDbCircle
 10
100.3
 20
2008.1
 30
0
 40
0.1
100
AcDbArc
 50
0
 51
90
  0
LINE
  5
A1A
330
A02
100
AcDbEntity
  8
Framkant_Yttre_1_contour003
100
AcDbLine
 10
100.4
 20
2008.1
 30
0
 11
100.4
 21
2004.2
 31
0
  0
LINE
  5
A1B
330
A02
100
AcDbEntity
  8
Framkant_Yttre_1_contour003
100
AcDbLine
 10
100.4
 20
2004.2
 30
0
 11
120.2
 21
2004.2
 31
0
  0
LINE
  5
A1C
330
A02
100
AcDbEntity
  8
Framkant_Yttre_1_contour003
100
AcDbLine
 10
120.2
 20
2004.2
 30
0
 11
120.2
 21
2008.1
 31
0
  0
ARC
  5
A1D
330
A02
100
AcDbEntity
  8
Framkant_Yttre_1_contour003
100
AcDbCircle
 10
120.3
 20
2008.1
 30
0
 40
0.1
100
AcDbArc
 50
90
 51
180
  0
LINE
  5
A1E
330
A02
100
AcDbEntity
  8
Framkant_Yttre_1_contour003
100
AcDbLine
 10
120.3
 20
2008.2
 30
0
 11
127.3
 21
2008.2
 31
0
  0
ARC
  5
A1F
330
A02
100
AcDbEntity
  8
Framkant_Yttre_1_contour003
100
AcDbCircle
 10
127.3
 20
2008.1
 30
0
 40
0.1
100
AcDbArc
 50
0
 51
90
  0
LINE
  5
A20
330
A02
100
AcDbEntity
  8
Framkant_Yttre_1_contour003
100
AcDbLine
 10
127.4
 20
2008.1
 30
0
 11
127.4
 21
0.1
 31
0
  0
ARC
  5
A21
330
A02
100
AcDbEntity
  8
Framkant_Yttre_1_contour003
100
AcDbCircle
 10
127.3
 20
0.1
 30
0
 40
0.1
100
AcDbArc
 50
-90
 51
0
  0
LINE
  5
A22
330
A02
100
AcDbEntity
  8
Framkant_Yttre_1_contour003
100
AcDbLine
 10
127.3
 20
0
 30
0
 11
120.3
 21
0
 31
0
  0
ARC
  5
A23
330
A02
100
AcDbEntity
  8
Framkant_Yttre_1_contour003
100
AcDbCircle
 10
120.3
 20
0.1
 30
0
 40
0.1
100
AcDbArc
 50
180
 51
-90
  0
LINE
  5
A24
330
A02
100
AcDbEntity
  8
Framkant_Yttre_1_contour003
100
AcDbLine
 10
120.2
 20
0.1
 30
0
 11
120.2
 21
4
 31
0
  0
LINE
  5
A25
330
A02
100
AcDbEntity
  8
Framkant_Yttre_1_contour003
100
AcDbLine
 10
120.2
 20
4
 30
0
 11
100.4
 21
4
 31
0
  0
LINE
  5
A26
330
A02
100
AcDbEntity
  8
Framkant_Yttre_1_contour003
100
AcDbLine
 10
100.4
 20
4
 30
0
 11
100.4
 21
0.1
 31
0
  0
ARC
  5
A27
330
A02
100
AcDbEntity
  8
Framkant_Yttre_1_contour003
100
AcDbCircle
 10
100.3
 20
0.1
 30
0
 40
0.1
100
AcDbArc
 50
-90
 51
0
  0
LINE
  5
A28
330
A02
100
AcDbEntity
  8
Framkant_Yttre_1_contour003
100
AcDbLine
 10
100.3
 20
0
 30
0
 11
80.3
 21
0
 31
0
  0
ARC
  5
A29
330
A02
100
AcDbEntity
  8
Framkant_Yttre_1_contour003
100
AcDbCircle
 10
80.3
 20
0.1
 30
0
 40
0.1
100
AcDbArc
 50
180
 51
-90
  0
LINE
  5
A2A
330
A02
100
AcDbEntity
  8
Framkant_Yttre_1_contour003
100
AcDbLine
 10
80.2
 20
0.1
 30
0
 11
80.2
 21
4
 31
0
  0
LINE
  5
A2B
330
A02
100
AcDbEntity
  8
Framkant_Yttre_1_contour003
100
AcDbLine
 10
80.2
 20
4
 30
0
 11
60.4
 21
4
 31
0
  0
LINE
  5
A2C
330
A02
100
AcDbEntity
  8
Framkant_Yttre_1_contour003
100
AcDbLine
 10
60.4
 20
4
 30
0
 11
60.4
 21
0.1
 31
0
  0
ARC
  5
A2D
330
A02
100
AcDbEntity
  8
Framkant_Yttre_1_contour003
100
AcDbCircle
 10
60.3
 20
0.1
 30
0
 40
0.1
100
AcDbArc
 50
-90
 51
0
  0
LINE
  5
A2E
330
A02
100
AcDbEntity
  8
Framkant_Yttre_1_contour003
100
AcDbLine
 10
60.3
 20
0
 30
0
 11
40.3
 21
0
 31
0
  0
ARC
  5
A2F
330
A02
100
AcDbEntity
  8
Framkant_Yttre_1_contour003
100
AcDbCircle
 10
40.3
 20
0.1
 30
0
 40
0.1
100
AcDbArc
 50
180
 51
-90
  0
LINE
  5
A30
330
A02
100
AcDbEntity
  8
Framkant_Yttre_1_contour003
100
AcDbLine
 10
40.2
 20
0.1
 30
0
 11
40.2
 21
4
 31
0
  0
LINE
  5
A31
330
A02
100
AcDbEntity
  8
Framkant_Yttre_1_contour003
100
AcDbLine
 10
40.2
 20
4
 30
0
 11
20.4
 21
4
 31
0
  0
LINE
  5
A32
330
A02
100
AcDbEntity
  8
Framkant_Yttre_1_contour003
100
AcDbLine
 10
20.4
 20
4
 30
0
 11
20.4
 21
0.1
 31
0
  0
ARC
  5
A33
330
A02
100
AcDbEntity
  8
Framkant_Yttre_1_contour003
100
AcDbCircle
 10
20.3
 20
0.1
 30
0
 40
0.1
100
AcDbArc
 50
-90
 51
0
  0
LINE
  5
A34
330
A02
100
AcDbEntity
  8
Sidkant_Yttre_1_contour003
100
AcDbLine
 10
764.7
 20
1204.2
 30
0
 11
744.8
 21
1204.2
 31
0
  0
LINE
  5
A35
330
A02
100
AcDbEntity
  8
Sidkant_Yttre_1_contour003
100
AcDbLine
 10
744.8
 20
1204.2
 30
0
 11
744.8
 21
1208.1
 31
0
  0
ARC
  5
A36
330
A02
100
AcDbEntity
  8
Sidkant_Yttre_1_contour003
100
AcDbCircle
 10
744.7
 20
1208.1
 30
0
 40
0.1
100
AcDbArc
 50
2.60551e-10
 51
90
  0
LINE
  5
A37
330
A02
100
AcDbEntity
  8
Sidkant_Yttre_1_contour003
100
AcDbLine
 10
724.7
 20
1208.2
 30
0
 11
744.7
 21
1208.2
 31
0
  0
ARC
  5
A38
330
A02
100
AcDbEntity
  8
Sidkant_Yttre_1_contour003
100
AcDbCircle
 10
724.7
 20
1208.1
 30
0
 40
0.1
100
AcDbArc
 50
90
 51
-180
  0
LINE
  5
A39
330
A02
100
AcDbEntity
  8
Sidkant_Yttre_1_contour003
100
AcDbLine
 10
724.6
 20
1208.1
 30
0
 11
724.6
 21
1204.2
 31
0
  0
LINE
  5
A3A
330
A02
100
AcDbEntity
  8
Sidkant_Yttre_1_contour003
100
AcDbLine
 10
724.6
 20
1204.2
 30
0
 11
704.8
 21
1204.2
 31
0
  0
LINE
  5
A3B
330
A02
100
AcDbEntity
  8
Sidkant_Yttre_1_contour003
100
AcDbLine
 10
704.8
 20
1204.2
 30
0
 11
704.8
 21
1208.1
 31
0
  0
ARC
  5
A3C
330
A02
100
AcDbEntity
  8
Sidkant_Yttre_1_contour003
100
AcDbCircle
 10
704.7
 20
1208.1
 30
0
 40
0.1
100
AcDbArc
 50
2.60551e-10
 51
90
  0
LINE
  5
A3D
330
A02
100
AcDbEntity
  8
Sidkant_Yttre_1_contour003
100
AcDbLine
 10
684.7
 20
1208.2
 30
0
 11
704.7
 21
1208.2
 31
0
  0
ARC
  5
A3E
330
A02
100
AcDbEntity
  8
Sidkant_Yttre_1_contour003
100
AcDbCircle
 10
684.7
 20
1208.1
 30
0
 40
0.1
100
AcDbArc
 50
90
 51
-180
  0
LINE
  5
A3F
330
A02
100
AcDbEntity
  8
Sidkant_Yttre_1_contour003
100
AcDbLine
 10
684.6
 20
1208.1
 30
0
 11
684.6
 21
1204.2
 31
0
  0
LINE
  5
A40
330
A02
100
AcDbEntity
  8
Sidkant_Yttre_1_contour003
100
AcDbLine
 10
684.6
 20
1204.2
 30
0
 11
664.8
 21
1204.2
 31
0
  0
LINE
  5
A41
330
A02
100
AcDbEntity
  8
Sidkant_Yttre_1_contour003
100
AcDbLine
 10
664.8
 20
1204.2
 30
0
 11
664.8
 21
1208.1
 31
0
  0
ARC
  5
A42
330
A02
100
AcDbEntity
  8
Sidkant_Yttre_1_contour003
100
AcDbCircle
 10
664.7
 20
1208.1
 30
0
 40
0.1
100
AcDbArc
 50
2.60551e-10
 51
90
  0
LINE
  5
A43
330
A02
100
AcDbEntity
  8
Sidkant_Yttre_1_contour003
100
AcDbLine
 10
644.7
 20
1208.2
 30
0
 11
664.7
 21
1208.2
 31
0
  0
ARC
  5
A44
330
A02
100
AcDbEntity
  8
Sidkant_Yttre_1_contour003
100
AcDbCircle
 10
644.7
 20
1208.1
 30
0
 40
0.1
100
AcDbArc
 50
90
 51
-180
  0
LINE
  5
A45
330
A02
100
AcDbEntity
  8
Sidkant_Yttre_1_contour003
100
AcDbLine
 10
644.6
 20
1208.1
 30
0
 11
644.6
 21
1204.2
 31
0
  0
LINE
  5
A46
330
A02
100
AcDbEntity
  8
Sidkant_Yttre_1_contour003
100
AcDbLine
 10
644.6
 20
1204.2
 30
0
 11
624.8
 21
1204.2
 31
0
  0
LINE
  5
A47
330
A02
100
AcDbEntity
  8
Sidkant_Yttre_1_contour003
100
AcDbLine
 10
624.8
 20
1204.2
 30
0
 11
624.8
 21
1208.1
 31
0
  0
ARC
  5
A48
330
A02
100
AcDbEntity
  8
Sidkant_Yttre_1_contour003
100
AcDbCircle
 10
624.7
 20
1208.1
 30
0
 40
0.1
100
AcDbArc
 50
2.60551e-10
 51
90
  0
LINE
  5
A49
330
A02
100
AcDbEntity
  8
Sidkant_Yttre_1_contour003
100
AcDbLine
 10
624.7
 20
1208.2
 30
0
 11
604.7
 21
1208.2
 31
0
  0
ARC
  5
A4A
330
A02
100
AcDbEntity
  8
Sidkant_Yttre_1_contour003
100
AcDbCircle
 10
604.7
 20
1208.1
 30
0
 40
0.1
100
AcDbArc
 50
90
 51
-180
  0
LINE
  5
A4B
330
A02
100
AcDbEntity
  8
Sidkant_Yttre_1_contour003
100
AcDbLine
 10
604.6
 20
1208.1
 30
0
 11
604.6
 21
1204.2
 31
0
  0
LINE
  5
A4C
330
A02
100
AcDbEntity
  8
Sidkant_Yttre_1_contour003
100
AcDbLine
 10
604.6
 20
1204.2
 30
0
 11
584.8
 21
1204.2
 31
0
  0
LINE
  5
A4D
330
A02
100
AcDbEntity
  8
Sidkant_Yttre_1_contour003
100
AcDbLine
 10
584.8
 20
1204.2
 30
0
 11
584.8
 21
1208.1
 31
0
  0
ARC
  5
A4E
330
A02
100
AcDbEntity
  8
Sidkant_Yttre_1_contour003
100
AcDbCircle
 10
584.7
 20
1208.1
 30
0
 40
0.1
100
AcDbArc
 50
2.60551e-10
 51
90
  0
LINE
  5
A4F
330
A02
100
AcDbEntity
  8
Sidkant_Yttre_1_contour003
100
AcDbLine
 10
584.7
 20
1208.2
 30
0
 11
564.7
 21
1208.2
 31
0
  0
ARC
  5
A50
330
A02
100
AcDbEntity
  8
Sidkant_Yttre_1_contour003
100
AcDbCircle
 10
564.7
 20
1208.1
 30
0
 40
0.1
100
AcDbArc
 50
90
 51
-180
  0
LINE
  5
A51
330
A02
100
AcDbEntity
  8
Sidkant_Yttre_1_contour003
100
AcDbLine
 10
564.6
 20
1208.1
 30
0
 11
564.6
 21
1204.2
 31
0
  0
LINE
  5
A52
330
A02
100
AcDbEntity
  8
Sidkant_Yttre_1_contour003
100
AcDbLine
 10
564.6
 20
1204.2
 30
0
 11
544.8
 21
1204.2
 31
0
  0
LINE
  5
A53
330
A02
100
AcDbEntity
  8
Sidkant_Yttre_1_contour003
100
AcDbLine
 10
544.8
 20
1204.2
 30
0
 11
544.8
 21
1208.1
 31
0
  0
ARC
  5
A54
330
A02
100
AcDbEntity
  8
Sidkant_Yttre_1_contour003
100
AcDbCircle
 10
544.7
 20
1208.1
 30
0
 40
0.1
100
AcDbArc
 50
2.60551e-10
 51
90
  0
LINE
  5
A55
330
A02
100
AcDbEntity
  8
Sidkant_Yttre_1_contour003
100
AcDbLine
 10
544.7
 20
1208.2
 30
0
 11
524.7
 21
1208.2
 31
0
  0
ARC
  5
A56
330
A02
100
AcDbEntity
  8
Sidkant_Yttre_1_contour003
100
AcDbCircle
 10
524.7
 20
1208.1
 30
0
 40
0.1
100
AcDbArc
 50
90
 51
-180
  0
LINE
  5
A57
330
A02
100
AcDbEntity
  8
Sidkant_Yttre_1_contour003
100
AcDbLine
 10
524.6
 20
1204.2
 30
0
 11
524.6
 21
1208.1
 31
0
  0
LINE
  5
A58
330
A02
100
AcDbEntity
  8
Sidkant_Yttre_1_contour003
100
AcDbLine
 10
504.8
 20
1204.2
 30
0
 11
524.6
 21
1204.2
 31
0
  0
LINE
  5
A59
330
A02
100
AcDbEntity
  8
Sidkant_Yttre_1_contour003
100
AcDbLine
 10
504.8
 20
1208.1
 30
0
 11
504.8
 21
1204.2
 31
0
  0
ARC
  5
A5A
330
A02
100
AcDbEntity
  8
Sidkant_Yttre_1_contour003
100
AcDbCircle
 10
504.7
 20
1208.1
 30
0
 40
0.1
100
AcDbArc
 50
2.60551e-10
 51
90
  0
LINE
  5
A5B
330
A02
100
AcDbEntity
  8
Sidkant_Yttre_1_contour003
100
AcDbLine
 10
504.7
 20
1208.2
 30
0
 11
484.7
 21
1208.2
 31
0
  0
ARC
  5
A5C
330
A02
100
AcDbEntity
  8
Sidkant_Yttre_1_contour003
100
AcDbCircle
 10
484.7
 20
1208.1
 30
0
 40
0.1
100
AcDbArc
 50
90
 51
-180
  0
LINE
  5
A5D
330
A02
100
AcDbEntity
  8
Sidkant_Yttre_1_contour003
100
AcDbLine
 10
484.6
 20
1204.2
 30
0
 11
484.6
 21
1208.1
 31
0
  0
LINE
  5
A5E
330
A02
100
AcDbEntity
  8
Sidkant_Yttre_1_contour003
100
AcDbLine
 10
464.8
 20
1204.2
 30
0
 11
484.6
 21
1204.2
 31
0
  0
LINE
  5
A5F
330
A02
100
AcDbEntity
  8
Sidkant_Yttre_1_contour003
100
AcDbLine
 10
464.8
 20
1208.1
 30
0
 11
464.8
 21
1204.2
 31
0
  0
ARC
  5
A60
330
A02
100
AcDbEntity
  8
Sidkant_Yttre_1_contour003
100
AcDbCircle
 10
464.7
 20
1208.1
 30
0
 40
0.1
100
AcDbArc
 50
2.60551e-10
 51
90
  0
LINE
  5
A61
330
A02
100
AcDbEntity
  8
Sidkant_Yttre_1_contour003
100
AcDbLine
 10
464.7
 20
1208.2
 30
0
 11
444.7
 21
1208.2
 31
0
  0
ARC
  5
A62
330
A02
100
AcDbEntity
  8
Sidkant_Yttre_1_contour003
100
AcDbCircle
 10
444.7
 20
1208.1
 30
0
 40
0.1
100
AcDbArc
 50
90
 51
-180
  0
LINE
  5
A63
330
A02
100
AcDbEntity
  8
Sidkant_Yttre_1_contour003
100
AcDbLine
 10
444.6
 20
1204.2
 30
0
 11
444.6
 21
1208.1
 31
0
  0
LINE
  5
A64
330
A02
100
AcDbEntity
  8
Sidkant_Yttre_1_contour003
100
AcDbLine
 10
424.8
 20
1204.2
 30
0
 11
444.6
 21
1204.2
 31
0
  0
LINE
  5
A65
330
A02
100
AcDbEntity
  8
Sidkant_Yttre_1_contour003
100
AcDbLine
 10
424.8
 20
1208.1
 30
0
 11
424.8
 21
1204.2
 31
0
  0
ARC
  5
A66
330
A02
100
AcDbEntity
  8
Sidkant_Yttre_1_contour003
100
AcDbCircle
 10
424.7
 20
1208.1
 30
0
 40
0.1
100
AcDbArc
 50
1.30276e-10
 51
90
  0
LINE
  5
A67
330
A02
100
AcDbEntity
  8
Sidkant_Yttre_1_contour003
100
AcDbLine
 10
424.7
 20
1208.2
 30
0
 11
404.7
 21
1208.2
 31
0
  0
ARC
  5
A68
330
A02
100
AcDbEntity
  8
Sidkant_Yttre_1_contour003
100
AcDbCircle
 10
404.7
 20
1208.1
 30
0
 40
0.1
100
AcDbArc
 50
90
 51
-180
  0
LINE
  5
A69
330
A02
100
AcDbEntity
  8
Sidkant_Yttre_1_contour003
100
AcDbLine
 10
404.6
 20
1204.2
 30
0
 11
404.6
 21
1208.1
 31
0
  0
LINE
  5
A6A
330
A02
100
AcDbEntity
  8
Sidkant_Yttre_1_contour003
100
AcDbLine
 10
384.8
 20
1204.2
 30
0
 11
404.6
 21
1204.2
 31
0
  0
LINE
  5
A6B
330
A02
100
AcDbEntity
  8
Sidkant_Yttre_1_contour003
100
AcDbLine
 10
384.8
 20
1208.1
 30
0
 11
384.8
 21
1204.2
 31
0
  0
ARC
  5
A6C
330
A02
100
AcDbEntity
  8
Sidkant_Yttre_1_contour003
100
AcDbCircle
 10
384.7
 20
1208.1
 30
0
 40
0.1
100
AcDbArc
 50
2.60551e-10
 51
90
  0
LINE
  5
A6D
330
A02
100
AcDbEntity
  8
Sidkant_Yttre_1_contour003
100
AcDbLine
 10
384.7
 20
1208.2
 30
0
 11
364.7
 21
1208.2
 31
0
  0
ARC
  5
A6E
330
A02
100
AcDbEntity
  8
Sidkant_Yttre_1_contour003
100
AcDbCircle
 10
364.7
 20
1208.1
 30
0
 40
0.1
100
AcDbArc
 50
90
 51
-180
  0
LINE
  5
A6F
330
A02
100
AcDbEntity
  8
Sidkant_Yttre_1_contour003
100
AcDbLine
 10
364.6
 20
1204.2
 30
0
 11
364.6
 21
1208.1
 31
0
  0
LINE
  5
A70
330
A02
100
AcDbEntity
  8
Sidkant_Yttre_1_contour003
100
AcDbLine
 10
344.8
 20
1204.2
 30
0
 11
364.6
 21
1204.2
 31
0
  0
LINE
  5
A71
330
A02
100
AcDbEntity
  8
Sidkant_Yttre_1_contour003
100
AcDbLine
 10
344.8
 20
1208.1
 30
0
 11
344.8
 21
1204.2
 31
0
  0
ARC
  5
A72
330
A02
100
AcDbEntity
  8
Sidkant_Yttre_1_contour003
100
AcDbCircle
 10
344.7
 20
1208.1
 30
0
 40
0.1
100
AcDbArc
 50
2.60551e-10
 51
90
  0
LINE
  5
A73
330
A02
100
AcDbEntity
  8
Sidkant_Yttre_1_contour003
100
AcDbLine
 10
344.7
 20
1208.2
 30
0
 11
324.7
 21
1208.2
 31
0
  0
ARC
  5
A74
330
A02
100
AcDbEntity
  8
Sidkant_Yttre_1_contour003
100
AcDbCircle
 10
324.7
 20
1208.1
 30
0
 40
0.1
100
AcDbArc
 50
90
 51
-180
  0
LINE
  5
A75
330
A02
100
AcDbEntity
  8
Sidkant_Yttre_1_contour003
100
AcDbLine
 10
324.6
 20
1204.2
 30
0
 11
324.6
 21
1208.1
 31
0
  0
LINE
  5
A76
330
A02
100
AcDbEntity
  8
Sidkant_Yttre_1_contour003
100
AcDbLine
 10
304.8
 20
1204.2
 30
0
 11
324.6
 21
1204.2
 31
0
  0
LINE
  5
A77
330
A02
100
AcDbEntity
  8
Sidkant_Yttre_1_contour003
100
AcDbLine
 10
304.8
 20
1208.1
 30
0
 11
304.8
 21
1204.2
 31
0
  0
ARC
  5
A78
330
A02
100
AcDbEntity
  8
Sidkant_Yttre_1_contour003
100
AcDbCircle
 10
304.7
 20
1208.1
 30
0
 40
0.1
100
AcDbArc
 50
1.30276e-10
 51
90
  0
LINE
  5
A79
330
A02
100
AcDbEntity
  8
Sidkant_Yttre_1_contour003
100
AcDbLine
 10
304.7
 20
1208.2
 30
0
 11
284.7
 21
1208.2
 31
0
  0
ARC
  5
A7A
330
A02
100
AcDbEntity
  8
Sidkant_Yttre_1_contour003
100
AcDbCircle
 10
284.7
 20
1208.1
 30
0
 40
0.1
100
AcDbArc
 50
90
 51
-180
  0
LINE
  5
A7B
330
A02
100
AcDbEntity
  8
Sidkant_Yttre_1_contour003
100
AcDbLine
 10
284.6
 20
1204.2
 30
0
 11
284.6
 21
1208.1
 31
0
  0
LINE
  5
A7C
330
A02
100
AcDbEntity
  8
Sidkant_Yttre_1_contour003
100
AcDbLine
 10
264.8
 20
1204.2
 30
0
 11
284.6
 21
1204.2
 31
0
  0
LINE
  5
A7D
330
A02
100
AcDbEntity
  8
Sidkant_Yttre_1_contour003
100
AcDbLine
 10
264.8
 20
1208.1
 30
0
 11
264.8
 21
1204.2
 31
0
  0
ARC
  5
A7E
330
A02
100
AcDbEntity
  8
Sidkant_Yttre_1_contour003
100
AcDbCircle
 10
264.7
 20
1208.1
 30
0
 40
0.1
100
AcDbArc
 50
1.30276e-10
 51
90
  0
LINE
  5
A7F
330
A02
100
AcDbEntity
  8
Sidkant_Yttre_1_contour003
100
AcDbLine
 10
264.7
 20
1208.2
 30
0
 11
244.7
 21
1208.2
 31
0
  0
ARC
  5
A80
330
A02
100
AcDbEntity
  8
Sidkant_Yttre_1_contour003
100
AcDbCircle
 10
244.7
 20
1208.1
 30
0
 40
0.1
100
AcDbArc
 50
90
 51
-180
  0
LINE
  5
A81
330
A02
100
AcDbEntity
  8
Sidkant_Yttre_1_contour003
100
AcDbLine
 10
244.6
 20
1204.2
 30
0
 11
244.6
 21
1208.1
 31
0
  0
LINE
  5
A82
330
A02
100
AcDbEntity
  8
Sidkant_Yttre_1_contour003
100
AcDbLine
 10
224.8
 20
1204.2
 30
0
 11
244.6
 21
1204.2
 31
0
  0
LINE
  5
A83
330
A02
100
AcDbEntity
  8
Sidkant_Yttre_1_contour003
100
AcDbLine
 10
224.8
 20
1208.1
 30
0
 11
224.8
 21
1204.2
 31
0
  0
ARC
  5
A84
330
A02
100
AcDbEntity
  8
Sidkant_Yttre_1_contour003
100
AcDbCircle
 10
224.7
 20
1208.1
 30
0
 40
0.1
100
AcDbArc
 50
1.30276e-10
 51
90
  0
LINE
  5
A85
330
A02
100
AcDbEntity
  8
Sidkant_Yttre_1_contour003
100
AcDbLine
 10
224.7
 20
1208.2
 30
0
 11
204.7
 21
1208.2
 31
0
  0
ARC
  5
A86
330
A02
100
AcDbEntity
  8
Sidkant_Yttre_1_contour003
100
AcDbCircle
 10
204.7
 20
1208.1
 30
0
 40
0.1
100
AcDbArc
 50
90
 51
-180
  0
LINE
  5
A87
330
A02
100
AcDbEntity
  8
Sidkant_Yttre_1_contour003
100
AcDbLine
 10
204.6
 20
1204.2
 30
0
 11
204.6
 21
1208.1
 31
0
  0
LINE
  5
A88
330
A02
100
AcDbEntity
  8
Sidkant_Yttre_1_contour003
100
AcDbLine
 10
184.8
 20
1204.2
 30
0
 11
204.6
 21
1204.2
 31
0
  0
LINE
  5
A89
330
A02
100
AcDbEntity
  8
Sidkant_Yttre_1_contour003
100
AcDbLine
 10
184.8
 20
1208.1
 30
0
 11
184.8
 21
1204.2
 31
0
  0
ARC
  5
A8A
330
A02
100
AcDbEntity
  8
Sidkant_Yttre_1_contour003
100
AcDbCircle
 10
184.7
 20
1208.1
 30
0
 40
0.1
100
AcDbArc
 50
2.60551e-10
 51
90
  0
LINE
  5
A8B
330
A02
100
AcDbEntity
  8
Sidkant_Yttre_1_contour003
100
AcDbLine
 10
184.7
 20
1208.2
 30
0
 11
164.7
 21
1208.2
 31
0
  0
ARC
  5
A8C
330
A02
100
AcDbEntity
  8
Sidkant_Yttre_1_contour003
100
AcDbCircle
 10
164.7
 20
1208.1
 30
0
 40
0.1
100
AcDbArc
 50
90
 51
-180
  0
LINE
  5
A8D
330
A02
100
AcDbEntity
  8
Sidkant_Yttre_1_contour003
100
AcDbLine
 10
164.6
 20
1204.2
 30
0
 11
164.6
 21
1208.1
 31
0
  0
LINE
  5
A8E
330
A02
100
AcDbEntity
  8
Sidkant_Yttre_1_contour003
100
AcDbLine
 10
144.8
 20
1204.2
 30
0
 11
164.6
 21
1204.2
 31
0
  0
LINE
  5
A8F
330
A02
100
AcDbEntity
  8
Sidkant_Yttre_1_contour003
100
AcDbLine
 10
144.8
 20
1208.1
 30
0
 11
144.8
 21
1204.2
 31
0
  0
ARC
  5
A90
330
A02
100
AcDbEntity
  8
Sidkant_Yttre_1_contour003
100
AcDbCircle
 10
144.7
 20
1208.1
 30
0
 40
0.1
100
AcDbArc
 50
2.60551e-10
 51
90
  0
LINE
  5
A91
330
A02
100
AcDbEntity
  8
Sidkant_Yttre_1_contour003
100
AcDbLine
 10
144.7
 20
1208.2
 30
0
 11
137.7
 21
1208.2
 31
0
  0
ARC
  5
A92
330
A02
100
AcDbEntity
  8
Sidkant_Yttre_1_contour003
100
AcDbCircle
 10
137.7
 20
1208.1
 30
0
 40
0.1
100
AcDbArc
 50
90
 51
180
  0
SPLINE
  5
A93
330
A02
100
AcDbEntity
  8
Sidkant_Yttre_1_contour003
100
AcDbSpline
210
0
220
0
230
1
 70
8
 71
1
 72
4
 73
2
 74
0
 40
0
 40
0
 40
1
 40
1
 10
137.6
 20
604.1
 30
0
 10
137.6
 20
1208.1
 30
0
  0
ARC
  5
A94
330
A02
100
AcDbEntity
  8
Sidkant_Yttre_1_contour003
100
AcDbCircle
 10
137.7
 20
604.1
 30
0
 40
0.1
100
AcDbArc
 50
-180
 51
-140.382
  0
LINE
  5
A95
330
A02
100
AcDbEntity
  8
Sidkant_Yttre_1_contour003
100
AcDbLine
 10
637.623
 20
0.0362328
 30
0
 11
137.623
 21
604.036
 31
0
  0
ARC
  5
A96
330
A02
100
AcDbEntity
  8
Sidkant_Yttre_1_contour003
100
AcDbCircle
 10
637.7
 20
0.1
 30
0
 40
0.1
100
AcDbArc
 50
-140.382
 51
1.95413e-10
  0
LINE
  5
A97
330
A02
100
AcDbEntity
  8
Sidkant_Yttre_1_contour003
100
AcDbLine
 10
637.8
 20
0.1
 30
0
 11
637.8
 21
4
 31
0
  0
LINE
  5
A98
330
A02
100
AcDbEntity
  8
Sidkant_Yttre_1_contour003
100
AcDbLine
 10
637.8
 20
4
 30
0
 11
644.6
 21
4
 31
0
  0
LINE
  5
A99
330
A02
100
AcDbEntity
  8
Sidkant_Yttre_1_contour003
100
AcDbLine
 10
644.6
 20
4
 30
0
 11
644.6
 21
0.1
 31
0
  0
ARC
  5
A9A
330
A02
100
AcDbEntity
  8
Sidkant_Yttre_1_contour003
100
AcDbCircle
 10
644.7
 20
0.1
 30
0
 40
0.1
100
AcDbArc
 50
-180
 51
-90
  0
LINE
  5
A9B
330
A02
100
AcDbEntity
  8
Sidkant_Yttre_1_contour003
100
AcDbLine
 10
664.7
 20
0
 30
0
 11
644.7
 21
0
 31
0
  0
ARC
  5
A9C
330
A02
100
AcDbEntity
  8
Sidkant_Yttre_1_contour003
100
AcDbCircle
 10
664.7
 20
0.1
 30
0
 40
0.1
100
AcDbArc
 50
-90
 51
1.95413e-10
  0
LINE
  5
A9D
330
A02
100
AcDbEntity
  8
Sidkant_Yttre_1_contour003
100
AcDbLine
 10
664.8
 20
0.1
 30
0
 11
664.8
 21
4
 31
0
  0
LINE
  5
A9E
330
A02
100
AcDbEntity
  8
Sidkant_Yttre_1_contour003
100
AcDbLine
 10
664.8
 20
4
 30
0
 11
684.6
 21
4
 31
0
  0
LINE
  5
A9F
330
A02
100
AcDbEntity
  8
Sidkant_Yttre_1_contour003
100
AcDbLine
 10
684.6
 20
4
 30
0
 11
684.6
 21
0.1
 31
0
  0
ARC
  5
AA0
330
A02
100
AcDbEntity
  8
Sidkant_Yttre_1_contour003
100
AcDbCircle
 10
684.7
 20
0.1
 30
0
 40
0.1
100
AcDbArc
 50
-180
 51
-90
  0
LINE
  5
AA1
330
A02
100
AcDbEntity
  8
Sidkant_Yttre_1_contour003
100
AcDbLine
 10
704.7
 20
0
 30
0
 11
684.7
 21
0
 31
0
  0
ARC
  5
AA2
330
A02
100
AcDbEntity
  8
Sidkant_Yttre_1_contour003
100
AcDbCircle
 10
704.7
 20
0.1
 30
0
 40
0.1
100
AcDbArc
 50
-90
 51
1.95413e-10
  0
LINE
  5
AA3
330
A02
100
AcDbEntity
  8
Sidkant_Yttre_1_contour003
100
AcDbLine
 10
704.8
 20
0.1
 30
0
 11
704.8
 21
4
 31
0
  0
LINE
  5
AA4
330
A02
100
AcDbEntity
  8
Sidkant_Yttre_1_contour003
100
AcDbLine
 10
704.8
 20
4
 30
0
 11
724.6
 21
4
 31
0
  0
LINE
  5
AA5
330
A02
100
AcDbEntity
  8
Sidkant_Yttre_1_contour003
100
AcDbLine
 10
724.6
 20
4
 30
0
 11
724.6
 21
0.1
 31
0
  0
ARC
  5
AA6
330
A02
100
AcDbEntity
  8
Sidkant_Yttre_1_contour003
100
AcDbCircle
 10
724.7
 20
0.1
 30
0
 40
0.1
100
AcDbArc
 50
-180
 51
-90
  0
LINE
  5
AA7
330
A02
100
AcDbEntity
  8
Sidkant_Yttre_1_contour003
100
AcDbLine
 10
744.7
 20
0
 30
0
 11
724.7
 21
0
 31
0
  0
ARC
  5
AA8
330
A02
100
AcDbEntity
  8
Sidkant_Yttre_1_contour003
100
AcDbCircle
 10
744.7
 20
0.1
 30
0
 40
0.1
100
AcDbArc
 50
-90
 51
1.95413e-10
  0
LINE
  5
AA9
330
A02
100
AcDbEntity
  8
Sidkant_Yttre_1_contour003
100
AcDbLine
 10
744.8
 20
4
 30
0
 11
744.8
 21
0.1
 31
0
  0
LINE
  5
AAA
330
A02
100
AcDbEntity
  8
Sidkant_Yttre_1_contour003
100
AcDbLine
 10
764.7
 20
4
 30
0
 11
744.8
 21
4
 31
0
  0
ARC
  5
AAB
330
A02
100
AcDbEntity
  8
Sidkant_Yttre_1_contour003
100
AcDbCircle
 10
764.7
 20
4.1
 30
0
 40
0.1
100
AcDbArc
 50
-90
 51
4.55964e-10
  0
LINE
  5
AAC
330
A02
100
AcDbEntity
  8
Sidkant_Yttre_1_contour003
100
AcDbLine
 10
764.8
 20
1204.1
 30
0
 11
764.8
 21
4.1
 31
0
  0
ARC
  5
AAD
330
A02
100
AcDbEntity
  8
Sidkant_Yttre_1_contour003
100
AcDbCircle
 10
764.7
 20
1204.1
 30
0
 40
0.1
100
AcDbArc
 50
-2.60551e-10
 51
90
  0
LINE
  5
AAE
330
A02
100
AcDbEntity
  8
Sidkant_Inre_1_contour002
100
AcDbLine
 10
875.1
 20
0
 30
0
 11
855.1
 21
0
 31
0
  0
ARC
  5
AAF
330
A02
100
AcDbEntity
  8
Sidkant_Inre_1_contour002
100
AcDbCircle
 10
855.1
 20
0.1
 30
0
 40
0.1
100
AcDbArc
 50
180
 51
-90
  0
LINE
  5
AB0
330
A02
100
AcDbEntity
  8
Sidkant_Inre_1_contour002
100
AcDbLine
 10
855
 20
4
 30
0
 11
855
 21
0.1
 31
0
  0
LINE
  5
AB1
330
A02
100
AcDbEntity
  8
Sidkant_Inre_1_contour002
100
AcDbLine
 10
835.2
 20
4
 30
0
 11
855
 21
4
 31
0
  0
LINE
  5
AB2
330
A02
100
AcDbEntity
  8
Sidkant_Inre_1_contour002
100
AcDbLine
 10
835.2
 20
0.1
 30
0
 11
835.2
 21
4
 31
0
  0
ARC
  5
AB3
330
A02
100
AcDbEntity
  8
Sidkant_Inre_1_contour002
100
AcDbCircle
 10
835.1
 20
0.1
 30
0
 40
0.1
100
AcDbArc
 50
-90
 51
-1.30276e-10
  0
LINE
  5
AB4
330
A02
100
AcDbEntity
  8
Sidkant_Inre_1_contour002
100
AcDbLine
 10
835.1
 20
0
 30
0
 11
815.1
 21
0
 31
0
  0
ARC
  5
AB5
330
A02
100
AcDbEntity
  8
Sidkant_Inre_1_contour002
100
AcDbCircle
 10
815.1
 20
0.1
 30
0
 40
0.1
100
AcDbArc
 50
180
 51
-90
  0
LINE
  5
AB6
330
A02
100
AcDbEntity
  8
Sidkant_Inre_1_contour002
100
AcDbLine
 10
815
 20
4
 30
0
 11
815
 21
0.1
 31
0
  0
LINE
  5
AB7
330
A02
100
AcDbEntity
  8
Sidkant_Inre_1_contour002
100
AcDbLine
 10
795.2
 20
4
 30
0
 11
815
 21
4
 31
0
  0
LINE
  5
AB8
330
A02
100
AcDbEntity
  8
Sidkant_Inre_1_contour002
100
AcDbLine
 10
795.2
 20
0.1
 30
0
 11
795.2
 21
4
 31
0
  0
ARC
  5
AB9
330
A02
100
AcDbEntity
  8
Sidkant_Inre_1_contour002
100
AcDbCircle
 10
795.1
 20
0.1
 30
0
 40
0.1
100
AcDbArc
 50
-90
 51
-1.30276e-10
  0
LINE
  5
ABA
330
A02
100
AcDbEntity
  8
Sidkant_Inre_1_contour002
100
AcDbLine
 10
795.1
 20
0
 30
0
 11
775.1
 21
0
 31
0
  0
ARC
  5
ABB
330
A02
100
AcDbEntity
  8
Sidkant_Inre_1_contour002
100
AcDbCircle
 10
775.1
 20
0.1
 30
0
 40
0.1
100
AcDbArc
 50
180
 51
-90
  0
LINE
  5
ABC
330
A02
100
AcDbEntity
  8
Sidkant_Inre_1_contour002
100
AcDbLine
 10
775
 20
0.1
 30
0
 11
775
 21
1200.1
 31
0
  0
ARC
  5
ABD
330
A02
100
AcDbEntity
  8
Sidkant_Inre_1_contour002
100
AcDbCircle
 10
775.1
 20
1200.1
 30
0
 40
0.1
100
AcDbArc
 50
90
 51
180
  0
LINE
  5
ABE
330
A02
100
AcDbEntity
  8
Sidkant_Inre_1_contour002
100
AcDbLine
 10
775.1
 20
1200.2
 30
0
 11
795.1
 21
1200.2
 31
0
  0
ARC
  5
ABF
330
A02
100
AcDbEntity
  8
Sidkant_Inre_1_contour002
100
AcDbCircle
 10
795.1
 20
1200.1
 30
0
 40
0.1
100
AcDbArc
 50
0
 51
90
  0
LINE
  5
AC0
330
A02
100
AcDbEntity
  8
Sidkant_Inre_1_contour002
100
AcDbLine
 10
795.2
 20
1200.1
 30
0
 11
795.2
 21
1196.2
 31
0
  0
LINE
  5
AC1
330
A02
100
AcDbEntity
  8
Sidkant_Inre_1_contour002
100
AcDbLine
 10
795.2
 20
1196.2
 30
0
 11
815
 21
1196.2
 31
0
  0
LINE
  5
AC2
330
A02
100
AcDbEntity
  8
Sidkant_Inre_1_contour002
100
AcDbLine
 10
815
 20
1196.2
 30
0
 11
815
 21
1200.1
 31
0
  0
ARC
  5
AC3
330
A02
100
AcDbEntity
  8
Sidkant_Inre_1_contour002
100
AcDbCircle
 10
815.1
 20
1200.1
 30
0
 40
0.1
100
AcDbArc
 50
90
 51
180
  0
LINE
  5
AC4
330
A02
100
AcDbEntity
  8
Sidkant_Inre_1_contour002
100
AcDbLine
 10
815.1
 20
1200.2
 30
0
 11
835.1
 21
1200.2
 31
0
  0
ARC
  5
AC5
330
A02
100
AcDbEntity
  8
Sidkant_Inre_1_contour002
100
AcDbCircle
 10
835.1
 20
1200.1
 30
0
 40
0.1
100
AcDbArc
 50
0
 51
90
  0
LINE
  5
AC6
330
A02
100
AcDbEntity
  8
Sidkant_Inre_1_contour002
100
AcDbLine
 10
835.2
 20
1196.2
 30
0
 11
835.2
 21
1200.1
 31
0
  0
LINE
  5
AC7
330
A02
100
AcDbEntity
  8
Sidkant_Inre_1_contour002
100
AcDbLine
 10
855
 20
1196.2
 30
0
 11
835.2
 21
1196.2
 31
0
  0
LINE
  5
AC8
330
A02
100
AcDbEntity
  8
Sidkant_Inre_1_contour002
100
AcDbLine
 10
855
 20
1200.1
 30
0
 11
855
 21
1196.2
 31
0
  0
ARC
  5
AC9
330
A02
100
AcDbEntity
  8
Sidkant_Inre_1_contour002
100
AcDbCircle
 10
855.1
 20
1200.1
 30
0
 40
0.1
100
AcDbArc
 50
90
 51
180
  0
LINE
  5
ACA
330
A02
100
AcDbEntity
  8
Sidkant_Inre_1_contour002
100
AcDbLine
 10
855.1
 20
1200.2
 30
0
 11
875.1
 21
1200.2
 31
0
  0
ARC
  5
ACB
330
A02
100
AcDbEntity
  8
Sidkant_Inre_1_contour002
100
AcDbCircle
 10
875.1
 20
1200.1
 30
0
 40
0.1
100
AcDbArc
 50
0
 51
90
  0
LINE
  5
ACC
330
A02
100
AcDbEntity
  8
Sidkant_Inre_1_contour002
100
AcDbLine
 10
875.2
 20
1200.1
 30
0
 11
875.2
 21
0.1
 31
0
  0
ARC
  5
ACD
330
A02
100
AcDbEntity
  8
Sidkant_Inre_1_contour002
100
AcDbCircle
 10
875.1
 20
0.1
 30
0
 40
0.1
100
AcDbArc
 50
-90
 51
0
  0
LINE
  5
ACE
330
A02
100
AcDbEntity
  8
Sidkant_Inre_1_contour002
100
AcDbLine
 10
815
 20
598.2
 30
0
 11
795.2
 21
598.2
 31
0
  0
LINE
  5
ACF
330
A02
100
AcDbEntity
  8
Sidkant_Inre_1_contour002
100
AcDbLine
 10
795.2
 20
598.2
 30
0
 11
795.2
 21
602
 31
0
  0
LINE
  5
AD0
330
A02
100
AcDbEntity
  8
Sidkant_Inre_1_contour002
100
AcDbLine
 10
795.2
 20
602
 30
0
 11
815
 21
602
 31
0
  0
LINE
  5
AD1
330
A02
100
AcDbEntity
  8
Sidkant_Inre_1_contour002
100
AcDbLine
 10
815
 20
602
 30
0
 11
815
 21
598.2
 31
0
  0
LINE
  5
AD2
330
A02
100
AcDbEntity
  8
Sidkant_Inre_1_contour002
100
AcDbLine
 10
855
 20
598.2
 30
0
 11
835.2
 21
598.2
 31
0
  0
LINE
  5
AD3
330
A02
100
AcDbEntity
  8
Sidkant_Inre_1_contour002
100
AcDbLine
 10
835.2
 20
598.2
 30
0
 11
835.2
 21
602
 31
0
  0
LINE
  5
AD4
330
A02
100
AcDbEntity
  8
Sidkant_Inre_1_contour002
100
AcDbLine
 10
835.2
 20
602
 30
0
 11
855
 21
602
 31
0
  0
LINE
  5
AD5
330
A02
100
AcDbEntity
  8
Sidkant_Inre_1_contour002
100
AcDbLine
 10
855
 20
602
 30
0
 11
855
 21
598.2
 31
0
  0
LINE
  5
AD6
330
A02
100
AcDbEntity
  8
Sidkant_Inre_1_contour002
100
AcDbLine
 10
815
 20
898.2
 30
0
 11
795.2
 21
898.2
 31
0
  0
LINE
  5
AD7
330
A02
100
AcDbEntity
  8
Sidkant_Inre_1_contour002
100
AcDbLine
 10
795.2
 20
898.2
 30
0
 11
795.2
 21
902
 31
0
  0
LINE
  5
AD8
330
A02
100
AcDbEntity
  8
Sidkant_Inre_1_contour002
100
AcDbLine
 10
795.2
 20
902
 30
0
 11
815
 21
902
 31
0
  0
LINE
  5
AD9
330
A02
100
AcDbEntity
  8
Sidkant_Inre_1_contour002
100
AcDbLine
 10
815
 20
902
 30
0
 11
815
 21
898.2
 31
0
  0
LINE
  5
ADA
330
A02
100
AcDbEntity
  8
Sidkant_Inre_1_contour002
100
AcDbLine
 10
815
 20
298.2
 30
0
 11
795.2
 21
298.2
 31
0
  0
LINE
  5
ADB
330
A02
100
AcDbEntity
  8
Sidkant_Inre_1_contour002
100
AcDbLine
 10
795.2
 20
298.2
 30
0
 11
795.2
 21
302
 31
0
  0
LINE
  5
ADC
330
A02
100
AcDbEntity
  8
Sidkant_Inre_1_contour002
100
AcDbLine
 10
795.2
 20
302
 30
0
 11
815
 21
302
 31
0
  0
LINE
  5
ADD
330
A02
100
AcDbEntity
  8
Sidkant_Inre_1_contour002
100
AcDbLine
 10
815
 20
302
 30
0
 11
815
 21
298.2
 31
0
  0
LINE
  5
ADE
330
A02
100
AcDbEntity
  8
Sidkant_Inre_1_contour002
100
AcDbLine
 10
855
 20
898.2
 30
0
 11
835.2
 21
898.2
 31
0
  0
LINE
  5
ADF
330
A02
100
AcDbEntity
  8
Sidkant_Inre_1_contour002
100
AcDbLine
 10
835.2
 20
898.2
 30
0
 11
835.2
 21
902
 31
0
  0
LINE
  5
AE0
330
A02
100
AcDbEntity
  8
Sidkant_Inre_1_contour002
100
AcDbLine
 10
835.2
 20
902
 30
0
 11
855
 21
902
 31
0
  0
LINE
  5
AE1
330
A02
100
AcDbEntity
  8
Sidkant_Inre_1_contour002
100
AcDbLine
 10
855
 20
902
 30
0
 11
855
 21
898.2
 31
0
  0
LINE
  5
AE2
330
A02
100
AcDbEntity
  8
Sidkant_Inre_1_contour002
100
AcDbLine
 10
855
 20
298.2
 30
0
 11
835.2
 21
298.2
 31
0
  0
LINE
  5
AE3
330
A02
100
AcDbEntity
  8
Sidkant_Inre_1_contour002
100
AcDbLine
 10
835.2
 20
298.2
 30
0
 11
835.2
 21
302
 31
0
  0
LINE
  5
AE4
330
A02
100
AcDbEntity
  8
Sidkant_Inre_1_contour002
100
AcDbLine
 10
835.2
 20
302
 30
0
 11
855
 21
302
 31
0
  0
LINE
  5
AE5
330
A02
100
AcDbEntity
  8
Sidkant_Inre_1_contour002
100
AcDbLine
 10
855
 20
302
 30
0
 11
855
 21
298.2
 31
0
  0
LINE
  5
AE6
330
A02
100
AcDbEntity
  8
Sidkant_Inre_2_contour002
100
AcDbLine
 10
985.5
 20
0
 30
0
 11
965.5
 21
0
 31
0
  0
ARC
  5
AE7
330
A02
100
AcDbEntity
  8
Sidkant_Inre_2_contour002
100
AcDbCircle
 10
965.5
 20
0.1
 30
0
 40
0.1
100
AcDbArc
 50
180
 51
-90
  0
LINE
  5
AE8
330
A02
100
AcDbEntity
  8
Sidkant_Inre_2_contour002
100
AcDbLine
 10
965.4
 20
4
 30
0
 11
965.4
 21
0.1
 31
0
  0
LINE
  5
AE9
330
A02
100
AcDbEntity
  8
Sidkant_Inre_2_contour002
100
AcDbLine
 10
945.6
 20
4
 30
0
 11
965.4
 21
4
 31
0
  0
LINE
  5
AEA
330
A02
100
AcDbEntity
  8
Sidkant_Inre_2_contour002
100
AcDbLine
 10
945.6
 20
0.1
 30
0
 11
945.6
 21
4
 31
0
  0
ARC
  5
AEB
330
A02
100
AcDbEntity
  8
Sidkant_Inre_2_contour002
100
AcDbCircle
 10
945.5
 20
0.1
 30
0
 40
0.1
100
AcDbArc
 50
-90
 51
-1.30276e-10
  0
LINE
  5
AEC
330
A02
100
AcDbEntity
  8
Sidkant_Inre_2_contour002
100
AcDbLine
 10
945.5
 20
0
 30
0
 11
925.5
 21
0
 31
0
  0
ARC
  5
AED
330
A02
100
AcDbEntity
  8
Sidkant_Inre_2_contour002
100
AcDbCircle
 10
925.5
 20
0.1
 30
0
 40
0.1
100
AcDbArc
 50
180
 51
-90
  0
LINE
  5
AEE
330
A02
100
AcDbEntity
  8
Sidkant_Inre_2_contour002
100
AcDbLine
 10
925.4
 20
4
 30
0
 11
925.4
 21
0.1
 31
0
  0
LINE
  5
AEF
330
A02
100
AcDbEntity
  8
Sidkant_Inre_2_contour002
100
AcDbLine
 10
905.6
 20
4
 30
0
 11
925.4
 21
4
 31
0
  0
LINE
  5
AF0
330
A02
100
AcDbEntity
  8
Sidkant_Inre_2_contour002
100
AcDbLine
 10
905.6
 20
0.1
 30
0
 11
905.6
 21
4
 31
0
  0
ARC
  5
AF1
330
A02
100
AcDbEntity
  8
Sidkant_Inre_2_contour002
100
AcDbCircle
 10
905.5
 20
0.1
 30
0
 40
0.1
100
AcDbArc
 50
-90
 51
-1.30276e-10
  0
LINE
  5
AF2
330
A02
100
AcDbEntity
  8
Sidkant_Inre_2_contour002
100
AcDbLine
 10
905.5
 20
0
 30
0
 11
885.5
 21
0
 31
0
  0
ARC
  5
AF3
330
A02
100
AcDbEntity
  8
Sidkant_Inre_2_contour002
100
AcDbCircle
 10
885.5
 20
0.1
 30
0
 40
0.1
100
AcDbArc
 50
180
 51
-90
  0
LINE
  5
AF4
330
A02
100
AcDbEntity
  8
Sidkant_Inre_2_contour002
100
AcDbLine
 10
885.4
 20
0.1
 30
0
 11
885.4
 21
1200.1
 31
0
  0
ARC
  5
AF5
330
A02
100
AcDbEntity
  8
Sidkant_Inre_2_contour002
100
AcDbCircle
 10
885.5
 20
1200.1
 30
0
 40
0.1
100
AcDbArc
 50
90
 51
180
  0
LINE
  5
AF6
330
A02
100
AcDbEntity
  8
Sidkant_Inre_2_contour002
100
AcDbLine
 10
885.5
 20
1200.2
 30
0
 11
905.5
 21
1200.2
 31
0
  0
ARC
  5
AF7
330
A02
100
AcDbEntity
  8
Sidkant_Inre_2_contour002
100
AcDbCircle
 10
905.5
 20
1200.1
 30
0
 40
0.1
100
AcDbArc
 50
0
 51
90
  0
LINE
  5
AF8
330
A02
100
AcDbEntity
  8
Sidkant_Inre_2_contour002
100
AcDbLine
 10
905.6
 20
1200.1
 30
0
 11
905.6
 21
1196.2
 31
0
  0
LINE
  5
AF9
330
A02
100
AcDbEntity
  8
Sidkant_Inre_2_contour002
100
AcDbLine
 10
905.6
 20
1196.2
 30
0
 11
925.4
 21
1196.2
 31
0
  0
LINE
  5
AFA
330
A02
100
AcDbEntity
  8
Sidkant_Inre_2_contour002
100
AcDbLine
 10
925.4
 20
1196.2
 30
0
 11
925.4
 21
1200.1
 31
0
  0
ARC
  5
AFB
330
A02
100
AcDbEntity
  8
Sidkant_Inre_2_contour002
100
AcDbCircle
 10
925.5
 20
1200.1
 30
0
 40
0.1
100
AcDbArc
 50
90
 51
180
  0
LINE
  5
AFC
330
A02
100
AcDbEntity
  8
Sidkant_Inre_2_contour002
100
AcDbLine
 10
925.5
 20
1200.2
 30
0
 11
945.5
 21
1200.2
 31
0
  0
ARC
  5
AFD
330
A02
100
AcDbEntity
  8
Sidkant_Inre_2_contour002
100
AcDbCircle
 10
945.5
 20
1200.1
 30
0
 40
0.1
100
AcDbArc
 50
0
 51
90
  0
LINE
  5
AFE
330
A02
100
AcDbEntity
  8
Sidkant_Inre_2_contour002
100
AcDbLine
 10
945.6
 20
1196.2
 30
0
 11
945.6
 21
1200.1
 31
0
  0
LINE
  5
AFF
330
A02
100
AcDbEntity
  8
Sidkant_Inre_2_contour002
100
AcDbLine
 10
965.4
 20
1196.2
 30
0
 11
945.6
 21
1196.2
 31
0
  0
LINE
  5
B00
330
A02
100
AcDbEntity
  8
Sidkant_Inre_2_contour002
100
AcDbLine
 10
965.4
 20
1200.1
 30
0
 11
965.4
 21
1196.2
 31
0
  0
ARC
  5
B01
330
A02
100
AcDbEntity
  8
Sidkant_Inre_2_contour002
100
AcDbCircle
 10
965.5
 20
1200.1
 30
0
 40
0.1
100
AcDbArc
 50
90
 51
180
  0
LINE
  5
B02
330
A02
100
AcDbEntity
  8
Sidkant_Inre_2_contour002
100
AcDbLine
 10
965.5
 20
1200.2
 30
0
 11
985.5
 21
1200.2
 31
0
  0
ARC
  5
B03
330
A02
100
AcDbEntity
  8
Sidkant_Inre_2_contour002
100
AcDbCircle
 10
985.5
 20
1200.1
 30
0
 40
0.1
100
AcDbArc
 50
0
 51
90
  0
LINE
  5
B04
330
A02
100
AcDbEntity
  8
Sidkant_Inre_2_contour002
100
AcDbLine
 10
985.6
 20
1200.1
 30
0
 11
985.6
 21
0.1
 31
0
  0
ARC
  5
B05
330
A02
100
AcDbEntity
  8
Sidkant_Inre_2_contour002
100
AcDbCircle
 10
985.5
 20
0.1
 30
0
 40
0.1
100
AcDbArc
 50
-90
 51
0
  0
LINE
  5
B06
330
A02
100
AcDbEntity
  8
Sidkant_Inre_2_contour002
100
AcDbLine
 10
925.4
 20
598.2
 30
0
 11
905.6
 21
598.2
 31
0
  0
LINE
  5
B07
330
A02
100
AcDbEntity
  8
Sidkant_Inre_2_contour002
100
AcDbLine
 10
905.6
 20
598.2
 30
0
 11
905.6
 21
602
 31
0
  0
LINE
  5
B08
330
A02
100
AcDbEntity
  8
Sidkant_Inre_2_contour002
100
AcDbLine
 10
905.6
 20
602
 30
0
 11
925.4
 21
602
 31
0
  0
LINE
  5
B09
330
A02
100
AcDbEntity
  8
Sidkant_Inre_2_contour002
100
AcDbLine
 10
925.4
 20
602
 30
0
 11
925.4
 21
598.2
 31
0
  0
LINE
  5
B0A
330
A02
100
AcDbEntity
  8
Sidkant_Inre_2_contour002
100
AcDbLine
 10
965.4
 20
598.2
 30
0
 11
945.6
 21
598.2
 31
0
  0
LINE
  5
B0B
330
A02
100
AcDbEntity
  8
Sidkant_Inre_2_contour002
100
AcDbLine
 10
945.6
 20
598.2
 30
0
 11
945.6
 21
602
 31
0
  0
LINE
  5
B0C
330
A02
100
AcDbEntity
  8
Sidkant_Inre_2_contour002
100
AcDbLine
 10
945.6
 20
602
 30
0
 11
965.4
 21
602
 31
0
  0
LINE
  5
B0D
330
A02
100
AcDbEntity
  8
Sidkant_Inre_2_contour002
100
AcDbLine
 10
965.4
 20
602
 30
0
 11
965.4
 21
598.2
 31
0
  0
LINE
  5
B0E
330
A02
100
AcDbEntity
  8
Sidkant_Inre_2_contour002
100
AcDbLine
 10
925.4
 20
898.2
 30
0
 11
905.6
 21
898.2
 31
0
  0
LINE
  5
B0F
330
A02
100
AcDbEntity
  8
Sidkant_Inre_2_contour002
100
AcDbLine
 10
905.6
 20
898.2
 30
0
 11
905.6
 21
902
 31
0
  0
LINE
  5
B10
330
A02
100
AcDbEntity
  8
Sidkant_Inre_2_contour002
100
AcDbLine
 10
905.6
 20
902
 30
0
 11
925.4
 21
902
 31
0
  0
LINE
  5
B11
330
A02
100
AcDbEntity
  8
Sidkant_Inre_2_contour002
100
AcDbLine
 10
925.4
 20
902
 30
0
 11
925.4
 21
898.2
 31
0
  0
LINE
  5
B12
330
A02
100
AcDbEntity
  8
Sidkant_Inre_2_contour002
100
AcDbLine
 10
925.4
 20
298.2
 30
0
 11
905.6
 21
298.2
 31
0
  0
LINE
  5
B13
330
A02
100
AcDbEntity
  8
Sidkant_Inre_2_contour002
100
AcDbLine
 10
905.6
 20
298.2
 30
0
 11
905.6
 21
302
 31
0
  0
LINE
  5
B14
330
A02
100
AcDbEntity
  8
Sidkant_Inre_2_contour002
100
AcDbLine
 10
905.6
 20
302
 30
0
 11
925.4
 21
302
 31
0
  0
LINE
  5
B15
330
A02
100
AcDbEntity
  8
Sidkant_Inre_2_contour002
100
AcDbLine
 10
925.4
 20
302
 30
0
 11
925.4
 21
298.2
 31
0
  0
LINE
  5
B16
330
A02
100
AcDbEntity
  8
Sidkant_Inre_2_contour002
100
AcDbLine
 10
965.4
 20
898.2
 30
0
 11
945.6
 21
898.2
 31
0
  0
LINE
  5
B17
330
A02
100
AcDbEntity
  8
Sidkant_Inre_2_contour002
100
AcDbLine
 10
945.6
 20
898.2
 30
0
 11
945.6
 21
902
 31
0
  0
LINE
  5
B18
330
A02
100
AcDbEntity
  8
Sidkant_Inre_2_contour002
100
AcDbLine
 10
945.6
 20
902
 30
0
 11
965.4
 21
902
 31
0
  0
LINE
  5
B19
330
A02
100
AcDbEntity
  8
Sidkant_Inre_2_contour002
100
AcDbLine
 10
965.4
 20
902
 30
0
 11
965.4
 21
898.2
 31
0
  0
LINE
  5
B1A
330
A02
100
AcDbEntity
  8
Sidkant_Inre_2_contour002
100
AcDbLine
 10
965.4
 20
298.2
 30
0
 11
945.6
 21
298.2
 31
0
  0
LINE
  5
B1B
330
A02
100
AcDbEntity
  8
Sidkant_Inre_2_contour002
100
AcDbLine
 10
945.6
 20
298.2
 30
0
 11
945.6
 21
302
 31
0
  0
LINE
  5
B1C
330
A02
100
AcDbEntity
  8
Sidkant_Inre_2_contour002
100
AcDbLine
 10
945.6
 20
302
 30
0
 11
965.4
 21
302
 31
0
  0
LINE
  5
B1D
330
A02
100
AcDbEntity
  8
Sidkant_Inre_2_contour002
100
AcDbLine
 10
965.4
 20
302
 30
0
 11
965.4
 21
298.2
 31
0
  0
LINE
  5
B1E
330
A02
100
AcDbEntity
  8
KortSprygel_1_contour002
100
AcDbLine
 10
1095.9
 20
2.27374e-13
 30
0
 11
1075.9
 21
2.27374e-13
 31
0
  0
ARC
  5
B1F
330
A02
100
AcDbEntity
  8
KortSprygel_1_contour002
100
AcDbCircle
 10
1075.9
 20
0.1
 30
0
 40
0.1
100
AcDbArc
 50
-180
 51
-90
  0
LINE
  5
B20
330
A02
100
AcDbEntity
  8
KortSprygel_1_contour002
100
AcDbLine
 10
1075.8
 20
4
 30
0
 11
1075.8
 21
0.1
 31
0
  0
LINE
  5
B21
330
A02
100
AcDbEntity
  8
KortSprygel_1_contour002
100
AcDbLine
 10
1056
 20
4
 30
0
 11
1075.8
 21
4
 31
0
  0
LINE
  5
B22
330
A02
100
AcDbEntity
  8
KortSprygel_1_contour002
100
AcDbLine
 10
1056
 20
0.1
 30
0
 11
1056
 21
4
 31
0
  0
ARC
  5
B23
330
A02
100
AcDbEntity
  8
KortSprygel_1_contour002
100
AcDbCircle
 10
1055.9
 20
0.1
 30
0
 40
0.1
100
AcDbArc
 50
-90
 51
1.30276e-10
  0
LINE
  5
B24
330
A02
100
AcDbEntity
  8
KortSprygel_1_contour002
100
AcDbLine
 10
1055.9
 20
2.27374e-13
 30
0
 11
1035.9
 21
2.27374e-13
 31
0
  0
ARC
  5
B25
330
A02
100
AcDbEntity
  8
KortSprygel_1_contour002
100
AcDbCircle
 10
1035.9
 20
0.1
 30
0
 40
0.1
100
AcDbArc
 50
-180
 51
-90
  0
LINE
  5
B26
330
A02
100
AcDbEntity
  8
KortSprygel_1_contour002
100
AcDbLine
 10
1035.8
 20
4
 30
0
 11
1035.8
 21
0.1
 31
0
  0
LINE
  5
B27
330
A02
100
AcDbEntity
  8
KortSprygel_1_contour002
100
AcDbLine
 10
1016
 20
4
 30
0
 11
1035.8
 21
4
 31
0
  0
LINE
  5
B28
330
A02
100
AcDbEntity
  8
KortSprygel_1_contour002
100
AcDbLine
 10
1016
 20
0.1
 30
0
 11
1016
 21
4
 31
0
  0
ARC
  5
B29
330
A02
100
AcDbEntity
  8
KortSprygel_1_contour002
100
AcDbCircle
 10
1015.9
 20
0.1
 30
0
 40
0.1
100
AcDbArc
 50
-90
 51
1.30276e-10
  0
LINE
  5
B2A
330
A02
100
AcDbEntity
  8
KortSprygel_1_contour002
100
AcDbLine
 10
1015.9
 20
2.27374e-13
 30
0
 11
995.9
 21
2.27374e-13
 31
0
  0
ARC
  5
B2B
330
A02
100
AcDbEntity
  8
KortSprygel_1_contour002
100
AcDbCircle
 10
995.9
 20
0.1
 30
0
 40
0.1
100
AcDbArc
 50
180
 51
-90
  0
LINE
  5
B2C
330
A02
100
AcDbEntity
  8
KortSprygel_1_contour002
100
AcDbLine
 10
995.8
 20
0.1
 30
0
 11
995.8
 21
1200.1
 31
0
  0
ARC
  5
B2D
330
A02
100
AcDbEntity
  8
KortSprygel_1_contour002
100
AcDbCircle
 10
995.9
 20
1200.1
 30
0
 40
0.1
100
AcDbArc
 50
90
 51
180
  0
LINE
  5
B2E
330
A02
100
AcDbEntity
  8
KortSprygel_1_contour002
100
AcDbLine
 10
995.9
 20
1200.2
 30
0
 11
1015.9
 21
1200.2
 31
0
  0
ARC
  5
B2F
330
A02
100
AcDbEntity
  8
KortSprygel_1_contour002
100
AcDbCircle
 10
1015.9
 20
1200.1
 30
0
 40
0.1
100
AcDbArc
 50
2.60551e-10
 51
90
  0
LINE
  5
B30
330
A02
100
AcDbEntity
  8
KortSprygel_1_contour002
100
AcDbLine
 10
1016
 20
1196.2
 30
0
 11
1016
 21
1200.1
 31
0
  0
LINE
  5
B31
330
A02
100
AcDbEntity
  8
KortSprygel_1_contour002
100
AcDbLine
 10
1035.8
 20
1196.2
 30
0
 11
1016
 21
1196.2
 31
0
  0
LINE
  5
B32
330
A02
100
AcDbEntity
  8
KortSprygel_1_contour002
100
AcDbLine
 10
1035.8
 20
1200.1
 30
0
 11
1035.8
 21
1196.2
 31
0
  0
ARC
  5
B33
330
A02
100
AcDbEntity
  8
KortSprygel_1_contour002
100
AcDbCircle
 10
1035.9
 20
1200.1
 30
0
 40
0.1
100
AcDbArc
 50
90
 51
-180
  0
LINE
  5
B34
330
A02
100
AcDbEntity
  8
KortSprygel_1_contour002
100
AcDbLine
 10
1035.9
 20
1200.2
 30
0
 11
1055.9
 21
1200.2
 31
0
  0
ARC
  5
B35
330
A02
100
AcDbEntity
  8
KortSprygel_1_contour002
100
AcDbCircle
 10
1055.9
 20
1200.1
 30
0
 40
0.1
100
AcDbArc
 50
2.60551e-10
 51
90
  0
LINE
  5
B36
330
A02
100
AcDbEntity
  8
KortSprygel_1_contour002
100
AcDbLine
 10
1056
 20
1196.2
 30
0
 11
1056
 21
1200.1
 31
0
  0
LINE
  5
B37
330
A02
100
AcDbEntity
  8
KortSprygel_1_contour002
100
AcDbLine
 10
1075.8
 20
1196.2
 30
0
 11
1056
 21
1196.2
 31
0
  0
LINE
  5
B38
330
A02
100
AcDbEntity
  8
KortSprygel_1_contour002
100
AcDbLine
 10
1075.8
 20
1200.1
 30
0
 11
1075.8
 21
1196.2
 31
0
  0
ARC
  5
B39
330
A02
100
AcDbEntity
  8
KortSprygel_1_contour002
100
AcDbCircle
 10
1075.9
 20
1200.1
 30
0
 40
0.1
100
AcDbArc
 50
90
 51
-180
  0
LINE
  5
B3A
330
A02
100
AcDbEntity
  8
KortSprygel_1_contour002
100
AcDbLine
 10
1075.9
 20
1200.2
 30
0
 11
1095.9
 21
1200.2
 31
0
  0
ARC
  5
B3B
330
A02
100
AcDbEntity
  8
KortSprygel_1_contour002
100
AcDbCircle
 10
1095.9
 20
1200.1
 30
0
 40
0.1
100
AcDbArc
 50
0
 51
90
  0
LINE
  5
B3C
330
A02
100
AcDbEntity
  8
KortSprygel_1_contour002
100
AcDbLine
 10
1096
 20
1200.1
 30
0
 11
1096
 21
0.1
 31
0
  0
ARC
  5
B3D
330
A02
100
AcDbEntity
  8
KortSprygel_1_contour002
100
AcDbCircle
 10
1095.9
 20
0.1
 30
0
 40
0.1
100
AcDbArc
 50
-90
 51
0
  0
ARC
  5
B3E
330
A02
100
AcDbEntity
  8
KortSprygel_1_contour002
100
AcDbCircle
 10
1045.9
 20
877.6
 30
0
 40
29.9
100
AcDbArc
 50
180
 51
0
  0
LINE
  5
B3F
330
A02
100
AcDbEntity
  8
KortSprygel_1_contour002
100
AcDbLine
 10
1075.8
 20
877.6
 30
0
 11
1075.8
 21
922.6
 31
0
  0
ARC
  5
B40
330
A02
100
AcDbEntity
  8
KortSprygel_1_contour002
100
AcDbCircle
 10
1045.9
 20
922.6
 30
0
 40
29.9
100
AcDbArc
 50
0
 51
180
  0
LINE
  5
B41
330
A02
100
AcDbEntity
  8
KortSprygel_1_contour002
100
AcDbLine
 10
1016
 20
922.6
 30
0
 11
1016
 21
877.6
 31
0
  0
ARC
  5
B42
330
A02
100
AcDbEntity
  8
KortSprygel_1_contour002
100
AcDbCircle
 10
1045.9
 20
577.6
 30
0
 40
29.9
100
AcDbArc
 50
180
 51
0
  0
LINE
  5
B43
330
A02
100
AcDbEntity
  8
KortSprygel_1_contour002
100
AcDbLine
 10
1075.8
 20
577.6
 30
0
 11
1075.8
 21
622.6
 31
0
  0
ARC
  5
B44
330
A02
100
AcDbEntity
  8
KortSprygel_1_contour002
100
AcDbCircle
 10
1045.9
 20
622.6
 30
0
 40
29.9
100
AcDbArc
 50
0
 51
180
  0
LINE
  5
B45
330
A02
100
AcDbEntity
  8
KortSprygel_1_contour002
100
AcDbLine
 10
1016
 20
622.6
 30
0
 11
1016
 21
577.6
 31
0
  0
ARC
  5
B46
330
A02
100
AcDbEntity
  8
KortSprygel_1_contour002
100
AcDbCircle
 10
1045.9
 20
277.6
 30
0
 40
29.9
100
AcDbArc
 50
180
 51
0
  0
LINE
  5
B47
330
A02
100
AcDbEntity
  8
KortSprygel_1_contour002
100
AcDbLine
 10
1075.8
 20
277.6
 30
0
 11
1075.8
 21
322.6
 31
0
  0
ARC
  5
B48
330
A02
100
AcDbEntity
  8
KortSprygel_1_contour002
100
AcDbCircle
 10
1045.9
 20
322.6
 30
0
 40
29.9
100
AcDbArc
 50
0
 51
180
  0
LINE
  5
B49
330
A02
100
AcDbEntity
  8
KortSprygel_1_contour002
100
AcDbLine
 10
1016
 20
322.6
 30
0
 11
1016
 21
277.6
 31
0
  0
CIRCLE
  5
B4A
330
A02
100
AcDbEntity
  8
KortSprygel_1_contour002
100
AcDbCircle
 10
1045.9
 20
789.26
 40
24.9
  0
CIRCLE
  5
B4B
330
A02
100
AcDbEntity
  8
KortSprygel_1_contour002
100
AcDbCircle
 10
1045.9
 20
705.93
 40
24.9
  0
CIRCLE
  5
B4C
330
A02
100
AcDbEntity
  8
KortSprygel_1_contour002
100
AcDbCircle
 10
1045.9
 20
405.93
 40
24.9
  0
CIRCLE
  5
B4D
330
A02
100
AcDbEntity
  8
KortSprygel_1_contour002
100
AcDbCircle
 10
1045.9
 20
489.26
 40
24.9
  0
CIRCLE
  5
B4E
330
A02
100
AcDbEntity
  8
KortSprygel_1_contour002
100
AcDbCircle
 10
1045.9
 20
1125.1
 40
24.9
  0
CIRCLE
  5
B4F
330
A02
100
AcDbEntity
  8
KortSprygel_1_contour002
100
AcDbCircle
 10
1045.9
 20
1025.1
 40
24.9
  0
CIRCLE
  5
B50
330
A02
100
AcDbEntity
  8
KortSprygel_1_contour002
100
AcDbCircle
 10
1045.9
 20
175.1
 40
24.9
  0
CIRCLE
  5
B51
330
A02
100
AcDbEntity
  8
KortSprygel_1_contour002
100
AcDbCircle
 10
1045.9
 20
75.1
 40
24.9
  0
ENDSEC
  0
SECTION
  2
OBJECTS
  0
DICTIONARY
  5
F000
330
0
100
AcDbDictionary
  3
ACAD_GROUP
350
F001
  0
DICTIONARY
  5
F001
330
F000
100
AcDbDictionary
  0
ENDSEC
  0
EOF